<?xml version="1.0" encoding="UTF-8"?>
<svg id="Layer_2" data-name="Layer 2" xmlns="http://www.w3.org/2000/svg" viewBox="0 0 283.47 172.58">
  <defs>
    <style>
      .cls-1 {
        stroke-width: 0px;
      }
    </style>
  </defs>
  <g id="Layer_1-2" data-name="Layer 1">
    <rect class="cls-1" x="0" y="169.2" width="283.46" height="3.39"/>
    <g>
      <path class="cls-1" d="m123.2,0l.4,8.37h-1c-.19-1.47-.46-2.53-.79-3.16-.54-1.02-1.27-1.77-2.17-2.25-.9-.48-2.09-.72-3.57-.72h-5.03v27.27c0,2.19.24,3.56.71,4.11.67.74,1.69,1.11,3.08,1.11h1.24v.97h-15.14v-.97h1.26c1.51,0,2.58-.46,3.21-1.37.39-.56.58-1.84.58-3.84V2.24h-4.29c-1.67,0-2.85.12-3.55.37-.91.33-1.69.97-2.34,1.92-.65.95-1.04,2.23-1.16,3.84h-1l.42-8.37h29.14Z"/>
      <path class="cls-1" d="m133.86,16.56h16.58V6.34c0-1.83-.11-3.03-.34-3.61-.18-.44-.54-.82-1.11-1.13-.75-.42-1.55-.63-2.4-.63h-1.26v-.97h15.27v.97h-1.26c-.84,0-1.64.2-2.4.61-.56.28-.94.71-1.15,1.28s-.3,1.73-.3,3.49v23.03c0,1.81.11,3,.34,3.58.18.44.54.82,1.08,1.13.77.42,1.58.63,2.42.63h1.26v.97h-15.27v-.97h1.26c1.46,0,2.52-.43,3.19-1.29.44-.56.66-1.91.66-4.05v-10.87h-16.58v10.87c0,1.81.11,3,.34,3.58.18.44.54.82,1.11,1.13.75.42,1.55.63,2.4.63h1.29v.97h-15.29v-.97h1.26c1.47,0,2.54-.43,3.21-1.29.42-.56.63-1.91.63-4.05V6.34c0-1.83-.11-3.03-.34-3.61-.18-.44-.54-.82-1.08-1.13-.77-.42-1.58-.63-2.42-.63h-1.26v-.97h15.29v.97h-1.29c-.84,0-1.64.2-2.4.61-.54.28-.92.71-1.13,1.28s-.32,1.73-.32,3.49v10.21Z"/>
      <path class="cls-1" d="m169.74,1.95v14.11h7.84c2.04,0,3.4-.31,4.08-.92.91-.81,1.42-2.23,1.53-4.26h.97v12.42h-.97c-.25-1.74-.49-2.85-.74-3.34-.32-.61-.83-1.1-1.55-1.45-.72-.35-1.83-.53-3.32-.53h-7.84v11.77c0,1.58.07,2.54.21,2.88.14.34.39.61.74.82.35.2,1.02.3,2,.3h6.05c2.02,0,3.48-.14,4.4-.42.91-.28,1.79-.83,2.63-1.66,1.09-1.09,2.2-2.73,3.34-4.92h1.05l-3.08,8.95h-27.51v-.97h1.26c.84,0,1.64-.2,2.4-.61.56-.28.94-.7,1.15-1.26.2-.56.3-1.71.3-3.45V6.21c0-2.26-.23-3.66-.68-4.18-.63-.7-1.68-1.05-3.16-1.05h-1.26v-.97h27.51l.4,7.82h-1.03c-.37-1.88-.78-3.17-1.22-3.87-.45-.7-1.11-1.24-1.99-1.61-.7-.26-1.94-.39-3.71-.39h-9.79Z"/>
      <path class="cls-1" d="m52.91,50.3v14.03h6.5c1.49,0,2.58-.33,3.28-.99.69-.66,1.15-1.96,1.38-3.91h.97v12.08h-.97c-.02-1.39-.2-2.4-.54-3.05s-.82-1.14-1.42-1.46c-.61-.33-1.5-.49-2.7-.49h-6.5v11.21c0,1.81.11,3,.34,3.58.18.44.54.82,1.11,1.13.77.42,1.58.63,2.42.63h1.29v.97h-15.32v-.97h1.26c1.47,0,2.54-.43,3.21-1.29.42-.56.63-1.91.63-4.05v-23.06c0-1.81-.11-3-.34-3.58-.18-.44-.54-.82-1.08-1.13-.75-.42-1.56-.63-2.42-.63h-1.26v-.97h26.56l.34,7.84h-.92c-.46-1.67-.99-2.89-1.59-3.67-.61-.78-1.35-1.35-2.24-1.7-.89-.35-2.26-.53-4.12-.53h-7.87Z"/>
      <path class="cls-1" d="m105.06,84.05h-9.53l-12.08-16.69c-.9.04-1.62.05-2.18.05-.23,0-.47,0-.74-.01s-.54-.02-.82-.04v10.37c0,2.25.25,3.64.74,4.19.67.77,1.67,1.16,3,1.16h1.4v.97h-15.29v-.97h1.34c1.51,0,2.59-.49,3.24-1.47.37-.54.55-1.83.55-3.87v-23.06c0-2.25-.25-3.64-.74-4.19-.68-.77-1.7-1.16-3.05-1.16h-1.34v-.97h13c3.79,0,6.58.28,8.38.83,1.8.55,3.33,1.57,4.58,3.05,1.25,1.48,1.88,3.25,1.88,5.3,0,2.19-.72,4.1-2.15,5.71-1.43,1.61-3.65,2.75-6.65,3.42l7.37,10.24c1.68,2.35,3.13,3.91,4.34,4.69,1.21.77,2.79,1.26,4.74,1.47v.97Zm-25.35-18.35c.33,0,.62,0,.87.01.25,0,.45.01.61.01,3.4,0,5.97-.74,7.7-2.21,1.73-1.47,2.59-3.35,2.59-5.63s-.7-4.04-2.09-5.44c-1.4-1.39-3.24-2.09-5.54-2.09-1.02,0-2.4.17-4.13.5v14.85Z"/>
      <path class="cls-1" d="m128.15,49.33v-.97h12.64v.97h-1.34c-1.4,0-2.48.59-3.24,1.76-.37.54-.55,1.81-.55,3.79v14.48c0,3.58-.36,6.36-1.07,8.33-.71,1.97-2.11,3.67-4.19,5.08-2.08,1.41-4.91,2.12-8.49,2.12-3.9,0-6.85-.68-8.87-2.03-2.02-1.35-3.45-3.17-4.29-5.45-.56-1.56-.84-4.49-.84-8.79v-13.95c0-2.19-.3-3.63-.91-4.32-.61-.68-1.58-1.03-2.94-1.03h-1.34v-.97h15.43v.97h-1.37c-1.47,0-2.53.47-3.16,1.4-.44.63-.66,1.95-.66,3.95v15.56c0,1.39.13,2.97.38,4.76.25,1.79.71,3.19,1.38,4.19.67,1,1.63,1.83,2.88,2.47,1.25.65,2.79.97,4.62.97,2.33,0,4.42-.51,6.27-1.53s3.1-2.32,3.78-3.91c.68-1.59,1.01-4.28,1.01-8.07v-14.45c0-2.23-.25-3.62-.74-4.19-.68-.77-1.7-1.16-3.05-1.16h-1.34Z"/>
      <path class="cls-1" d="m171.22,47.54l.92,11.27h-.92c-.93-2.81-2.13-4.92-3.61-6.34-2.12-2.05-4.85-3.08-8.19-3.08-4.55,0-8,1.8-10.37,5.4-1.98,3.04-2.97,6.65-2.97,10.84,0,3.41.66,6.51,1.97,9.32,1.32,2.81,3.04,4.87,5.17,6.17,2.13,1.31,4.32,1.96,6.57,1.96,1.32,0,2.59-.17,3.82-.5,1.23-.33,2.41-.83,3.55-1.47v-10.32c0-1.79-.14-2.96-.41-3.51s-.69-.97-1.26-1.26c-.57-.29-1.58-.43-3.01-.43v-1h13.82v1h-.66c-1.37,0-2.31.46-2.82,1.37-.35.65-.53,1.93-.53,3.84v10.92c-2.02,1.09-4.01,1.89-5.98,2.4-1.97.51-4.15.76-6.55.76-6.9,0-12.13-2.21-15.71-6.63-2.69-3.32-4.03-7.14-4.03-11.48,0-3.14.75-6.15,2.26-9.03,1.79-3.42,4.25-6.05,7.37-7.9,2.61-1.53,5.7-2.29,9.27-2.29,1.3,0,2.48.11,3.54.32,1.06.21,2.57.68,4.51,1.39.98.37,1.64.55,1.97.55s.62-.15.86-.46.38-.91.43-1.8h.97Z"/>
      <path class="cls-1" d="m199.57,72.1h-13.82l-2.42,5.63c-.6,1.39-.9,2.42-.9,3.11,0,.54.26,1.02.78,1.44.52.41,1.64.68,3.36.8v.97h-11.24v-.97c1.49-.26,2.46-.61,2.9-1.03.9-.84,1.89-2.55,2.97-5.13l12.56-29.38h.92l12.42,29.69c1,2.39,1.91,3.93,2.72,4.65s1.95,1.11,3.41,1.2v.97h-14.08v-.97c1.42-.07,2.38-.31,2.88-.71.5-.4.75-.9.75-1.47,0-.77-.35-1.99-1.05-3.66l-2.16-5.13Zm-.74-1.95l-6.05-14.43-6.21,14.43h12.27Z"/>
      <path class="cls-1" d="m241.5,74.18l.87.18-3.05,9.69h-27.64v-.97h1.34c1.51,0,2.59-.49,3.24-1.47.37-.56.55-1.86.55-3.9v-23.03c0-2.23-.25-3.62-.74-4.19-.68-.77-1.7-1.16-3.05-1.16h-1.34v-.97h16.16v.97c-1.9-.02-3.22.16-3.99.53-.76.37-1.29.83-1.57,1.4s-.42,1.9-.42,4.03v22.43c0,1.46.14,2.46.42,3,.21.37.54.64.97.82.44.18,1.81.26,4.11.26h2.61c2.74,0,4.66-.2,5.76-.61s2.11-1.12,3.03-2.15c.91-1.03,1.82-2.65,2.74-4.86Z"/>
      <path class="cls-1" d="m24.24,123.72h-13.82l-2.42,5.63c-.6,1.39-.9,2.42-.9,3.11,0,.54.26,1.02.78,1.44.52.41,1.64.68,3.36.8v.97H0v-.97c1.49-.26,2.46-.61,2.9-1.03.9-.84,1.89-2.55,2.97-5.13l12.56-29.38h.92l12.42,29.69c1,2.39,1.91,3.93,2.72,4.65s1.95,1.11,3.41,1.2v.97h-14.08v-.97c1.42-.07,2.38-.31,2.88-.71.5-.4.75-.9.75-1.47,0-.77-.35-1.99-1.05-3.66l-2.16-5.13Zm-.74-1.95l-6.05-14.43-6.21,14.43h12.27Z"/>
      <path class="cls-1" d="m72.79,135.67h-9.53l-12.08-16.69c-.9.04-1.62.05-2.18.05-.23,0-.47,0-.74-.01s-.54-.02-.82-.04v10.37c0,2.25.25,3.64.74,4.19.67.77,1.67,1.16,3,1.16h1.4v.97h-15.29v-.97h1.34c1.51,0,2.59-.49,3.24-1.47.37-.54.55-1.83.55-3.87v-23.06c0-2.25-.25-3.64-.74-4.19-.68-.77-1.7-1.16-3.05-1.16h-1.34v-.97h13c3.79,0,6.58.28,8.38.83,1.8.55,3.33,1.57,4.58,3.05,1.25,1.48,1.88,3.25,1.88,5.3,0,2.19-.72,4.1-2.15,5.71-1.43,1.61-3.65,2.75-6.65,3.42l7.37,10.24c1.68,2.35,3.13,3.91,4.34,4.69,1.21.77,2.79,1.26,4.74,1.47v.97Zm-25.35-18.35c.33,0,.62,0,.87.01.25,0,.45.01.61.01,3.4,0,5.97-.74,7.7-2.21,1.73-1.47,2.59-3.35,2.59-5.63s-.7-4.04-2.09-5.44c-1.4-1.39-3.24-2.09-5.54-2.09-1.02,0-2.4.17-4.13.5v14.85Z"/>
      <path class="cls-1" d="m102.61,99.16l.82,12.14h-.82c-1.09-3.63-2.64-6.25-4.66-7.84s-4.44-2.4-7.27-2.4c-2.37,0-4.51.6-6.42,1.8-1.91,1.2-3.42,3.12-4.51,5.75-1.1,2.63-1.65,5.91-1.65,9.82,0,3.23.52,6.03,1.55,8.4,1.04,2.37,2.59,4.19,4.67,5.45,2.08,1.26,4.45,1.9,7.12,1.9,2.32,0,4.36-.5,6.13-1.49s3.72-2.96,5.84-5.91l.82.53c-1.79,3.18-3.88,5.5-6.27,6.98-2.39,1.47-5.22,2.21-8.5,2.21-5.91,0-10.49-2.19-13.74-6.58-2.42-3.26-3.63-7.11-3.63-11.53,0-3.56.8-6.84,2.4-9.82,1.6-2.98,3.79-5.29,6.59-6.94,2.8-1.64,5.86-2.46,9.17-2.46,2.58,0,5.12.63,7.63,1.9.74.39,1.26.58,1.58.58.47,0,.89-.17,1.24-.5.46-.47.78-1.13.97-1.97h.92Z"/>
      <path class="cls-1" d="m115.04,116.54h16.58v-10.21c0-1.83-.11-3.03-.34-3.61-.18-.44-.54-.82-1.11-1.13-.75-.42-1.55-.63-2.4-.63h-1.26v-.97h15.27v.97h-1.26c-.84,0-1.64.2-2.4.61-.56.28-.94.71-1.15,1.28s-.3,1.73-.3,3.49v23.03c0,1.81.11,3,.34,3.58.18.44.54.82,1.08,1.13.77.42,1.58.63,2.42.63h1.26v.97h-15.27v-.97h1.26c1.46,0,2.52-.43,3.19-1.29.44-.56.66-1.91.66-4.05v-10.87h-16.58v10.87c0,1.81.11,3,.34,3.58.18.44.54.82,1.11,1.13.75.42,1.55.63,2.4.63h1.29v.97h-15.29v-.97h1.26c1.47,0,2.54-.43,3.21-1.29.42-.56.63-1.91.63-4.05v-23.03c0-1.83-.11-3.03-.34-3.61-.18-.44-.54-.82-1.08-1.13-.77-.42-1.58-.63-2.42-.63h-1.26v-.97h15.29v.97h-1.29c-.84,0-1.64.2-2.4.61-.54.28-.92.71-1.13,1.28s-.32,1.73-.32,3.49v10.21Z"/>
      <path class="cls-1" d="m157.37,134.7v.97h-15.29v-.97h1.26c1.47,0,2.54-.43,3.21-1.29.42-.56.63-1.91.63-4.05v-23.06c0-1.81-.11-3-.34-3.58-.18-.44-.54-.82-1.08-1.13-.77-.42-1.58-.63-2.42-.63h-1.26v-.97h15.29v.97h-1.29c-1.46,0-2.52.43-3.19,1.29-.44.56-.66,1.91-.66,4.05v23.06c0,1.81.11,3,.34,3.58.17.44.54.82,1.11,1.13.75.42,1.55.63,2.4.63h1.29Z"/>
      <path class="cls-1" d="m187.72,99.98l.4,8.37h-1c-.19-1.47-.46-2.53-.79-3.16-.54-1.02-1.27-1.77-2.17-2.25-.9-.48-2.09-.72-3.57-.72h-5.03v27.27c0,2.19.24,3.56.71,4.11.67.74,1.69,1.11,3.08,1.11h1.24v.97h-15.14v-.97h1.26c1.51,0,2.58-.46,3.21-1.37.39-.56.58-1.84.58-3.84v-27.27h-4.29c-1.67,0-2.85.12-3.55.37-.91.33-1.69.97-2.34,1.92-.65.95-1.04,2.23-1.16,3.84h-1l.42-8.37h29.14Z"/>
      <path class="cls-1" d="m198.57,101.93v14.11h7.84c2.04,0,3.4-.31,4.08-.92.91-.81,1.42-2.23,1.53-4.26h.97v12.42h-.97c-.25-1.74-.49-2.85-.74-3.34-.32-.61-.83-1.1-1.55-1.45-.72-.35-1.83-.53-3.32-.53h-7.84v11.77c0,1.58.07,2.54.21,2.88.14.34.39.61.74.82.35.2,1.02.3,2,.3h6.05c2.02,0,3.48-.14,4.4-.42.91-.28,1.79-.83,2.63-1.66,1.09-1.09,2.2-2.73,3.34-4.92h1.05l-3.08,8.95h-27.51v-.97h1.26c.84,0,1.64-.2,2.4-.61.56-.28.94-.7,1.15-1.26.2-.56.3-1.71.3-3.45v-23.19c0-2.26-.23-3.66-.68-4.18-.63-.7-1.68-1.05-3.16-1.05h-1.26v-.97h27.51l.4,7.82h-1.03c-.37-1.88-.78-3.17-1.22-3.87-.45-.7-1.11-1.24-1.99-1.61-.7-.26-1.94-.39-3.71-.39h-9.79Z"/>
      <path class="cls-1" d="m250.53,99.16l.82,12.14h-.82c-1.09-3.63-2.64-6.25-4.66-7.84s-4.44-2.4-7.27-2.4c-2.37,0-4.51.6-6.42,1.8-1.91,1.2-3.42,3.12-4.51,5.75-1.1,2.63-1.65,5.91-1.65,9.82,0,3.23.52,6.03,1.55,8.4,1.04,2.37,2.59,4.19,4.67,5.45,2.08,1.26,4.45,1.9,7.12,1.9,2.32,0,4.36-.5,6.13-1.49s3.72-2.96,5.84-5.91l.82.53c-1.79,3.18-3.88,5.5-6.27,6.98-2.39,1.47-5.22,2.21-8.5,2.21-5.91,0-10.49-2.19-13.74-6.58-2.42-3.26-3.63-7.11-3.63-11.53,0-3.56.8-6.84,2.4-9.82,1.6-2.98,3.79-5.29,6.59-6.94,2.8-1.64,5.86-2.46,9.17-2.46,2.58,0,5.12.63,7.63,1.9.74.39,1.26.58,1.58.58.47,0,.89-.17,1.24-.5.46-.47.78-1.13.97-1.97h.92Z"/>
      <path class="cls-1" d="m283.07,99.98l.4,8.37h-1c-.19-1.47-.46-2.53-.79-3.16-.54-1.02-1.27-1.77-2.17-2.25-.9-.48-2.09-.72-3.57-.72h-5.03v27.27c0,2.19.24,3.56.71,4.11.67.74,1.69,1.11,3.08,1.11h1.24v.97h-15.14v-.97h1.26c1.51,0,2.58-.46,3.21-1.37.39-.56.58-1.84.58-3.84v-27.27h-4.29c-1.67,0-2.85.12-3.55.37-.91.33-1.69.97-2.34,1.92-.65.95-1.04,2.23-1.16,3.84h-1l.42-8.37h29.14Z"/>
    </g>
  </g>
</svg>