<svg xmlns="http://www.w3.org/2000/svg" xmlns:xlink="http://www.w3.org/1999/xlink" width="543" zoomAndPan="magnify" viewBox="0 0 407.25 112.499997" height="150" preserveAspectRatio="xMidYMid meet" version="1.0"><defs><g/><clipPath id="f55714842b"><path d="M 0.527344 0 L 405.976562 0 L 405.976562 112.003906 L 0.527344 112.003906 Z M 0.527344 0 " clip-rule="nonzero"/></clipPath><clipPath id="fb93028797"><path d="M 0.527344 0 L 155.835938 0 L 155.835938 111.980469 L 0.527344 111.980469 Z M 0.527344 0 " clip-rule="nonzero"/></clipPath></defs><g clip-path="url(#f55714842b)"><path fill="#ffffff" d="M 0.527344 0 L 405.976562 0 L 405.976562 112.003906 L 0.527344 112.003906 Z M 0.527344 0 " fill-opacity="1" fill-rule="nonzero"/></g><path fill="#ffffff" d="M 129.351562 51.582031 C 122.109375 49.921875 122.109375 49.921875 121.507812 42.972656 C 119.824219 25.445312 105.378906 12.230469 87.90625 12.230469 C 74.800781 12.230469 62.734375 19.992188 57.171875 31.992188 C 54.542969 37.710938 53.933594 39.835938 48.367188 37.617188 C 44.984375 36.269531 41.800781 36.496094 41.800781 36.496094 C 35.109375 36.496094 29.667969 41.9375 29.667969 48.632812 C 29.667969 49.742188 29.894531 50.972656 30.367188 52.386719 C 33.15625 59.25 32.699219 60.007812 26.042969 63.832031 C 19.195312 67.824219 15.105469 74.835938 15.105469 82.601562 C 15.105469 94.648438 24.90625 104.445312 36.945312 104.449219 L 124.308594 104.449219 L 124.308594 104.445312 C 139.03125 104.445312 151.003906 92.472656 151.003906 77.75 C 151.003906 64.988281 141.898438 53.980469 129.351562 51.582031 Z M 129.351562 51.582031 " fill-opacity="1" fill-rule="evenodd"/><g clip-path="url(#fb93028797)"><path fill="#38b6ff" d="M 126.300781 39.613281 C 124.175781 17.46875 105.734375 0.09375 83.035156 0.09375 C 65.46875 0.09375 50.429688 10.519531 43.496094 25.480469 C 41.410156 24.816406 39.234375 24.359375 36.929688 24.359375 C 24.871094 24.359375 15.089844 34.144531 15.089844 46.203125 C 15.089844 48.601562 15.570312 50.863281 16.285156 53.019531 C 6.902344 58.488281 0.527344 68.539062 0.527344 80.171875 C 0.527344 97.597656 14.652344 111.722656 32.078125 111.722656 L 32.078125 111.726562 L 119.4375 111.726562 L 119.4375 111.722656 C 139.546875 111.722656 155.835938 95.429688 155.835938 75.316406 C 155.835938 57.570312 143.121094 42.828125 126.300781 39.613281 M 119.441406 102.015625 L 119.441406 102.019531 L 32.078125 102.019531 C 20.035156 102.015625 10.234375 92.21875 10.234375 80.175781 C 10.234375 72.40625 14.324219 65.394531 21.175781 61.402344 C 27.828125 57.578125 28.285156 56.820312 25.496094 49.957031 C 25.023438 48.542969 24.796875 47.308594 24.796875 46.203125 C 24.796875 39.507812 30.238281 34.066406 36.929688 34.066406 C 36.929688 34.066406 40.113281 33.839844 43.496094 35.1875 C 49.066406 37.402344 49.671875 35.28125 52.300781 29.558594 C 57.863281 17.5625 69.929688 9.796875 83.035156 9.796875 C 100.507812 9.796875 114.953125 23.015625 116.636719 40.542969 C 117.238281 47.492188 117.238281 47.492188 124.480469 49.152344 C 137.027344 51.546875 146.132812 62.554688 146.132812 75.320312 C 146.132812 90.042969 134.160156 102.015625 119.441406 102.015625 " fill-opacity="1" fill-rule="evenodd"/></g><path fill="#38b6ff" d="M 24.511719 86.445312 C 24.511719 86.78125 24.449219 87.105469 24.320312 87.417969 C 24.191406 87.726562 24.007812 88.003906 23.769531 88.238281 C 23.53125 88.476562 23.253906 88.660156 22.945312 88.789062 C 22.632812 88.917969 22.308594 88.984375 21.972656 88.984375 C 21.636719 88.984375 21.3125 88.917969 21 88.789062 C 20.6875 88.660156 20.414062 88.476562 20.175781 88.238281 C 19.9375 88.003906 19.753906 87.726562 19.625 87.417969 C 19.496094 87.105469 19.429688 86.78125 19.429688 86.445312 C 19.429688 86.105469 19.496094 85.78125 19.625 85.472656 C 19.753906 85.160156 19.9375 84.886719 20.175781 84.648438 C 20.414062 84.410156 20.6875 84.226562 21 84.097656 C 21.3125 83.96875 21.636719 83.902344 21.972656 83.902344 C 22.308594 83.902344 22.632812 83.96875 22.945312 84.097656 C 23.253906 84.226562 23.53125 84.410156 23.769531 84.648438 C 24.007812 84.886719 24.191406 85.160156 24.320312 85.472656 C 24.449219 85.78125 24.511719 86.105469 24.511719 86.445312 Z M 24.511719 86.445312 " fill-opacity="1" fill-rule="nonzero"/><path fill="#38b6ff" d="M 40.058594 58.339844 C 40.050781 58.339844 40.050781 58.347656 40.039062 58.347656 C 28.65625 58.355469 19.429688 67.585938 19.429688 78.96875 C 19.429688 80.3125 20.519531 81.394531 21.855469 81.394531 C 23.195312 81.394531 24.285156 80.3125 24.285156 78.96875 L 24.285156 78.964844 C 24.285156 70.257812 31.347656 63.195312 40.054688 63.195312 L 40.058594 63.195312 C 41.394531 63.195312 42.484375 62.109375 42.484375 60.769531 C 42.484375 59.425781 41.398438 58.339844 40.058594 58.339844 " fill-opacity="1" fill-rule="evenodd"/><g fill="#38b6ff" fill-opacity="1"><g transform="translate(155.845637, 50.466959)"><g><path d="M 17.96875 -21.171875 C 18.625 -20.835938 18.953125 -20.300781 18.953125 -19.5625 C 18.953125 -19.113281 18.789062 -18.675781 18.46875 -18.25 C 18.132812 -17.800781 17.703125 -17.578125 17.171875 -17.578125 C 16.804688 -17.578125 16.445312 -17.675781 16.09375 -17.875 C 15.050781 -18.351562 13.925781 -18.59375 12.71875 -18.59375 C 11.238281 -18.59375 9.945312 -18.28125 8.84375 -17.65625 C 7.738281 -17.03125 6.890625 -16.148438 6.296875 -15.015625 C 5.703125 -13.890625 5.40625 -12.59375 5.40625 -11.125 C 5.40625 -8.625 6.078125 -6.726562 7.421875 -5.4375 C 8.765625 -4.144531 10.53125 -3.5 12.71875 -3.5 C 14.007812 -3.5 15.132812 -3.742188 16.09375 -4.234375 C 16.46875 -4.398438 16.804688 -4.484375 17.109375 -4.484375 C 17.660156 -4.484375 18.125 -4.25 18.5 -3.78125 C 18.820312 -3.382812 18.984375 -2.953125 18.984375 -2.484375 C 18.984375 -2.140625 18.894531 -1.828125 18.71875 -1.546875 C 18.550781 -1.273438 18.3125 -1.066406 18 -0.921875 C 16.34375 -0.0976562 14.582031 0.3125 12.71875 0.3125 C 10.644531 0.3125 8.738281 -0.125 7 -1 C 5.257812 -1.882812 3.867188 -3.179688 2.828125 -4.890625 C 1.785156 -6.609375 1.265625 -8.6875 1.265625 -11.125 C 1.265625 -13.289062 1.757812 -15.226562 2.75 -16.9375 C 3.738281 -18.65625 5.097656 -20 6.828125 -20.96875 C 8.566406 -21.9375 10.53125 -22.421875 12.71875 -22.421875 C 14.601562 -22.421875 16.351562 -22.003906 17.96875 -21.171875 Z M 17.96875 -21.171875 "/></g></g></g><g fill="#38b6ff" fill-opacity="1"><g transform="translate(175.778105, 50.466959)"><g><path d="M 14.65625 -3.71875 C 15.207031 -3.71875 15.664062 -3.539062 16.03125 -3.1875 C 16.40625 -2.84375 16.59375 -2.394531 16.59375 -1.84375 C 16.59375 -1.3125 16.40625 -0.867188 16.03125 -0.515625 C 15.664062 -0.171875 15.207031 0 14.65625 0 L 4.328125 0 C 3.773438 0 3.3125 -0.179688 2.9375 -0.546875 C 2.570312 -0.921875 2.390625 -1.382812 2.390625 -1.9375 L 2.390625 -20.3125 C 2.390625 -20.863281 2.578125 -21.328125 2.953125 -21.703125 C 3.335938 -22.078125 3.828125 -22.265625 4.421875 -22.265625 C 4.953125 -22.265625 5.40625 -22.078125 5.78125 -21.703125 C 6.164062 -21.328125 6.359375 -20.863281 6.359375 -20.3125 L 6.359375 -3.71875 Z M 14.65625 -3.71875 "/></g></g></g><g fill="#38b6ff" fill-opacity="1"><g transform="translate(193.644211, 50.466959)"><g><path d="M 22.859375 -11.125 C 22.859375 -9.03125 22.390625 -7.109375 21.453125 -5.359375 C 20.523438 -3.609375 19.238281 -2.222656 17.59375 -1.203125 C 15.957031 -0.191406 14.109375 0.3125 12.046875 0.3125 C 9.992188 0.3125 8.144531 -0.191406 6.5 -1.203125 C 4.851562 -2.222656 3.566406 -3.609375 2.640625 -5.359375 C 1.722656 -7.109375 1.265625 -9.03125 1.265625 -11.125 C 1.265625 -13.226562 1.722656 -15.148438 2.640625 -16.890625 C 3.566406 -18.640625 4.851562 -20.023438 6.5 -21.046875 C 8.144531 -22.066406 9.992188 -22.578125 12.046875 -22.578125 C 14.109375 -22.578125 15.957031 -22.066406 17.59375 -21.046875 C 19.238281 -20.023438 20.523438 -18.640625 21.453125 -16.890625 C 22.390625 -15.148438 22.859375 -13.226562 22.859375 -11.125 Z M 18.734375 -11.125 C 18.734375 -12.550781 18.445312 -13.835938 17.875 -14.984375 C 17.300781 -16.140625 16.503906 -17.054688 15.484375 -17.734375 C 14.460938 -18.421875 13.316406 -18.765625 12.046875 -18.765625 C 10.753906 -18.765625 9.601562 -18.425781 8.59375 -17.75 C 7.59375 -17.082031 6.8125 -16.164062 6.25 -15 C 5.6875 -13.84375 5.40625 -12.550781 5.40625 -11.125 C 5.40625 -9.707031 5.6875 -8.414062 6.25 -7.25 C 6.8125 -6.082031 7.59375 -5.164062 8.59375 -4.5 C 9.601562 -3.832031 10.753906 -3.5 12.046875 -3.5 C 13.316406 -3.5 14.460938 -3.835938 15.484375 -4.515625 C 16.503906 -5.191406 17.300781 -6.109375 17.875 -7.265625 C 18.445312 -8.421875 18.734375 -9.707031 18.734375 -11.125 Z M 18.734375 -11.125 "/></g></g></g><g fill="#38b6ff" fill-opacity="1"><g transform="translate(217.77299, 50.466959)"><g><path d="M 18.1875 -22.296875 C 18.738281 -22.296875 19.179688 -22.113281 19.515625 -21.75 C 19.859375 -21.382812 20.03125 -20.914062 20.03125 -20.34375 L 20.03125 -8.84375 C 20.03125 -7.082031 19.660156 -5.519531 18.921875 -4.15625 C 18.179688 -2.800781 17.140625 -1.742188 15.796875 -0.984375 C 14.460938 -0.222656 12.9375 0.15625 11.21875 0.15625 C 9.507812 0.15625 7.976562 -0.222656 6.625 -0.984375 C 5.28125 -1.742188 4.238281 -2.800781 3.5 -4.15625 C 2.757812 -5.519531 2.390625 -7.082031 2.390625 -8.84375 L 2.390625 -20.34375 C 2.390625 -20.894531 2.578125 -21.359375 2.953125 -21.734375 C 3.335938 -22.109375 3.828125 -22.296875 4.421875 -22.296875 C 4.929688 -22.296875 5.375 -22.109375 5.75 -21.734375 C 6.132812 -21.359375 6.328125 -20.894531 6.328125 -20.34375 L 6.328125 -8.84375 C 6.328125 -7.820312 6.546875 -6.910156 6.984375 -6.109375 C 7.429688 -5.316406 8.03125 -4.707031 8.78125 -4.28125 C 9.539062 -3.863281 10.351562 -3.65625 11.21875 -3.65625 C 12.132812 -3.65625 12.988281 -3.863281 13.78125 -4.28125 C 14.570312 -4.707031 15.207031 -5.316406 15.6875 -6.109375 C 16.164062 -6.910156 16.40625 -7.820312 16.40625 -8.84375 L 16.40625 -20.34375 C 16.40625 -20.914062 16.5625 -21.382812 16.875 -21.75 C 17.195312 -22.113281 17.632812 -22.296875 18.1875 -22.296875 Z M 18.1875 -22.296875 "/></g></g></g><g fill="#38b6ff" fill-opacity="1"><g transform="translate(240.185092, 50.466959)"><g><path d="M 11.921875 -22.265625 C 13.910156 -22.265625 15.617188 -21.769531 17.046875 -20.78125 C 18.484375 -19.789062 19.578125 -18.453125 20.328125 -16.765625 C 21.085938 -15.085938 21.46875 -13.207031 21.46875 -11.125 C 21.46875 -9.050781 21.085938 -7.171875 20.328125 -5.484375 C 19.578125 -3.796875 18.484375 -2.457031 17.046875 -1.46875 C 15.617188 -0.488281 13.910156 0 11.921875 0 L 4.328125 0 C 3.773438 0 3.3125 -0.179688 2.9375 -0.546875 C 2.570312 -0.921875 2.390625 -1.382812 2.390625 -1.9375 L 2.390625 -20.3125 C 2.390625 -20.863281 2.570312 -21.328125 2.9375 -21.703125 C 3.3125 -22.078125 3.773438 -22.265625 4.328125 -22.265625 Z M 11.609375 -3.65625 C 13.515625 -3.65625 14.941406 -4.359375 15.890625 -5.765625 C 16.847656 -7.179688 17.328125 -8.96875 17.328125 -11.125 C 17.328125 -13.289062 16.84375 -15.078125 15.875 -16.484375 C 14.914062 -17.890625 13.492188 -18.59375 11.609375 -18.59375 L 6.359375 -18.59375 L 6.359375 -3.65625 Z M 11.609375 -3.65625 "/></g></g></g><g fill="#38b6ff" fill-opacity="1"><g transform="translate(262.9151, 50.466959)"><g/></g></g><g fill="#38b6ff" fill-opacity="1"><g transform="translate(271.816363, 50.466959)"><g><path d="M 15.734375 -12.34375 C 16.859375 -11.894531 17.773438 -11.210938 18.484375 -10.296875 C 19.203125 -9.390625 19.5625 -8.210938 19.5625 -6.765625 C 19.5625 -4.242188 18.835938 -2.484375 17.390625 -1.484375 C 15.953125 -0.492188 14.234375 0 12.234375 0 L 4.328125 0 C 3.773438 0 3.3125 -0.179688 2.9375 -0.546875 C 2.570312 -0.921875 2.390625 -1.382812 2.390625 -1.9375 L 2.390625 -20.3125 C 2.390625 -20.863281 2.570312 -21.328125 2.9375 -21.703125 C 3.3125 -22.078125 3.773438 -22.265625 4.328125 -22.265625 L 12.34375 -22.265625 C 16.363281 -22.265625 18.375 -20.375 18.375 -16.59375 C 18.375 -15.644531 18.144531 -14.800781 17.6875 -14.0625 C 17.238281 -13.332031 16.585938 -12.757812 15.734375 -12.34375 Z M 14.25 -15.90625 C 14.25 -16.769531 14.03125 -17.414062 13.59375 -17.84375 C 13.15625 -18.28125 12.546875 -18.5 11.765625 -18.5 L 6.515625 -18.5 L 6.515625 -13.546875 L 11.859375 -13.546875 C 12.492188 -13.546875 13.050781 -13.753906 13.53125 -14.171875 C 14.007812 -14.597656 14.25 -15.175781 14.25 -15.90625 Z M 12.234375 -3.65625 C 13.234375 -3.65625 14.015625 -3.921875 14.578125 -4.453125 C 15.140625 -4.984375 15.421875 -5.753906 15.421875 -6.765625 C 15.421875 -8.023438 15.09375 -8.84375 14.4375 -9.21875 C 13.78125 -9.601562 12.972656 -9.796875 12.015625 -9.796875 L 6.515625 -9.796875 L 6.515625 -3.65625 Z M 12.234375 -3.65625 "/></g></g></g><g fill="#38b6ff" fill-opacity="1"><g transform="translate(292.638959, 50.466959)"><g><path d="M 6.359375 -1.9375 C 6.359375 -1.382812 6.15625 -0.921875 5.75 -0.546875 C 5.351562 -0.179688 4.890625 0 4.359375 0 C 3.785156 0 3.3125 -0.179688 2.9375 -0.546875 C 2.570312 -0.921875 2.390625 -1.382812 2.390625 -1.9375 L 2.390625 -20.3125 C 2.390625 -20.863281 2.578125 -21.328125 2.953125 -21.703125 C 3.335938 -22.078125 3.828125 -22.265625 4.421875 -22.265625 C 4.953125 -22.265625 5.40625 -22.078125 5.78125 -21.703125 C 6.164062 -21.328125 6.359375 -20.863281 6.359375 -20.3125 Z M 6.359375 -1.9375 "/></g></g></g><g fill="#38b6ff" fill-opacity="1"><g transform="translate(301.381281, 50.466959)"><g><path d="M 19.265625 -22.265625 C 19.773438 -22.265625 20.1875 -22.09375 20.5 -21.75 C 20.820312 -21.40625 20.984375 -20.984375 20.984375 -20.484375 L 20.984375 -1.9375 C 20.984375 -1.382812 20.796875 -0.921875 20.421875 -0.546875 C 20.054688 -0.179688 19.597656 0 19.046875 0 C 18.742188 0 18.453125 -0.046875 18.171875 -0.140625 C 17.890625 -0.234375 17.679688 -0.367188 17.546875 -0.546875 L 5.875 -15.359375 L 5.875 -1.78125 C 5.875 -1.269531 5.707031 -0.84375 5.375 -0.5 C 5.050781 -0.164062 4.628906 0 4.109375 0 C 3.597656 0 3.179688 -0.164062 2.859375 -0.5 C 2.546875 -0.84375 2.390625 -1.269531 2.390625 -1.78125 L 2.390625 -20.3125 C 2.390625 -20.863281 2.570312 -21.328125 2.9375 -21.703125 C 3.3125 -22.078125 3.773438 -22.265625 4.328125 -22.265625 C 4.640625 -22.265625 4.945312 -22.195312 5.25 -22.0625 C 5.5625 -21.9375 5.796875 -21.769531 5.953125 -21.5625 L 17.515625 -6.796875 L 17.515625 -20.484375 C 17.515625 -20.984375 17.675781 -21.40625 18 -21.75 C 18.332031 -22.09375 18.753906 -22.265625 19.265625 -22.265625 Z M 19.265625 -22.265625 "/></g></g></g><g fill="#38b6ff" fill-opacity="1"><g transform="translate(324.747084, 50.466959)"><g><path d="M 19.84375 -2.484375 C 19.945312 -2.203125 20 -1.945312 20 -1.71875 C 20 -1.164062 19.816406 -0.710938 19.453125 -0.359375 C 19.097656 -0.015625 18.6875 0.15625 18.21875 0.15625 C 17.832031 0.15625 17.484375 0.0390625 17.171875 -0.1875 C 16.867188 -0.425781 16.632812 -0.742188 16.46875 -1.140625 L 14.8125 -4.984375 L 5.34375 -4.984375 L 3.6875 -1.109375 C 3.539062 -0.710938 3.3125 -0.398438 3 -0.171875 C 2.695312 0.046875 2.363281 0.15625 2 0.15625 C 1.445312 0.15625 1.023438 0.0078125 0.734375 -0.28125 C 0.453125 -0.582031 0.3125 -0.988281 0.3125 -1.5 C 0.3125 -1.6875 0.34375 -1.882812 0.40625 -2.09375 L 8.328125 -21.109375 C 8.492188 -21.535156 8.75 -21.863281 9.09375 -22.09375 C 9.4375 -22.332031 9.816406 -22.429688 10.234375 -22.390625 C 10.617188 -22.390625 10.972656 -22.273438 11.296875 -22.046875 C 11.628906 -21.828125 11.867188 -21.515625 12.015625 -21.109375 Z M 6.90625 -8.65625 L 13.265625 -8.65625 L 10.046875 -16.09375 Z M 6.90625 -8.65625 "/></g></g></g><g fill="#38b6ff" fill-opacity="1"><g transform="translate(345.061039, 50.466959)"><g><path d="M 19.84375 -3.109375 C 20.113281 -2.941406 20.328125 -2.71875 20.484375 -2.4375 C 20.648438 -2.164062 20.734375 -1.882812 20.734375 -1.59375 C 20.734375 -1.207031 20.601562 -0.859375 20.34375 -0.546875 C 20.03125 -0.160156 19.546875 0.03125 18.890625 0.03125 C 18.378906 0.03125 17.910156 -0.0820312 17.484375 -0.3125 C 15.960938 -1.1875 15.203125 -2.957031 15.203125 -5.625 C 15.203125 -6.382812 14.953125 -6.988281 14.453125 -7.4375 C 13.953125 -7.882812 13.238281 -8.109375 12.3125 -8.109375 L 6.359375 -8.109375 L 6.359375 -1.9375 C 6.359375 -1.363281 6.203125 -0.894531 5.890625 -0.53125 C 5.585938 -0.175781 5.179688 0 4.671875 0 C 4.054688 0 3.519531 -0.179688 3.0625 -0.546875 C 2.613281 -0.921875 2.390625 -1.382812 2.390625 -1.9375 L 2.390625 -20.3125 C 2.390625 -20.863281 2.570312 -21.328125 2.9375 -21.703125 C 3.3125 -22.078125 3.773438 -22.265625 4.328125 -22.265625 L 13.484375 -22.265625 C 14.585938 -22.265625 15.625 -21.96875 16.59375 -21.375 C 17.570312 -20.78125 18.351562 -19.960938 18.9375 -18.921875 C 19.519531 -17.878906 19.8125 -16.710938 19.8125 -15.421875 C 19.8125 -14.359375 19.523438 -13.320312 18.953125 -12.3125 C 18.378906 -11.3125 17.632812 -10.515625 16.71875 -9.921875 C 18.0625 -8.984375 18.796875 -7.734375 18.921875 -6.171875 C 18.984375 -5.828125 19.015625 -5.5 19.015625 -5.1875 C 19.097656 -4.53125 19.179688 -4.054688 19.265625 -3.765625 C 19.347656 -3.484375 19.539062 -3.265625 19.84375 -3.109375 Z M 13.328125 -11.390625 C 13.703125 -11.390625 14.066406 -11.566406 14.421875 -11.921875 C 14.785156 -12.285156 15.082031 -12.769531 15.3125 -13.375 C 15.550781 -13.976562 15.671875 -14.628906 15.671875 -15.328125 C 15.671875 -15.921875 15.550781 -16.460938 15.3125 -16.953125 C 15.082031 -17.453125 14.785156 -17.847656 14.421875 -18.140625 C 14.066406 -18.441406 13.703125 -18.59375 13.328125 -18.59375 L 6.359375 -18.59375 L 6.359375 -11.390625 Z M 13.328125 -11.390625 "/></g></g></g><g fill="#38b6ff" fill-opacity="1"><g transform="translate(366.90091, 50.466959)"><g><path d="M 18.46875 -20.375 C 18.46875 -19.957031 18.351562 -19.566406 18.125 -19.203125 L 11.484375 -9.703125 L 11.484375 -1.9375 C 11.484375 -1.382812 11.300781 -0.921875 10.9375 -0.546875 C 10.570312 -0.179688 10.140625 0 9.640625 0 C 9.109375 0 8.65625 -0.179688 8.28125 -0.546875 C 7.914062 -0.921875 7.734375 -1.382812 7.734375 -1.9375 L 7.734375 -10.140625 L 1.109375 -18.921875 C 0.734375 -19.429688 0.546875 -19.925781 0.546875 -20.40625 C 0.546875 -20.957031 0.757812 -21.421875 1.1875 -21.796875 C 1.625 -22.171875 2.085938 -22.359375 2.578125 -22.359375 C 3.171875 -22.359375 3.691406 -22.0625 4.140625 -21.46875 L 9.734375 -13.734375 L 14.96875 -21.40625 C 15.414062 -22.039062 15.945312 -22.359375 16.5625 -22.359375 C 17.070312 -22.359375 17.515625 -22.164062 17.890625 -21.78125 C 18.273438 -21.394531 18.46875 -20.925781 18.46875 -20.375 Z M 18.46875 -20.375 "/></g></g></g><g fill="#38b6ff" fill-opacity="1"><g transform="translate(385.854025, 50.466959)"><g/></g></g><g fill="#38b6ff" fill-opacity="1"><g transform="translate(189.756812, 85.855404)"><g><path d="M 10.71875 -2.71875 C 11.125 -2.71875 11.460938 -2.585938 11.734375 -2.328125 C 12.003906 -2.078125 12.140625 -1.75 12.140625 -1.34375 C 12.140625 -0.957031 12.003906 -0.632812 11.734375 -0.375 C 11.460938 -0.125 11.125 0 10.71875 0 L 3.15625 0 C 2.757812 0 2.425781 -0.132812 2.15625 -0.40625 C 1.882812 -0.675781 1.75 -1.015625 1.75 -1.421875 L 1.75 -14.859375 C 1.75 -15.265625 1.882812 -15.601562 2.15625 -15.875 C 2.4375 -16.144531 2.796875 -16.28125 3.234375 -16.28125 C 3.617188 -16.28125 3.953125 -16.144531 4.234375 -15.875 C 4.515625 -15.601562 4.65625 -15.265625 4.65625 -14.859375 L 4.65625 -2.71875 Z M 10.71875 -2.71875 "/></g></g></g><g fill="#38b6ff" fill-opacity="1"><g transform="translate(202.82243, 85.855404)"><g><path d="M 12.671875 -6.515625 C 12.648438 -6.140625 12.5 -5.832031 12.21875 -5.59375 C 11.945312 -5.363281 11.625 -5.25 11.25 -5.25 L 3.578125 -5.25 C 3.765625 -4.332031 4.191406 -3.613281 4.859375 -3.09375 C 5.523438 -2.582031 6.273438 -2.328125 7.109375 -2.328125 C 7.742188 -2.328125 8.238281 -2.382812 8.59375 -2.5 C 8.957031 -2.613281 9.242188 -2.734375 9.453125 -2.859375 C 9.660156 -2.992188 9.800781 -3.085938 9.875 -3.140625 C 10.15625 -3.273438 10.421875 -3.34375 10.671875 -3.34375 C 10.992188 -3.34375 11.269531 -3.226562 11.5 -3 C 11.738281 -2.769531 11.859375 -2.5 11.859375 -2.1875 C 11.859375 -1.769531 11.640625 -1.390625 11.203125 -1.046875 C 10.773438 -0.691406 10.195312 -0.390625 9.46875 -0.140625 C 8.738281 0.109375 8 0.234375 7.25 0.234375 C 5.945312 0.234375 4.8125 -0.0351562 3.84375 -0.578125 C 2.875 -1.117188 2.125 -1.863281 1.59375 -2.8125 C 1.070312 -3.769531 0.8125 -4.847656 0.8125 -6.046875 C 0.8125 -7.378906 1.085938 -8.546875 1.640625 -9.546875 C 2.203125 -10.554688 2.941406 -11.328125 3.859375 -11.859375 C 4.773438 -12.398438 5.75 -12.671875 6.78125 -12.671875 C 7.8125 -12.671875 8.78125 -12.390625 9.6875 -11.828125 C 10.59375 -11.273438 11.316406 -10.523438 11.859375 -9.578125 C 12.398438 -8.628906 12.671875 -7.609375 12.671875 -6.515625 Z M 6.78125 -10.109375 C 4.988281 -10.109375 3.929688 -9.265625 3.609375 -7.578125 L 9.6875 -7.578125 L 9.6875 -7.75 C 9.632812 -8.394531 9.316406 -8.945312 8.734375 -9.40625 C 8.160156 -9.875 7.507812 -10.109375 6.78125 -10.109375 Z M 6.78125 -10.109375 "/></g></g></g><g fill="#38b6ff" fill-opacity="1"><g transform="translate(216.30652, 85.855404)"><g><path d="M 11.578125 -12.671875 C 11.984375 -12.671875 12.316406 -12.535156 12.578125 -12.265625 C 12.835938 -12.003906 12.96875 -11.664062 12.96875 -11.25 L 12.96875 -1.421875 C 12.96875 -1.015625 12.835938 -0.675781 12.578125 -0.40625 C 12.316406 -0.132812 11.984375 0 11.578125 0 C 11.171875 0 10.835938 -0.128906 10.578125 -0.390625 C 10.328125 -0.660156 10.195312 -0.992188 10.1875 -1.390625 C 9.800781 -0.941406 9.273438 -0.554688 8.609375 -0.234375 C 7.953125 0.078125 7.257812 0.234375 6.53125 0.234375 C 5.457031 0.234375 4.488281 -0.0390625 3.625 -0.59375 C 2.757812 -1.144531 2.070312 -1.90625 1.5625 -2.875 C 1.0625 -3.851562 0.8125 -4.960938 0.8125 -6.203125 C 0.8125 -7.441406 1.054688 -8.550781 1.546875 -9.53125 C 2.046875 -10.519531 2.722656 -11.289062 3.578125 -11.84375 C 4.441406 -12.394531 5.394531 -12.671875 6.4375 -12.671875 C 7.1875 -12.671875 7.882812 -12.535156 8.53125 -12.265625 C 9.1875 -11.992188 9.738281 -11.648438 10.1875 -11.234375 L 10.1875 -11.25 C 10.1875 -11.65625 10.316406 -11.992188 10.578125 -12.265625 C 10.835938 -12.535156 11.171875 -12.671875 11.578125 -12.671875 Z M 6.875 -2.328125 C 7.882812 -2.328125 8.707031 -2.691406 9.34375 -3.421875 C 9.976562 -4.160156 10.296875 -5.085938 10.296875 -6.203125 C 10.296875 -7.316406 9.976562 -8.242188 9.34375 -8.984375 C 8.707031 -9.734375 7.882812 -10.109375 6.875 -10.109375 C 5.882812 -10.109375 5.070312 -9.734375 4.4375 -8.984375 C 3.800781 -8.242188 3.484375 -7.316406 3.484375 -6.203125 C 3.484375 -5.085938 3.796875 -4.160156 4.421875 -3.421875 C 5.054688 -2.691406 5.875 -2.328125 6.875 -2.328125 Z M 6.875 -2.328125 "/></g></g></g><g fill="#38b6ff" fill-opacity="1"><g transform="translate(230.790299, 85.855404)"><g><path d="M 7.96875 -12.671875 C 8.4375 -12.671875 8.828125 -12.535156 9.140625 -12.265625 C 9.460938 -12.003906 9.625 -11.695312 9.625 -11.34375 C 9.625 -10.863281 9.5 -10.503906 9.25 -10.265625 C 9 -10.023438 8.707031 -9.90625 8.375 -9.90625 C 8.132812 -9.90625 7.867188 -9.957031 7.578125 -10.0625 C 7.535156 -10.082031 7.429688 -10.113281 7.265625 -10.15625 C 7.097656 -10.207031 6.925781 -10.234375 6.75 -10.234375 C 6.34375 -10.234375 5.953125 -10.109375 5.578125 -9.859375 C 5.203125 -9.609375 4.894531 -9.226562 4.65625 -8.71875 C 4.414062 -8.21875 4.296875 -7.617188 4.296875 -6.921875 L 4.296875 -1.421875 C 4.296875 -1.015625 4.164062 -0.675781 3.90625 -0.40625 C 3.644531 -0.132812 3.3125 0 2.90625 0 C 2.5 0 2.164062 -0.132812 1.90625 -0.40625 C 1.644531 -0.675781 1.515625 -1.015625 1.515625 -1.421875 L 1.515625 -11.015625 C 1.515625 -11.421875 1.644531 -11.757812 1.90625 -12.03125 C 2.164062 -12.300781 2.5 -12.4375 2.90625 -12.4375 C 3.3125 -12.4375 3.644531 -12.300781 3.90625 -12.03125 C 4.164062 -11.757812 4.296875 -11.421875 4.296875 -11.015625 L 4.296875 -10.71875 C 4.660156 -11.351562 5.171875 -11.835938 5.828125 -12.171875 C 6.492188 -12.503906 7.207031 -12.671875 7.96875 -12.671875 Z M 7.96875 -12.671875 "/></g></g></g><g fill="#38b6ff" fill-opacity="1"><g transform="translate(240.880116, 85.855404)"><g><path d="M 8.15625 -12.671875 C 9.738281 -12.671875 10.832031 -12.203125 11.4375 -11.265625 C 12.039062 -10.328125 12.34375 -9.03125 12.34375 -7.375 L 12.34375 -1.421875 C 12.34375 -1.015625 12.210938 -0.675781 11.953125 -0.40625 C 11.691406 -0.132812 11.359375 0 10.953125 0 C 10.546875 0 10.210938 -0.132812 9.953125 -0.40625 C 9.691406 -0.675781 9.5625 -1.015625 9.5625 -1.421875 L 9.5625 -7.375 C 9.5625 -8.226562 9.378906 -8.894531 9.015625 -9.375 C 8.660156 -9.863281 8.050781 -10.109375 7.1875 -10.109375 C 6.28125 -10.109375 5.570312 -9.847656 5.0625 -9.328125 C 4.550781 -8.816406 4.296875 -8.164062 4.296875 -7.375 L 4.296875 -1.421875 C 4.296875 -1.015625 4.164062 -0.675781 3.90625 -0.40625 C 3.644531 -0.132812 3.3125 0 2.90625 0 C 2.5 0 2.164062 -0.132812 1.90625 -0.40625 C 1.644531 -0.675781 1.515625 -1.015625 1.515625 -1.421875 L 1.515625 -11.015625 C 1.515625 -11.421875 1.644531 -11.757812 1.90625 -12.03125 C 2.164062 -12.300781 2.5 -12.4375 2.90625 -12.4375 C 3.3125 -12.4375 3.644531 -12.300781 3.90625 -12.03125 C 4.164062 -11.757812 4.296875 -11.421875 4.296875 -11.015625 L 4.296875 -10.625 C 4.710938 -11.1875 5.257812 -11.664062 5.9375 -12.0625 C 6.613281 -12.46875 7.351562 -12.671875 8.15625 -12.671875 Z M 8.15625 -12.671875 "/></g></g></g><g fill="#38b6ff" fill-opacity="1"><g transform="translate(254.736183, 85.855404)"><g/></g></g><g fill="#38b6ff" fill-opacity="1"><g transform="translate(261.245748, 85.855404)"><g><path d="M 7.953125 -12.671875 C 9.023438 -12.671875 9.992188 -12.394531 10.859375 -11.84375 C 11.722656 -11.289062 12.40625 -10.523438 12.90625 -9.546875 C 13.414062 -8.578125 13.671875 -7.472656 13.671875 -6.234375 C 13.671875 -4.992188 13.421875 -3.878906 12.921875 -2.890625 C 12.429688 -1.910156 11.753906 -1.144531 10.890625 -0.59375 C 10.035156 -0.0390625 9.085938 0.234375 8.046875 0.234375 C 7.296875 0.234375 6.59375 0.0820312 5.9375 -0.21875 C 5.28125 -0.519531 4.734375 -0.890625 4.296875 -1.328125 L 4.296875 -1.1875 C 4.296875 -0.78125 4.164062 -0.441406 3.90625 -0.171875 C 3.644531 0.0976562 3.3125 0.234375 2.90625 0.234375 C 2.5 0.234375 2.164062 0.101562 1.90625 -0.15625 C 1.644531 -0.425781 1.515625 -0.769531 1.515625 -1.1875 L 1.515625 -15.78125 C 1.515625 -16.1875 1.644531 -16.523438 1.90625 -16.796875 C 2.164062 -17.066406 2.5 -17.203125 2.90625 -17.203125 C 3.3125 -17.203125 3.644531 -17.066406 3.90625 -16.796875 C 4.164062 -16.523438 4.296875 -16.1875 4.296875 -15.78125 L 4.296875 -10.921875 C 4.671875 -11.390625 5.191406 -11.796875 5.859375 -12.140625 C 6.523438 -12.492188 7.222656 -12.671875 7.953125 -12.671875 Z M 7.609375 -2.328125 C 8.597656 -2.328125 9.410156 -2.695312 10.046875 -3.4375 C 10.679688 -4.1875 11 -5.117188 11 -6.234375 C 11 -7.347656 10.679688 -8.269531 10.046875 -9 C 9.421875 -9.738281 8.609375 -10.109375 7.609375 -10.109375 C 6.597656 -10.109375 5.773438 -9.738281 5.140625 -9 C 4.503906 -8.269531 4.1875 -7.347656 4.1875 -6.234375 C 4.1875 -5.117188 4.503906 -4.1875 5.140625 -3.4375 C 5.773438 -2.695312 6.597656 -2.328125 7.609375 -2.328125 Z M 7.609375 -2.328125 "/></g></g></g><g fill="#38b6ff" fill-opacity="1"><g transform="translate(275.729527, 85.855404)"><g><path d="M 10.734375 -12.4375 C 11.140625 -12.4375 11.472656 -12.300781 11.734375 -12.03125 C 12.003906 -11.757812 12.140625 -11.421875 12.140625 -11.015625 L 12.140625 -1.140625 C 12.140625 0.878906 11.59375 2.347656 10.5 3.265625 C 9.414062 4.191406 7.96875 4.65625 6.15625 4.65625 C 5.632812 4.65625 5.097656 4.609375 4.546875 4.515625 C 3.992188 4.429688 3.546875 4.320312 3.203125 4.1875 C 2.441406 3.863281 2.0625 3.414062 2.0625 2.84375 C 2.0625 2.726562 2.085938 2.601562 2.140625 2.46875 C 2.234375 2.125 2.390625 1.863281 2.609375 1.6875 C 2.835938 1.507812 3.082031 1.421875 3.34375 1.421875 C 3.5 1.421875 3.648438 1.441406 3.796875 1.484375 C 3.898438 1.535156 4.085938 1.613281 4.359375 1.71875 C 4.628906 1.832031 4.914062 1.921875 5.21875 1.984375 C 5.519531 2.054688 5.832031 2.09375 6.15625 2.09375 C 7.257812 2.09375 8.070312 1.851562 8.59375 1.375 C 9.113281 0.90625 9.375 0.0976562 9.375 -1.046875 L 9.375 -1.28125 C 8.5625 -0.269531 7.304688 0.234375 5.609375 0.234375 C 4.796875 0.234375 4.078125 0.046875 3.453125 -0.328125 C 2.835938 -0.710938 2.359375 -1.238281 2.015625 -1.90625 C 1.679688 -2.582031 1.515625 -3.359375 1.515625 -4.234375 L 1.515625 -11.015625 C 1.515625 -11.421875 1.644531 -11.757812 1.90625 -12.03125 C 2.164062 -12.300781 2.5 -12.4375 2.90625 -12.4375 C 3.3125 -12.4375 3.644531 -12.300781 3.90625 -12.03125 C 4.164062 -11.757812 4.296875 -11.421875 4.296875 -11.015625 L 4.296875 -5.0625 C 4.296875 -4.09375 4.507812 -3.394531 4.9375 -2.96875 C 5.363281 -2.539062 5.988281 -2.328125 6.8125 -2.328125 C 7.613281 -2.328125 8.234375 -2.5625 8.671875 -3.03125 C 9.117188 -3.507812 9.34375 -4.1875 9.34375 -5.0625 L 9.34375 -11.015625 C 9.34375 -11.421875 9.472656 -11.757812 9.734375 -12.03125 C 10.003906 -12.300781 10.335938 -12.4375 10.734375 -12.4375 Z M 10.734375 -12.4375 "/></g></g></g><g fill="#38b6ff" fill-opacity="1"><g transform="translate(289.376362, 85.855404)"><g/></g></g><g fill="#38b6ff" fill-opacity="1"><g transform="translate(295.885927, 85.855404)"><g><path d="M 8.71875 -16.28125 C 10.175781 -16.28125 11.425781 -15.914062 12.46875 -15.1875 C 13.519531 -14.46875 14.316406 -13.492188 14.859375 -12.265625 C 15.410156 -11.035156 15.6875 -9.660156 15.6875 -8.140625 C 15.6875 -6.617188 15.410156 -5.238281 14.859375 -4 C 14.316406 -2.769531 13.519531 -1.796875 12.46875 -1.078125 C 11.425781 -0.359375 10.175781 0 8.71875 0 L 3.15625 0 C 2.757812 0 2.425781 -0.132812 2.15625 -0.40625 C 1.882812 -0.675781 1.75 -1.015625 1.75 -1.421875 L 1.75 -14.859375 C 1.75 -15.265625 1.882812 -15.601562 2.15625 -15.875 C 2.425781 -16.144531 2.757812 -16.28125 3.15625 -16.28125 Z M 8.484375 -2.671875 C 9.878906 -2.671875 10.925781 -3.1875 11.625 -4.21875 C 12.320312 -5.25 12.671875 -6.554688 12.671875 -8.140625 C 12.671875 -9.722656 12.316406 -11.023438 11.609375 -12.046875 C 10.910156 -13.078125 9.867188 -13.59375 8.484375 -13.59375 L 4.65625 -13.59375 L 4.65625 -2.671875 Z M 8.484375 -2.671875 "/></g></g></g><g fill="#38b6ff" fill-opacity="1"><g transform="translate(312.508562, 85.855404)"><g><path d="M 13.46875 -6.203125 C 13.46875 -4.960938 13.1875 -3.847656 12.625 -2.859375 C 12.0625 -1.878906 11.296875 -1.117188 10.328125 -0.578125 C 9.359375 -0.0351562 8.296875 0.234375 7.140625 0.234375 C 5.960938 0.234375 4.890625 -0.0351562 3.921875 -0.578125 C 2.960938 -1.117188 2.203125 -1.878906 1.640625 -2.859375 C 1.085938 -3.847656 0.8125 -4.960938 0.8125 -6.203125 C 0.8125 -7.441406 1.085938 -8.550781 1.640625 -9.53125 C 2.203125 -10.519531 2.960938 -11.289062 3.921875 -11.84375 C 4.890625 -12.394531 5.960938 -12.671875 7.140625 -12.671875 C 8.296875 -12.671875 9.359375 -12.394531 10.328125 -11.84375 C 11.296875 -11.289062 12.0625 -10.519531 12.625 -9.53125 C 13.1875 -8.550781 13.46875 -7.441406 13.46875 -6.203125 Z M 10.671875 -6.203125 C 10.671875 -6.960938 10.507812 -7.640625 10.1875 -8.234375 C 9.875 -8.835938 9.445312 -9.300781 8.90625 -9.625 C 8.375 -9.945312 7.785156 -10.109375 7.140625 -10.109375 C 6.484375 -10.109375 5.890625 -9.945312 5.359375 -9.625 C 4.828125 -9.300781 4.398438 -8.835938 4.078125 -8.234375 C 3.765625 -7.640625 3.609375 -6.960938 3.609375 -6.203125 C 3.609375 -5.441406 3.765625 -4.765625 4.078125 -4.171875 C 4.398438 -3.585938 4.828125 -3.132812 5.359375 -2.8125 C 5.890625 -2.488281 6.484375 -2.328125 7.140625 -2.328125 C 7.785156 -2.328125 8.375 -2.488281 8.90625 -2.8125 C 9.445312 -3.132812 9.875 -3.585938 10.1875 -4.171875 C 10.507812 -4.765625 10.671875 -5.441406 10.671875 -6.203125 Z M 10.671875 -6.203125 "/></g></g></g><g fill="#38b6ff" fill-opacity="1"><g transform="translate(326.783101, 85.855404)"><g><path d="M 4.140625 -1.421875 C 4.140625 -1.015625 4.003906 -0.675781 3.734375 -0.40625 C 3.472656 -0.132812 3.144531 0 2.75 0 C 2.34375 0 2.003906 -0.132812 1.734375 -0.40625 C 1.472656 -0.675781 1.34375 -1.015625 1.34375 -1.421875 L 1.34375 -11.015625 C 1.34375 -11.421875 1.472656 -11.757812 1.734375 -12.03125 C 2.003906 -12.300781 2.34375 -12.4375 2.75 -12.4375 C 3.144531 -12.4375 3.472656 -12.300781 3.734375 -12.03125 C 4.003906 -11.757812 4.140625 -11.421875 4.140625 -11.015625 Z M 2.71875 -13.953125 C 2.195312 -13.953125 1.828125 -14.035156 1.609375 -14.203125 C 1.390625 -14.378906 1.28125 -14.679688 1.28125 -15.109375 L 1.28125 -15.546875 C 1.28125 -15.984375 1.394531 -16.285156 1.625 -16.453125 C 1.863281 -16.628906 2.238281 -16.71875 2.75 -16.71875 C 3.289062 -16.71875 3.671875 -16.628906 3.890625 -16.453125 C 4.109375 -16.285156 4.21875 -15.984375 4.21875 -15.546875 L 4.21875 -15.109375 C 4.21875 -14.660156 4.101562 -14.351562 3.875 -14.1875 C 3.644531 -14.03125 3.257812 -13.953125 2.71875 -13.953125 Z M 2.71875 -13.953125 "/></g></g></g><g fill="#38b6ff" fill-opacity="1"><g transform="translate(332.269733, 85.855404)"><g><path d="M 8.15625 -12.671875 C 9.738281 -12.671875 10.832031 -12.203125 11.4375 -11.265625 C 12.039062 -10.328125 12.34375 -9.03125 12.34375 -7.375 L 12.34375 -1.421875 C 12.34375 -1.015625 12.210938 -0.675781 11.953125 -0.40625 C 11.691406 -0.132812 11.359375 0 10.953125 0 C 10.546875 0 10.210938 -0.132812 9.953125 -0.40625 C 9.691406 -0.675781 9.5625 -1.015625 9.5625 -1.421875 L 9.5625 -7.375 C 9.5625 -8.226562 9.378906 -8.894531 9.015625 -9.375 C 8.660156 -9.863281 8.050781 -10.109375 7.1875 -10.109375 C 6.28125 -10.109375 5.570312 -9.847656 5.0625 -9.328125 C 4.550781 -8.816406 4.296875 -8.164062 4.296875 -7.375 L 4.296875 -1.421875 C 4.296875 -1.015625 4.164062 -0.675781 3.90625 -0.40625 C 3.644531 -0.132812 3.3125 0 2.90625 0 C 2.5 0 2.164062 -0.132812 1.90625 -0.40625 C 1.644531 -0.675781 1.515625 -1.015625 1.515625 -1.421875 L 1.515625 -11.015625 C 1.515625 -11.421875 1.644531 -11.757812 1.90625 -12.03125 C 2.164062 -12.300781 2.5 -12.4375 2.90625 -12.4375 C 3.3125 -12.4375 3.644531 -12.300781 3.90625 -12.03125 C 4.164062 -11.757812 4.296875 -11.421875 4.296875 -11.015625 L 4.296875 -10.625 C 4.710938 -11.1875 5.257812 -11.664062 5.9375 -12.0625 C 6.613281 -12.46875 7.351562 -12.671875 8.15625 -12.671875 Z M 8.15625 -12.671875 "/></g></g></g><g fill="#38b6ff" fill-opacity="1"><g transform="translate(346.125808, 85.855404)"><g><path d="M 11.8125 -12.671875 C 12.21875 -12.671875 12.550781 -12.535156 12.8125 -12.265625 C 13.070312 -12.003906 13.203125 -11.664062 13.203125 -11.25 L 13.203125 -0.90625 C 13.203125 0.988281 12.613281 2.390625 11.4375 3.296875 C 10.269531 4.203125 8.789062 4.65625 7 4.65625 C 6.53125 4.65625 5.890625 4.578125 5.078125 4.421875 C 4.265625 4.265625 3.6875 4.109375 3.34375 3.953125 C 2.582031 3.628906 2.203125 3.179688 2.203125 2.609375 C 2.203125 2.492188 2.226562 2.367188 2.28125 2.234375 C 2.375 1.890625 2.53125 1.628906 2.75 1.453125 C 2.976562 1.273438 3.222656 1.1875 3.484375 1.1875 C 3.640625 1.1875 3.785156 1.207031 3.921875 1.25 C 3.984375 1.269531 4.367188 1.414062 5.078125 1.6875 C 5.785156 1.957031 6.425781 2.09375 7 2.09375 C 8.144531 2.09375 9 1.863281 9.5625 1.40625 C 10.132812 0.945312 10.421875 0.300781 10.421875 -0.53125 L 10.421875 -1.65625 C 10.078125 -1.175781 9.554688 -0.738281 8.859375 -0.34375 C 8.171875 0.0390625 7.4375 0.234375 6.65625 0.234375 C 5.5625 0.234375 4.566406 -0.0390625 3.671875 -0.59375 C 2.785156 -1.144531 2.085938 -1.90625 1.578125 -2.875 C 1.066406 -3.851562 0.8125 -4.960938 0.8125 -6.203125 C 0.8125 -7.441406 1.0625 -8.550781 1.5625 -9.53125 C 2.070312 -10.519531 2.765625 -11.289062 3.640625 -11.84375 C 4.515625 -12.394531 5.488281 -12.671875 6.5625 -12.671875 C 7.351562 -12.671875 8.085938 -12.503906 8.765625 -12.171875 C 9.441406 -11.847656 9.992188 -11.457031 10.421875 -11 L 10.421875 -11.25 C 10.421875 -11.65625 10.550781 -11.992188 10.8125 -12.265625 C 11.070312 -12.535156 11.40625 -12.671875 11.8125 -12.671875 Z M 7 -2.328125 C 8.039062 -2.328125 8.890625 -2.691406 9.546875 -3.421875 C 10.203125 -4.160156 10.53125 -5.085938 10.53125 -6.203125 C 10.53125 -7.316406 10.203125 -8.242188 9.546875 -8.984375 C 8.890625 -9.734375 8.039062 -10.109375 7 -10.109375 C 5.957031 -10.109375 5.109375 -9.734375 4.453125 -8.984375 C 3.804688 -8.242188 3.484375 -7.316406 3.484375 -6.203125 C 3.484375 -5.085938 3.804688 -4.160156 4.453125 -3.421875 C 5.109375 -2.691406 5.957031 -2.328125 7 -2.328125 Z M 7 -2.328125 "/></g></g></g></svg>