<svg xmlns="http://www.w3.org/2000/svg" xmlns:xlink="http://www.w3.org/1999/xlink" width="396" zoomAndPan="magnify" viewBox="0 0 297 293.25" height="391" preserveAspectRatio="xMidYMid meet" version="1.0"><defs><g/><clipPath id="74ba3806e9"><path d="M 7.011719 0.0234375 L 283.804688 0.0234375 L 283.804688 199.726562 L 7.011719 199.726562 Z M 7.011719 0.0234375 " clip-rule="nonzero"/></clipPath></defs><path fill="#ffffff" d="M 236.753906 92.019531 C 223.839844 89.0625 223.839844 89.0625 222.765625 76.667969 C 219.765625 45.410156 194.003906 21.839844 162.84375 21.839844 C 139.46875 21.839844 117.953125 35.6875 108.03125 57.082031 C 103.339844 67.28125 102.257812 71.070312 92.332031 67.113281 C 86.296875 64.714844 80.617188 65.121094 80.617188 65.121094 C 68.683594 65.121094 58.976562 74.824219 58.976562 86.761719 C 58.976562 88.738281 59.382812 90.9375 60.226562 93.453125 C 65.207031 105.695312 64.386719 107.046875 52.519531 113.867188 C 40.304688 120.988281 33.011719 133.488281 33.011719 147.34375 C 33.011719 168.824219 50.488281 186.296875 71.960938 186.304688 L 227.761719 186.304688 L 227.761719 186.296875 C 254.015625 186.296875 275.371094 164.945312 275.371094 138.6875 C 275.371094 115.925781 259.132812 96.300781 236.753906 92.019531 Z M 236.753906 92.019531 " fill-opacity="1" fill-rule="evenodd"/><g clip-path="url(#74ba3806e9)"><path fill="#38b6ff" d="M 231.320312 70.675781 C 227.527344 31.183594 194.640625 0.195312 154.160156 0.195312 C 122.832031 0.195312 96.003906 18.789062 83.644531 45.46875 C 79.921875 44.285156 76.046875 43.476562 71.933594 43.476562 C 50.425781 43.476562 32.980469 60.921875 32.980469 82.425781 C 32.980469 86.703125 33.839844 90.742188 35.113281 94.582031 C 18.378906 104.335938 7.011719 122.261719 7.011719 143.011719 C 7.011719 174.082031 32.203125 199.273438 63.277344 199.273438 L 63.277344 199.28125 L 219.078125 199.28125 L 219.078125 199.273438 C 254.941406 199.273438 283.992188 170.21875 283.992188 134.351562 C 283.992188 102.699219 261.3125 76.40625 231.320312 70.675781 M 219.082031 181.964844 L 219.082031 181.972656 L 63.277344 181.972656 C 41.800781 181.964844 24.324219 164.488281 24.324219 143.011719 C 24.324219 129.15625 31.621094 116.652344 43.835938 109.539062 C 55.703125 102.714844 56.519531 101.363281 51.539062 89.125 C 50.699219 86.601562 50.292969 84.402344 50.292969 82.425781 C 50.292969 70.488281 59.996094 60.785156 71.933594 60.785156 C 71.933594 60.785156 77.609375 60.382812 83.644531 62.78125 C 93.574219 66.734375 94.65625 62.949219 99.347656 52.746094 C 109.265625 31.351562 130.785156 17.503906 154.15625 17.503906 C 185.320312 17.503906 211.082031 41.074219 214.082031 72.332031 C 215.152344 84.726562 215.152344 84.726562 228.070312 87.6875 C 250.445312 91.960938 266.683594 111.589844 266.683594 134.355469 C 266.6875 160.609375 245.335938 181.964844 219.082031 181.964844 " fill-opacity="1" fill-rule="evenodd"/></g><path fill="#38b6ff" d="M 49.785156 154.195312 C 49.785156 154.492188 49.757812 154.785156 49.699219 155.078125 C 49.640625 155.371094 49.554688 155.652344 49.441406 155.925781 C 49.328125 156.203125 49.1875 156.464844 49.023438 156.710938 C 48.855469 156.957031 48.667969 157.1875 48.460938 157.398438 C 48.25 157.609375 48.019531 157.796875 47.773438 157.960938 C 47.523438 158.125 47.265625 158.265625 46.988281 158.378906 C 46.714844 158.492188 46.429688 158.578125 46.140625 158.636719 C 45.847656 158.695312 45.554688 158.722656 45.257812 158.722656 C 44.957031 158.722656 44.664062 158.695312 44.371094 158.636719 C 44.082031 158.578125 43.796875 158.492188 43.523438 158.378906 C 43.246094 158.265625 42.988281 158.125 42.738281 157.960938 C 42.492188 157.796875 42.261719 157.609375 42.050781 157.398438 C 41.84375 157.1875 41.65625 156.957031 41.488281 156.710938 C 41.324219 156.464844 41.183594 156.203125 41.070312 155.925781 C 40.957031 155.652344 40.871094 155.371094 40.8125 155.078125 C 40.753906 154.785156 40.726562 154.492188 40.726562 154.195312 C 40.726562 153.898438 40.753906 153.601562 40.8125 153.308594 C 40.871094 153.019531 40.957031 152.734375 41.070312 152.460938 C 41.183594 152.1875 41.324219 151.925781 41.488281 151.675781 C 41.65625 151.429688 41.84375 151.199219 42.050781 150.992188 C 42.261719 150.78125 42.492188 150.59375 42.738281 150.425781 C 42.988281 150.261719 43.246094 150.121094 43.523438 150.007812 C 43.796875 149.894531 44.082031 149.808594 44.371094 149.75 C 44.664062 149.691406 44.957031 149.664062 45.257812 149.664062 C 45.554688 149.664062 45.847656 149.691406 46.140625 149.75 C 46.429688 149.808594 46.714844 149.894531 46.988281 150.007812 C 47.265625 150.121094 47.523438 150.261719 47.773438 150.425781 C 48.019531 150.59375 48.25 150.78125 48.460938 150.992188 C 48.667969 151.199219 48.855469 151.429688 49.023438 151.675781 C 49.1875 151.925781 49.328125 152.1875 49.441406 152.460938 C 49.554688 152.734375 49.640625 153.019531 49.699219 153.308594 C 49.757812 153.601562 49.785156 153.898438 49.785156 154.195312 Z M 49.785156 154.195312 " fill-opacity="1" fill-rule="nonzero"/><path fill="#38b6ff" d="M 77.511719 104.074219 C 77.496094 104.074219 77.496094 104.085938 77.476562 104.085938 C 57.175781 104.097656 40.722656 120.558594 40.722656 140.863281 C 40.722656 143.257812 42.664062 145.191406 45.050781 145.191406 C 47.4375 145.191406 49.378906 143.257812 49.378906 140.863281 L 49.378906 140.855469 C 49.378906 125.324219 61.972656 112.730469 77.503906 112.730469 L 77.507812 112.730469 C 79.898438 112.730469 81.835938 110.796875 81.835938 108.402344 C 81.835938 106.011719 79.898438 104.074219 77.511719 104.074219 " fill-opacity="1" fill-rule="evenodd"/><g fill="#38b6ff" fill-opacity="1"><g transform="translate(13.064888, 233.585492)"><g><path d="M 20.359375 -24 C 21.109375 -23.625 21.484375 -23.015625 21.484375 -22.171875 C 21.484375 -21.660156 21.300781 -21.164062 20.9375 -20.6875 C 20.550781 -20.1875 20.0625 -19.9375 19.46875 -19.9375 C 19.0625 -19.9375 18.648438 -20.046875 18.234375 -20.265625 C 17.054688 -20.816406 15.785156 -21.09375 14.421875 -21.09375 C 12.734375 -21.09375 11.265625 -20.734375 10.015625 -20.015625 C 8.765625 -19.304688 7.800781 -18.3125 7.125 -17.03125 C 6.457031 -15.75 6.125 -14.273438 6.125 -12.609375 C 6.125 -9.773438 6.882812 -7.625 8.40625 -6.15625 C 9.9375 -4.695312 11.941406 -3.96875 14.421875 -3.96875 C 15.890625 -3.96875 17.160156 -4.242188 18.234375 -4.796875 C 18.671875 -4.984375 19.054688 -5.078125 19.390625 -5.078125 C 20.015625 -5.078125 20.546875 -4.816406 20.984375 -4.296875 C 21.335938 -3.835938 21.515625 -3.34375 21.515625 -2.8125 C 21.515625 -2.425781 21.414062 -2.078125 21.21875 -1.765625 C 21.03125 -1.453125 20.757812 -1.210938 20.40625 -1.046875 C 18.53125 -0.109375 16.535156 0.359375 14.421875 0.359375 C 12.066406 0.359375 9.898438 -0.132812 7.921875 -1.125 C 5.953125 -2.125 4.378906 -3.597656 3.203125 -5.546875 C 2.023438 -7.492188 1.4375 -9.847656 1.4375 -12.609375 C 1.4375 -15.066406 1.992188 -17.269531 3.109375 -19.21875 C 4.234375 -21.164062 5.78125 -22.679688 7.75 -23.765625 C 9.71875 -24.859375 11.941406 -25.40625 14.421875 -25.40625 C 16.554688 -25.40625 18.535156 -24.9375 20.359375 -24 Z M 20.359375 -24 "/></g></g></g><g fill="#38b6ff" fill-opacity="1"><g transform="translate(35.667587, 233.585492)"><g><path d="M 16.625 -4.21875 C 17.25 -4.21875 17.769531 -4.019531 18.1875 -3.625 C 18.601562 -3.226562 18.8125 -2.71875 18.8125 -2.09375 C 18.8125 -1.488281 18.601562 -0.988281 18.1875 -0.59375 C 17.769531 -0.195312 17.25 0 16.625 0 L 4.90625 0 C 4.28125 0 3.753906 -0.207031 3.328125 -0.625 C 2.910156 -1.050781 2.703125 -1.578125 2.703125 -2.203125 L 2.703125 -23.03125 C 2.703125 -23.65625 2.914062 -24.175781 3.34375 -24.59375 C 3.78125 -25.019531 4.335938 -25.234375 5.015625 -25.234375 C 5.609375 -25.234375 6.117188 -25.019531 6.546875 -24.59375 C 6.984375 -24.175781 7.203125 -23.65625 7.203125 -23.03125 L 7.203125 -4.21875 Z M 16.625 -4.21875 "/></g></g></g><g fill="#38b6ff" fill-opacity="1"><g transform="translate(55.927108, 233.585492)"><g><path d="M 25.921875 -12.609375 C 25.921875 -10.234375 25.390625 -8.050781 24.328125 -6.0625 C 23.273438 -4.082031 21.816406 -2.515625 19.953125 -1.359375 C 18.085938 -0.210938 15.988281 0.359375 13.65625 0.359375 C 11.332031 0.359375 9.238281 -0.210938 7.375 -1.359375 C 5.507812 -2.515625 4.050781 -4.082031 3 -6.0625 C 1.957031 -8.050781 1.4375 -10.234375 1.4375 -12.609375 C 1.4375 -14.992188 1.957031 -17.175781 3 -19.15625 C 4.050781 -21.144531 5.507812 -22.710938 7.375 -23.859375 C 9.238281 -25.015625 11.332031 -25.59375 13.65625 -25.59375 C 15.988281 -25.59375 18.085938 -25.015625 19.953125 -23.859375 C 21.816406 -22.710938 23.273438 -21.144531 24.328125 -19.15625 C 25.390625 -17.175781 25.921875 -14.992188 25.921875 -12.609375 Z M 21.234375 -12.609375 C 21.234375 -14.222656 20.90625 -15.679688 20.25 -16.984375 C 19.601562 -18.296875 18.703125 -19.335938 17.546875 -20.109375 C 16.398438 -20.878906 15.101562 -21.265625 13.65625 -21.265625 C 12.195312 -21.265625 10.894531 -20.882812 9.75 -20.125 C 8.601562 -19.375 7.710938 -18.335938 7.078125 -17.015625 C 6.441406 -15.691406 6.125 -14.222656 6.125 -12.609375 C 6.125 -11.003906 6.441406 -9.539062 7.078125 -8.21875 C 7.710938 -6.894531 8.601562 -5.851562 9.75 -5.09375 C 10.894531 -4.34375 12.195312 -3.96875 13.65625 -3.96875 C 15.101562 -3.96875 16.398438 -4.347656 17.546875 -5.109375 C 18.703125 -5.878906 19.601562 -6.921875 20.25 -8.234375 C 20.90625 -9.546875 21.234375 -11.003906 21.234375 -12.609375 Z M 21.234375 -12.609375 "/></g></g></g><g fill="#38b6ff" fill-opacity="1"><g transform="translate(83.288273, 233.585492)"><g><path d="M 20.625 -25.265625 C 21.25 -25.265625 21.75 -25.0625 22.125 -24.65625 C 22.507812 -24.25 22.703125 -23.71875 22.703125 -23.0625 L 22.703125 -10.015625 C 22.703125 -8.023438 22.28125 -6.257812 21.4375 -4.71875 C 20.601562 -3.1875 19.425781 -1.984375 17.90625 -1.109375 C 16.394531 -0.242188 14.664062 0.1875 12.71875 0.1875 C 10.78125 0.1875 9.046875 -0.242188 7.515625 -1.109375 C 5.992188 -1.984375 4.8125 -3.1875 3.96875 -4.71875 C 3.125 -6.257812 2.703125 -8.023438 2.703125 -10.015625 L 2.703125 -23.0625 C 2.703125 -23.6875 2.914062 -24.207031 3.34375 -24.625 C 3.78125 -25.050781 4.335938 -25.265625 5.015625 -25.265625 C 5.585938 -25.265625 6.085938 -25.050781 6.515625 -24.625 C 6.953125 -24.207031 7.171875 -23.6875 7.171875 -23.0625 L 7.171875 -10.015625 C 7.171875 -8.867188 7.421875 -7.84375 7.921875 -6.9375 C 8.429688 -6.039062 9.113281 -5.347656 9.96875 -4.859375 C 10.820312 -4.378906 11.738281 -4.140625 12.71875 -4.140625 C 13.757812 -4.140625 14.726562 -4.378906 15.625 -4.859375 C 16.53125 -5.347656 17.25 -6.039062 17.78125 -6.9375 C 18.320312 -7.84375 18.59375 -8.867188 18.59375 -10.015625 L 18.59375 -23.0625 C 18.59375 -23.71875 18.773438 -24.25 19.140625 -24.65625 C 19.503906 -25.0625 20 -25.265625 20.625 -25.265625 Z M 20.625 -25.265625 "/></g></g></g><g fill="#38b6ff" fill-opacity="1"><g transform="translate(108.702788, 233.585492)"><g><path d="M 13.515625 -25.234375 C 15.773438 -25.234375 17.710938 -24.671875 19.328125 -23.546875 C 20.953125 -22.429688 22.191406 -20.921875 23.046875 -19.015625 C 23.898438 -17.109375 24.328125 -14.972656 24.328125 -12.609375 C 24.328125 -10.253906 23.898438 -8.125 23.046875 -6.21875 C 22.191406 -4.3125 20.953125 -2.796875 19.328125 -1.671875 C 17.710938 -0.554688 15.773438 0 13.515625 0 L 4.90625 0 C 4.28125 0 3.753906 -0.207031 3.328125 -0.625 C 2.910156 -1.050781 2.703125 -1.578125 2.703125 -2.203125 L 2.703125 -23.03125 C 2.703125 -23.65625 2.910156 -24.175781 3.328125 -24.59375 C 3.753906 -25.019531 4.28125 -25.234375 4.90625 -25.234375 Z M 13.15625 -4.140625 C 15.320312 -4.140625 16.941406 -4.9375 18.015625 -6.53125 C 19.097656 -8.132812 19.640625 -10.160156 19.640625 -12.609375 C 19.640625 -15.066406 19.09375 -17.09375 18 -18.6875 C 16.90625 -20.289062 15.289062 -21.09375 13.15625 -21.09375 L 7.203125 -21.09375 L 7.203125 -4.140625 Z M 13.15625 -4.140625 "/></g></g></g><g fill="#38b6ff" fill-opacity="1"><g transform="translate(134.477798, 233.585492)"><g/></g></g><g fill="#38b6ff" fill-opacity="1"><g transform="translate(144.571509, 233.585492)"><g><path d="M 17.84375 -13.984375 C 19.113281 -13.484375 20.148438 -12.710938 20.953125 -11.671875 C 21.765625 -10.640625 22.171875 -9.304688 22.171875 -7.671875 C 22.171875 -4.816406 21.351562 -2.820312 19.71875 -1.6875 C 18.082031 -0.5625 16.132812 0 13.875 0 L 4.90625 0 C 4.28125 0 3.753906 -0.207031 3.328125 -0.625 C 2.910156 -1.050781 2.703125 -1.578125 2.703125 -2.203125 L 2.703125 -23.03125 C 2.703125 -23.65625 2.910156 -24.175781 3.328125 -24.59375 C 3.753906 -25.019531 4.28125 -25.234375 4.90625 -25.234375 L 13.984375 -25.234375 C 18.546875 -25.234375 20.828125 -23.09375 20.828125 -18.8125 C 20.828125 -17.726562 20.566406 -16.769531 20.046875 -15.9375 C 19.535156 -15.113281 18.800781 -14.460938 17.84375 -13.984375 Z M 16.15625 -18.03125 C 16.15625 -19.007812 15.90625 -19.742188 15.40625 -20.234375 C 14.914062 -20.734375 14.226562 -20.984375 13.34375 -20.984375 L 7.390625 -20.984375 L 7.390625 -15.359375 L 13.453125 -15.359375 C 14.171875 -15.359375 14.800781 -15.597656 15.34375 -16.078125 C 15.882812 -16.554688 16.15625 -17.207031 16.15625 -18.03125 Z M 13.875 -4.140625 C 15.007812 -4.140625 15.894531 -4.441406 16.53125 -5.046875 C 17.164062 -5.648438 17.484375 -6.523438 17.484375 -7.671875 C 17.484375 -9.097656 17.109375 -10.023438 16.359375 -10.453125 C 15.617188 -10.890625 14.707031 -11.109375 13.625 -11.109375 L 7.390625 -11.109375 L 7.390625 -4.140625 Z M 13.875 -4.140625 "/></g></g></g><g fill="#38b6ff" fill-opacity="1"><g transform="translate(168.183583, 233.585492)"><g><path d="M 7.203125 -2.203125 C 7.203125 -1.578125 6.972656 -1.050781 6.515625 -0.625 C 6.066406 -0.207031 5.539062 0 4.9375 0 C 4.289062 0 3.753906 -0.207031 3.328125 -0.625 C 2.910156 -1.050781 2.703125 -1.578125 2.703125 -2.203125 L 2.703125 -23.03125 C 2.703125 -23.65625 2.914062 -24.175781 3.34375 -24.59375 C 3.78125 -25.019531 4.335938 -25.234375 5.015625 -25.234375 C 5.609375 -25.234375 6.117188 -25.019531 6.546875 -24.59375 C 6.984375 -24.175781 7.203125 -23.65625 7.203125 -23.03125 Z M 7.203125 -2.203125 "/></g></g></g><g fill="#38b6ff" fill-opacity="1"><g transform="translate(178.097061, 233.585492)"><g><path d="M 21.84375 -25.234375 C 22.414062 -25.234375 22.882812 -25.039062 23.25 -24.65625 C 23.613281 -24.269531 23.796875 -23.789062 23.796875 -23.21875 L 23.796875 -2.203125 C 23.796875 -1.578125 23.582031 -1.050781 23.15625 -0.625 C 22.738281 -0.207031 22.21875 0 21.59375 0 C 21.257812 0 20.925781 -0.0507812 20.59375 -0.15625 C 20.269531 -0.269531 20.035156 -0.421875 19.890625 -0.609375 L 6.671875 -17.40625 L 6.671875 -2.015625 C 6.671875 -1.441406 6.484375 -0.960938 6.109375 -0.578125 C 5.734375 -0.191406 5.25 0 4.65625 0 C 4.070312 0 3.597656 -0.191406 3.234375 -0.578125 C 2.878906 -0.960938 2.703125 -1.441406 2.703125 -2.015625 L 2.703125 -23.03125 C 2.703125 -23.65625 2.910156 -24.175781 3.328125 -24.59375 C 3.753906 -25.019531 4.28125 -25.234375 4.90625 -25.234375 C 5.257812 -25.234375 5.609375 -25.160156 5.953125 -25.015625 C 6.304688 -24.867188 6.566406 -24.675781 6.734375 -24.4375 L 19.859375 -7.71875 L 19.859375 -23.21875 C 19.859375 -23.789062 20.046875 -24.269531 20.421875 -24.65625 C 20.796875 -25.039062 21.269531 -25.234375 21.84375 -25.234375 Z M 21.84375 -25.234375 "/></g></g></g><g fill="#38b6ff" fill-opacity="1"><g transform="translate(204.59304, 233.585492)"><g><path d="M 22.5 -2.8125 C 22.613281 -2.5 22.671875 -2.210938 22.671875 -1.953125 C 22.671875 -1.328125 22.46875 -0.8125 22.0625 -0.40625 C 21.65625 -0.0078125 21.1875 0.1875 20.65625 0.1875 C 20.21875 0.1875 19.820312 0.0546875 19.46875 -0.203125 C 19.125 -0.472656 18.859375 -0.835938 18.671875 -1.296875 L 16.796875 -5.65625 L 6.0625 -5.65625 L 4.1875 -1.265625 C 4.007812 -0.804688 3.75 -0.445312 3.40625 -0.1875 C 3.0625 0.0625 2.679688 0.1875 2.265625 0.1875 C 1.640625 0.1875 1.164062 0.0195312 0.84375 -0.3125 C 0.519531 -0.65625 0.359375 -1.113281 0.359375 -1.6875 C 0.359375 -1.90625 0.394531 -2.132812 0.46875 -2.375 L 9.4375 -23.9375 C 9.632812 -24.414062 9.925781 -24.785156 10.3125 -25.046875 C 10.695312 -25.316406 11.128906 -25.425781 11.609375 -25.375 C 12.035156 -25.375 12.4375 -25.25 12.8125 -25 C 13.1875 -24.75 13.457031 -24.394531 13.625 -23.9375 Z M 7.828125 -9.8125 L 15.03125 -9.8125 L 11.390625 -18.234375 Z M 7.828125 -9.8125 "/></g></g></g><g fill="#38b6ff" fill-opacity="1"><g transform="translate(227.628332, 233.585492)"><g><path d="M 22.5 -3.53125 C 22.8125 -3.34375 23.054688 -3.09375 23.234375 -2.78125 C 23.410156 -2.46875 23.5 -2.140625 23.5 -1.796875 C 23.5 -1.367188 23.351562 -0.972656 23.0625 -0.609375 C 22.707031 -0.179688 22.15625 0.03125 21.40625 0.03125 C 20.832031 0.03125 20.304688 -0.0976562 19.828125 -0.359375 C 18.097656 -1.347656 17.234375 -3.351562 17.234375 -6.375 C 17.234375 -7.238281 16.945312 -7.921875 16.375 -8.421875 C 15.8125 -8.929688 15.003906 -9.1875 13.953125 -9.1875 L 7.203125 -9.1875 L 7.203125 -2.203125 C 7.203125 -1.546875 7.023438 -1.015625 6.671875 -0.609375 C 6.328125 -0.203125 5.867188 0 5.296875 0 C 4.597656 0 3.988281 -0.207031 3.46875 -0.625 C 2.957031 -1.050781 2.703125 -1.578125 2.703125 -2.203125 L 2.703125 -23.03125 C 2.703125 -23.65625 2.910156 -24.175781 3.328125 -24.59375 C 3.753906 -25.019531 4.28125 -25.234375 4.90625 -25.234375 L 15.28125 -25.234375 C 16.53125 -25.234375 17.707031 -24.894531 18.8125 -24.21875 C 19.914062 -23.550781 20.796875 -22.628906 21.453125 -21.453125 C 22.117188 -20.273438 22.453125 -18.953125 22.453125 -17.484375 C 22.453125 -16.285156 22.128906 -15.113281 21.484375 -13.96875 C 20.835938 -12.820312 19.992188 -11.914062 18.953125 -11.25 C 20.472656 -10.1875 21.304688 -8.769531 21.453125 -7 C 21.523438 -6.613281 21.5625 -6.238281 21.5625 -5.875 C 21.65625 -5.132812 21.75 -4.597656 21.84375 -4.265625 C 21.9375 -3.941406 22.15625 -3.695312 22.5 -3.53125 Z M 15.109375 -12.90625 C 15.535156 -12.90625 15.953125 -13.109375 16.359375 -13.515625 C 16.773438 -13.921875 17.113281 -14.46875 17.375 -15.15625 C 17.632812 -15.84375 17.765625 -16.582031 17.765625 -17.375 C 17.765625 -18.050781 17.632812 -18.671875 17.375 -19.234375 C 17.113281 -19.796875 16.773438 -20.242188 16.359375 -20.578125 C 15.953125 -20.921875 15.535156 -21.09375 15.109375 -21.09375 L 7.203125 -21.09375 L 7.203125 -12.90625 Z M 15.109375 -12.90625 "/></g></g></g><g fill="#38b6ff" fill-opacity="1"><g transform="translate(252.393958, 233.585492)"><g><path d="M 20.9375 -23.109375 C 20.9375 -22.628906 20.804688 -22.179688 20.546875 -21.765625 L 13.015625 -11 L 13.015625 -2.203125 C 13.015625 -1.578125 12.804688 -1.050781 12.390625 -0.625 C 11.984375 -0.207031 11.492188 0 10.921875 0 C 10.316406 0 9.804688 -0.207031 9.390625 -0.625 C 8.972656 -1.050781 8.765625 -1.578125 8.765625 -2.203125 L 8.765625 -11.5 L 1.265625 -21.453125 C 0.828125 -22.023438 0.609375 -22.585938 0.609375 -23.140625 C 0.609375 -23.765625 0.851562 -24.285156 1.34375 -24.703125 C 1.84375 -25.128906 2.367188 -25.34375 2.921875 -25.34375 C 3.585938 -25.34375 4.175781 -25.003906 4.6875 -24.328125 L 11.03125 -15.578125 L 16.984375 -24.265625 C 17.484375 -24.984375 18.082031 -25.34375 18.78125 -25.34375 C 19.351562 -25.34375 19.851562 -25.125 20.28125 -24.6875 C 20.71875 -24.257812 20.9375 -23.734375 20.9375 -23.109375 Z M 20.9375 -23.109375 "/></g></g></g><g fill="#38b6ff" fill-opacity="1"><g transform="translate(273.886107, 233.585492)"><g/></g></g><g fill="#38b6ff" fill-opacity="1"><g transform="translate(51.518938, 273.714713)"><g><path d="M 12.15625 -3.078125 C 12.613281 -3.078125 12.992188 -2.929688 13.296875 -2.640625 C 13.609375 -2.359375 13.765625 -1.988281 13.765625 -1.53125 C 13.765625 -1.09375 13.609375 -0.726562 13.296875 -0.4375 C 12.992188 -0.144531 12.613281 0 12.15625 0 L 3.59375 0 C 3.132812 0 2.75 -0.148438 2.4375 -0.453125 C 2.132812 -0.765625 1.984375 -1.148438 1.984375 -1.609375 L 1.984375 -16.859375 C 1.984375 -17.316406 2.140625 -17.695312 2.453125 -18 C 2.765625 -18.3125 3.171875 -18.46875 3.671875 -18.46875 C 4.109375 -18.46875 4.484375 -18.3125 4.796875 -18 C 5.117188 -17.695312 5.28125 -17.316406 5.28125 -16.859375 L 5.28125 -3.078125 Z M 12.15625 -3.078125 "/></g></g></g><g fill="#38b6ff" fill-opacity="1"><g transform="translate(66.334877, 273.714713)"><g><path d="M 14.375 -7.390625 C 14.351562 -6.960938 14.1875 -6.613281 13.875 -6.34375 C 13.5625 -6.082031 13.191406 -5.953125 12.765625 -5.953125 L 4.0625 -5.953125 C 4.269531 -4.921875 4.75 -4.109375 5.5 -3.515625 C 6.257812 -2.929688 7.117188 -2.640625 8.078125 -2.640625 C 8.796875 -2.640625 9.351562 -2.703125 9.75 -2.828125 C 10.15625 -2.960938 10.476562 -3.101562 10.71875 -3.25 C 10.957031 -3.40625 11.117188 -3.507812 11.203125 -3.5625 C 11.523438 -3.71875 11.828125 -3.796875 12.109375 -3.796875 C 12.472656 -3.796875 12.785156 -3.660156 13.046875 -3.390625 C 13.316406 -3.128906 13.453125 -2.828125 13.453125 -2.484375 C 13.453125 -2.003906 13.207031 -1.570312 12.71875 -1.1875 C 12.21875 -0.78125 11.554688 -0.4375 10.734375 -0.15625 C 9.910156 0.125 9.078125 0.265625 8.234375 0.265625 C 6.753906 0.265625 5.460938 -0.0390625 4.359375 -0.65625 C 3.265625 -1.269531 2.414062 -2.117188 1.8125 -3.203125 C 1.21875 -4.285156 0.921875 -5.503906 0.921875 -6.859375 C 0.921875 -8.367188 1.238281 -9.691406 1.875 -10.828125 C 2.507812 -11.972656 3.34375 -12.847656 4.375 -13.453125 C 5.414062 -14.066406 6.523438 -14.375 7.703125 -14.375 C 8.859375 -14.375 9.953125 -14.054688 10.984375 -13.421875 C 12.015625 -12.785156 12.835938 -11.929688 13.453125 -10.859375 C 14.066406 -9.785156 14.375 -8.628906 14.375 -7.390625 Z M 7.703125 -11.46875 C 5.660156 -11.46875 4.457031 -10.507812 4.09375 -8.59375 L 11 -8.59375 L 11 -8.78125 C 10.925781 -9.519531 10.5625 -10.148438 9.90625 -10.671875 C 9.257812 -11.203125 8.523438 -11.46875 7.703125 -11.46875 Z M 7.703125 -11.46875 "/></g></g></g><g fill="#38b6ff" fill-opacity="1"><g transform="translate(81.625349, 273.714713)"><g><path d="M 13.140625 -14.375 C 13.597656 -14.375 13.972656 -14.222656 14.265625 -13.921875 C 14.566406 -13.628906 14.71875 -13.242188 14.71875 -12.765625 L 14.71875 -1.609375 C 14.71875 -1.148438 14.566406 -0.765625 14.265625 -0.453125 C 13.972656 -0.148438 13.597656 0 13.140625 0 C 12.679688 0 12.304688 -0.144531 12.015625 -0.4375 C 11.722656 -0.738281 11.566406 -1.117188 11.546875 -1.578125 C 11.109375 -1.066406 10.515625 -0.628906 9.765625 -0.265625 C 9.023438 0.0859375 8.238281 0.265625 7.40625 0.265625 C 6.195312 0.265625 5.097656 -0.046875 4.109375 -0.671875 C 3.128906 -1.296875 2.351562 -2.160156 1.78125 -3.265625 C 1.207031 -4.378906 0.921875 -5.640625 0.921875 -7.046875 C 0.921875 -8.453125 1.203125 -9.710938 1.765625 -10.828125 C 2.328125 -11.941406 3.09375 -12.8125 4.0625 -13.4375 C 5.039062 -14.0625 6.125 -14.375 7.3125 -14.375 C 8.15625 -14.375 8.941406 -14.21875 9.671875 -13.90625 C 10.410156 -13.601562 11.035156 -13.210938 11.546875 -12.734375 L 11.546875 -12.765625 C 11.546875 -13.222656 11.695312 -13.601562 12 -13.90625 C 12.300781 -14.21875 12.679688 -14.375 13.140625 -14.375 Z M 7.8125 -2.640625 C 8.945312 -2.640625 9.875 -3.054688 10.59375 -3.890625 C 11.320312 -4.722656 11.6875 -5.773438 11.6875 -7.046875 C 11.6875 -8.304688 11.320312 -9.359375 10.59375 -10.203125 C 9.875 -11.046875 8.945312 -11.46875 7.8125 -11.46875 C 6.6875 -11.46875 5.757812 -11.046875 5.03125 -10.203125 C 4.3125 -9.359375 3.953125 -8.304688 3.953125 -7.046875 C 3.953125 -5.773438 4.304688 -4.722656 5.015625 -3.890625 C 5.734375 -3.054688 6.664062 -2.640625 7.8125 -2.640625 Z M 7.8125 -2.640625 "/></g></g></g><g fill="#38b6ff" fill-opacity="1"><g transform="translate(98.049432, 273.714713)"><g><path d="M 9.046875 -14.375 C 9.578125 -14.375 10.019531 -14.222656 10.375 -13.921875 C 10.738281 -13.628906 10.921875 -13.28125 10.921875 -12.875 C 10.921875 -12.320312 10.78125 -11.910156 10.5 -11.640625 C 10.21875 -11.367188 9.882812 -11.234375 9.5 -11.234375 C 9.226562 -11.234375 8.925781 -11.296875 8.59375 -11.421875 C 8.539062 -11.441406 8.421875 -11.476562 8.234375 -11.53125 C 8.054688 -11.582031 7.863281 -11.609375 7.65625 -11.609375 C 7.195312 -11.609375 6.753906 -11.46875 6.328125 -11.1875 C 5.910156 -10.90625 5.5625 -10.476562 5.28125 -9.90625 C 5.007812 -9.332031 4.875 -8.648438 4.875 -7.859375 L 4.875 -1.609375 C 4.875 -1.148438 4.722656 -0.765625 4.421875 -0.453125 C 4.128906 -0.148438 3.753906 0 3.296875 0 C 2.835938 0 2.457031 -0.148438 2.15625 -0.453125 C 1.863281 -0.765625 1.71875 -1.148438 1.71875 -1.609375 L 1.71875 -12.5 C 1.71875 -12.957031 1.863281 -13.335938 2.15625 -13.640625 C 2.457031 -13.953125 2.835938 -14.109375 3.296875 -14.109375 C 3.753906 -14.109375 4.128906 -13.953125 4.421875 -13.640625 C 4.722656 -13.335938 4.875 -12.957031 4.875 -12.5 L 4.875 -12.15625 C 5.28125 -12.875 5.859375 -13.421875 6.609375 -13.796875 C 7.367188 -14.179688 8.179688 -14.375 9.046875 -14.375 Z M 9.046875 -14.375 "/></g></g></g><g fill="#38b6ff" fill-opacity="1"><g transform="translate(109.490921, 273.714713)"><g><path d="M 9.25 -14.375 C 11.050781 -14.375 12.289062 -13.84375 12.96875 -12.78125 C 13.65625 -11.71875 14 -10.242188 14 -8.359375 L 14 -1.609375 C 14 -1.148438 13.847656 -0.765625 13.546875 -0.453125 C 13.253906 -0.148438 12.878906 0 12.421875 0 C 11.960938 0 11.582031 -0.148438 11.28125 -0.453125 C 10.988281 -0.765625 10.84375 -1.148438 10.84375 -1.609375 L 10.84375 -8.359375 C 10.84375 -9.328125 10.640625 -10.085938 10.234375 -10.640625 C 9.828125 -11.191406 9.132812 -11.46875 8.15625 -11.46875 C 7.132812 -11.46875 6.332031 -11.171875 5.75 -10.578125 C 5.164062 -9.992188 4.875 -9.253906 4.875 -8.359375 L 4.875 -1.609375 C 4.875 -1.148438 4.722656 -0.765625 4.421875 -0.453125 C 4.128906 -0.148438 3.753906 0 3.296875 0 C 2.835938 0 2.457031 -0.148438 2.15625 -0.453125 C 1.863281 -0.765625 1.71875 -1.148438 1.71875 -1.609375 L 1.71875 -12.5 C 1.71875 -12.957031 1.863281 -13.335938 2.15625 -13.640625 C 2.457031 -13.953125 2.835938 -14.109375 3.296875 -14.109375 C 3.753906 -14.109375 4.128906 -13.953125 4.421875 -13.640625 C 4.722656 -13.335938 4.875 -12.957031 4.875 -12.5 L 4.875 -12.046875 C 5.351562 -12.679688 5.972656 -13.226562 6.734375 -13.6875 C 7.503906 -14.144531 8.34375 -14.375 9.25 -14.375 Z M 9.25 -14.375 "/></g></g></g><g fill="#38b6ff" fill-opacity="1"><g transform="translate(125.203202, 273.714713)"><g/></g></g><g fill="#38b6ff" fill-opacity="1"><g transform="translate(132.584814, 273.714713)"><g><path d="M 9.015625 -14.375 C 10.234375 -14.375 11.332031 -14.0625 12.3125 -13.4375 C 13.300781 -12.8125 14.082031 -11.941406 14.65625 -10.828125 C 15.226562 -9.722656 15.515625 -8.46875 15.515625 -7.0625 C 15.515625 -5.65625 15.234375 -4.394531 14.671875 -3.28125 C 14.109375 -2.164062 13.335938 -1.296875 12.359375 -0.671875 C 11.378906 -0.046875 10.300781 0.265625 9.125 0.265625 C 8.28125 0.265625 7.484375 0.09375 6.734375 -0.25 C 5.992188 -0.59375 5.375 -1.007812 4.875 -1.5 L 4.875 -1.34375 C 4.875 -0.882812 4.722656 -0.5 4.421875 -0.1875 C 4.128906 0.113281 3.753906 0.265625 3.296875 0.265625 C 2.835938 0.265625 2.457031 0.113281 2.15625 -0.1875 C 1.863281 -0.488281 1.71875 -0.875 1.71875 -1.34375 L 1.71875 -17.90625 C 1.71875 -18.363281 1.863281 -18.742188 2.15625 -19.046875 C 2.457031 -19.359375 2.835938 -19.515625 3.296875 -19.515625 C 3.753906 -19.515625 4.128906 -19.359375 4.421875 -19.046875 C 4.722656 -18.742188 4.875 -18.363281 4.875 -17.90625 L 4.875 -12.390625 C 5.300781 -12.921875 5.890625 -13.382812 6.640625 -13.78125 C 7.398438 -14.175781 8.191406 -14.375 9.015625 -14.375 Z M 8.625 -2.640625 C 9.75 -2.640625 10.671875 -3.0625 11.390625 -3.90625 C 12.109375 -4.75 12.46875 -5.800781 12.46875 -7.0625 C 12.46875 -8.332031 12.113281 -9.382812 11.40625 -10.21875 C 10.695312 -11.050781 9.769531 -11.46875 8.625 -11.46875 C 7.476562 -11.46875 6.546875 -11.050781 5.828125 -10.21875 C 5.109375 -9.382812 4.75 -8.332031 4.75 -7.0625 C 4.75 -5.800781 5.109375 -4.75 5.828125 -3.90625 C 6.546875 -3.0625 7.476562 -2.640625 8.625 -2.640625 Z M 8.625 -2.640625 "/></g></g></g><g fill="#38b6ff" fill-opacity="1"><g transform="translate(149.008897, 273.714713)"><g><path d="M 12.1875 -14.109375 C 12.644531 -14.109375 13.019531 -13.953125 13.3125 -13.640625 C 13.613281 -13.335938 13.765625 -12.957031 13.765625 -12.5 L 13.765625 -1.296875 C 13.765625 0.992188 13.148438 2.660156 11.921875 3.703125 C 10.691406 4.753906 9.046875 5.28125 6.984375 5.28125 C 6.390625 5.28125 5.78125 5.226562 5.15625 5.125 C 4.53125 5.03125 4.023438 4.90625 3.640625 4.75 C 2.773438 4.375 2.34375 3.863281 2.34375 3.21875 C 2.34375 3.09375 2.367188 2.953125 2.421875 2.796875 C 2.523438 2.410156 2.703125 2.113281 2.953125 1.90625 C 3.210938 1.707031 3.492188 1.609375 3.796875 1.609375 C 3.972656 1.609375 4.140625 1.632812 4.296875 1.6875 C 4.421875 1.738281 4.632812 1.828125 4.9375 1.953125 C 5.25 2.078125 5.578125 2.175781 5.921875 2.25 C 6.265625 2.332031 6.617188 2.375 6.984375 2.375 C 8.234375 2.375 9.148438 2.101562 9.734375 1.5625 C 10.328125 1.03125 10.625 0.113281 10.625 -1.1875 L 10.625 -1.453125 C 9.707031 -0.304688 8.285156 0.265625 6.359375 0.265625 C 5.441406 0.265625 4.628906 0.0507812 3.921875 -0.375 C 3.222656 -0.8125 2.679688 -1.410156 2.296875 -2.171875 C 1.910156 -2.941406 1.71875 -3.816406 1.71875 -4.796875 L 1.71875 -12.5 C 1.71875 -12.957031 1.863281 -13.335938 2.15625 -13.640625 C 2.457031 -13.953125 2.835938 -14.109375 3.296875 -14.109375 C 3.753906 -14.109375 4.128906 -13.953125 4.421875 -13.640625 C 4.722656 -13.335938 4.875 -12.957031 4.875 -12.5 L 4.875 -5.75 C 4.875 -4.644531 5.113281 -3.847656 5.59375 -3.359375 C 6.082031 -2.878906 6.796875 -2.640625 7.734375 -2.640625 C 8.640625 -2.640625 9.34375 -2.90625 9.84375 -3.4375 C 10.351562 -3.976562 10.609375 -4.75 10.609375 -5.75 L 10.609375 -12.5 C 10.609375 -12.957031 10.753906 -13.335938 11.046875 -13.640625 C 11.347656 -13.953125 11.726562 -14.109375 12.1875 -14.109375 Z M 12.1875 -14.109375 "/></g></g></g><g fill="#38b6ff" fill-opacity="1"><g transform="translate(164.483916, 273.714713)"><g/></g></g><g fill="#38b6ff" fill-opacity="1"><g transform="translate(171.865528, 273.714713)"><g><path d="M 9.890625 -18.46875 C 11.546875 -18.46875 12.96875 -18.054688 14.15625 -17.234375 C 15.34375 -16.421875 16.242188 -15.3125 16.859375 -13.90625 C 17.484375 -12.507812 17.796875 -10.953125 17.796875 -9.234375 C 17.796875 -7.503906 17.484375 -5.941406 16.859375 -4.546875 C 16.242188 -3.148438 15.34375 -2.039062 14.15625 -1.21875 C 12.96875 -0.40625 11.546875 0 9.890625 0 L 3.59375 0 C 3.132812 0 2.75 -0.148438 2.4375 -0.453125 C 2.132812 -0.765625 1.984375 -1.148438 1.984375 -1.609375 L 1.984375 -16.859375 C 1.984375 -17.316406 2.132812 -17.695312 2.4375 -18 C 2.75 -18.3125 3.132812 -18.46875 3.59375 -18.46875 Z M 9.625 -3.03125 C 11.207031 -3.03125 12.394531 -3.613281 13.1875 -4.78125 C 13.976562 -5.957031 14.375 -7.441406 14.375 -9.234375 C 14.375 -11.023438 13.972656 -12.503906 13.171875 -13.671875 C 12.367188 -14.835938 11.1875 -15.421875 9.625 -15.421875 L 5.28125 -15.421875 L 5.28125 -3.03125 Z M 9.625 -3.03125 "/></g></g></g><g fill="#38b6ff" fill-opacity="1"><g transform="translate(190.714996, 273.714713)"><g><path d="M 15.265625 -7.046875 C 15.265625 -5.640625 14.945312 -4.375 14.3125 -3.25 C 13.6875 -2.132812 12.820312 -1.269531 11.71875 -0.65625 C 10.625 -0.0390625 9.414062 0.265625 8.09375 0.265625 C 6.757812 0.265625 5.546875 -0.0390625 4.453125 -0.65625 C 3.367188 -1.269531 2.507812 -2.132812 1.875 -3.25 C 1.238281 -4.375 0.921875 -5.640625 0.921875 -7.046875 C 0.921875 -8.453125 1.238281 -9.710938 1.875 -10.828125 C 2.507812 -11.941406 3.367188 -12.8125 4.453125 -13.4375 C 5.546875 -14.0625 6.757812 -14.375 8.09375 -14.375 C 9.414062 -14.375 10.625 -14.0625 11.71875 -13.4375 C 12.820312 -12.8125 13.6875 -11.941406 14.3125 -10.828125 C 14.945312 -9.710938 15.265625 -8.453125 15.265625 -7.046875 Z M 12.109375 -7.046875 C 12.109375 -7.898438 11.925781 -8.664062 11.5625 -9.34375 C 11.207031 -10.019531 10.722656 -10.539062 10.109375 -10.90625 C 9.503906 -11.28125 8.832031 -11.46875 8.09375 -11.46875 C 7.351562 -11.46875 6.679688 -11.28125 6.078125 -10.90625 C 5.472656 -10.539062 4.988281 -10.019531 4.625 -9.34375 C 4.269531 -8.664062 4.09375 -7.898438 4.09375 -7.046875 C 4.09375 -6.179688 4.269531 -5.414062 4.625 -4.75 C 4.988281 -4.082031 5.472656 -3.5625 6.078125 -3.1875 C 6.679688 -2.820312 7.351562 -2.640625 8.09375 -2.640625 C 8.832031 -2.640625 9.503906 -2.820312 10.109375 -3.1875 C 10.722656 -3.5625 11.207031 -4.082031 11.5625 -4.75 C 11.925781 -5.414062 12.109375 -6.179688 12.109375 -7.046875 Z M 12.109375 -7.046875 "/></g></g></g><g fill="#38b6ff" fill-opacity="1"><g transform="translate(206.901809, 273.714713)"><g><path d="M 4.6875 -1.609375 C 4.6875 -1.148438 4.535156 -0.765625 4.234375 -0.453125 C 3.941406 -0.148438 3.566406 0 3.109375 0 C 2.648438 0 2.269531 -0.148438 1.96875 -0.453125 C 1.675781 -0.765625 1.53125 -1.148438 1.53125 -1.609375 L 1.53125 -12.5 C 1.53125 -12.957031 1.675781 -13.335938 1.96875 -13.640625 C 2.269531 -13.953125 2.648438 -14.109375 3.109375 -14.109375 C 3.566406 -14.109375 3.941406 -13.953125 4.234375 -13.640625 C 4.535156 -13.335938 4.6875 -12.957031 4.6875 -12.5 Z M 3.09375 -15.828125 C 2.488281 -15.828125 2.0625 -15.921875 1.8125 -16.109375 C 1.570312 -16.304688 1.453125 -16.648438 1.453125 -17.140625 L 1.453125 -17.640625 C 1.453125 -18.140625 1.582031 -18.484375 1.84375 -18.671875 C 2.113281 -18.867188 2.535156 -18.96875 3.109375 -18.96875 C 3.722656 -18.96875 4.15625 -18.867188 4.40625 -18.671875 C 4.65625 -18.484375 4.78125 -18.140625 4.78125 -17.640625 L 4.78125 -17.140625 C 4.78125 -16.628906 4.648438 -16.28125 4.390625 -16.09375 C 4.140625 -15.914062 3.707031 -15.828125 3.09375 -15.828125 Z M 3.09375 -15.828125 "/></g></g></g><g fill="#38b6ff" fill-opacity="1"><g transform="translate(213.123452, 273.714713)"><g><path d="M 9.25 -14.375 C 11.050781 -14.375 12.289062 -13.84375 12.96875 -12.78125 C 13.65625 -11.71875 14 -10.242188 14 -8.359375 L 14 -1.609375 C 14 -1.148438 13.847656 -0.765625 13.546875 -0.453125 C 13.253906 -0.148438 12.878906 0 12.421875 0 C 11.960938 0 11.582031 -0.148438 11.28125 -0.453125 C 10.988281 -0.765625 10.84375 -1.148438 10.84375 -1.609375 L 10.84375 -8.359375 C 10.84375 -9.328125 10.640625 -10.085938 10.234375 -10.640625 C 9.828125 -11.191406 9.132812 -11.46875 8.15625 -11.46875 C 7.132812 -11.46875 6.332031 -11.171875 5.75 -10.578125 C 5.164062 -9.992188 4.875 -9.253906 4.875 -8.359375 L 4.875 -1.609375 C 4.875 -1.148438 4.722656 -0.765625 4.421875 -0.453125 C 4.128906 -0.148438 3.753906 0 3.296875 0 C 2.835938 0 2.457031 -0.148438 2.15625 -0.453125 C 1.863281 -0.765625 1.71875 -1.148438 1.71875 -1.609375 L 1.71875 -12.5 C 1.71875 -12.957031 1.863281 -13.335938 2.15625 -13.640625 C 2.457031 -13.953125 2.835938 -14.109375 3.296875 -14.109375 C 3.753906 -14.109375 4.128906 -13.953125 4.421875 -13.640625 C 4.722656 -13.335938 4.875 -12.957031 4.875 -12.5 L 4.875 -12.046875 C 5.351562 -12.679688 5.972656 -13.226562 6.734375 -13.6875 C 7.503906 -14.144531 8.34375 -14.375 9.25 -14.375 Z M 9.25 -14.375 "/></g></g></g><g fill="#38b6ff" fill-opacity="1"><g transform="translate(228.835741, 273.714713)"><g><path d="M 13.40625 -14.375 C 13.851562 -14.375 14.226562 -14.222656 14.53125 -13.921875 C 14.832031 -13.628906 14.984375 -13.242188 14.984375 -12.765625 L 14.984375 -1.03125 C 14.984375 1.113281 14.316406 2.703125 12.984375 3.734375 C 11.660156 4.765625 9.976562 5.28125 7.9375 5.28125 C 7.40625 5.28125 6.675781 5.191406 5.75 5.015625 C 4.832031 4.835938 4.179688 4.660156 3.796875 4.484375 C 2.929688 4.117188 2.5 3.609375 2.5 2.953125 C 2.5 2.828125 2.523438 2.6875 2.578125 2.53125 C 2.691406 2.144531 2.875 1.847656 3.125 1.640625 C 3.382812 1.441406 3.660156 1.34375 3.953125 1.34375 C 4.128906 1.34375 4.296875 1.367188 4.453125 1.421875 C 4.523438 1.441406 4.960938 1.601562 5.765625 1.90625 C 6.566406 2.21875 7.289062 2.375 7.9375 2.375 C 9.238281 2.375 10.207031 2.113281 10.84375 1.59375 C 11.488281 1.070312 11.8125 0.335938 11.8125 -0.609375 L 11.8125 -1.875 C 11.425781 -1.332031 10.84375 -0.835938 10.0625 -0.390625 C 9.28125 0.046875 8.441406 0.265625 7.546875 0.265625 C 6.316406 0.265625 5.191406 -0.046875 4.171875 -0.671875 C 3.160156 -1.296875 2.363281 -2.160156 1.78125 -3.265625 C 1.207031 -4.378906 0.921875 -5.640625 0.921875 -7.046875 C 0.921875 -8.453125 1.207031 -9.710938 1.78125 -10.828125 C 2.351562 -11.941406 3.132812 -12.8125 4.125 -13.4375 C 5.125 -14.0625 6.226562 -14.375 7.4375 -14.375 C 8.332031 -14.375 9.164062 -14.1875 9.9375 -13.8125 C 10.71875 -13.445312 11.34375 -13 11.8125 -12.46875 L 11.8125 -12.765625 C 11.8125 -13.222656 11.960938 -13.601562 12.265625 -13.90625 C 12.566406 -14.21875 12.945312 -14.375 13.40625 -14.375 Z M 7.9375 -2.640625 C 9.113281 -2.640625 10.078125 -3.054688 10.828125 -3.890625 C 11.578125 -4.722656 11.953125 -5.773438 11.953125 -7.046875 C 11.953125 -8.304688 11.578125 -9.359375 10.828125 -10.203125 C 10.078125 -11.046875 9.113281 -11.46875 7.9375 -11.46875 C 6.757812 -11.46875 5.800781 -11.046875 5.0625 -10.203125 C 4.320312 -9.359375 3.953125 -8.304688 3.953125 -7.046875 C 3.953125 -5.773438 4.320312 -4.722656 5.0625 -3.890625 C 5.800781 -3.054688 6.757812 -2.640625 7.9375 -2.640625 Z M 7.9375 -2.640625 "/></g></g></g></svg>