<svg xmlns="http://www.w3.org/2000/svg" xmlns:xlink="http://www.w3.org/1999/xlink" width="516" zoomAndPan="magnify" viewBox="0 0 386.88 341.249999" height="455" preserveAspectRatio="xMidYMid meet" version="1.0"><defs><g/><clipPath id="2b1eb0ce9c"><path d="M 0.363281 0 L 386.394531 0 L 386.394531 340.5 L 0.363281 340.5 Z M 0.363281 0 " clip-rule="nonzero"/></clipPath><clipPath id="b0c8d6e45d"><path d="M 51.902344 0.554688 L 328.792969 0.554688 L 328.792969 200 L 51.902344 200 Z M 51.902344 0.554688 " clip-rule="nonzero"/></clipPath></defs><g clip-path="url(#2b1eb0ce9c)"><path fill="#ffffff" d="M 0.363281 0 L 386.515625 0 L 386.515625 340.5 L 0.363281 340.5 Z M 0.363281 0 " fill-opacity="1" fill-rule="nonzero"/></g><path fill="#ffffff" d="M 281.726562 92.582031 C 268.804688 89.625 268.804688 89.625 267.734375 77.226562 C 264.730469 45.957031 238.960938 22.378906 207.789062 22.378906 C 184.40625 22.378906 162.882812 36.230469 152.957031 57.632812 C 148.265625 67.835938 147.183594 71.628906 137.25 67.667969 C 131.214844 65.269531 125.535156 65.675781 125.535156 65.675781 C 113.59375 65.675781 103.886719 75.382812 103.886719 87.324219 C 103.886719 89.300781 104.289062 91.5 105.132812 94.019531 C 110.117188 106.265625 109.296875 107.617188 97.425781 114.441406 C 85.207031 121.5625 77.910156 134.070312 77.910156 147.929688 C 77.910156 169.417969 95.394531 186.894531 116.875 186.902344 L 272.730469 186.902344 L 272.730469 186.894531 C 298.996094 186.894531 320.355469 165.535156 320.355469 139.269531 C 320.355469 116.5 304.113281 96.863281 281.726562 92.582031 Z M 281.726562 92.582031 " fill-opacity="1" fill-rule="evenodd"/><g clip-path="url(#b0c8d6e45d)"><path fill="#38b6ff" d="M 276.289062 71.230469 C 272.496094 31.726562 239.597656 0.726562 199.101562 0.726562 C 167.761719 0.726562 140.925781 19.328125 128.5625 46.015625 C 124.835938 44.832031 120.960938 44.023438 116.847656 44.023438 C 95.332031 44.023438 77.878906 61.476562 77.878906 82.984375 C 77.878906 87.265625 78.738281 91.304688 80.011719 95.148438 C 63.273438 104.90625 51.902344 122.835938 51.902344 143.59375 C 51.902344 174.679688 77.101562 199.875 108.1875 199.875 L 108.1875 199.882812 L 264.042969 199.882812 L 264.042969 199.875 C 299.917969 199.875 328.980469 170.8125 328.980469 134.933594 C 328.980469 103.265625 306.292969 76.964844 276.289062 71.230469 M 264.046875 182.558594 L 264.046875 182.570312 L 108.1875 182.570312 C 86.703125 182.558594 69.21875 165.082031 69.21875 143.597656 C 69.21875 129.734375 76.519531 117.226562 88.738281 110.109375 C 100.609375 103.28125 101.425781 101.929688 96.445312 89.6875 C 95.605469 87.164062 95.199219 84.964844 95.199219 82.984375 C 95.199219 71.046875 104.90625 61.339844 116.847656 61.339844 C 116.847656 61.339844 122.523438 60.933594 128.5625 63.335938 C 138.496094 67.292969 139.578125 63.503906 144.269531 53.292969 C 154.191406 31.894531 175.71875 18.042969 199.097656 18.042969 C 230.273438 18.042969 256.042969 41.617188 259.046875 72.890625 C 260.117188 85.289062 260.117188 85.289062 273.039062 88.25 C 295.421875 92.527344 311.667969 112.160156 311.667969 134.933594 C 311.667969 161.199219 290.308594 182.558594 264.046875 182.558594 " fill-opacity="1" fill-rule="evenodd"/></g><path fill="#38b6ff" d="M 94.691406 154.78125 C 94.691406 155.078125 94.660156 155.375 94.601562 155.664062 C 94.546875 155.957031 94.460938 156.238281 94.34375 156.515625 C 94.230469 156.789062 94.09375 157.050781 93.925781 157.296875 C 93.761719 157.546875 93.574219 157.773438 93.363281 157.984375 C 93.152344 158.195312 92.925781 158.382812 92.675781 158.546875 C 92.429688 158.714844 92.167969 158.855469 91.894531 158.96875 C 91.617188 159.082031 91.335938 159.167969 91.042969 159.226562 C 90.75 159.285156 90.457031 159.3125 90.160156 159.3125 C 89.859375 159.3125 89.566406 159.285156 89.273438 159.226562 C 88.984375 159.167969 88.699219 159.082031 88.425781 158.96875 C 88.148438 158.855469 87.886719 158.714844 87.640625 158.546875 C 87.394531 158.382812 87.164062 158.195312 86.953125 157.984375 C 86.742188 157.773438 86.554688 157.546875 86.390625 157.296875 C 86.226562 157.050781 86.085938 156.789062 85.972656 156.515625 C 85.859375 156.238281 85.773438 155.957031 85.714844 155.664062 C 85.65625 155.375 85.628906 155.078125 85.628906 154.78125 C 85.628906 154.484375 85.65625 154.1875 85.714844 153.898438 C 85.773438 153.605469 85.859375 153.320312 85.972656 153.046875 C 86.085938 152.773438 86.226562 152.511719 86.390625 152.261719 C 86.554688 152.015625 86.742188 151.785156 86.953125 151.578125 C 87.164062 151.367188 87.394531 151.179688 87.640625 151.011719 C 87.886719 150.847656 88.148438 150.707031 88.425781 150.59375 C 88.699219 150.480469 88.984375 150.394531 89.273438 150.335938 C 89.566406 150.277344 89.859375 150.25 90.160156 150.25 C 90.457031 150.25 90.75 150.277344 91.042969 150.335938 C 91.335938 150.394531 91.617188 150.480469 91.894531 150.59375 C 92.167969 150.707031 92.429688 150.847656 92.675781 151.011719 C 92.925781 151.179688 93.152344 151.367188 93.363281 151.578125 C 93.574219 151.785156 93.761719 152.015625 93.925781 152.261719 C 94.09375 152.511719 94.230469 152.773438 94.34375 153.046875 C 94.460938 153.320312 94.546875 153.605469 94.601562 153.898438 C 94.660156 154.1875 94.691406 154.484375 94.691406 154.78125 Z M 94.691406 154.78125 " fill-opacity="1" fill-rule="nonzero"/><path fill="#38b6ff" d="M 122.425781 104.644531 C 122.410156 104.644531 122.410156 104.652344 122.394531 104.652344 C 102.085938 104.667969 85.625 121.136719 85.625 141.445312 C 85.625 143.839844 87.566406 145.773438 89.953125 145.773438 C 92.34375 145.773438 94.285156 143.839844 94.285156 141.445312 L 94.285156 141.4375 C 94.285156 125.902344 106.882812 113.304688 122.417969 113.304688 L 122.425781 113.304688 C 124.8125 113.304688 126.753906 111.367188 126.753906 108.972656 C 126.753906 106.582031 124.816406 104.644531 122.425781 104.644531 " fill-opacity="1" fill-rule="evenodd"/><g fill="#38b6ff" fill-opacity="1"><g transform="translate(16.716941, 260.680054)"><g><path d="M 26.578125 -31.328125 C 27.554688 -30.828125 28.046875 -30.03125 28.046875 -28.9375 C 28.046875 -28.28125 27.804688 -27.632812 27.328125 -27 C 26.828125 -26.34375 26.1875 -26.015625 25.40625 -26.015625 C 24.875 -26.015625 24.34375 -26.15625 23.8125 -26.4375 C 22.269531 -27.15625 20.601562 -27.515625 18.8125 -27.515625 C 16.625 -27.515625 14.710938 -27.050781 13.078125 -26.125 C 11.441406 -25.207031 10.1875 -23.910156 9.3125 -22.234375 C 8.4375 -20.554688 8 -18.632812 8 -16.46875 C 8 -12.769531 8.992188 -9.960938 10.984375 -8.046875 C 12.972656 -6.128906 15.582031 -5.171875 18.8125 -5.171875 C 20.726562 -5.171875 22.394531 -5.53125 23.8125 -6.25 C 24.375 -6.507812 24.875 -6.640625 25.3125 -6.640625 C 26.125 -6.640625 26.8125 -6.289062 27.375 -5.59375 C 27.851562 -5 28.09375 -4.359375 28.09375 -3.671875 C 28.09375 -3.171875 27.960938 -2.710938 27.703125 -2.296875 C 27.453125 -1.890625 27.09375 -1.578125 26.625 -1.359375 C 24.175781 -0.140625 21.570312 0.46875 18.8125 0.46875 C 15.738281 0.46875 12.914062 -0.179688 10.34375 -1.484375 C 7.78125 -2.785156 5.726562 -4.707031 4.1875 -7.25 C 2.644531 -9.789062 1.875 -12.863281 1.875 -16.46875 C 1.875 -19.664062 2.601562 -22.535156 4.0625 -25.078125 C 5.519531 -27.617188 7.535156 -29.601562 10.109375 -31.03125 C 12.679688 -32.457031 15.582031 -33.171875 18.8125 -33.171875 C 21.601562 -33.171875 24.191406 -32.554688 26.578125 -31.328125 Z M 26.578125 -31.328125 "/></g></g></g><g fill="#38b6ff" fill-opacity="1"><g transform="translate(46.211701, 260.680054)"><g><path d="M 21.6875 -5.5 C 22.5 -5.5 23.179688 -5.238281 23.734375 -4.71875 C 24.285156 -4.207031 24.5625 -3.546875 24.5625 -2.734375 C 24.5625 -1.941406 24.285156 -1.285156 23.734375 -0.765625 C 23.179688 -0.253906 22.5 0 21.6875 0 L 6.390625 0 C 5.578125 0 4.894531 -0.269531 4.34375 -0.8125 C 3.800781 -1.363281 3.53125 -2.050781 3.53125 -2.875 L 3.53125 -30.0625 C 3.53125 -30.875 3.8125 -31.554688 4.375 -32.109375 C 4.9375 -32.660156 5.660156 -32.9375 6.546875 -32.9375 C 7.328125 -32.9375 8 -32.660156 8.5625 -32.109375 C 9.125 -31.554688 9.40625 -30.875 9.40625 -30.0625 L 9.40625 -5.5 Z M 21.6875 -5.5 "/></g></g></g><g fill="#38b6ff" fill-opacity="1"><g transform="translate(72.648787, 260.680054)"><g><path d="M 33.828125 -16.46875 C 33.828125 -13.363281 33.132812 -10.515625 31.75 -7.921875 C 30.375 -5.335938 28.46875 -3.289062 26.03125 -1.78125 C 23.601562 -0.28125 20.867188 0.46875 17.828125 0.46875 C 14.785156 0.46875 12.046875 -0.28125 9.609375 -1.78125 C 7.179688 -3.289062 5.285156 -5.335938 3.921875 -7.921875 C 2.554688 -10.515625 1.875 -13.363281 1.875 -16.46875 C 1.875 -19.570312 2.554688 -22.414062 3.921875 -25 C 5.285156 -27.59375 7.179688 -29.640625 9.609375 -31.140625 C 12.046875 -32.648438 14.785156 -33.40625 17.828125 -33.40625 C 20.867188 -33.40625 23.601562 -32.648438 26.03125 -31.140625 C 28.46875 -29.640625 30.375 -27.59375 31.75 -25 C 33.132812 -22.414062 33.828125 -19.570312 33.828125 -16.46875 Z M 27.703125 -16.46875 C 27.703125 -18.570312 27.28125 -20.476562 26.4375 -22.1875 C 25.59375 -23.894531 24.414062 -25.25 22.90625 -26.25 C 21.40625 -27.25 19.710938 -27.75 17.828125 -27.75 C 15.910156 -27.75 14.207031 -27.253906 12.71875 -26.265625 C 11.226562 -25.285156 10.066406 -23.929688 9.234375 -22.203125 C 8.410156 -20.484375 8 -18.570312 8 -16.46875 C 8 -14.363281 8.410156 -12.445312 9.234375 -10.71875 C 10.066406 -9 11.226562 -7.644531 12.71875 -6.65625 C 14.207031 -5.664062 15.910156 -5.171875 17.828125 -5.171875 C 19.710938 -5.171875 21.40625 -5.671875 22.90625 -6.671875 C 24.414062 -7.679688 25.59375 -9.039062 26.4375 -10.75 C 27.28125 -12.457031 27.703125 -14.363281 27.703125 -16.46875 Z M 27.703125 -16.46875 "/></g></g></g><g fill="#38b6ff" fill-opacity="1"><g transform="translate(108.352968, 260.680054)"><g><path d="M 26.90625 -32.984375 C 27.726562 -32.984375 28.390625 -32.710938 28.890625 -32.171875 C 29.390625 -31.640625 29.640625 -30.953125 29.640625 -30.109375 L 29.640625 -13.078125 C 29.640625 -10.472656 29.085938 -8.164062 27.984375 -6.15625 C 26.890625 -4.15625 25.351562 -2.585938 23.375 -1.453125 C 21.40625 -0.328125 19.148438 0.234375 16.609375 0.234375 C 14.066406 0.234375 11.800781 -0.328125 9.8125 -1.453125 C 7.820312 -2.585938 6.273438 -4.15625 5.171875 -6.15625 C 4.078125 -8.164062 3.53125 -10.472656 3.53125 -13.078125 L 3.53125 -30.109375 C 3.53125 -30.921875 3.8125 -31.601562 4.375 -32.15625 C 4.9375 -32.707031 5.660156 -32.984375 6.546875 -32.984375 C 7.296875 -32.984375 7.953125 -32.707031 8.515625 -32.15625 C 9.078125 -31.601562 9.359375 -30.921875 9.359375 -30.109375 L 9.359375 -13.078125 C 9.359375 -11.578125 9.6875 -10.238281 10.34375 -9.0625 C 11.007812 -7.882812 11.894531 -6.976562 13 -6.34375 C 14.113281 -5.71875 15.316406 -5.40625 16.609375 -5.40625 C 17.953125 -5.40625 19.210938 -5.71875 20.390625 -6.34375 C 21.566406 -6.976562 22.507812 -7.882812 23.21875 -9.0625 C 23.925781 -10.238281 24.28125 -11.578125 24.28125 -13.078125 L 24.28125 -30.109375 C 24.28125 -30.953125 24.515625 -31.640625 24.984375 -32.171875 C 25.453125 -32.710938 26.09375 -32.984375 26.90625 -32.984375 Z M 26.90625 -32.984375 "/></g></g></g><g fill="#38b6ff" fill-opacity="1"><g transform="translate(141.516937, 260.680054)"><g><path d="M 17.640625 -32.9375 C 20.585938 -32.9375 23.117188 -32.207031 25.234375 -30.75 C 27.359375 -29.289062 28.972656 -27.3125 30.078125 -24.8125 C 31.191406 -22.320312 31.75 -19.539062 31.75 -16.46875 C 31.75 -13.394531 31.191406 -10.609375 30.078125 -8.109375 C 28.972656 -5.617188 27.359375 -3.644531 25.234375 -2.1875 C 23.117188 -0.726562 20.585938 0 17.640625 0 L 6.390625 0 C 5.578125 0 4.894531 -0.269531 4.34375 -0.8125 C 3.800781 -1.363281 3.53125 -2.050781 3.53125 -2.875 L 3.53125 -30.0625 C 3.53125 -30.875 3.800781 -31.554688 4.34375 -32.109375 C 4.894531 -32.660156 5.578125 -32.9375 6.390625 -32.9375 Z M 17.171875 -5.40625 C 19.992188 -5.40625 22.109375 -6.445312 23.515625 -8.53125 C 24.929688 -10.625 25.640625 -13.269531 25.640625 -16.46875 C 25.640625 -19.664062 24.925781 -22.304688 23.5 -24.390625 C 22.070312 -26.472656 19.960938 -27.515625 17.171875 -27.515625 L 9.40625 -27.515625 L 9.40625 -5.40625 Z M 17.171875 -5.40625 "/></g></g></g><g fill="#38b6ff" fill-opacity="1"><g transform="translate(175.151311, 260.680054)"><g/></g></g><g fill="#38b6ff" fill-opacity="1"><g transform="translate(188.322813, 260.680054)"><g><path d="M 23.28125 -18.25 C 24.945312 -17.59375 26.304688 -16.585938 27.359375 -15.234375 C 28.410156 -13.890625 28.9375 -12.148438 28.9375 -10.015625 C 28.9375 -6.285156 27.867188 -3.679688 25.734375 -2.203125 C 23.597656 -0.734375 21.054688 0 18.109375 0 L 6.390625 0 C 5.578125 0 4.894531 -0.269531 4.34375 -0.8125 C 3.800781 -1.363281 3.53125 -2.050781 3.53125 -2.875 L 3.53125 -30.0625 C 3.53125 -30.875 3.800781 -31.554688 4.34375 -32.109375 C 4.894531 -32.660156 5.578125 -32.9375 6.390625 -32.9375 L 18.25 -32.9375 C 24.207031 -32.9375 27.1875 -30.144531 27.1875 -24.5625 C 27.1875 -23.144531 26.847656 -21.894531 26.171875 -20.8125 C 25.503906 -19.726562 24.539062 -18.875 23.28125 -18.25 Z M 21.078125 -23.53125 C 21.078125 -24.8125 20.753906 -25.769531 20.109375 -26.40625 C 19.460938 -27.050781 18.5625 -27.375 17.40625 -27.375 L 9.640625 -27.375 L 9.640625 -20.046875 L 17.546875 -20.046875 C 18.484375 -20.046875 19.304688 -20.359375 20.015625 -20.984375 C 20.722656 -21.609375 21.078125 -22.457031 21.078125 -23.53125 Z M 18.109375 -5.40625 C 19.585938 -5.40625 20.738281 -5.796875 21.5625 -6.578125 C 22.394531 -7.367188 22.8125 -8.515625 22.8125 -10.015625 C 22.8125 -11.867188 22.328125 -13.078125 21.359375 -13.640625 C 20.390625 -14.203125 19.195312 -14.484375 17.78125 -14.484375 L 9.640625 -14.484375 L 9.640625 -5.40625 Z M 18.109375 -5.40625 "/></g></g></g><g fill="#38b6ff" fill-opacity="1"><g transform="translate(219.13472, 260.680054)"><g><path d="M 9.40625 -2.875 C 9.40625 -2.050781 9.109375 -1.363281 8.515625 -0.8125 C 7.921875 -0.269531 7.234375 0 6.453125 0 C 5.597656 0 4.894531 -0.269531 4.34375 -0.8125 C 3.800781 -1.363281 3.53125 -2.050781 3.53125 -2.875 L 3.53125 -30.0625 C 3.53125 -30.875 3.8125 -31.554688 4.375 -32.109375 C 4.9375 -32.660156 5.660156 -32.9375 6.546875 -32.9375 C 7.328125 -32.9375 8 -32.660156 8.5625 -32.109375 C 9.125 -31.554688 9.40625 -30.875 9.40625 -30.0625 Z M 9.40625 -2.875 "/></g></g></g><g fill="#38b6ff" fill-opacity="1"><g transform="translate(232.071002, 260.680054)"><g><path d="M 28.515625 -32.9375 C 29.265625 -32.9375 29.875 -32.679688 30.34375 -32.171875 C 30.8125 -31.671875 31.046875 -31.046875 31.046875 -30.296875 L 31.046875 -2.875 C 31.046875 -2.050781 30.769531 -1.363281 30.21875 -0.8125 C 29.675781 -0.269531 29 0 28.1875 0 C 27.738281 0 27.300781 -0.0664062 26.875 -0.203125 C 26.457031 -0.347656 26.15625 -0.546875 25.96875 -0.796875 L 8.703125 -22.71875 L 8.703125 -2.640625 C 8.703125 -1.878906 8.457031 -1.25 7.96875 -0.75 C 7.488281 -0.25 6.851562 0 6.0625 0 C 5.3125 0 4.703125 -0.25 4.234375 -0.75 C 3.765625 -1.25 3.53125 -1.878906 3.53125 -2.640625 L 3.53125 -30.0625 C 3.53125 -30.875 3.800781 -31.554688 4.34375 -32.109375 C 4.894531 -32.660156 5.578125 -32.9375 6.390625 -32.9375 C 6.867188 -32.9375 7.332031 -32.84375 7.78125 -32.65625 C 8.238281 -32.46875 8.578125 -32.210938 8.796875 -31.890625 L 25.921875 -10.0625 L 25.921875 -30.296875 C 25.921875 -31.046875 26.160156 -31.671875 26.640625 -32.171875 C 27.128906 -32.679688 27.753906 -32.9375 28.515625 -32.9375 Z M 28.515625 -32.9375 "/></g></g></g><g fill="#38b6ff" fill-opacity="1"><g transform="translate(266.64621, 260.680054)"><g><path d="M 29.359375 -3.671875 C 29.515625 -3.265625 29.59375 -2.890625 29.59375 -2.546875 C 29.59375 -1.722656 29.328125 -1.050781 28.796875 -0.53125 C 28.265625 -0.0195312 27.648438 0.234375 26.953125 0.234375 C 26.390625 0.234375 25.878906 0.0625 25.421875 -0.28125 C 24.972656 -0.625 24.625 -1.09375 24.375 -1.6875 L 21.921875 -7.390625 L 7.90625 -7.390625 L 5.453125 -1.640625 C 5.234375 -1.046875 4.894531 -0.582031 4.4375 -0.25 C 3.988281 0.0703125 3.5 0.234375 2.96875 0.234375 C 2.144531 0.234375 1.519531 0.015625 1.09375 -0.421875 C 0.675781 -0.859375 0.46875 -1.457031 0.46875 -2.21875 C 0.46875 -2.5 0.515625 -2.796875 0.609375 -3.109375 L 12.328125 -31.234375 C 12.578125 -31.867188 12.953125 -32.359375 13.453125 -32.703125 C 13.953125 -33.046875 14.519531 -33.1875 15.15625 -33.125 C 15.71875 -33.125 16.238281 -32.957031 16.71875 -32.625 C 17.207031 -32.300781 17.5625 -31.835938 17.78125 -31.234375 Z M 10.203125 -12.796875 L 19.625 -12.796875 L 14.859375 -23.8125 Z M 10.203125 -12.796875 "/></g></g></g><g fill="#38b6ff" fill-opacity="1"><g transform="translate(296.705458, 260.680054)"><g><path d="M 29.359375 -4.609375 C 29.765625 -4.359375 30.082031 -4.03125 30.3125 -3.625 C 30.550781 -3.21875 30.671875 -2.796875 30.671875 -2.359375 C 30.671875 -1.785156 30.484375 -1.265625 30.109375 -0.796875 C 29.640625 -0.234375 28.921875 0.046875 27.953125 0.046875 C 27.191406 0.046875 26.5 -0.125 25.875 -0.46875 C 23.613281 -1.757812 22.484375 -4.378906 22.484375 -8.328125 C 22.484375 -9.453125 22.113281 -10.34375 21.375 -11 C 20.644531 -11.664062 19.585938 -12 18.203125 -12 L 9.40625 -12 L 9.40625 -2.875 C 9.40625 -2.019531 9.175781 -1.328125 8.71875 -0.796875 C 8.269531 -0.265625 7.671875 0 6.921875 0 C 6.003906 0 5.207031 -0.269531 4.53125 -0.8125 C 3.863281 -1.363281 3.53125 -2.050781 3.53125 -2.875 L 3.53125 -30.0625 C 3.53125 -30.875 3.800781 -31.554688 4.34375 -32.109375 C 4.894531 -32.660156 5.578125 -32.9375 6.390625 -32.9375 L 19.953125 -32.9375 C 21.578125 -32.9375 23.109375 -32.492188 24.546875 -31.609375 C 25.992188 -30.734375 27.148438 -29.523438 28.015625 -27.984375 C 28.878906 -26.453125 29.3125 -24.726562 29.3125 -22.8125 C 29.3125 -21.25 28.882812 -19.722656 28.03125 -18.234375 C 27.1875 -16.742188 26.09375 -15.554688 24.75 -14.671875 C 26.71875 -13.296875 27.800781 -11.445312 28 -9.125 C 28.09375 -8.625 28.140625 -8.140625 28.140625 -7.671875 C 28.265625 -6.691406 28.390625 -5.988281 28.515625 -5.5625 C 28.640625 -5.144531 28.921875 -4.828125 29.359375 -4.609375 Z M 19.71875 -16.84375 C 20.28125 -16.84375 20.828125 -17.109375 21.359375 -17.640625 C 21.890625 -18.171875 22.328125 -18.882812 22.671875 -19.78125 C 23.015625 -20.675781 23.1875 -21.640625 23.1875 -22.671875 C 23.1875 -23.554688 23.015625 -24.363281 22.671875 -25.09375 C 22.328125 -25.832031 21.890625 -26.421875 21.359375 -26.859375 C 20.828125 -27.296875 20.28125 -27.515625 19.71875 -27.515625 L 9.40625 -27.515625 L 9.40625 -16.84375 Z M 19.71875 -16.84375 "/></g></g></g><g fill="#38b6ff" fill-opacity="1"><g transform="translate(329.022697, 260.680054)"><g><path d="M 27.328125 -30.15625 C 27.328125 -29.53125 27.15625 -28.953125 26.8125 -28.421875 L 16.984375 -14.34375 L 16.984375 -2.875 C 16.984375 -2.050781 16.71875 -1.363281 16.1875 -0.8125 C 15.65625 -0.269531 15.007812 0 14.25 0 C 13.46875 0 12.800781 -0.269531 12.25 -0.8125 C 11.707031 -1.363281 11.4375 -2.050781 11.4375 -2.875 L 11.4375 -15.015625 L 1.640625 -28 C 1.078125 -28.75 0.796875 -29.484375 0.796875 -30.203125 C 0.796875 -31.015625 1.117188 -31.695312 1.765625 -32.25 C 2.410156 -32.800781 3.09375 -33.078125 3.8125 -33.078125 C 4.6875 -33.078125 5.453125 -32.632812 6.109375 -31.75 L 14.390625 -20.328125 L 22.15625 -31.65625 C 22.8125 -32.601562 23.597656 -33.078125 24.515625 -33.078125 C 25.265625 -33.078125 25.921875 -32.789062 26.484375 -32.21875 C 27.046875 -31.65625 27.328125 -30.96875 27.328125 -30.15625 Z M 27.328125 -30.15625 "/></g></g></g><g fill="#38b6ff" fill-opacity="1"><g transform="translate(357.066564, 260.680054)"><g/></g></g><g fill="#38b6ff" fill-opacity="1"><g transform="translate(56.040669, 315.309986)"><g><path d="M 17.21875 -4.375 C 17.863281 -4.375 18.40625 -4.164062 18.84375 -3.75 C 19.28125 -3.34375 19.5 -2.816406 19.5 -2.171875 C 19.5 -1.546875 19.28125 -1.023438 18.84375 -0.609375 C 18.40625 -0.203125 17.863281 0 17.21875 0 L 5.078125 0 C 4.429688 0 3.890625 -0.21875 3.453125 -0.65625 C 3.015625 -1.09375 2.796875 -1.632812 2.796875 -2.28125 L 2.796875 -23.875 C 2.796875 -24.519531 3.019531 -25.0625 3.46875 -25.5 C 3.914062 -25.9375 4.488281 -26.15625 5.1875 -26.15625 C 5.8125 -26.15625 6.347656 -25.9375 6.796875 -25.5 C 7.242188 -25.0625 7.46875 -24.519531 7.46875 -23.875 L 7.46875 -4.375 Z M 17.21875 -4.375 "/></g></g></g><g fill="#38b6ff" fill-opacity="1"><g transform="translate(77.030026, 315.309986)"><g><path d="M 20.359375 -10.453125 C 20.335938 -9.859375 20.101562 -9.375 19.65625 -9 C 19.207031 -8.625 18.679688 -8.4375 18.078125 -8.4375 L 5.75 -8.4375 C 6.050781 -6.96875 6.738281 -5.816406 7.8125 -4.984375 C 8.882812 -4.148438 10.09375 -3.734375 11.4375 -3.734375 C 12.457031 -3.734375 13.253906 -3.828125 13.828125 -4.015625 C 14.398438 -4.203125 14.851562 -4.398438 15.1875 -4.609375 C 15.519531 -4.828125 15.75 -4.972656 15.875 -5.046875 C 16.320312 -5.265625 16.742188 -5.375 17.140625 -5.375 C 17.671875 -5.375 18.117188 -5.1875 18.484375 -4.8125 C 18.859375 -4.445312 19.046875 -4.015625 19.046875 -3.515625 C 19.046875 -2.835938 18.695312 -2.226562 18 -1.6875 C 17.3125 -1.113281 16.378906 -0.625 15.203125 -0.21875 C 14.035156 0.175781 12.851562 0.375 11.65625 0.375 C 9.5625 0.375 7.734375 -0.0546875 6.171875 -0.921875 C 4.617188 -1.796875 3.421875 -3 2.578125 -4.53125 C 1.734375 -6.070312 1.3125 -7.800781 1.3125 -9.71875 C 1.3125 -11.851562 1.757812 -13.726562 2.65625 -15.34375 C 3.550781 -16.96875 4.734375 -18.207031 6.203125 -19.0625 C 7.671875 -19.925781 9.238281 -20.359375 10.90625 -20.359375 C 12.550781 -20.359375 14.101562 -19.910156 15.5625 -19.015625 C 17.019531 -18.117188 18.179688 -16.910156 19.046875 -15.390625 C 19.921875 -13.867188 20.359375 -12.222656 20.359375 -10.453125 Z M 10.90625 -16.25 C 8.019531 -16.25 6.316406 -14.890625 5.796875 -12.171875 L 15.578125 -12.171875 L 15.578125 -12.4375 C 15.472656 -13.488281 14.960938 -14.382812 14.046875 -15.125 C 13.128906 -15.875 12.082031 -16.25 10.90625 -16.25 Z M 10.90625 -16.25 "/></g></g></g><g fill="#38b6ff" fill-opacity="1"><g transform="translate(98.691642, 315.309986)"><g><path d="M 18.609375 -20.359375 C 19.253906 -20.359375 19.785156 -20.144531 20.203125 -19.71875 C 20.628906 -19.300781 20.84375 -18.753906 20.84375 -18.078125 L 20.84375 -2.28125 C 20.84375 -1.632812 20.628906 -1.09375 20.203125 -0.65625 C 19.785156 -0.21875 19.253906 0 18.609375 0 C 17.960938 0 17.429688 -0.207031 17.015625 -0.625 C 16.609375 -1.050781 16.390625 -1.585938 16.359375 -2.234375 C 15.734375 -1.515625 14.890625 -0.898438 13.828125 -0.390625 C 12.773438 0.117188 11.664062 0.375 10.5 0.375 C 8.78125 0.375 7.222656 -0.0664062 5.828125 -0.953125 C 4.429688 -1.835938 3.328125 -3.0625 2.515625 -4.625 C 1.710938 -6.195312 1.3125 -7.976562 1.3125 -9.96875 C 1.3125 -11.96875 1.707031 -13.753906 2.5 -15.328125 C 3.300781 -16.910156 4.390625 -18.144531 5.765625 -19.03125 C 7.148438 -19.914062 8.675781 -20.359375 10.34375 -20.359375 C 11.539062 -20.359375 12.660156 -20.140625 13.703125 -19.703125 C 14.753906 -19.265625 15.640625 -18.710938 16.359375 -18.046875 L 16.359375 -18.078125 C 16.359375 -18.722656 16.570312 -19.265625 17 -19.703125 C 17.425781 -20.140625 17.960938 -20.359375 18.609375 -20.359375 Z M 11.0625 -3.734375 C 12.675781 -3.734375 13.992188 -4.320312 15.015625 -5.5 C 16.035156 -6.6875 16.546875 -8.175781 16.546875 -9.96875 C 16.546875 -11.769531 16.035156 -13.265625 15.015625 -14.453125 C 13.992188 -15.648438 12.675781 -16.25 11.0625 -16.25 C 9.46875 -16.25 8.160156 -15.648438 7.140625 -14.453125 C 6.117188 -13.265625 5.609375 -11.769531 5.609375 -9.96875 C 5.609375 -8.175781 6.109375 -6.6875 7.109375 -5.5 C 8.117188 -4.320312 9.4375 -3.734375 11.0625 -3.734375 Z M 11.0625 -3.734375 "/></g></g></g><g fill="#38b6ff" fill-opacity="1"><g transform="translate(121.959203, 315.309986)"><g><path d="M 12.8125 -20.359375 C 13.5625 -20.359375 14.191406 -20.144531 14.703125 -19.71875 C 15.210938 -19.300781 15.46875 -18.804688 15.46875 -18.234375 C 15.46875 -17.460938 15.265625 -16.882812 14.859375 -16.5 C 14.460938 -16.113281 13.992188 -15.921875 13.453125 -15.921875 C 13.078125 -15.921875 12.648438 -16.003906 12.171875 -16.171875 C 12.097656 -16.203125 11.929688 -16.253906 11.671875 -16.328125 C 11.410156 -16.398438 11.128906 -16.4375 10.828125 -16.4375 C 10.179688 -16.4375 9.554688 -16.238281 8.953125 -15.84375 C 8.359375 -15.445312 7.867188 -14.84375 7.484375 -14.03125 C 7.097656 -13.21875 6.90625 -12.253906 6.90625 -11.140625 L 6.90625 -2.28125 C 6.90625 -1.632812 6.691406 -1.09375 6.265625 -0.65625 C 5.847656 -0.21875 5.316406 0 4.671875 0 C 4.023438 0 3.488281 -0.21875 3.0625 -0.65625 C 2.632812 -1.09375 2.421875 -1.632812 2.421875 -2.28125 L 2.421875 -17.703125 C 2.421875 -18.359375 2.632812 -18.898438 3.0625 -19.328125 C 3.488281 -19.765625 4.023438 -19.984375 4.671875 -19.984375 C 5.316406 -19.984375 5.847656 -19.765625 6.265625 -19.328125 C 6.691406 -18.898438 6.90625 -18.359375 6.90625 -17.703125 L 6.90625 -17.21875 C 7.476562 -18.238281 8.300781 -19.015625 9.375 -19.546875 C 10.445312 -20.085938 11.59375 -20.359375 12.8125 -20.359375 Z M 12.8125 -20.359375 "/></g></g></g><g fill="#38b6ff" fill-opacity="1"><g transform="translate(138.168066, 315.309986)"><g><path d="M 13.109375 -20.359375 C 15.648438 -20.359375 17.40625 -19.601562 18.375 -18.09375 C 19.351562 -16.59375 19.84375 -14.507812 19.84375 -11.84375 L 19.84375 -2.28125 C 19.84375 -1.632812 19.628906 -1.09375 19.203125 -0.65625 C 18.773438 -0.21875 18.238281 0 17.59375 0 C 16.945312 0 16.410156 -0.21875 15.984375 -0.65625 C 15.566406 -1.09375 15.359375 -1.632812 15.359375 -2.28125 L 15.359375 -11.84375 C 15.359375 -13.207031 15.070312 -14.28125 14.5 -15.0625 C 13.925781 -15.851562 12.941406 -16.25 11.546875 -16.25 C 10.097656 -16.25 8.960938 -15.832031 8.140625 -15 C 7.316406 -14.164062 6.90625 -13.113281 6.90625 -11.84375 L 6.90625 -2.28125 C 6.90625 -1.632812 6.691406 -1.09375 6.265625 -0.65625 C 5.847656 -0.21875 5.316406 0 4.671875 0 C 4.023438 0 3.488281 -0.21875 3.0625 -0.65625 C 2.632812 -1.09375 2.421875 -1.632812 2.421875 -2.28125 L 2.421875 -17.703125 C 2.421875 -18.359375 2.632812 -18.898438 3.0625 -19.328125 C 3.488281 -19.765625 4.023438 -19.984375 4.671875 -19.984375 C 5.316406 -19.984375 5.847656 -19.765625 6.265625 -19.328125 C 6.691406 -18.898438 6.90625 -18.359375 6.90625 -17.703125 L 6.90625 -17.078125 C 7.582031 -17.972656 8.460938 -18.742188 9.546875 -19.390625 C 10.628906 -20.035156 11.816406 -20.359375 13.109375 -20.359375 Z M 13.109375 -20.359375 "/></g></g></g><g fill="#38b6ff" fill-opacity="1"><g transform="translate(160.427237, 315.309986)"><g/></g></g><g fill="#38b6ff" fill-opacity="1"><g transform="translate(170.88457, 315.309986)"><g><path d="M 12.78125 -20.359375 C 14.5 -20.359375 16.050781 -19.914062 17.4375 -19.03125 C 18.832031 -18.144531 19.9375 -16.914062 20.75 -15.34375 C 21.5625 -13.78125 21.96875 -12.003906 21.96875 -10.015625 C 21.96875 -8.023438 21.566406 -6.238281 20.765625 -4.65625 C 19.972656 -3.070312 18.882812 -1.835938 17.5 -0.953125 C 16.113281 -0.0664062 14.585938 0.375 12.921875 0.375 C 11.734375 0.375 10.609375 0.132812 9.546875 -0.34375 C 8.484375 -0.832031 7.601562 -1.425781 6.90625 -2.125 L 6.90625 -1.90625 C 6.90625 -1.257812 6.691406 -0.71875 6.265625 -0.28125 C 5.847656 0.15625 5.316406 0.375 4.671875 0.375 C 4.023438 0.375 3.488281 0.164062 3.0625 -0.25 C 2.632812 -0.675781 2.421875 -1.226562 2.421875 -1.90625 L 2.421875 -25.359375 C 2.421875 -26.015625 2.632812 -26.554688 3.0625 -26.984375 C 3.488281 -27.421875 4.023438 -27.640625 4.671875 -27.640625 C 5.316406 -27.640625 5.847656 -27.421875 6.265625 -26.984375 C 6.691406 -26.554688 6.90625 -26.015625 6.90625 -25.359375 L 6.90625 -17.5625 C 7.507812 -18.3125 8.34375 -18.960938 9.40625 -19.515625 C 10.476562 -20.078125 11.601562 -20.359375 12.78125 -20.359375 Z M 12.21875 -3.734375 C 13.8125 -3.734375 15.117188 -4.332031 16.140625 -5.53125 C 17.160156 -6.726562 17.671875 -8.222656 17.671875 -10.015625 C 17.671875 -11.804688 17.164062 -13.289062 16.15625 -14.46875 C 15.144531 -15.65625 13.832031 -16.25 12.21875 -16.25 C 10.59375 -16.25 9.269531 -15.65625 8.25 -14.46875 C 7.226562 -13.289062 6.71875 -11.804688 6.71875 -10.015625 C 6.71875 -8.222656 7.226562 -6.726562 8.25 -5.53125 C 9.269531 -4.332031 10.59375 -3.734375 12.21875 -3.734375 Z M 12.21875 -3.734375 "/></g></g></g><g fill="#38b6ff" fill-opacity="1"><g transform="translate(194.152131, 315.309986)"><g><path d="M 17.265625 -19.984375 C 17.910156 -19.984375 18.441406 -19.765625 18.859375 -19.328125 C 19.285156 -18.898438 19.5 -18.359375 19.5 -17.703125 L 19.5 -1.828125 C 19.5 1.410156 18.625 3.769531 16.875 5.25 C 15.132812 6.726562 12.8125 7.46875 9.90625 7.46875 C 9.050781 7.46875 8.179688 7.398438 7.296875 7.265625 C 6.421875 7.128906 5.707031 6.945312 5.15625 6.71875 C 3.9375 6.195312 3.328125 5.476562 3.328125 4.5625 C 3.328125 4.382812 3.363281 4.179688 3.4375 3.953125 C 3.582031 3.410156 3.835938 2.992188 4.203125 2.703125 C 4.566406 2.421875 4.957031 2.28125 5.375 2.28125 C 5.625 2.28125 5.863281 2.316406 6.09375 2.390625 C 6.257812 2.460938 6.5625 2.585938 7 2.765625 C 7.4375 2.941406 7.894531 3.082031 8.375 3.1875 C 8.863281 3.300781 9.375 3.359375 9.90625 3.359375 C 11.664062 3.359375 12.960938 2.976562 13.796875 2.21875 C 14.640625 1.457031 15.0625 0.15625 15.0625 -1.6875 L 15.0625 -2.0625 C 13.757812 -0.4375 11.738281 0.375 9 0.375 C 7.707031 0.375 6.5625 0.0703125 5.5625 -0.53125 C 4.570312 -1.144531 3.800781 -1.992188 3.25 -3.078125 C 2.695312 -4.160156 2.421875 -5.398438 2.421875 -6.796875 L 2.421875 -17.703125 C 2.421875 -18.359375 2.632812 -18.898438 3.0625 -19.328125 C 3.488281 -19.765625 4.023438 -19.984375 4.671875 -19.984375 C 5.316406 -19.984375 5.847656 -19.765625 6.265625 -19.328125 C 6.691406 -18.898438 6.90625 -18.359375 6.90625 -17.703125 L 6.90625 -8.140625 C 6.90625 -6.578125 7.25 -5.453125 7.9375 -4.765625 C 8.625 -4.078125 9.628906 -3.734375 10.953125 -3.734375 C 12.242188 -3.734375 13.242188 -4.113281 13.953125 -4.875 C 14.660156 -5.632812 15.015625 -6.722656 15.015625 -8.140625 L 15.015625 -17.703125 C 15.015625 -18.359375 15.222656 -18.898438 15.640625 -19.328125 C 16.066406 -19.765625 16.609375 -19.984375 17.265625 -19.984375 Z M 17.265625 -19.984375 "/></g></g></g><g fill="#38b6ff" fill-opacity="1"><g transform="translate(216.075173, 315.309986)"><g/></g></g><g fill="#38b6ff" fill-opacity="1"><g transform="translate(226.532506, 315.309986)"><g><path d="M 14.015625 -26.15625 C 16.347656 -26.15625 18.351562 -25.570312 20.03125 -24.40625 C 21.71875 -23.25 23.003906 -21.679688 23.890625 -19.703125 C 24.773438 -17.722656 25.21875 -15.515625 25.21875 -13.078125 C 25.21875 -10.640625 24.773438 -8.425781 23.890625 -6.4375 C 23.003906 -4.457031 21.71875 -2.890625 20.03125 -1.734375 C 18.351562 -0.578125 16.347656 0 14.015625 0 L 5.078125 0 C 4.429688 0 3.890625 -0.21875 3.453125 -0.65625 C 3.015625 -1.09375 2.796875 -1.632812 2.796875 -2.28125 L 2.796875 -23.875 C 2.796875 -24.519531 3.015625 -25.0625 3.453125 -25.5 C 3.890625 -25.9375 4.429688 -26.15625 5.078125 -26.15625 Z M 13.640625 -4.296875 C 15.878906 -4.296875 17.554688 -5.125 18.671875 -6.78125 C 19.796875 -8.4375 20.359375 -10.535156 20.359375 -13.078125 C 20.359375 -15.617188 19.789062 -17.71875 18.65625 -19.375 C 17.53125 -21.03125 15.859375 -21.859375 13.640625 -21.859375 L 7.46875 -21.859375 L 7.46875 -4.296875 Z M 13.640625 -4.296875 "/></g></g></g><g fill="#38b6ff" fill-opacity="1"><g transform="translate(253.236041, 315.309986)"><g><path d="M 21.625 -9.96875 C 21.625 -7.976562 21.175781 -6.191406 20.28125 -4.609375 C 19.382812 -3.023438 18.15625 -1.796875 16.59375 -0.921875 C 15.039062 -0.0546875 13.332031 0.375 11.46875 0.375 C 9.570312 0.375 7.851562 -0.0546875 6.3125 -0.921875 C 4.769531 -1.796875 3.550781 -3.023438 2.65625 -4.609375 C 1.757812 -6.191406 1.3125 -7.976562 1.3125 -9.96875 C 1.3125 -11.96875 1.757812 -13.753906 2.65625 -15.328125 C 3.550781 -16.910156 4.769531 -18.144531 6.3125 -19.03125 C 7.851562 -19.914062 9.570312 -20.359375 11.46875 -20.359375 C 13.332031 -20.359375 15.039062 -19.914062 16.59375 -19.03125 C 18.15625 -18.144531 19.382812 -16.910156 20.28125 -15.328125 C 21.175781 -13.753906 21.625 -11.96875 21.625 -9.96875 Z M 17.140625 -9.96875 C 17.140625 -11.195312 16.882812 -12.289062 16.375 -13.25 C 15.863281 -14.207031 15.175781 -14.945312 14.3125 -15.46875 C 13.457031 -15.988281 12.507812 -16.25 11.46875 -16.25 C 10.425781 -16.25 9.472656 -15.988281 8.609375 -15.46875 C 7.753906 -14.945312 7.070312 -14.207031 6.5625 -13.25 C 6.050781 -12.289062 5.796875 -11.195312 5.796875 -9.96875 C 5.796875 -8.75 6.050781 -7.664062 6.5625 -6.71875 C 7.070312 -5.78125 7.753906 -5.046875 8.609375 -4.515625 C 9.472656 -3.992188 10.425781 -3.734375 11.46875 -3.734375 C 12.507812 -3.734375 13.457031 -3.992188 14.3125 -4.515625 C 15.175781 -5.046875 15.863281 -5.78125 16.375 -6.71875 C 16.882812 -7.664062 17.140625 -8.75 17.140625 -9.96875 Z M 17.140625 -9.96875 "/></g></g></g><g fill="#38b6ff" fill-opacity="1"><g transform="translate(276.167461, 315.309986)"><g><path d="M 6.65625 -2.28125 C 6.65625 -1.632812 6.441406 -1.09375 6.015625 -0.65625 C 5.585938 -0.21875 5.050781 0 4.40625 0 C 3.757812 0 3.222656 -0.21875 2.796875 -0.65625 C 2.378906 -1.09375 2.171875 -1.632812 2.171875 -2.28125 L 2.171875 -17.703125 C 2.171875 -18.359375 2.378906 -18.898438 2.796875 -19.328125 C 3.222656 -19.765625 3.757812 -19.984375 4.40625 -19.984375 C 5.050781 -19.984375 5.585938 -19.765625 6.015625 -19.328125 C 6.441406 -18.898438 6.65625 -18.359375 6.65625 -17.703125 Z M 4.359375 -22.421875 C 3.515625 -22.421875 2.914062 -22.554688 2.5625 -22.828125 C 2.21875 -23.097656 2.046875 -23.582031 2.046875 -24.28125 L 2.046875 -25 C 2.046875 -25.695312 2.234375 -26.179688 2.609375 -26.453125 C 2.984375 -26.722656 3.582031 -26.859375 4.40625 -26.859375 C 5.28125 -26.859375 5.890625 -26.722656 6.234375 -26.453125 C 6.578125 -26.179688 6.75 -25.695312 6.75 -25 L 6.75 -24.28125 C 6.75 -23.5625 6.566406 -23.070312 6.203125 -22.8125 C 5.847656 -22.550781 5.234375 -22.421875 4.359375 -22.421875 Z M 4.359375 -22.421875 "/></g></g></g><g fill="#38b6ff" fill-opacity="1"><g transform="translate(284.981509, 315.309986)"><g><path d="M 13.109375 -20.359375 C 15.648438 -20.359375 17.40625 -19.601562 18.375 -18.09375 C 19.351562 -16.59375 19.84375 -14.507812 19.84375 -11.84375 L 19.84375 -2.28125 C 19.84375 -1.632812 19.628906 -1.09375 19.203125 -0.65625 C 18.773438 -0.21875 18.238281 0 17.59375 0 C 16.945312 0 16.410156 -0.21875 15.984375 -0.65625 C 15.566406 -1.09375 15.359375 -1.632812 15.359375 -2.28125 L 15.359375 -11.84375 C 15.359375 -13.207031 15.070312 -14.28125 14.5 -15.0625 C 13.925781 -15.851562 12.941406 -16.25 11.546875 -16.25 C 10.097656 -16.25 8.960938 -15.832031 8.140625 -15 C 7.316406 -14.164062 6.90625 -13.113281 6.90625 -11.84375 L 6.90625 -2.28125 C 6.90625 -1.632812 6.691406 -1.09375 6.265625 -0.65625 C 5.847656 -0.21875 5.316406 0 4.671875 0 C 4.023438 0 3.488281 -0.21875 3.0625 -0.65625 C 2.632812 -1.09375 2.421875 -1.632812 2.421875 -2.28125 L 2.421875 -17.703125 C 2.421875 -18.359375 2.632812 -18.898438 3.0625 -19.328125 C 3.488281 -19.765625 4.023438 -19.984375 4.671875 -19.984375 C 5.316406 -19.984375 5.847656 -19.765625 6.265625 -19.328125 C 6.691406 -18.898438 6.90625 -18.359375 6.90625 -17.703125 L 6.90625 -17.078125 C 7.582031 -17.972656 8.460938 -18.742188 9.546875 -19.390625 C 10.628906 -20.035156 11.816406 -20.359375 13.109375 -20.359375 Z M 13.109375 -20.359375 "/></g></g></g><g fill="#38b6ff" fill-opacity="1"><g transform="translate(307.240692, 315.309986)"><g><path d="M 18.984375 -20.359375 C 19.628906 -20.359375 20.160156 -20.144531 20.578125 -19.71875 C 21.003906 -19.300781 21.21875 -18.753906 21.21875 -18.078125 L 21.21875 -1.453125 C 21.21875 1.578125 20.273438 3.820312 18.390625 5.28125 C 16.515625 6.738281 14.132812 7.46875 11.25 7.46875 C 10.5 7.46875 9.46875 7.34375 8.15625 7.09375 C 6.851562 6.84375 5.925781 6.59375 5.375 6.34375 C 4.15625 5.820312 3.546875 5.101562 3.546875 4.1875 C 3.546875 4.007812 3.582031 3.8125 3.65625 3.59375 C 3.8125 3.039062 4.066406 2.617188 4.421875 2.328125 C 4.785156 2.046875 5.179688 1.90625 5.609375 1.90625 C 5.859375 1.90625 6.09375 1.941406 6.3125 2.015625 C 6.414062 2.046875 7.03125 2.273438 8.15625 2.703125 C 9.289062 3.140625 10.320312 3.359375 11.25 3.359375 C 13.09375 3.359375 14.46875 2.988281 15.375 2.25 C 16.28125 1.519531 16.734375 0.484375 16.734375 -0.859375 L 16.734375 -2.65625 C 16.191406 -1.882812 15.363281 -1.1875 14.25 -0.5625 C 13.144531 0.0625 11.957031 0.375 10.6875 0.375 C 8.9375 0.375 7.34375 -0.0664062 5.90625 -0.953125 C 4.476562 -1.835938 3.351562 -3.0625 2.53125 -4.625 C 1.71875 -6.195312 1.3125 -7.976562 1.3125 -9.96875 C 1.3125 -11.96875 1.710938 -13.753906 2.515625 -15.328125 C 3.328125 -16.910156 4.4375 -18.144531 5.84375 -19.03125 C 7.25 -19.914062 8.8125 -20.359375 10.53125 -20.359375 C 11.800781 -20.359375 12.984375 -20.097656 14.078125 -19.578125 C 15.179688 -19.054688 16.066406 -18.421875 16.734375 -17.671875 L 16.734375 -18.078125 C 16.734375 -18.722656 16.941406 -19.265625 17.359375 -19.703125 C 17.785156 -20.140625 18.328125 -20.359375 18.984375 -20.359375 Z M 11.25 -3.734375 C 12.914062 -3.734375 14.273438 -4.320312 15.328125 -5.5 C 16.390625 -6.6875 16.921875 -8.175781 16.921875 -9.96875 C 16.921875 -11.769531 16.390625 -13.265625 15.328125 -14.453125 C 14.273438 -15.648438 12.914062 -16.25 11.25 -16.25 C 9.570312 -16.25 8.210938 -15.648438 7.171875 -14.453125 C 6.128906 -13.265625 5.609375 -11.769531 5.609375 -9.96875 C 5.609375 -8.175781 6.128906 -6.6875 7.171875 -5.5 C 8.210938 -4.320312 9.570312 -3.734375 11.25 -3.734375 Z M 11.25 -3.734375 "/></g></g></g></svg>