<svg xmlns="http://www.w3.org/2000/svg" xmlns:xlink="http://www.w3.org/1999/xlink" width="468" zoomAndPan="magnify" viewBox="0 0 351 93.749996" height="125" preserveAspectRatio="xMidYMid meet" version="1.0"><defs><g/><clipPath id="a364d65b57"><path d="M 0.71875 11.074219 L 99.457031 11.074219 L 99.457031 82.121094 L 0.71875 82.121094 Z M 0.71875 11.074219 " clip-rule="nonzero"/></clipPath></defs><path fill="#ffffff" d="M 82.742188 43.914062 C 78.132812 42.859375 78.132812 42.859375 77.75 38.433594 C 76.679688 27.273438 67.480469 18.859375 56.355469 18.859375 C 48.007812 18.859375 40.328125 23.804688 36.785156 31.441406 C 35.109375 35.082031 34.726562 36.4375 31.179688 35.023438 C 29.027344 34.167969 27 34.3125 27 34.3125 C 22.738281 34.3125 19.273438 37.777344 19.273438 42.039062 C 19.273438 42.746094 19.417969 43.527344 19.71875 44.425781 C 21.496094 48.796875 21.203125 49.28125 16.964844 51.714844 C 12.605469 54.257812 10 58.722656 10 63.667969 C 10 71.335938 16.242188 77.574219 23.910156 77.578125 L 79.53125 77.578125 L 79.53125 77.574219 C 88.90625 77.574219 96.53125 69.953125 96.53125 60.578125 C 96.53125 52.449219 90.734375 45.441406 82.742188 43.914062 Z M 82.742188 43.914062 " fill-opacity="1" fill-rule="evenodd"/><g clip-path="url(#a364d65b57)"><path fill="#38b6ff" d="M 80.804688 36.292969 C 79.449219 22.195312 67.707031 11.132812 53.253906 11.132812 C 42.070312 11.132812 32.492188 17.769531 28.078125 27.296875 C 26.75 26.871094 25.367188 26.582031 23.898438 26.582031 C 16.21875 26.582031 9.992188 32.8125 9.992188 40.488281 C 9.992188 42.015625 10.296875 43.460938 10.75 44.832031 C 4.777344 48.3125 0.71875 54.710938 0.71875 62.121094 C 0.71875 73.214844 9.714844 82.207031 20.808594 82.207031 L 20.808594 82.210938 L 76.433594 82.210938 L 76.433594 82.207031 C 89.234375 82.207031 99.609375 71.835938 99.609375 59.027344 C 99.609375 47.726562 91.511719 38.339844 80.804688 36.292969 M 76.433594 76.027344 L 76.433594 76.03125 L 20.808594 76.03125 C 13.140625 76.027344 6.902344 69.789062 6.902344 62.121094 C 6.902344 57.175781 9.503906 52.710938 13.867188 50.167969 C 18.101562 47.734375 18.394531 47.25 16.617188 42.882812 C 16.316406 41.980469 16.171875 41.195312 16.171875 40.488281 C 16.171875 36.226562 19.636719 32.765625 23.898438 32.765625 C 23.898438 32.765625 25.925781 32.621094 28.078125 33.476562 C 31.625 34.886719 32.011719 33.535156 33.683594 29.894531 C 37.226562 22.253906 44.910156 17.3125 53.253906 17.3125 C 64.378906 17.3125 73.578125 25.726562 74.648438 36.886719 C 75.03125 41.3125 75.03125 41.3125 79.644531 42.367188 C 87.632812 43.894531 93.429688 50.902344 93.429688 59.03125 C 93.429688 68.402344 85.808594 76.027344 76.433594 76.027344 " fill-opacity="1" fill-rule="evenodd"/></g><path fill="#38b6ff" d="M 15.992188 66.113281 C 15.992188 66.328125 15.949219 66.535156 15.867188 66.730469 C 15.785156 66.929688 15.667969 67.105469 15.515625 67.257812 C 15.367188 67.410156 15.191406 67.523438 14.992188 67.605469 C 14.792969 67.691406 14.585938 67.730469 14.375 67.730469 C 14.160156 67.730469 13.953125 67.691406 13.753906 67.605469 C 13.554688 67.523438 13.382812 67.410156 13.230469 67.257812 C 13.078125 67.105469 12.960938 66.929688 12.878906 66.730469 C 12.796875 66.535156 12.757812 66.328125 12.757812 66.113281 C 12.757812 65.898438 12.796875 65.691406 12.878906 65.496094 C 12.960938 65.296875 13.078125 65.121094 13.230469 64.96875 C 13.382812 64.816406 13.554688 64.699219 13.753906 64.617188 C 13.953125 64.535156 14.160156 64.496094 14.375 64.496094 C 14.585938 64.496094 14.792969 64.535156 14.992188 64.617188 C 15.191406 64.699219 15.367188 64.816406 15.515625 64.96875 C 15.667969 65.121094 15.785156 65.296875 15.867188 65.496094 C 15.949219 65.691406 15.992188 65.898438 15.992188 66.113281 Z M 15.992188 66.113281 " fill-opacity="1" fill-rule="nonzero"/><path fill="#38b6ff" d="M 25.890625 48.21875 C 25.882812 48.21875 25.882812 48.222656 25.878906 48.222656 C 18.628906 48.226562 12.753906 54.105469 12.753906 61.355469 C 12.753906 62.207031 13.449219 62.898438 14.300781 62.898438 C 15.152344 62.898438 15.84375 62.207031 15.84375 61.355469 L 15.84375 61.351562 C 15.84375 55.804688 20.34375 51.308594 25.886719 51.308594 L 25.890625 51.308594 C 26.742188 51.308594 27.433594 50.617188 27.433594 49.765625 C 27.433594 48.910156 26.742188 48.21875 25.890625 48.21875 " fill-opacity="1" fill-rule="evenodd"/><g fill="#38b6ff" fill-opacity="1"><g transform="translate(99.627282, 41.222583)"><g><path d="M 17.984375 -21.203125 C 18.648438 -20.867188 18.984375 -20.328125 18.984375 -19.578125 C 18.984375 -19.140625 18.820312 -18.707031 18.5 -18.28125 C 18.15625 -17.832031 17.722656 -17.609375 17.203125 -17.609375 C 16.835938 -17.609375 16.472656 -17.703125 16.109375 -17.890625 C 15.066406 -18.378906 13.941406 -18.625 12.734375 -18.625 C 11.253906 -18.625 9.960938 -18.3125 8.859375 -17.6875 C 7.753906 -17.0625 6.898438 -16.179688 6.296875 -15.046875 C 5.703125 -13.910156 5.40625 -12.609375 5.40625 -11.140625 C 5.40625 -8.640625 6.078125 -6.738281 7.421875 -5.4375 C 8.773438 -4.144531 10.546875 -3.5 12.734375 -3.5 C 14.035156 -3.5 15.160156 -3.742188 16.109375 -4.234375 C 16.492188 -4.398438 16.832031 -4.484375 17.125 -4.484375 C 17.675781 -4.484375 18.144531 -4.253906 18.53125 -3.796875 C 18.851562 -3.390625 19.015625 -2.953125 19.015625 -2.484375 C 19.015625 -2.140625 18.925781 -1.828125 18.75 -1.546875 C 18.582031 -1.273438 18.34375 -1.066406 18.03125 -0.921875 C 16.375 -0.0976562 14.609375 0.3125 12.734375 0.3125 C 10.648438 0.3125 8.738281 -0.125 7 -1 C 5.257812 -1.882812 3.867188 -3.1875 2.828125 -4.90625 C 1.796875 -6.625 1.28125 -8.703125 1.28125 -11.140625 C 1.28125 -13.304688 1.769531 -15.25 2.75 -16.96875 C 3.738281 -18.6875 5.101562 -20.03125 6.84375 -21 C 8.582031 -21.96875 10.546875 -22.453125 12.734375 -22.453125 C 14.628906 -22.453125 16.378906 -22.035156 17.984375 -21.203125 Z M 17.984375 -21.203125 "/></g></g></g><g fill="#38b6ff" fill-opacity="1"><g transform="translate(119.595091, 41.222583)"><g><path d="M 14.6875 -3.71875 C 15.238281 -3.71875 15.695312 -3.539062 16.0625 -3.1875 C 16.4375 -2.84375 16.625 -2.394531 16.625 -1.84375 C 16.625 -1.3125 16.4375 -0.867188 16.0625 -0.515625 C 15.695312 -0.171875 15.238281 0 14.6875 0 L 4.328125 0 C 3.773438 0 3.3125 -0.179688 2.9375 -0.546875 C 2.570312 -0.921875 2.390625 -1.382812 2.390625 -1.9375 L 2.390625 -20.34375 C 2.390625 -20.894531 2.578125 -21.359375 2.953125 -21.734375 C 3.335938 -22.109375 3.828125 -22.296875 4.421875 -22.296875 C 4.953125 -22.296875 5.410156 -22.109375 5.796875 -21.734375 C 6.179688 -21.359375 6.375 -20.894531 6.375 -20.34375 L 6.375 -3.71875 Z M 14.6875 -3.71875 "/></g></g></g><g fill="#38b6ff" fill-opacity="1"><g transform="translate(137.492875, 41.222583)"><g><path d="M 22.890625 -11.140625 C 22.890625 -9.046875 22.421875 -7.117188 21.484375 -5.359375 C 20.554688 -3.609375 19.269531 -2.222656 17.625 -1.203125 C 15.976562 -0.191406 14.125 0.3125 12.0625 0.3125 C 10.007812 0.3125 8.160156 -0.191406 6.515625 -1.203125 C 4.867188 -2.222656 3.582031 -3.609375 2.65625 -5.359375 C 1.738281 -7.117188 1.28125 -9.046875 1.28125 -11.140625 C 1.28125 -13.242188 1.738281 -15.171875 2.65625 -16.921875 C 3.582031 -18.671875 4.867188 -20.054688 6.515625 -21.078125 C 8.160156 -22.097656 10.007812 -22.609375 12.0625 -22.609375 C 14.125 -22.609375 15.976562 -22.097656 17.625 -21.078125 C 19.269531 -20.054688 20.554688 -18.671875 21.484375 -16.921875 C 22.421875 -15.171875 22.890625 -13.242188 22.890625 -11.140625 Z M 18.75 -11.140625 C 18.75 -12.566406 18.460938 -13.859375 17.890625 -15.015625 C 17.316406 -16.171875 16.519531 -17.085938 15.5 -17.765625 C 14.488281 -18.441406 13.34375 -18.78125 12.0625 -18.78125 C 10.769531 -18.78125 9.617188 -18.445312 8.609375 -17.78125 C 7.597656 -17.113281 6.8125 -16.195312 6.25 -15.03125 C 5.6875 -13.863281 5.40625 -12.566406 5.40625 -11.140625 C 5.40625 -9.722656 5.6875 -8.429688 6.25 -7.265625 C 6.8125 -6.097656 7.597656 -5.175781 8.609375 -4.5 C 9.617188 -3.832031 10.769531 -3.5 12.0625 -3.5 C 13.34375 -3.5 14.488281 -3.835938 15.5 -4.515625 C 16.519531 -5.203125 17.316406 -6.125 17.890625 -7.28125 C 18.460938 -8.4375 18.75 -9.722656 18.75 -11.140625 Z M 18.75 -11.140625 "/></g></g></g><g fill="#38b6ff" fill-opacity="1"><g transform="translate(161.664434, 41.222583)"><g><path d="M 18.21875 -22.328125 C 18.769531 -22.328125 19.210938 -22.144531 19.546875 -21.78125 C 19.890625 -21.414062 20.0625 -20.945312 20.0625 -20.375 L 20.0625 -8.859375 C 20.0625 -7.085938 19.6875 -5.523438 18.9375 -4.171875 C 18.195312 -2.816406 17.15625 -1.753906 15.8125 -0.984375 C 14.476562 -0.222656 12.953125 0.15625 11.234375 0.15625 C 9.515625 0.15625 7.984375 -0.222656 6.640625 -0.984375 C 5.296875 -1.753906 4.25 -2.816406 3.5 -4.171875 C 2.757812 -5.523438 2.390625 -7.085938 2.390625 -8.859375 L 2.390625 -20.375 C 2.390625 -20.925781 2.578125 -21.390625 2.953125 -21.765625 C 3.335938 -22.140625 3.828125 -22.328125 4.421875 -22.328125 C 4.929688 -22.328125 5.378906 -22.140625 5.765625 -21.765625 C 6.148438 -21.390625 6.34375 -20.925781 6.34375 -20.375 L 6.34375 -8.859375 C 6.34375 -7.835938 6.5625 -6.925781 7 -6.125 C 7.445312 -5.332031 8.046875 -4.722656 8.796875 -4.296875 C 9.554688 -3.867188 10.367188 -3.65625 11.234375 -3.65625 C 12.148438 -3.65625 13.003906 -3.867188 13.796875 -4.296875 C 14.597656 -4.722656 15.238281 -5.332031 15.71875 -6.125 C 16.195312 -6.925781 16.4375 -7.835938 16.4375 -8.859375 L 16.4375 -20.375 C 16.4375 -20.945312 16.59375 -21.414062 16.90625 -21.78125 C 17.226562 -22.144531 17.664062 -22.328125 18.21875 -22.328125 Z M 18.21875 -22.328125 "/></g></g></g><g fill="#38b6ff" fill-opacity="1"><g transform="translate(184.116274, 41.222583)"><g><path d="M 11.9375 -22.296875 C 13.9375 -22.296875 15.648438 -21.800781 17.078125 -20.8125 C 18.515625 -19.820312 19.609375 -18.484375 20.359375 -16.796875 C 21.117188 -15.109375 21.5 -13.222656 21.5 -11.140625 C 21.5 -9.066406 21.117188 -7.1875 20.359375 -5.5 C 19.609375 -3.8125 18.515625 -2.472656 17.078125 -1.484375 C 15.648438 -0.492188 13.9375 0 11.9375 0 L 4.328125 0 C 3.773438 0 3.3125 -0.179688 2.9375 -0.546875 C 2.570312 -0.921875 2.390625 -1.382812 2.390625 -1.9375 L 2.390625 -20.34375 C 2.390625 -20.894531 2.570312 -21.359375 2.9375 -21.734375 C 3.3125 -22.109375 3.773438 -22.296875 4.328125 -22.296875 Z M 11.625 -3.65625 C 13.53125 -3.65625 14.960938 -4.359375 15.921875 -5.765625 C 16.878906 -7.179688 17.359375 -8.972656 17.359375 -11.140625 C 17.359375 -13.304688 16.875 -15.09375 15.90625 -16.5 C 14.9375 -17.914062 13.507812 -18.625 11.625 -18.625 L 6.375 -18.625 L 6.375 -3.65625 Z M 11.625 -3.65625 "/></g></g></g><g fill="#38b6ff" fill-opacity="1"><g transform="translate(206.886583, 41.222583)"><g/></g></g><g fill="#38b6ff" fill-opacity="1"><g transform="translate(215.803628, 41.222583)"><g><path d="M 15.765625 -12.359375 C 16.890625 -11.910156 17.804688 -11.226562 18.515625 -10.3125 C 19.222656 -9.40625 19.578125 -8.226562 19.578125 -6.78125 C 19.578125 -4.257812 18.851562 -2.5 17.40625 -1.5 C 15.96875 -0.5 14.253906 0 12.265625 0 L 4.328125 0 C 3.773438 0 3.3125 -0.179688 2.9375 -0.546875 C 2.570312 -0.921875 2.390625 -1.382812 2.390625 -1.9375 L 2.390625 -20.34375 C 2.390625 -20.894531 2.570312 -21.359375 2.9375 -21.734375 C 3.3125 -22.109375 3.773438 -22.296875 4.328125 -22.296875 L 12.359375 -22.296875 C 16.390625 -22.296875 18.40625 -20.40625 18.40625 -16.625 C 18.40625 -15.664062 18.175781 -14.820312 17.71875 -14.09375 C 17.257812 -13.363281 16.609375 -12.785156 15.765625 -12.359375 Z M 14.265625 -15.921875 C 14.265625 -16.796875 14.046875 -17.445312 13.609375 -17.875 C 13.171875 -18.3125 12.5625 -18.53125 11.78125 -18.53125 L 6.53125 -18.53125 L 6.53125 -13.5625 L 11.875 -13.5625 C 12.507812 -13.5625 13.066406 -13.773438 13.546875 -14.203125 C 14.023438 -14.628906 14.265625 -15.203125 14.265625 -15.921875 Z M 12.265625 -3.65625 C 13.253906 -3.65625 14.03125 -3.921875 14.59375 -4.453125 C 15.15625 -4.984375 15.4375 -5.757812 15.4375 -6.78125 C 15.4375 -8.03125 15.109375 -8.847656 14.453125 -9.234375 C 13.796875 -9.617188 12.988281 -9.8125 12.03125 -9.8125 L 6.53125 -9.8125 L 6.53125 -3.65625 Z M 12.265625 -3.65625 "/></g></g></g><g fill="#38b6ff" fill-opacity="1"><g transform="translate(236.663143, 41.222583)"><g><path d="M 6.375 -1.9375 C 6.375 -1.382812 6.171875 -0.921875 5.765625 -0.546875 C 5.359375 -0.179688 4.890625 0 4.359375 0 C 3.785156 0 3.3125 -0.179688 2.9375 -0.546875 C 2.570312 -0.921875 2.390625 -1.382812 2.390625 -1.9375 L 2.390625 -20.34375 C 2.390625 -20.894531 2.578125 -21.359375 2.953125 -21.734375 C 3.335938 -22.109375 3.828125 -22.296875 4.421875 -22.296875 C 4.953125 -22.296875 5.410156 -22.109375 5.796875 -21.734375 C 6.179688 -21.359375 6.375 -20.894531 6.375 -20.34375 Z M 6.375 -1.9375 "/></g></g></g><g fill="#38b6ff" fill-opacity="1"><g transform="translate(245.420966, 41.222583)"><g><path d="M 19.296875 -22.296875 C 19.804688 -22.296875 20.21875 -22.125 20.53125 -21.78125 C 20.851562 -21.4375 21.015625 -21.007812 21.015625 -20.5 L 21.015625 -1.9375 C 21.015625 -1.382812 20.828125 -0.921875 20.453125 -0.546875 C 20.085938 -0.179688 19.628906 0 19.078125 0 C 18.773438 0 18.476562 -0.046875 18.1875 -0.140625 C 17.90625 -0.234375 17.703125 -0.367188 17.578125 -0.546875 L 5.890625 -15.375 L 5.890625 -1.78125 C 5.890625 -1.269531 5.722656 -0.84375 5.390625 -0.5 C 5.066406 -0.164062 4.640625 0 4.109375 0 C 3.597656 0 3.179688 -0.164062 2.859375 -0.5 C 2.546875 -0.84375 2.390625 -1.269531 2.390625 -1.78125 L 2.390625 -20.34375 C 2.390625 -20.894531 2.570312 -21.359375 2.9375 -21.734375 C 3.3125 -22.109375 3.773438 -22.296875 4.328125 -22.296875 C 4.648438 -22.296875 4.960938 -22.226562 5.265625 -22.09375 C 5.578125 -21.96875 5.804688 -21.800781 5.953125 -21.59375 L 17.546875 -6.8125 L 17.546875 -20.5 C 17.546875 -21.007812 17.707031 -21.4375 18.03125 -21.78125 C 18.363281 -22.125 18.785156 -22.296875 19.296875 -22.296875 Z M 19.296875 -22.296875 "/></g></g></g><g fill="#38b6ff" fill-opacity="1"><g transform="translate(268.828198, 41.222583)"><g><path d="M 19.875 -2.484375 C 19.976562 -2.203125 20.03125 -1.945312 20.03125 -1.71875 C 20.03125 -1.164062 19.847656 -0.710938 19.484375 -0.359375 C 19.128906 -0.015625 18.71875 0.15625 18.25 0.15625 C 17.863281 0.15625 17.515625 0.0390625 17.203125 -0.1875 C 16.898438 -0.425781 16.664062 -0.742188 16.5 -1.140625 L 14.84375 -5 L 5.34375 -5 L 3.6875 -1.109375 C 3.539062 -0.710938 3.3125 -0.398438 3 -0.171875 C 2.695312 0.046875 2.363281 0.15625 2 0.15625 C 1.445312 0.15625 1.023438 0.0078125 0.734375 -0.28125 C 0.453125 -0.582031 0.3125 -0.988281 0.3125 -1.5 C 0.3125 -1.6875 0.34375 -1.890625 0.40625 -2.109375 L 8.34375 -21.140625 C 8.507812 -21.566406 8.757812 -21.894531 9.09375 -22.125 C 9.4375 -22.363281 9.820312 -22.460938 10.25 -22.421875 C 10.632812 -22.421875 10.988281 -22.304688 11.3125 -22.078125 C 11.644531 -21.859375 11.882812 -21.546875 12.03125 -21.140625 Z M 6.90625 -8.65625 L 13.28125 -8.65625 L 10.0625 -16.109375 Z M 6.90625 -8.65625 "/></g></g></g><g fill="#38b6ff" fill-opacity="1"><g transform="translate(289.17817, 41.222583)"><g><path d="M 19.875 -3.125 C 20.144531 -2.945312 20.359375 -2.71875 20.515625 -2.4375 C 20.679688 -2.164062 20.765625 -1.882812 20.765625 -1.59375 C 20.765625 -1.207031 20.632812 -0.859375 20.375 -0.546875 C 20.0625 -0.160156 19.578125 0.03125 18.921875 0.03125 C 18.410156 0.03125 17.941406 -0.0820312 17.515625 -0.3125 C 15.984375 -1.1875 15.21875 -2.960938 15.21875 -5.640625 C 15.21875 -6.398438 14.96875 -7.003906 14.46875 -7.453125 C 13.96875 -7.898438 13.253906 -8.125 12.328125 -8.125 L 6.375 -8.125 L 6.375 -1.9375 C 6.375 -1.363281 6.21875 -0.894531 5.90625 -0.53125 C 5.59375 -0.175781 5.1875 0 4.6875 0 C 4.0625 0 3.519531 -0.179688 3.0625 -0.546875 C 2.613281 -0.921875 2.390625 -1.382812 2.390625 -1.9375 L 2.390625 -20.34375 C 2.390625 -20.894531 2.570312 -21.359375 2.9375 -21.734375 C 3.3125 -22.109375 3.773438 -22.296875 4.328125 -22.296875 L 13.5 -22.296875 C 14.601562 -22.296875 15.644531 -21.992188 16.625 -21.390625 C 17.601562 -20.796875 18.382812 -19.976562 18.96875 -18.9375 C 19.550781 -17.90625 19.84375 -16.738281 19.84375 -15.4375 C 19.84375 -14.382812 19.554688 -13.351562 18.984375 -12.34375 C 18.410156 -11.332031 17.664062 -10.53125 16.75 -9.9375 C 18.082031 -9 18.816406 -7.742188 18.953125 -6.171875 C 19.015625 -5.835938 19.046875 -5.507812 19.046875 -5.1875 C 19.128906 -4.53125 19.210938 -4.054688 19.296875 -3.765625 C 19.378906 -3.484375 19.570312 -3.269531 19.875 -3.125 Z M 13.34375 -11.40625 C 13.726562 -11.40625 14.097656 -11.582031 14.453125 -11.9375 C 14.816406 -12.300781 15.113281 -12.785156 15.34375 -13.390625 C 15.582031 -13.992188 15.703125 -14.644531 15.703125 -15.34375 C 15.703125 -15.9375 15.582031 -16.484375 15.34375 -16.984375 C 15.113281 -17.484375 14.816406 -17.878906 14.453125 -18.171875 C 14.097656 -18.472656 13.726562 -18.625 13.34375 -18.625 L 6.375 -18.625 L 6.375 -11.40625 Z M 13.34375 -11.40625 "/></g></g></g><g fill="#38b6ff" fill-opacity="1"><g transform="translate(311.056764, 41.222583)"><g><path d="M 18.5 -20.40625 C 18.5 -19.988281 18.382812 -19.597656 18.15625 -19.234375 L 11.5 -9.71875 L 11.5 -1.9375 C 11.5 -1.382812 11.316406 -0.921875 10.953125 -0.546875 C 10.585938 -0.179688 10.15625 0 9.65625 0 C 9.125 0 8.671875 -0.179688 8.296875 -0.546875 C 7.921875 -0.921875 7.734375 -1.382812 7.734375 -1.9375 L 7.734375 -10.15625 L 1.109375 -18.953125 C 0.734375 -19.460938 0.546875 -19.957031 0.546875 -20.4375 C 0.546875 -20.988281 0.757812 -21.453125 1.1875 -21.828125 C 1.625 -22.203125 2.085938 -22.390625 2.578125 -22.390625 C 3.171875 -22.390625 3.691406 -22.09375 4.140625 -21.5 L 9.75 -13.75 L 15 -21.4375 C 15.445312 -22.070312 15.976562 -22.390625 16.59375 -22.390625 C 17.101562 -22.390625 17.546875 -22.195312 17.921875 -21.8125 C 18.304688 -21.425781 18.5 -20.957031 18.5 -20.40625 Z M 18.5 -20.40625 "/></g></g></g><g fill="#38b6ff" fill-opacity="1"><g transform="translate(330.043483, 41.222583)"><g/></g></g><g fill="#38b6ff" fill-opacity="1"><g transform="translate(133.598583, 76.673773)"><g><path d="M 10.734375 -2.71875 C 11.140625 -2.71875 11.476562 -2.585938 11.75 -2.328125 C 12.019531 -2.078125 12.15625 -1.75 12.15625 -1.34375 C 12.15625 -0.957031 12.019531 -0.632812 11.75 -0.375 C 11.476562 -0.125 11.140625 0 10.734375 0 L 3.171875 0 C 2.765625 0 2.425781 -0.132812 2.15625 -0.40625 C 1.882812 -0.675781 1.75 -1.015625 1.75 -1.421875 L 1.75 -14.890625 C 1.75 -15.296875 1.890625 -15.632812 2.171875 -15.90625 C 2.453125 -16.175781 2.804688 -16.3125 3.234375 -16.3125 C 3.628906 -16.3125 3.960938 -16.175781 4.234375 -15.90625 C 4.515625 -15.632812 4.65625 -15.296875 4.65625 -14.890625 L 4.65625 -2.71875 Z M 10.734375 -2.71875 "/></g></g></g><g fill="#38b6ff" fill-opacity="1"><g transform="translate(146.687367, 76.673773)"><g><path d="M 12.703125 -6.515625 C 12.679688 -6.148438 12.53125 -5.847656 12.25 -5.609375 C 11.96875 -5.378906 11.644531 -5.265625 11.28125 -5.265625 L 3.59375 -5.265625 C 3.78125 -4.347656 4.207031 -3.628906 4.875 -3.109375 C 5.539062 -2.585938 6.289062 -2.328125 7.125 -2.328125 C 7.757812 -2.328125 8.253906 -2.382812 8.609375 -2.5 C 8.972656 -2.613281 9.257812 -2.738281 9.46875 -2.875 C 9.675781 -3.007812 9.820312 -3.097656 9.90625 -3.140625 C 10.1875 -3.285156 10.445312 -3.359375 10.6875 -3.359375 C 11.019531 -3.359375 11.300781 -3.238281 11.53125 -3 C 11.757812 -2.769531 11.875 -2.5 11.875 -2.1875 C 11.875 -1.769531 11.660156 -1.390625 11.234375 -1.046875 C 10.796875 -0.691406 10.210938 -0.390625 9.484375 -0.140625 C 8.753906 0.109375 8.015625 0.234375 7.265625 0.234375 C 5.960938 0.234375 4.828125 -0.0351562 3.859375 -0.578125 C 2.890625 -1.117188 2.140625 -1.867188 1.609375 -2.828125 C 1.078125 -3.785156 0.8125 -4.863281 0.8125 -6.0625 C 0.8125 -7.394531 1.09375 -8.566406 1.65625 -9.578125 C 2.21875 -10.585938 2.953125 -11.359375 3.859375 -11.890625 C 4.773438 -12.429688 5.753906 -12.703125 6.796875 -12.703125 C 7.828125 -12.703125 8.796875 -12.421875 9.703125 -11.859375 C 10.609375 -11.296875 11.332031 -10.539062 11.875 -9.59375 C 12.425781 -8.644531 12.703125 -7.617188 12.703125 -6.515625 Z M 6.796875 -10.140625 C 4.992188 -10.140625 3.929688 -9.289062 3.609375 -7.59375 L 9.71875 -7.59375 L 9.71875 -7.765625 C 9.65625 -8.410156 9.332031 -8.96875 8.75 -9.4375 C 8.175781 -9.90625 7.523438 -10.140625 6.796875 -10.140625 Z M 6.796875 -10.140625 "/></g></g></g><g fill="#38b6ff" fill-opacity="1"><g transform="translate(160.195364, 76.673773)"><g><path d="M 11.609375 -12.703125 C 12.003906 -12.703125 12.332031 -12.566406 12.59375 -12.296875 C 12.863281 -12.035156 13 -11.695312 13 -11.28125 L 13 -1.421875 C 13 -1.015625 12.863281 -0.675781 12.59375 -0.40625 C 12.332031 -0.132812 12.003906 0 11.609375 0 C 11.203125 0 10.867188 -0.128906 10.609375 -0.390625 C 10.359375 -0.660156 10.222656 -0.992188 10.203125 -1.390625 C 9.816406 -0.941406 9.289062 -0.554688 8.625 -0.234375 C 7.96875 0.078125 7.273438 0.234375 6.546875 0.234375 C 5.472656 0.234375 4.5 -0.0390625 3.625 -0.59375 C 2.757812 -1.144531 2.070312 -1.910156 1.5625 -2.890625 C 1.0625 -3.867188 0.8125 -4.976562 0.8125 -6.21875 C 0.8125 -7.457031 1.0625 -8.570312 1.5625 -9.5625 C 2.0625 -10.550781 2.738281 -11.320312 3.59375 -11.875 C 4.457031 -12.425781 5.410156 -12.703125 6.453125 -12.703125 C 7.203125 -12.703125 7.898438 -12.5625 8.546875 -12.28125 C 9.203125 -12.007812 9.753906 -11.664062 10.203125 -11.25 L 10.203125 -11.28125 C 10.203125 -11.675781 10.332031 -12.007812 10.59375 -12.28125 C 10.863281 -12.5625 11.203125 -12.703125 11.609375 -12.703125 Z M 6.890625 -2.328125 C 7.898438 -2.328125 8.722656 -2.695312 9.359375 -3.4375 C 10.003906 -4.175781 10.328125 -5.101562 10.328125 -6.21875 C 10.328125 -7.332031 10.003906 -8.265625 9.359375 -9.015625 C 8.722656 -9.765625 7.898438 -10.140625 6.890625 -10.140625 C 5.898438 -10.140625 5.085938 -9.765625 4.453125 -9.015625 C 3.816406 -8.265625 3.5 -7.332031 3.5 -6.21875 C 3.5 -5.101562 3.8125 -4.175781 4.4375 -3.4375 C 5.0625 -2.695312 5.878906 -2.328125 6.890625 -2.328125 Z M 6.890625 -2.328125 "/></g></g></g><g fill="#38b6ff" fill-opacity="1"><g transform="translate(174.704824, 76.673773)"><g><path d="M 7.984375 -12.703125 C 8.453125 -12.703125 8.84375 -12.566406 9.15625 -12.296875 C 9.476562 -12.035156 9.640625 -11.726562 9.640625 -11.375 C 9.640625 -10.882812 9.515625 -10.519531 9.265625 -10.28125 C 9.023438 -10.039062 8.734375 -9.921875 8.390625 -9.921875 C 8.148438 -9.921875 7.882812 -9.976562 7.59375 -10.09375 C 7.550781 -10.101562 7.445312 -10.128906 7.28125 -10.171875 C 7.113281 -10.222656 6.9375 -10.25 6.75 -10.25 C 6.351562 -10.25 5.96875 -10.125 5.59375 -9.875 C 5.21875 -9.625 4.910156 -9.242188 4.671875 -8.734375 C 4.429688 -8.234375 4.3125 -7.632812 4.3125 -6.9375 L 4.3125 -1.421875 C 4.3125 -1.015625 4.175781 -0.675781 3.90625 -0.40625 C 3.644531 -0.132812 3.3125 0 2.90625 0 C 2.507812 0 2.175781 -0.132812 1.90625 -0.40625 C 1.644531 -0.675781 1.515625 -1.015625 1.515625 -1.421875 L 1.515625 -11.046875 C 1.515625 -11.441406 1.644531 -11.773438 1.90625 -12.046875 C 2.175781 -12.328125 2.507812 -12.46875 2.90625 -12.46875 C 3.3125 -12.46875 3.644531 -12.328125 3.90625 -12.046875 C 4.175781 -11.773438 4.3125 -11.441406 4.3125 -11.046875 L 4.3125 -10.734375 C 4.664062 -11.367188 5.175781 -11.851562 5.84375 -12.1875 C 6.507812 -12.53125 7.222656 -12.703125 7.984375 -12.703125 Z M 7.984375 -12.703125 "/></g></g></g><g fill="#38b6ff" fill-opacity="1"><g transform="translate(184.812531, 76.673773)"><g><path d="M 8.171875 -12.703125 C 9.753906 -12.703125 10.847656 -12.226562 11.453125 -11.28125 C 12.066406 -10.34375 12.375 -9.046875 12.375 -7.390625 L 12.375 -1.421875 C 12.375 -1.015625 12.238281 -0.675781 11.96875 -0.40625 C 11.707031 -0.132812 11.375 0 10.96875 0 C 10.5625 0 10.226562 -0.132812 9.96875 -0.40625 C 9.707031 -0.675781 9.578125 -1.015625 9.578125 -1.421875 L 9.578125 -7.390625 C 9.578125 -8.242188 9.394531 -8.914062 9.03125 -9.40625 C 8.675781 -9.894531 8.066406 -10.140625 7.203125 -10.140625 C 6.296875 -10.140625 5.585938 -9.878906 5.078125 -9.359375 C 4.566406 -8.835938 4.3125 -8.179688 4.3125 -7.390625 L 4.3125 -1.421875 C 4.3125 -1.015625 4.175781 -0.675781 3.90625 -0.40625 C 3.644531 -0.132812 3.3125 0 2.90625 0 C 2.507812 0 2.175781 -0.132812 1.90625 -0.40625 C 1.644531 -0.675781 1.515625 -1.015625 1.515625 -1.421875 L 1.515625 -11.046875 C 1.515625 -11.441406 1.644531 -11.773438 1.90625 -12.046875 C 2.175781 -12.328125 2.507812 -12.46875 2.90625 -12.46875 C 3.3125 -12.46875 3.644531 -12.328125 3.90625 -12.046875 C 4.175781 -11.773438 4.3125 -11.441406 4.3125 -11.046875 L 4.3125 -10.640625 C 4.726562 -11.203125 5.273438 -11.6875 5.953125 -12.09375 C 6.628906 -12.5 7.367188 -12.703125 8.171875 -12.703125 Z M 8.171875 -12.703125 "/></g></g></g><g fill="#38b6ff" fill-opacity="1"><g transform="translate(198.693165, 76.673773)"><g/></g></g><g fill="#38b6ff" fill-opacity="1"><g transform="translate(205.214272, 76.673773)"><g><path d="M 7.96875 -12.703125 C 9.039062 -12.703125 10.007812 -12.425781 10.875 -11.875 C 11.75 -11.320312 12.4375 -10.554688 12.9375 -9.578125 C 13.445312 -8.597656 13.703125 -7.488281 13.703125 -6.25 C 13.703125 -5 13.453125 -3.878906 12.953125 -2.890625 C 12.453125 -1.910156 11.769531 -1.144531 10.90625 -0.59375 C 10.050781 -0.0390625 9.101562 0.234375 8.0625 0.234375 C 7.3125 0.234375 6.609375 0.0820312 5.953125 -0.21875 C 5.296875 -0.519531 4.75 -0.890625 4.3125 -1.328125 L 4.3125 -1.1875 C 4.3125 -0.78125 4.175781 -0.441406 3.90625 -0.171875 C 3.644531 0.0976562 3.3125 0.234375 2.90625 0.234375 C 2.507812 0.234375 2.175781 0.101562 1.90625 -0.15625 C 1.644531 -0.425781 1.515625 -0.769531 1.515625 -1.1875 L 1.515625 -15.8125 C 1.515625 -16.21875 1.644531 -16.554688 1.90625 -16.828125 C 2.175781 -17.097656 2.507812 -17.234375 2.90625 -17.234375 C 3.3125 -17.234375 3.644531 -17.097656 3.90625 -16.828125 C 4.175781 -16.554688 4.3125 -16.21875 4.3125 -15.8125 L 4.3125 -10.953125 C 4.6875 -11.410156 5.207031 -11.816406 5.875 -12.171875 C 6.539062 -12.523438 7.238281 -12.703125 7.96875 -12.703125 Z M 7.625 -2.328125 C 8.613281 -2.328125 9.425781 -2.695312 10.0625 -3.4375 C 10.695312 -4.1875 11.015625 -5.125 11.015625 -6.25 C 11.015625 -7.363281 10.695312 -8.289062 10.0625 -9.03125 C 9.4375 -9.769531 8.625 -10.140625 7.625 -10.140625 C 6.613281 -10.140625 5.785156 -9.769531 5.140625 -9.03125 C 4.503906 -8.289062 4.1875 -7.363281 4.1875 -6.25 C 4.1875 -5.125 4.503906 -4.1875 5.140625 -3.4375 C 5.785156 -2.695312 6.613281 -2.328125 7.625 -2.328125 Z M 7.625 -2.328125 "/></g></g></g><g fill="#38b6ff" fill-opacity="1"><g transform="translate(219.723731, 76.673773)"><g><path d="M 10.765625 -12.46875 C 11.171875 -12.46875 11.503906 -12.328125 11.765625 -12.046875 C 12.023438 -11.773438 12.15625 -11.441406 12.15625 -11.046875 L 12.15625 -1.140625 C 12.15625 0.878906 11.613281 2.347656 10.53125 3.265625 C 9.445312 4.191406 7.992188 4.65625 6.171875 4.65625 C 5.640625 4.65625 5.097656 4.613281 4.546875 4.53125 C 4.003906 4.445312 3.5625 4.332031 3.21875 4.1875 C 2.457031 3.863281 2.078125 3.414062 2.078125 2.84375 C 2.078125 2.726562 2.097656 2.601562 2.140625 2.46875 C 2.234375 2.125 2.390625 1.863281 2.609375 1.6875 C 2.835938 1.507812 3.085938 1.421875 3.359375 1.421875 C 3.515625 1.421875 3.660156 1.441406 3.796875 1.484375 C 3.898438 1.535156 4.085938 1.613281 4.359375 1.71875 C 4.640625 1.832031 4.929688 1.921875 5.234375 1.984375 C 5.535156 2.054688 5.847656 2.09375 6.171875 2.09375 C 7.273438 2.09375 8.085938 1.851562 8.609375 1.375 C 9.128906 0.90625 9.390625 0.0976562 9.390625 -1.046875 L 9.390625 -1.28125 C 8.578125 -0.269531 7.316406 0.234375 5.609375 0.234375 C 4.804688 0.234375 4.09375 0.046875 3.46875 -0.328125 C 2.851562 -0.710938 2.375 -1.242188 2.03125 -1.921875 C 1.6875 -2.597656 1.515625 -3.367188 1.515625 -4.234375 L 1.515625 -11.046875 C 1.515625 -11.441406 1.644531 -11.773438 1.90625 -12.046875 C 2.175781 -12.328125 2.507812 -12.46875 2.90625 -12.46875 C 3.3125 -12.46875 3.644531 -12.328125 3.90625 -12.046875 C 4.175781 -11.773438 4.3125 -11.441406 4.3125 -11.046875 L 4.3125 -5.078125 C 4.3125 -4.097656 4.523438 -3.394531 4.953125 -2.96875 C 5.378906 -2.539062 6.003906 -2.328125 6.828125 -2.328125 C 7.628906 -2.328125 8.25 -2.5625 8.6875 -3.03125 C 9.132812 -3.507812 9.359375 -4.191406 9.359375 -5.078125 L 9.359375 -11.046875 C 9.359375 -11.441406 9.488281 -11.773438 9.75 -12.046875 C 10.019531 -12.328125 10.359375 -12.46875 10.765625 -12.46875 Z M 10.765625 -12.46875 "/></g></g></g><g fill="#38b6ff" fill-opacity="1"><g transform="translate(233.394762, 76.673773)"><g/></g></g><g fill="#38b6ff" fill-opacity="1"><g transform="translate(239.915869, 76.673773)"><g><path d="M 8.734375 -16.3125 C 10.191406 -16.3125 11.445312 -15.945312 12.5 -15.21875 C 13.550781 -14.5 14.347656 -13.519531 14.890625 -12.28125 C 15.441406 -11.050781 15.71875 -9.675781 15.71875 -8.15625 C 15.71875 -6.632812 15.441406 -5.253906 14.890625 -4.015625 C 14.347656 -2.785156 13.550781 -1.804688 12.5 -1.078125 C 11.445312 -0.359375 10.191406 0 8.734375 0 L 3.171875 0 C 2.765625 0 2.425781 -0.132812 2.15625 -0.40625 C 1.882812 -0.675781 1.75 -1.015625 1.75 -1.421875 L 1.75 -14.890625 C 1.75 -15.296875 1.882812 -15.632812 2.15625 -15.90625 C 2.425781 -16.175781 2.765625 -16.3125 3.171875 -16.3125 Z M 8.5 -2.671875 C 9.894531 -2.671875 10.941406 -3.1875 11.640625 -4.21875 C 12.347656 -5.257812 12.703125 -6.570312 12.703125 -8.15625 C 12.703125 -9.738281 12.347656 -11.046875 11.640625 -12.078125 C 10.929688 -13.109375 9.882812 -13.625 8.5 -13.625 L 4.65625 -13.625 L 4.65625 -2.671875 Z M 8.5 -2.671875 "/></g></g></g><g fill="#38b6ff" fill-opacity="1"><g transform="translate(256.567976, 76.673773)"><g><path d="M 13.484375 -6.21875 C 13.484375 -4.976562 13.203125 -3.863281 12.640625 -2.875 C 12.085938 -1.882812 11.328125 -1.117188 10.359375 -0.578125 C 9.390625 -0.0351562 8.320312 0.234375 7.15625 0.234375 C 5.96875 0.234375 4.894531 -0.0351562 3.9375 -0.578125 C 2.976562 -1.117188 2.21875 -1.882812 1.65625 -2.875 C 1.09375 -3.863281 0.8125 -4.976562 0.8125 -6.21875 C 0.8125 -7.457031 1.09375 -8.570312 1.65625 -9.5625 C 2.21875 -10.550781 2.976562 -11.320312 3.9375 -11.875 C 4.894531 -12.425781 5.96875 -12.703125 7.15625 -12.703125 C 8.320312 -12.703125 9.390625 -12.425781 10.359375 -11.875 C 11.328125 -11.320312 12.085938 -10.550781 12.640625 -9.5625 C 13.203125 -8.570312 13.484375 -7.457031 13.484375 -6.21875 Z M 10.6875 -6.21875 C 10.6875 -6.976562 10.523438 -7.65625 10.203125 -8.25 C 9.890625 -8.851562 9.460938 -9.316406 8.921875 -9.640625 C 8.390625 -9.972656 7.800781 -10.140625 7.15625 -10.140625 C 6.5 -10.140625 5.898438 -9.972656 5.359375 -9.640625 C 4.828125 -9.316406 4.398438 -8.851562 4.078125 -8.25 C 3.765625 -7.65625 3.609375 -6.976562 3.609375 -6.21875 C 3.609375 -5.457031 3.765625 -4.78125 4.078125 -4.1875 C 4.398438 -3.601562 4.828125 -3.144531 5.359375 -2.8125 C 5.898438 -2.488281 6.5 -2.328125 7.15625 -2.328125 C 7.800781 -2.328125 8.390625 -2.488281 8.921875 -2.8125 C 9.460938 -3.144531 9.890625 -3.601562 10.203125 -4.1875 C 10.523438 -4.78125 10.6875 -5.457031 10.6875 -6.21875 Z M 10.6875 -6.21875 "/></g></g></g><g fill="#38b6ff" fill-opacity="1"><g transform="translate(270.867824, 76.673773)"><g><path d="M 4.140625 -1.421875 C 4.140625 -1.015625 4.007812 -0.675781 3.75 -0.40625 C 3.488281 -0.132812 3.15625 0 2.75 0 C 2.34375 0 2.003906 -0.132812 1.734375 -0.40625 C 1.472656 -0.675781 1.34375 -1.015625 1.34375 -1.421875 L 1.34375 -11.046875 C 1.34375 -11.441406 1.472656 -11.773438 1.734375 -12.046875 C 2.003906 -12.328125 2.34375 -12.46875 2.75 -12.46875 C 3.15625 -12.46875 3.488281 -12.328125 3.75 -12.046875 C 4.007812 -11.773438 4.140625 -11.441406 4.140625 -11.046875 Z M 2.71875 -13.984375 C 2.1875 -13.984375 1.8125 -14.066406 1.59375 -14.234375 C 1.382812 -14.398438 1.28125 -14.703125 1.28125 -15.140625 L 1.28125 -15.578125 C 1.28125 -16.015625 1.394531 -16.316406 1.625 -16.484375 C 1.851562 -16.660156 2.226562 -16.75 2.75 -16.75 C 3.289062 -16.75 3.664062 -16.660156 3.875 -16.484375 C 4.09375 -16.316406 4.203125 -16.015625 4.203125 -15.578125 L 4.203125 -15.140625 C 4.203125 -14.691406 4.085938 -14.382812 3.859375 -14.21875 C 3.640625 -14.0625 3.257812 -13.984375 2.71875 -13.984375 Z M 2.71875 -13.984375 "/></g></g></g><g fill="#38b6ff" fill-opacity="1"><g transform="translate(276.364185, 76.673773)"><g><path d="M 8.171875 -12.703125 C 9.753906 -12.703125 10.847656 -12.226562 11.453125 -11.28125 C 12.066406 -10.34375 12.375 -9.046875 12.375 -7.390625 L 12.375 -1.421875 C 12.375 -1.015625 12.238281 -0.675781 11.96875 -0.40625 C 11.707031 -0.132812 11.375 0 10.96875 0 C 10.5625 0 10.226562 -0.132812 9.96875 -0.40625 C 9.707031 -0.675781 9.578125 -1.015625 9.578125 -1.421875 L 9.578125 -7.390625 C 9.578125 -8.242188 9.394531 -8.914062 9.03125 -9.40625 C 8.675781 -9.894531 8.066406 -10.140625 7.203125 -10.140625 C 6.296875 -10.140625 5.585938 -9.878906 5.078125 -9.359375 C 4.566406 -8.835938 4.3125 -8.179688 4.3125 -7.390625 L 4.3125 -1.421875 C 4.3125 -1.015625 4.175781 -0.675781 3.90625 -0.40625 C 3.644531 -0.132812 3.3125 0 2.90625 0 C 2.507812 0 2.175781 -0.132812 1.90625 -0.40625 C 1.644531 -0.675781 1.515625 -1.015625 1.515625 -1.421875 L 1.515625 -11.046875 C 1.515625 -11.441406 1.644531 -11.773438 1.90625 -12.046875 C 2.175781 -12.328125 2.507812 -12.46875 2.90625 -12.46875 C 3.3125 -12.46875 3.644531 -12.328125 3.90625 -12.046875 C 4.175781 -11.773438 4.3125 -11.441406 4.3125 -11.046875 L 4.3125 -10.640625 C 4.726562 -11.203125 5.273438 -11.6875 5.953125 -12.09375 C 6.628906 -12.5 7.367188 -12.703125 8.171875 -12.703125 Z M 8.171875 -12.703125 "/></g></g></g><g fill="#38b6ff" fill-opacity="1"><g transform="translate(290.244826, 76.673773)"><g><path d="M 11.828125 -12.703125 C 12.234375 -12.703125 12.566406 -12.566406 12.828125 -12.296875 C 13.097656 -12.035156 13.234375 -11.695312 13.234375 -11.28125 L 13.234375 -0.90625 C 13.234375 0.988281 12.644531 2.390625 11.46875 3.296875 C 10.300781 4.203125 8.816406 4.65625 7.015625 4.65625 C 6.546875 4.65625 5.90625 4.578125 5.09375 4.421875 C 4.28125 4.265625 3.703125 4.109375 3.359375 3.953125 C 2.597656 3.628906 2.21875 3.179688 2.21875 2.609375 C 2.21875 2.503906 2.238281 2.378906 2.28125 2.234375 C 2.375 1.890625 2.53125 1.628906 2.75 1.453125 C 2.976562 1.273438 3.226562 1.1875 3.5 1.1875 C 3.65625 1.1875 3.800781 1.210938 3.9375 1.265625 C 4 1.273438 4.382812 1.414062 5.09375 1.6875 C 5.800781 1.957031 6.441406 2.09375 7.015625 2.09375 C 8.160156 2.09375 9.015625 1.863281 9.578125 1.40625 C 10.148438 0.945312 10.4375 0.300781 10.4375 -0.53125 L 10.4375 -1.65625 C 10.09375 -1.175781 9.570312 -0.738281 8.875 -0.34375 C 8.1875 0.0390625 7.445312 0.234375 6.65625 0.234375 C 5.570312 0.234375 4.582031 -0.0390625 3.6875 -0.59375 C 2.800781 -1.144531 2.097656 -1.910156 1.578125 -2.890625 C 1.066406 -3.867188 0.8125 -4.976562 0.8125 -6.21875 C 0.8125 -7.457031 1.0625 -8.570312 1.5625 -9.5625 C 2.070312 -10.550781 2.765625 -11.320312 3.640625 -11.875 C 4.523438 -12.425781 5.5 -12.703125 6.5625 -12.703125 C 7.363281 -12.703125 8.101562 -12.535156 8.78125 -12.203125 C 9.46875 -11.878906 10.019531 -11.484375 10.4375 -11.015625 L 10.4375 -11.28125 C 10.4375 -11.675781 10.566406 -12.007812 10.828125 -12.28125 C 11.097656 -12.5625 11.429688 -12.703125 11.828125 -12.703125 Z M 7.015625 -2.328125 C 8.054688 -2.328125 8.90625 -2.695312 9.5625 -3.4375 C 10.21875 -4.175781 10.546875 -5.101562 10.546875 -6.21875 C 10.546875 -7.332031 10.21875 -8.265625 9.5625 -9.015625 C 8.90625 -9.765625 8.054688 -10.140625 7.015625 -10.140625 C 5.972656 -10.140625 5.125 -9.765625 4.46875 -9.015625 C 3.820312 -8.265625 3.5 -7.332031 3.5 -6.21875 C 3.5 -5.101562 3.820312 -4.175781 4.46875 -3.4375 C 5.125 -2.695312 5.972656 -2.328125 7.015625 -2.328125 Z M 7.015625 -2.328125 "/></g></g></g></svg>