<?xml version="1.0" standalone="no"?>
<svg version="1.1" id="Layer_1" xmlns:cc="http://creativecommons.org/ns#" xmlns:dc="http://purl.org/dc/elements/1.1/" xmlns:rdf="http://www.w3.org/1999/02/22-rdf-syntax-ns#" xmlns:svg="http://www.w3.org/2000/svg" xmlns="http://www.w3.org/2000/svg" xmlns:xlink="http://www.w3.org/1999/xlink" x="0px" y="0px" viewBox="0 0 595.2 595.2" enable-background="new 0 0 595.2 595.2" xml:space="preserve">
<path id="color_x5F_1" fill="#000000" d="M408.797,194.686l-0.945-25.155l1.466-0.051l0.921,24.517l35.546,3.722l-0.149,1.46
	l-36.18-3.788l-0.635-0.066L408.797,194.686z M149.494,433.131l-7.77,47.933c-0.046,0.288-0.295,0.5-0.587,0.5h-30.432
	c-0.174,0-0.34-0.077-0.453-0.21c-0.113-0.133-0.163-0.309-0.134-0.481l7.77-47.933c0.046-0.288,0.295-0.5,0.587-0.5h30.432
	c0.174,0,0.34,0.077,0.453,0.21C149.473,432.782,149.522,432.958,149.494,433.131z M148.207,433.631H118.98l-7.577,46.741h29.226
	L148.207,433.631z M351.432,253.607l-18.765-39.675h-13.29v-93.348v-12.198h-1.914v13.253v92.294h-13.29l-18.765,39.675h33.012
	L351.432,253.607L351.432,253.607z M569.82,487.284c0,0.663-0.537,1.2-1.2,1.2H26.58c-0.663,0-1.2-0.537-1.2-1.2s0.537-1.2,1.2-1.2
	h24.059l-2.96-23.111h-1.943v-4.391h17.919h14.454h5.888v4.391h-1.944l-2.96,23.111h17.966v-29.582v-74.933
	c0-0.329,0.267-0.596,0.595-0.596h3.159V365.5c0-0.329,0.267-0.596,0.595-0.596h87.99c0.329,0,0.595,0.267,0.595,0.596v120.584
	h32.397l-7.963-83.601c-0.047-0.509-0.03-1.013,0.05-1.496c0.135-0.806,0.45-1.545,0.912-2.139c0.474-0.605,1.09-1.049,1.783-1.282
	c0.383-0.131,0.792-0.197,1.216-0.197h63.705l-2.747-24.129c-0.033-0.291,0.15-0.563,0.433-0.642
	c0.099-0.027,0.783-0.211,1.953-0.419l6.284-3.521c0.085-0.047,0.18-0.073,0.277-0.075c0.448-0.017,11.001-0.218,19.265,3.216
	c3.228,1.341,5.955,2.919,8.092,4.357c0.012-0.015,0.023-0.028,0.036-0.043c0.369-0.423,0.98-0.682,1.822-0.772
	c-0.133-0.839-0.194-2.204,0.547-3.133c0.515-0.645,1.285-0.958,2.319-0.9c0.112-1.198,0.565-3.648,2.307-4.435
	c-3.019-4.917-4.7-7.669-5.637-9.217l-1.088-1.731c-0.032-0.051-0.057-0.106-0.071-0.165c-0.009-0.036-0.009-0.07-0.017-0.105
	c-0.015-0.034-0.019-0.05-0.023-0.065c-0.01-0.046-0.015-0.093-0.014-0.141c0-0.005,0.001-0.011,0.001-0.017
	c-0.066-0.566,0.082-1.082,0.363-1.509c0.275-0.565,0.73-1.068,1.457-1.241c1.693-0.404,2.609,0.811,2.647,0.862l10.291,16.933
	c0.438-0.979,1.186-1.8,2.467-1.832c1.349-0.039,2.511,0.569,3.165,1.652c0.643,1.062,0.681,2.429,0.097,3.479
	c-0.396,0.714-0.742,1.322-1.01,1.789c2.363-0.231,4.979-0.29,7.827-0.072c14.05,1.076,24.625,7.185,24.73,7.246
	c0.09,0.053,0.164,0.128,0.216,0.218l0.303,0.528c4.109-1.16,11.662-3.16,13.438-3.63c0.312-2.025,0.471-4.745,0.036-7.976
	c-0.813-6.043-2.801-7.309-3.283-7.529c-2.978,0.806-5.796,0.679-8.42-0.388c-7.259-2.947-11.029-12.187-12.631-17.432
	c-1.275-4.174-1.664-8.569-1.652-12.438c-2.029-2.125-3.196-5.25-2.935-8.626c0.196-2.519,1.169-4.878,2.751-6.681
	c-1.152-4.436-2.434-11.327-1.127-16.651c0.003-0.013,0.007-0.025,0.01-0.038c0.082-0.336,0.178-0.662,0.282-0.984
	c0.021-0.065,0.041-0.13,0.063-0.194c0.116-0.339,0.24-0.672,0.382-0.993c2.304-5.206,6.346-9.275,11.911-12.066
	c3.339-1.674,7.226-2.888,11.615-3.61c10.535-1.731,15.281,1.027,16.197,1.655c0.133,0.01,0.333,0.026,0.593,0.054
	c3.906,0.415,21.355,3.317,26.982,22.185c1.926,6.455,2.864,11.913,3.692,16.729c1.89,10.989,3.383,19.67,15.131,33.019
	c0.449,0.511,0.879,1.03,1.3,1.554c0.14,0.174,0.276,0.349,0.413,0.524c0.279,0.359,0.552,0.721,0.818,1.085
	c0.147,0.201,0.299,0.401,0.442,0.604c0.318,0.452,0.625,0.907,0.922,1.367c0.231,0.357,0.453,0.718,0.672,1.08
	c0.074,0.122,0.148,0.245,0.221,0.368c2.909,4.904,4.648,10.16,5.144,15.537c2.203,0.007,9.902,0.661,15.392,8.946
	c1.411-0.225,6.419-0.864,10.914,0.458c1.805,0.451,3.635,1.151,5.355,2.197c2.662,1.505,4.476,3.404,5.634,5.867
	c0.016,0.035,0.031,0.069,0.047,0.104c1.661,3.088,2.477,6.924,2.417,11.485c-0.003,0.189-0.008,0.375-0.011,0.564
	c0.002,1.011-0.018,2.1-0.064,3.309c-0.001,0.03-0.003,0.066-0.004,0.096c-0.35,13.603-1.566,26.468-3.451,37.154
	c-0.308,1.954-0.625,3.642-0.947,4.957c-0.523,2.484-1.09,4.796-1.689,6.954c-0.394,1.529-0.8,2.93-1.276,4.191
	c-0.003,0.009-0.006,0.018-0.009,0.027c-0.282,0.83-0.635,1.575-1.034,2.259c-0.931,1.689-2.123,3.019-3.809,3.933
	c-0.104,0.056-0.201,0.098-0.304,0.152c-1.018,0.597-2.112,1.052-3.242,1.391c-2.401,0.803-4.531,1.021-6.443,1.021
	c-0.675,0-1.322-0.025-1.947-0.059c-2.591-0.139-4.843-0.627-5.803-0.861c-2.617,5.534-5.596,8.943-9.246,10.705
	c-1.244,0.601-2.552,0.988-3.932,1.221h41.14v-38.857c0-0.329,0.267-0.596,0.596-0.596h2.237V428.65
	c0-0.329,0.267-0.596,0.596-0.596h2.075c0.329,0,0.596,0.267,0.596,0.596v17.978h4.689l-4.332-23.55
	c-0.031-0.174,0.016-0.353,0.129-0.488c0.112-0.136,0.28-0.215,0.457-0.215h2.71c0.287,0,0.533,0.205,0.586,0.488l4.371,23.765
	h0.948l1.732-20.425c0.025-0.308,0.283-0.545,0.593-0.545h0.565h2.145c0.167,0,0.325,0.07,0.438,0.193
	c0.033,0.036,0.051,0.082,0.074,0.125v-3.006c0-0.329,0.267-0.596,0.596-0.596h2.71c0.329,0,0.596,0.267,0.596,0.596v23.657h1.479
	c0.329,0,0.596,0.267,0.596,0.596v38.857h52.396C569.283,486.084,569.82,486.621,569.82,487.284z M145.999,486.084l9.526-58.771
	H113.71l-9.526,58.771H145.999z M152.307,486.084l-3.8-8.041l-1.303,8.041L152.307,486.084L152.307,486.084z M179.077,414.478
	l-35.071-32.312H98.25v103.919h4.728l9.639-59.462c0.046-0.288,0.295-0.5,0.587-0.5h43.021c0.174,0,0.34,0.077,0.453,0.21
	s0.163,0.309,0.134,0.481l-4.881,30.112l12.411,29.159h14.735V414.478z M188.804,366.096h-86.8v14.878h42.234
	c0.149,0,0.293,0.057,0.403,0.158l35.434,32.647c0.123,0.112,0.192,0.271,0.192,0.438v71.867h8.537L188.804,366.096L188.804,366.096
	z M387.43,288.906c0.027,0.13,0.158,0.213,0.284,0.185c0.088-0.019,8.97-1.786,19.083,5.632
	c10.509,7.709,11.206,17.659,11.715,24.924c1.141,16.271,8.127,31.266,21.359,45.84c4.947,5.448,7.255,11.321,6.86,17.455
	c-0.668,10.391-8.688,17.979-11.131,20.058c-4.782,4.067-10.983,4.376-14.639,2.582c-2.186-1.074-3.385-2.835-3.29-4.831
	c0.123-2.588,2.228-4.021,3.471-4.646c2.554-1.282,5.476-1.332,6.604-0.572c0.367,0.247,0.531,0.557,0.5,0.947
	c-0.011,0.132,0.088,0.247,0.221,0.258c0.138,0.003,0.248-0.089,0.258-0.221c0.045-0.562-0.201-1.04-0.711-1.383
	c-1.415-0.952-4.594-0.71-7.087,0.542c-2.309,1.159-3.634,2.954-3.733,5.052c-0.104,2.197,1.192,4.123,3.558,5.285
	c1.585,0.778,3.31,1.118,5.045,1.118c3.754,0,7.56-1.591,10.115-3.766c2.479-2.109,10.619-9.813,11.3-20.393
	c0.403-6.269-1.947-12.26-6.984-17.808c-13.157-14.491-20.104-29.392-21.236-45.551c-0.516-7.359-1.221-17.438-11.91-25.277
	c-10.283-7.543-19.375-5.735-19.466-5.715C387.484,288.649,387.402,288.776,387.43,288.906z M384.921,305.438
	c-5.448-5.491-6.214-11.353-6.221-11.412c-0.016-0.131-0.133-0.22-0.267-0.209c-0.132,0.016-0.226,0.135-0.21,0.267
	c0.007,0.06,0.786,6.078,6.357,11.692c5.555,5.599,13.683,8.184,13.765,8.21c0.023,0.007,0.048,0.011,0.071,0.011
	c0.103,0,0.197-0.066,0.229-0.169c0.04-0.126-0.03-0.261-0.157-0.301C398.408,313.502,390.391,310.949,384.921,305.438z
	 M371.75,319.516c-0.195,0.494-0.758,0.734-1.245,0.54c-0.005-0.002-0.142-0.053-0.376-0.126c0.757,1.192,1.299,2.564,1.561,4.045
	c1.45-0.348,2.786-0.512,4.393-0.018c0.611-1.535,1.529-2.844,2.63-3.89c-0.118,0.048-0.239,0.081-0.361,0.081
	c-0.312,0-0.617-0.151-0.802-0.431c-0.292-0.442-0.171-1.037,0.271-1.33c0.057-0.038,1.423-0.929,3.46-1.251
	c0.818-0.129,1.572-0.155,2.192-0.143c-0.18-0.183-0.34-0.362-0.514-0.545c-0.241-0.253-0.483-0.505-0.714-0.755
	c-0.255-0.276-0.5-0.55-0.742-0.823c-0.214-0.241-0.426-0.481-0.63-0.719c-0.236-0.275-0.463-0.548-0.686-0.819
	c-0.189-0.23-0.376-0.459-0.556-0.686c-0.216-0.272-0.425-0.541-0.629-0.809c-0.166-0.217-0.328-0.432-0.485-0.646
	c-0.199-0.269-0.392-0.536-0.578-0.8c-0.143-0.203-0.283-0.404-0.419-0.603c-0.18-0.264-0.357-0.526-0.525-0.783
	c-0.124-0.189-0.242-0.375-0.36-0.561c-0.163-0.258-0.323-0.514-0.475-0.764c-0.104-0.173-0.203-0.341-0.302-0.51
	c-0.148-0.252-0.293-0.503-0.429-0.746c-0.086-0.155-0.167-0.304-0.248-0.455c-0.133-0.246-0.265-0.491-0.386-0.727
	c-0.068-0.132-0.13-0.259-0.194-0.388c-0.121-0.242-0.241-0.483-0.349-0.713c-0.05-0.106-0.094-0.205-0.142-0.308
	c-0.111-0.241-0.221-0.481-0.318-0.706c-0.031-0.07-0.056-0.135-0.086-0.204c-0.105-0.247-0.207-0.49-0.296-0.716
	c-0.009-0.023-0.016-0.043-0.025-0.066c-0.428-1.091-0.69-1.944-0.833-2.479c-1.159,0.406-3.919,1.553-7.035,4.111
	c-3.745,3.075-5.284,5.94-5.528,6.426l-0.848,6.054c1.087-0.467,2.239-0.707,3.403-0.707c0.225,0,0.448,0.009,0.672,0.026
	c1.807,0.144,3.448,0.858,4.807,1.969c1.861,0.217,3.111,0.699,3.189,0.731C371.703,318.465,371.945,319.023,371.75,319.516z
	 M363.12,316.759c-1.444-0.115-2.879,0.218-4.184,0.933l-0.312,2.226c0.044-0.057,0.079-0.12,0.138-0.168
	c0.092-0.075,2.279-1.833,5.914-2.23c0.34-0.037,0.671-0.058,0.996-0.07C364.88,317.074,364.025,316.831,363.12,316.759z
	 M384.007,337.604c1.991,0.163,3.985-0.516,5.605-1.899c1.938-1.656,3.172-4.173,3.384-6.904c0.116-1.497-0.09-3.004-0.58-4.378
	c-2.133-1.38-4.496-3.192-7.038-5.57c-0.198,0.135-0.446,0.2-0.706,0.157c-0.009-0.002-0.689-0.11-1.649-0.095
	c-2.686,0.719-5.001,2.939-6.019,5.981c-0.001,0.003-0.002,0.005-0.003,0.008c-0.282,0.86-0.452,1.713-0.52,2.582
	C376.076,332.701,379.453,337.241,384.007,337.604z M356.844,300.879c-0.007,0.132,0.095,0.244,0.227,0.251c0.004,0,0.009,0,0.013,0
	c0.127,0,0.232-0.099,0.239-0.227c0.003-0.046,0.354-4.634,8.706-9.776c8.407-5.177,15.451-4.406,15.521-4.398
	c0.129,0.012,0.251-0.078,0.267-0.209c0.016-0.132-0.078-0.251-0.21-0.267c-0.07-0.007-7.271-0.803-15.83,4.467
	C357.18,296.012,356.854,300.683,356.844,300.879z M356.958,323.03c-0.143-0.412-0.478-1.413-0.876-2.812
	c-1.11,1.512-1.799,3.368-1.952,5.344c-0.196,2.53,0.497,4.902,1.782,6.714C356.071,327.731,356.723,324.182,356.958,323.03z
	 M357.068,333.605c1.256,1.178,2.834,1.937,4.587,2.075c2.003,0.161,3.986-0.515,5.605-1.898c1.938-1.655,3.172-4.173,3.384-6.904
	c0.055-0.709,0.04-1.405-0.037-2.08c-0.002-0.01-0.003-0.021-0.004-0.031c-0.24-2.02-1.051-3.842-2.248-5.242
	c-0.955-0.152-2.158-0.242-3.471-0.098c-3.041,0.333-4.893,1.797-4.911,1.812c-0.178,0.143-0.391,0.212-0.603,0.212
	c-0.279,0-0.557-0.121-0.746-0.354c-0.062-0.076-0.096-0.164-0.131-0.25l-0.317,2.262c-0.009,0.061-0.029,0.117-0.054,0.17
	C357.875,324.488,357.13,328.538,357.068,333.605z M382.469,361.463c13.549-7.452,16.279-14.788,17.177-17.269
	c0.009-0.024,0.016-0.042,0.02-0.055c0.001-0.004,0.004-0.006,0.006-0.01c0.024-0.062,0.057-0.118,0.098-0.167
	c0.008-0.009,0.018-0.016,0.026-0.024c0.037-0.04,0.078-0.075,0.124-0.103c0.004-0.002,0.007-0.006,0.01-0.009
	c0-0.001,0.001-0.001,0.001-0.001s0.001,0,0.001-0.001c0.033-0.018,0.068-0.032,0.104-0.044c0.008-0.003,0.015-0.007,0.023-0.01
	c0,0,0.001,0,0.001-0.001h0.001h0.001c0.005-0.002,0.011-0.001,0.016-0.002c0.053-0.013,0.109-0.022,0.167-0.021
	c0.118,0.004,0.233-0.003,0.351-0.002c0.295,0.004,0.59,0.008,0.88-0.005c6.071-0.283,11.021-4.185,12.87-8.141
	c1.321-2.831,1.084-5.564-0.652-7.5c-0.177-0.197-0.368-0.367-0.57-0.513c-0.254-0.183-0.531-0.316-0.817-0.427
	c-0.627-0.244-1.314-0.341-2.021-0.32c-2.83,0.083-5.895,1.859-5.94,1.885c-0.025,0.015-0.056,0.013-0.083,0.024
	c-0.065,0.027-0.13,0.057-0.2,0.059c-0.226,0.02-4.081,0.077-10.131-3.454c0.257,1.147,0.344,2.346,0.252,3.537
	c-0.236,3.045-1.62,5.857-3.798,7.718c-1.861,1.59-4.159,2.361-6.473,2.182c-5.208-0.415-9.074-5.528-8.619-11.398
	c0.062-0.786,0.198-1.56,0.406-2.307c-1.374-0.414-2.525-0.253-3.863,0.078c0.043,0.591,0.042,1.194-0.005,1.806
	c-0.236,3.045-1.621,5.858-3.798,7.718c-1.862,1.591-4.17,2.359-6.473,2.181c-1.667-0.133-3.196-0.746-4.49-1.712
	c0.059,3.495,0.474,7.354,1.597,11.029c1.54,5.042,5.138,13.914,11.939,16.677C374.166,364.307,378.155,363.835,382.469,361.463z
	 M382.02,384.023c1.389,2.015,3.604,3.264,6.589,3.715c6.443,0.972,14.783-2.103,18.959-5.549c0.001-0.008,0.004-0.017,0.005-0.025
	c0.058-0.348,0.089-0.704,0.101-1.069c0.001-0.042,0.005-0.084,0.005-0.127c0.006-0.357-0.014-0.726-0.053-1.105
	c-0.006-0.055-0.01-0.109-0.017-0.164c-0.045-0.377-0.114-0.767-0.203-1.17c-0.014-0.064-0.028-0.128-0.044-0.193
	c-0.096-0.406-0.215-0.826-0.357-1.263c-0.023-0.07-0.047-0.141-0.07-0.212c-0.149-0.444-0.32-0.904-0.516-1.385
	c-0.029-0.071-0.06-0.144-0.09-0.216c-0.206-0.493-0.433-1.005-0.687-1.541c-0.031-0.066-0.066-0.135-0.098-0.202
	c-0.268-0.556-0.557-1.133-0.877-1.74c-0.024-0.046-0.051-0.095-0.076-0.141c-0.339-0.639-0.703-1.303-1.1-2.004
	c-0.281-0.495-0.543-0.985-0.795-1.472c-0.079-0.154-0.153-0.305-0.229-0.458c-0.168-0.336-0.332-0.67-0.487-1.002
	c-0.08-0.17-0.157-0.34-0.233-0.509c-0.145-0.322-0.284-0.642-0.417-0.96c-0.066-0.156-0.133-0.313-0.195-0.468
	c-0.152-0.376-0.295-0.749-0.431-1.119c-0.032-0.087-0.067-0.175-0.099-0.261c-0.165-0.459-0.318-0.911-0.459-1.359
	c-0.034-0.107-0.063-0.211-0.095-0.317c-0.104-0.339-0.203-0.676-0.295-1.008c-0.04-0.146-0.077-0.289-0.115-0.433
	c-0.077-0.295-0.15-0.588-0.218-0.877c-0.033-0.142-0.066-0.283-0.097-0.423c-0.069-0.31-0.131-0.616-0.189-0.919
	c-0.02-0.106-0.043-0.213-0.062-0.318c-0.075-0.409-0.142-0.812-0.199-1.207c-0.004-0.026-0.006-0.051-0.01-0.078
	c-0.052-0.365-0.097-0.724-0.135-1.077c-0.012-0.112-0.022-0.221-0.033-0.331c-0.026-0.267-0.05-0.53-0.069-0.789
	c-0.009-0.119-0.017-0.237-0.024-0.355c-0.016-0.255-0.029-0.505-0.038-0.751c-0.004-0.103-0.009-0.207-0.012-0.308
	c-0.009-0.305-0.014-0.604-0.014-0.896c0-0.033-0.001-0.067-0.001-0.099c0.001-0.326,0.007-0.643,0.018-0.952
	c0.003-0.085,0.008-0.166,0.011-0.249c0.009-0.22,0.02-0.436,0.034-0.646c0.007-0.102,0.014-0.2,0.021-0.299
	c0.014-0.187,0.029-0.37,0.046-0.548c0.005-0.056,0.009-0.116,0.014-0.171c-2.211,3.583-6.585,8.555-15.636,13.532
	c-1.027,0.564-2.038,1.028-3.033,1.392c1.032,0.949,2.395,3.077,3.033,7.826C383.933,378.338,382.474,382.832,382.02,384.023z
	 M331.178,373.589c0.691,1.021,1.211,1.881,1.451,2.331c0.395-0.065,0.798-0.125,1.209-0.181c0.245-0.419,0.77-1.324,1.444-2.539
	c0.381-0.685,0.352-1.581-0.074-2.285c-0.252-0.416-0.832-1.077-2.117-1.079C331.404,369.878,331.201,372.792,331.178,373.589z
	 M321.558,371.517c2.989,0.872,6.572,4.183,7.566,5.142c0.721-0.187,1.481-0.361,2.282-0.519c-0.26-0.442-0.695-1.122-1.236-1.906
	c-0.059-0.056-0.106-0.124-0.139-0.2c-0.301-0.432-0.632-0.892-0.98-1.357c-0.025-0.031-0.045-0.056-0.071-0.088
	c-0.974-1.212-2.604-3.241-3.41-3.838c-0.983-0.728-1.732-0.889-1.945-0.922C322.04,368.052,321.649,370.48,321.558,371.517z
	 M318.719,375.333c2.227,0.253,5.156,2.113,6.077,2.73c0.876-0.348,1.873-0.701,2.984-1.032c-1.426-1.312-4.576-3.998-6.919-4.467
	c-0.026-0.003-0.053-0.008-0.079-0.015c-0.144-0.026-0.284-0.043-0.421-0.051c-0.65-0.041-1.1,0.11-1.372,0.45
	C318.515,373.542,318.593,374.65,318.719,375.333z M316.643,376.842c2.036,1.447,3.408,2.675,4.016,3.247
	c0.505-0.312,1.452-0.854,2.812-1.466c-1.437-0.893-3.752-2.128-5.231-2.128C317.289,376.495,316.836,376.68,316.643,376.842z
	 M284.942,371.747c3.898-0.375,9.723-0.426,16.501,1.162c11.39,2.67,16.783,8.924,17.658,10.024
	c0.668,0.205,3.158,0.915,4.655,0.627c0.006-0.001,0.013-0.003,0.02-0.004c0.838-0.166,1.777-0.384,2.811-0.622
	c3.792-0.877,8.953-2.07,15.019-2.07c2.522,0,5.2,0.206,8.002,0.728c10.686,1.986,16.949,4.653,19.843,6.143l-1.854-3.235
	c-0.006-0.01-0.012-0.021-0.018-0.03l-0.444-0.776c-1.26-0.703-11.171-6.021-24.086-7.01c-13.678-1.048-22.044,4.595-22.127,4.652
	c-0.236,0.163-0.557,0.134-0.762-0.071c-0.027-0.029-1.646-1.647-4.511-3.652c-0.036-0.02-0.07-0.044-0.102-0.07
	c-2.167-1.509-5.03-3.225-8.444-4.643c-7.516-3.122-17.325-3.124-18.635-3.128L284.942,371.747z M379.213,433.258
	c0.004-0.082,0.317-8.247-3.588-12.574c-2.835-3.14-5.333-6.309-6.612-7.977l-0.661,5.995c-0.022,0.204-0.149,0.383-0.335,0.472
	c-0.188,0.089-0.404,0.075-0.578-0.036c-1.476-0.944-3.143-1.963-4.898-3.035c-3.528-2.156-7.379-4.509-10.79-6.934l-3.093-0.475
	l0.28,2.935l10.553,7.798c0.238,0.176,0.311,0.5,0.171,0.761c-0.106,0.197-0.311,0.313-0.524,0.313
	c-0.068,0-0.138-0.012-0.205-0.037l-9.485-3.478l0.389,4.083l7.092,3.501c0.295,0.146,0.416,0.503,0.271,0.798
	c-0.104,0.21-0.315,0.332-0.534,0.332c-0.089,0-0.179-0.021-0.264-0.062l-6.432-3.175l0.445,4.674l4.402,2.656
	c0.281,0.17,0.372,0.536,0.202,0.817c-0.112,0.186-0.309,0.288-0.511,0.288c-0.104,0-0.21-0.028-0.307-0.086l-3.646-2.2l0.642,6.741
	c5.435,4.029,11.309,5.849,17.524,7.765c1.812,0.559,3.686,1.136,5.571,1.776c0.078,0.026,0.15,0.069,0.211,0.125
	c0.195,0.179,13.359,12.19,28.373,22.497c1.176-1.605,5.037-6.987,6.765-10.706c1.497-3.22,1.82-5.165,1.89-5.931
	c-1.038-0.384-2.038-0.783-2.985-1.2c-11.005-4.842-28.869-15.779-29.049-15.889C379.312,433.679,379.203,433.474,379.213,433.258z
	 M355.775,445.431c-0.038-0.008-0.076-0.015-0.113-0.022c-1.588-0.312-2.768-0.473-3.561-0.561l3.648,38.304h6.435
	c-0.022-1.568-0.378-6.733-3.493-17.94C355.399,453.376,355.599,447.246,355.775,445.431z M355.891,444.24
	c2.725,0.535,5.995,1.523,7.384,1.959l0.48-3.401c-4.314-1.433-8.452-3.122-12.409-5.875l0.64,6.715
	C352.795,443.722,354.088,443.886,355.891,444.24z M355.444,417.917l-6.356-4.696l0.234,2.452L355.444,417.917z M349.684,407.647
	c-0.417-0.319-0.823-0.64-1.218-0.961l0.075,0.785L349.684,407.647z M363.161,415.086c1.449,0.886,2.839,1.735,4.111,2.536
	l0.658-5.966l-13.486-2.073C357.287,411.497,360.328,413.355,363.161,415.086z M370.424,389.645
	c-1.396-0.853-7.831-4.429-21.033-6.883c-9.299-1.727-17.263,0.114-22.535,1.333c-0.858,0.198-1.652,0.382-2.378,0.534v12.74h8.63
	c0.019,0,0.037,0.001,0.055,0.003l9.827-0.003c1.233,0,2.446,0.562,3.414,1.58c0.951,0.999,1.547,2.315,1.679,3.706l0.223,2.344
	c1.183,1.015,2.5,2.031,3.906,3.036l15.853,2.437L370.424,389.645z M319.342,384.243v13.126h3.944v-12.56
	C321.926,384.875,320.29,384.503,319.342,384.243z M283.293,397.369h34.857v-13.716c-0.832-1.017-6.143-7.045-16.979-9.585
	c-10.321-2.418-18.533-0.9-20.582-0.44L283.293,397.369z M411.062,484.343h-55.854c-0.307,0-0.563-0.233-0.593-0.539l-7.719-81.036
	c-0.106-1.126-0.588-2.19-1.356-2.998c-0.741-0.78-1.646-1.209-2.551-1.209l-9.831,0.007c-0.054,0.005-0.106,0.002-0.159-0.007
	H218.39c-0.293,0-0.574,0.045-0.833,0.133c-0.474,0.16-0.897,0.467-1.227,0.889c-0.34,0.437-0.574,0.99-0.676,1.601
	c-0.064,0.384-0.078,0.783-0.04,1.188l7.974,83.713h187.475v-1.742H411.062z M441.584,486.084
	c-4.611-0.641-10.151-2.475-17.224-5.195c-6.791-2.611-14.376-7.091-21.564-11.988c-0.051-0.02-0.101-0.046-0.146-0.08
	c-0.03-0.023-0.059-0.049-0.084-0.077c-14.615-9.985-27.543-21.643-28.773-22.761c-1.831-0.619-3.655-1.182-5.422-1.726
	c-1.167-0.36-2.322-0.716-3.466-1.084l-0.549,3.891c-0.025,0.175-0.126,0.329-0.275,0.423c-0.149,0.092-0.332,0.116-0.5,0.06
	c-0.039-0.013-3.445-1.128-6.627-1.86c-0.148,1.844-0.26,7.898,2.884,19.207c3.158,11.359,3.525,16.567,3.54,18.259h48.281
	c0.329,0,0.596,0.267,0.596,0.596v2.337h29.329V486.084z M451.318,483.791c3.477-1.679,6.326-5.017,8.857-10.498
	c0.005-0.017,0.015-0.03,0.021-0.045c0.003-0.009,0.002-0.018,0.005-0.027c0.037-0.086,3.763-8.749,7.147-24.75
	c0.052-0.245,0.096-0.479,0.146-0.722c2.173-11.651,3.215-23.513,3.312-33.065c-0.02-2.156-0.079-4.236-0.156-6.261
	c-0.435-11.393-4.643-18.433-4.686-18.503c-0.008-0.014-0.007-0.031-0.014-0.046c-0.01-0.019-0.026-0.033-0.034-0.053
	c-5.155-8.064-12.332-8.631-14.465-8.629c0.094,1.608,0.072,3.225-0.057,4.845c-0.015,0.201-0.04,0.399-0.058,0.599
	c-0.05,0.512-0.106,1.023-0.178,1.535c-0.052,0.375-0.113,0.748-0.177,1.12c-0.03,0.17-0.049,0.34-0.081,0.51
	c-0.034,0.183-0.08,0.36-0.118,0.542c-0.078,0.382-0.157,0.762-0.247,1.139c-0.08,0.335-0.172,0.664-0.261,0.994
	c-0.118,0.436-0.237,0.872-0.372,1.302c-0.178,0.569-0.367,1.133-0.573,1.688c-0.096,0.257-0.202,0.509-0.304,0.763
	c-0.179,0.449-0.363,0.894-0.56,1.333c-0.1,0.221-0.202,0.441-0.307,0.66c-0.242,0.511-0.498,1.014-0.764,1.509
	c-0.072,0.134-0.141,0.27-0.216,0.403c-0.744,1.339-1.576,2.617-2.49,3.829c-0.028,0.037-0.057,0.072-0.085,0.109
	c-0.432,0.568-0.884,1.12-1.352,1.658c-0.058,0.067-0.117,0.135-0.176,0.201c-0.497,0.562-1.01,1.109-1.545,1.635
	c-0.002,0.002-0.005,0.005-0.007,0.007c-0.563,0.553-1.146,1.086-1.75,1.598c-0.018,0.015-0.036,0.029-0.054,0.044
	c-0.535,0.451-1.088,0.882-1.654,1.298c-0.151,0.112-0.305,0.22-0.459,0.329c-0.458,0.325-0.926,0.639-1.404,0.941
	c-0.172,0.109-0.341,0.22-0.516,0.326c-0.631,0.383-1.273,0.753-1.935,1.094c-0.147,0.076-0.299,0.15-0.451,0.224l-0.118,0.058
	c-0.474,0.232-0.963,0.451-1.459,0.664c-0.158,0.068-0.318,0.134-0.478,0.199c-0.655,0.269-1.324,0.523-2.009,0.76
	c-0.083,0.028-0.166,0.055-0.248,0.083c-12.147,4.099-28.443,3.023-34.946-2.779c-0.01-0.009-0.02-0.017-0.03-0.026
	c-0.062-0.056-0.13-0.108-0.191-0.165c-0.156-0.147-0.298-0.299-0.442-0.45c-0.053-0.056-0.113-0.11-0.164-0.167
	c-0.204-0.225-0.392-0.456-0.567-0.691c-0.02-0.026-0.044-0.051-0.063-0.077c-0.278-0.383-0.533-0.804-0.753-1.262
	c-0.002-0.004-0.004-0.007-0.006-0.011c-0.087-0.183-0.169-0.375-0.245-0.574c-0.048-0.126-0.088-0.259-0.13-0.39
	c-0.026-0.083-0.054-0.164-0.078-0.25c-0.047-0.167-0.086-0.341-0.122-0.516c-0.01-0.047-0.02-0.094-0.028-0.142
	c-0.039-0.208-0.069-0.422-0.091-0.641c0-0.003,0-0.006-0.001-0.008c-0.17-1.719,0.22-3.779,1.571-6.202
	c0.022-0.039,0.044-0.079,0.066-0.118c0.172-0.304,0.359-0.612,0.563-0.927c0.06-0.093,0.124-0.188,0.187-0.282
	c0.186-0.279,0.38-0.559,0.592-0.847c0.111-0.151,0.234-0.306,0.352-0.46c0.191-0.247,0.379-0.493,0.59-0.746
	c0.19-0.23,0.402-0.466,0.608-0.701c0.17-0.193,0.329-0.383,0.511-0.58c0.409-0.444,0.844-0.896,1.314-1.359
	c0.769-0.756,1.501-1.467,2.193-2.139c0.385-0.374,0.751-0.729,1.111-1.08c0.089-0.087,0.178-0.174,0.266-0.259
	c0.358-0.35,0.7-0.688,1.031-1.018c0.072-0.072,0.141-0.142,0.212-0.212c0.334-0.335,0.657-0.663,0.962-0.982
	c0.034-0.035,0.065-0.069,0.099-0.105c0.282-0.296,0.55-0.586,0.806-0.87c0.048-0.053,0.098-0.108,0.145-0.161
	c0.261-0.293,0.504-0.581,0.736-0.865c0.052-0.064,0.103-0.127,0.154-0.191c0.227-0.285,0.441-0.566,0.638-0.846
	c0.033-0.046,0.062-0.092,0.094-0.138c0.184-0.268,0.355-0.535,0.511-0.801c0.02-0.034,0.042-0.068,0.062-0.102
	c0.16-0.28,0.301-0.561,0.429-0.843c0.014-0.031,0.028-0.062,0.042-0.093c-4.697,3.227-12.328,5.733-18.546,4.794
	c-3.464-0.522-6.015-2.038-7.582-4.505c-0.107-0.168-0.123-0.378-0.042-0.561c0.009-0.021,0.423-0.982,0.785-2.698
	c-2.373,0.628-8.781,2.331-12.592,3.401l2.572,4.49c0.005,0.007,0.009,0.015,0.013,0.022c0,0.001,0,0.001,0,0.001
	c0.001,0.001,0.001,0.001,0.001,0.002c0.058,0.11,0.077,0.231,0.062,0.348l-2.445,21.571c0.674,0.901,3.718,4.924,7.306,8.899
	c3.797,4.206,3.928,11.373,3.903,13.068c2.364,1.439,18.453,11.166,28.612,15.636c9.723,4.278,25.221,6.823,28.568,7.339
	l1.841-42.337c0.014-0.329,0.293-0.576,0.62-0.569c0.329,0.015,0.584,0.292,0.569,0.62l-1.869,42.999
	c-0.007,0.168-0.085,0.325-0.215,0.433s-0.298,0.155-0.464,0.132c-0.162-0.023-14.448-2.084-25.393-5.911
	c-0.132,1.035-0.566,3.015-1.962,6.018c-1.784,3.84-5.632,9.202-6.859,10.876c7,4.744,14.345,9.057,20.927,11.588
	C437.367,484.615,445.319,486.69,451.318,483.791z M508.606,446.631h1.643v-19.379L508.606,446.631z M515.033,447.822h-1.479h-2.71
	h-2.887h-2.71h-1.99h-2.71h-6h-2.075h-2.237v38.262h24.798V447.822z M384.553,346.423c0.126-0.304-0.019-0.649-0.321-0.776
	c-0.298-0.125-0.649,0.016-0.778,0.319c-0.072,0.174-1.855,4.251-7.844,4.977c-6.061,0.735-10.839-4.507-10.887-4.559
	c-0.219-0.244-0.596-0.265-0.84-0.045c-0.245,0.22-0.265,0.596-0.046,0.84c0.197,0.22,4.583,5.026,10.577,5.026
	c0.438,0,0.885-0.026,1.338-0.081C382.459,351.312,384.471,346.622,384.553,346.423z M381.048,333.921
	c0.657,0.047,1.286-0.866,1.403-2.04c0.118-1.174-0.319-2.165-0.977-2.212c-0.657-0.047-1.286,0.866-1.404,2.04
	C379.954,332.883,380.391,333.873,381.048,333.921z M370.348,344.888c0.048,0.012,0.097,0.018,0.144,0.018
	c0.268,0,0.51-0.181,0.577-0.451c0.079-0.319-0.114-0.643-0.433-0.722c-0.587-0.147-2.232-0.755-2.788-1.778
	c-0.23-0.424-0.256-0.882-0.078-1.401c0.906-2.647,3.025-4.085,3.047-4.099c0.273-0.183,0.348-0.552,0.166-0.825
	s-0.551-0.349-0.823-0.168c-0.101,0.066-2.475,1.662-3.517,4.706c-0.288,0.842-0.233,1.635,0.16,2.358
	C367.727,344.22,370.241,344.861,370.348,344.888z M366.591,333.164c0.657,0.047,1.286-0.866,1.404-2.04
	c0.118-1.174-0.319-2.165-0.977-2.212c-0.657-0.047-1.286,0.866-1.404,2.04C365.496,332.127,365.934,333.117,366.591,333.164z"></path>
<path id="color_x5F_w" fill="#FFFFFF" d="M409.53,233.611c21.512,0,38.951-17.439,38.951-38.951s-17.439-38.951-38.951-38.951
	s-38.951,17.439-38.951,38.951S388.018,233.611,409.53,233.611z M409.932,230.098h-0.805v-5.596h0.805V230.098z M440.347,193.281
	h5.596v0.805h-5.596V193.281z M409.127,157.27h0.805v5.596h-0.805V157.27z M409.317,169.48l0.921,24.517l35.546,3.722l-0.149,1.46
	l-36.18-3.788l-0.635-0.066l-0.024-0.638l-0.945-25.155L409.317,169.48z M378.712,194.086h-5.596v-0.805h5.596V194.086z
	 M505.971,351.207c-5.979,0-11.959,0-17.938,0c3.979-7.437,5.602-15.184,4.107-23.341h7.916v2.215h2.269v-2.215h7.753
	C510.796,335.934,509.431,343.715,505.971,351.207z M486.089,308.631c0.719,8.069-0.647,15.849-4.107,23.341
	c-5.979,0-11.959,0-17.938,0c3.979-7.437,5.602-15.184,4.107-23.341h7.916v2.216h2.269v-2.216H486.089z M518.462,313.857
	c-5.979,0-11.959,0-17.938,0c1.681-8.589,2.311-15.622,1.837-23.341h7.916v2.216h2.269v-2.216h7.753
	C521.017,298.584,520.699,305.779,518.462,313.857z M461.947,325.743c0.718,8.068,0.4,15.263-1.837,23.341
	c-5.979,0-11.958,0-17.938,0c1.681-8.589,2.311-15.622,1.837-23.341h7.916v2.216h2.269v-2.216H461.947z M462.487,320.125
	c-5.979,0-11.958,0-17.938,0c1.68-8.589,2.311-15.622,1.837-23.341h7.916v2.215h2.269v-2.215h7.753
	C465.042,304.852,464.724,312.046,462.487,320.125z M473.941,304.996c1.68-8.589,2.311-15.622,1.837-23.341h7.916v2.215h2.269
	v-2.215h7.753c0.719,8.068,0.4,15.263-1.837,23.341C485.9,304.996,479.92,304.996,473.941,304.996z M398.552,350.887
	c-0.01,0.309-0.017,0.625-0.018,0.952c0,0.032,0.001,0.067,0.001,0.099c0,0.292,0.005,0.591,0.014,0.896
	c0.003,0.101,0.008,0.205,0.012,0.308c0.01,0.247,0.022,0.497,0.038,0.751c0.007,0.118,0.016,0.236,0.024,0.355
	c0.019,0.259,0.043,0.522,0.069,0.789c0.011,0.111,0.021,0.22,0.033,0.331c0.039,0.353,0.083,0.711,0.135,1.077
	c0.004,0.026,0.006,0.051,0.01,0.078c0.057,0.395,0.125,0.798,0.199,1.207c0.019,0.105,0.042,0.212,0.062,0.318
	c0.058,0.303,0.121,0.609,0.189,0.919c0.031,0.14,0.064,0.282,0.097,0.423c0.068,0.29,0.141,0.582,0.218,0.877
	c0.038,0.144,0.075,0.288,0.115,0.433c0.091,0.332,0.191,0.669,0.295,1.008c0.032,0.106,0.062,0.21,0.095,0.317
	c0.142,0.448,0.294,0.901,0.459,1.359c0.031,0.086,0.067,0.174,0.099,0.261c0.136,0.37,0.279,0.742,0.431,1.119
	c0.063,0.155,0.13,0.312,0.195,0.468c0.133,0.318,0.272,0.637,0.417,0.96c0.076,0.169,0.154,0.339,0.233,0.509
	c0.155,0.332,0.319,0.666,0.487,1.002c0.077,0.153,0.15,0.304,0.229,0.458c0.252,0.487,0.514,0.977,0.795,1.472
	c0.398,0.701,0.761,1.365,1.1,2.004c0.025,0.046,0.051,0.095,0.076,0.141c0.32,0.607,0.61,1.183,0.877,1.74
	c0.032,0.067,0.067,0.136,0.098,0.202c0.255,0.536,0.482,1.047,0.687,1.541c0.03,0.072,0.061,0.145,0.09,0.216
	c0.196,0.481,0.367,0.941,0.516,1.385c0.024,0.071,0.048,0.142,0.07,0.212c0.142,0.437,0.26,0.857,0.357,1.263
	c0.015,0.065,0.03,0.129,0.044,0.193c0.09,0.403,0.158,0.793,0.203,1.17c0.007,0.055,0.011,0.109,0.017,0.164
	c0.039,0.379,0.059,0.748,0.053,1.105c-0.001,0.043-0.004,0.084-0.005,0.127c-0.011,0.365-0.043,0.721-0.101,1.069
	c-0.001,0.008-0.004,0.017-0.005,0.025c-4.176,3.445-12.516,6.521-18.959,5.549c-2.985-0.451-5.2-1.7-6.589-3.715
	c0.454-1.191,1.913-5.686,1.023-12.3c-0.639-4.749-2.001-6.877-3.033-7.826c0.995-0.363,2.006-0.827,3.033-1.392
	c9.051-4.978,13.425-9.949,15.636-13.532c-0.005,0.055-0.009,0.115-0.014,0.171c-0.017,0.179-0.032,0.361-0.046,0.548
	c-0.007,0.099-0.015,0.198-0.021,0.299c-0.014,0.21-0.024,0.426-0.034,0.646C398.56,350.722,398.555,350.802,398.552,350.887z
	 M358.177,323.107c-0.009,0.061-0.029,0.117-0.054,0.17c-0.247,1.21-0.993,5.261-1.054,10.328c1.256,1.178,2.834,1.937,4.587,2.075
	c2.003,0.161,3.986-0.515,5.605-1.898c1.938-1.655,3.172-4.173,3.384-6.904c0.055-0.709,0.04-1.405-0.037-2.08
	c-0.002-0.01-0.003-0.021-0.004-0.031c-0.24-2.02-1.051-3.842-2.248-5.242c-0.955-0.152-2.158-0.242-3.471-0.098
	c-3.041,0.333-4.893,1.797-4.911,1.812c-0.178,0.143-0.391,0.212-0.603,0.212c-0.279,0-0.557-0.121-0.746-0.354
	c-0.062-0.076-0.096-0.164-0.131-0.25L358.177,323.107z M365.614,330.952c0.118-1.174,0.746-2.088,1.404-2.04
	c0.658,0.047,1.095,1.038,0.977,2.212s-0.746,2.088-1.404,2.04C365.934,333.117,365.496,332.127,365.614,330.952z M358.762,319.749
	c-0.059,0.048-0.094,0.111-0.138,0.168l0.312-2.226c1.305-0.715,2.74-1.048,4.184-0.933c0.905,0.072,1.76,0.315,2.552,0.69
	c-0.325,0.013-0.656,0.033-0.996,0.07C361.041,317.916,358.854,319.674,358.762,319.749z M349.607,381.592
	c-2.802-0.521-5.479-0.728-8.002-0.728c-6.065,0-11.227,1.193-15.019,2.07c-1.033,0.238-1.973,0.456-2.811,0.622
	c-0.007,0.001-0.014,0.003-0.02,0.004c-1.497,0.288-3.987-0.422-4.655-0.627c-0.875-1.101-6.269-7.354-17.658-10.024
	c-6.778-1.588-12.604-1.537-16.501-1.162l3.527-1.977c1.31,0.004,11.119,0.006,18.635,3.128c3.414,1.418,6.277,3.134,8.444,4.643
	c0.031,0.026,0.065,0.051,0.102,0.07c2.864,2.005,4.483,3.623,4.511,3.652c0.205,0.205,0.525,0.234,0.762,0.071
	c0.083-0.058,8.449-5.7,22.127-4.652c12.915,0.989,22.826,6.307,24.086,7.01l0.444,0.776c0.006,0.01,0.012,0.021,0.018,0.03
	l1.854,3.235C366.557,386.245,360.293,383.578,349.607,381.592z M371.689,323.975c-0.261-1.481-0.804-2.853-1.561-4.045
	c0.234,0.073,0.371,0.124,0.376,0.126c0.487,0.194,1.05-0.046,1.245-0.54c0.195-0.492-0.047-1.051-0.54-1.245
	c-0.078-0.031-1.328-0.513-3.189-0.731c-1.359-1.11-3.001-1.825-4.807-1.969c-0.224-0.018-0.447-0.026-0.672-0.026
	c-1.164,0-2.316,0.24-3.403,0.707l0.848-6.054c0.244-0.485,1.783-3.351,5.528-6.426c3.116-2.557,5.876-3.705,7.035-4.111
	c0.143,0.535,0.405,1.388,0.833,2.479c0.009,0.023,0.016,0.043,0.025,0.066c0.09,0.227,0.191,0.469,0.296,0.716
	c0.029,0.069,0.055,0.133,0.086,0.204c0.098,0.226,0.207,0.465,0.318,0.706c0.047,0.103,0.092,0.202,0.142,0.308
	c0.109,0.23,0.228,0.471,0.349,0.713c0.064,0.129,0.126,0.255,0.194,0.388c0.121,0.236,0.253,0.48,0.386,0.727
	c0.082,0.151,0.162,0.3,0.248,0.455c0.136,0.244,0.281,0.493,0.429,0.746c0.099,0.169,0.198,0.337,0.302,0.51
	c0.151,0.251,0.311,0.506,0.475,0.764c0.117,0.186,0.236,0.372,0.36,0.561c0.169,0.258,0.344,0.519,0.525,0.783
	c0.136,0.2,0.275,0.4,0.419,0.603c0.186,0.264,0.379,0.53,0.578,0.8c0.158,0.214,0.32,0.429,0.485,0.646
	c0.204,0.268,0.413,0.536,0.629,0.809c0.18,0.227,0.367,0.456,0.556,0.686c0.223,0.272,0.45,0.544,0.686,0.819
	c0.204,0.238,0.416,0.478,0.63,0.719c0.242,0.273,0.487,0.547,0.742,0.823c0.231,0.25,0.472,0.503,0.714,0.755
	c0.174,0.182,0.335,0.361,0.514,0.545c-0.62-0.012-1.374,0.013-2.192,0.143c-2.037,0.322-3.403,1.213-3.46,1.251
	c-0.442,0.293-0.563,0.888-0.271,1.33c0.185,0.279,0.49,0.431,0.802,0.431c0.123,0,0.244-0.033,0.361-0.081
	c-1.101,1.046-2.019,2.355-2.63,3.89C374.476,323.463,373.14,323.627,371.689,323.975z M413.123,327.588
	c-0.811-0.583-1.809-0.777-2.838-0.747c-2.83,0.083-5.895,1.859-5.94,1.885c-0.025,0.015-0.056,0.013-0.083,0.024
	c-0.065,0.027-0.13,0.057-0.2,0.059c-0.226,0.02-4.081,0.077-10.131-3.454c0.257,1.147,0.344,2.346,0.252,3.537
	c-0.236,3.045-1.62,5.857-3.798,7.718c-1.861,1.59-4.159,2.361-6.473,2.182c-5.208-0.415-9.074-5.528-8.619-11.398
	c0.062-0.786,0.198-1.56,0.406-2.307c-1.374-0.414-2.525-0.253-3.863,0.078c0.043,0.591,0.042,1.194-0.005,1.806
	c-0.236,3.045-1.621,5.858-3.798,7.718c-1.862,1.591-4.17,2.359-6.473,2.181c-1.667-0.133-3.196-0.746-4.49-1.712
	c0.059,3.495,0.474,7.354,1.597,11.029c1.54,5.042,5.138,13.914,11.939,16.677c3.559,1.444,7.548,0.973,11.861-1.399
	c13.549-7.452,16.279-14.788,17.177-17.269c0.009-0.024,0.016-0.042,0.02-0.055c0.001-0.004,0.004-0.006,0.006-0.01
	c0.024-0.062,0.057-0.118,0.098-0.167c0.008-0.009,0.018-0.016,0.026-0.024c0.037-0.04,0.078-0.075,0.124-0.103
	c0.004-0.002,0.007-0.006,0.01-0.009c0-0.001,0.001-0.001,0.001-0.001s0.001,0,0.001-0.001c0.033-0.018,0.068-0.032,0.104-0.044
	c0.008-0.003,0.015-0.007,0.023-0.01c0,0,0.001,0,0.001-0.001h0.001h0.001c0.005-0.002,0.011-0.001,0.016-0.002
	c0.053-0.013,0.109-0.022,0.167-0.021c0.118,0.004,0.233-0.003,0.351-0.002c0.295,0.004,0.59,0.008,0.88-0.005
	c6.071-0.283,11.021-4.185,12.87-8.141c1.321-2.831,1.084-5.564-0.652-7.5C413.517,327.904,413.326,327.733,413.123,327.588z
	 M366.643,340.167c1.042-3.044,3.416-4.64,3.517-4.706c0.272-0.181,0.642-0.105,0.823,0.168s0.107,0.643-0.166,0.825
	c-0.021,0.014-2.141,1.451-3.047,4.099c-0.178,0.52-0.152,0.978,0.078,1.401c0.556,1.023,2.201,1.631,2.788,1.778
	c0.318,0.079,0.512,0.402,0.433,0.722c-0.067,0.271-0.31,0.451-0.577,0.451c-0.047,0-0.096-0.006-0.144-0.018
	c-0.106-0.026-2.621-0.668-3.545-2.362C366.409,341.802,366.354,341.009,366.643,340.167z M384.553,346.423
	c-0.082,0.199-2.094,4.889-8.801,5.701c-0.453,0.055-0.9,0.081-1.338,0.081c-5.994,0-10.38-4.807-10.577-5.026
	c-0.219-0.244-0.199-0.62,0.046-0.84c0.244-0.22,0.621-0.199,0.84,0.045c0.048,0.052,4.826,5.294,10.887,4.559
	c5.988-0.726,7.771-4.803,7.844-4.977c0.129-0.304,0.48-0.444,0.778-0.319C384.534,345.773,384.679,346.119,384.553,346.423z
	 M320.658,380.089c-0.607-0.572-1.979-1.8-4.016-3.247c0.193-0.162,0.646-0.347,1.596-0.347c1.479,0,3.795,1.235,5.231,2.128
	C322.11,379.234,321.163,379.777,320.658,380.089z M355.912,332.275c-1.285-1.812-1.979-4.184-1.782-6.714
	c0.153-1.976,0.842-3.832,1.952-5.344c0.398,1.399,0.734,2.4,0.876,2.812C356.723,324.182,356.071,327.731,355.912,332.275z
	 M384.007,337.604c1.991,0.163,3.985-0.516,5.605-1.899c1.938-1.656,3.172-4.173,3.384-6.904c0.116-1.497-0.09-3.004-0.58-4.378
	c-2.133-1.38-4.496-3.192-7.038-5.57c-0.198,0.135-0.446,0.2-0.706,0.157c-0.009-0.002-0.689-0.11-1.649-0.095
	c-2.686,0.719-5.001,2.939-6.019,5.981c-0.001,0.003-0.002,0.005-0.003,0.008c-0.282,0.86-0.452,1.713-0.52,2.582
	C376.076,332.701,379.453,337.241,384.007,337.604z M380.072,331.709c0.118-1.174,0.746-2.088,1.404-2.04
	c0.657,0.047,1.095,1.038,0.977,2.212s-0.746,2.088-1.403,2.04C380.391,333.873,379.954,332.883,380.072,331.709z M318.719,375.333
	c-0.126-0.683-0.204-1.791,0.271-2.384c0.272-0.34,0.722-0.491,1.372-0.45c0.137,0.008,0.277,0.024,0.421,0.051
	c0.026,0.007,0.053,0.012,0.079,0.015c2.343,0.469,5.493,3.155,6.919,4.467c-1.111,0.331-2.108,0.685-2.984,1.032
	C323.875,377.446,320.945,375.586,318.719,375.333z M329.124,376.658c-0.994-0.959-4.577-4.27-7.566-5.142
	c0.092-1.036,0.482-3.464,2.068-3.689c0.213,0.033,0.962,0.194,1.945,0.922c0.806,0.597,2.437,2.626,3.41,3.838
	c0.026,0.032,0.046,0.057,0.071,0.088c0.348,0.465,0.679,0.925,0.98,1.357c0.032,0.076,0.08,0.145,0.139,0.2
	c0.541,0.784,0.977,1.464,1.236,1.906C330.605,376.297,329.845,376.472,329.124,376.658z M332.629,375.92
	c-0.24-0.45-0.76-1.31-1.451-2.331c0.023-0.797,0.227-3.711,1.913-3.753c1.285,0.002,1.865,0.663,2.117,1.079
	c0.426,0.704,0.455,1.601,0.074,2.285c-0.675,1.215-1.199,2.12-1.444,2.539C333.427,375.795,333.023,375.854,332.629,375.92z
	 M408.545,449.681c0.947,0.417,1.947,0.816,2.985,1.2c-0.069,0.766-0.393,2.711-1.89,5.931c-1.728,3.719-5.589,9.101-6.765,10.706
	c-15.014-10.307-28.178-22.318-28.373-22.497c-0.061-0.056-0.133-0.099-0.211-0.125c-1.886-0.641-3.76-1.218-5.571-1.776
	c-6.215-1.916-12.09-3.736-17.524-7.765l-0.642-6.741l3.646,2.2c0.097,0.058,0.202,0.086,0.307,0.086
	c0.202,0,0.398-0.103,0.511-0.288c0.17-0.281,0.079-0.647-0.202-0.817l-4.402-2.656l-0.445-4.674l6.432,3.175
	c0.085,0.041,0.175,0.062,0.264,0.062c0.219,0,0.43-0.122,0.534-0.332c0.146-0.295,0.024-0.652-0.271-0.798l-7.092-3.501
	l-0.389-4.083l9.485,3.478c0.067,0.025,0.137,0.037,0.205,0.037c0.214,0,0.418-0.116,0.524-0.313
	c0.14-0.261,0.067-0.585-0.171-0.761l-10.553-7.798l-0.28-2.935l3.093,0.475c3.411,2.425,7.262,4.777,10.79,6.934
	c1.756,1.072,3.423,2.091,4.898,3.035c0.174,0.111,0.391,0.125,0.578,0.036c0.186-0.089,0.312-0.268,0.335-0.472l0.661-5.995
	c1.279,1.668,3.777,4.837,6.612,7.977c3.905,4.327,3.592,12.492,3.588,12.574c-0.01,0.216,0.099,0.421,0.283,0.534
	C379.676,433.901,397.54,444.839,408.545,449.681z M349.684,407.647l-1.143-0.176l-0.075-0.785
	C348.861,407.008,349.267,407.328,349.684,407.647z M356.844,300.879c0.01-0.196,0.336-4.867,8.933-10.16
	c8.559-5.27,15.76-4.474,15.83-4.467c0.132,0.016,0.226,0.135,0.21,0.267c-0.016,0.131-0.138,0.222-0.267,0.209
	c-0.07-0.007-7.114-0.778-15.521,4.398c-8.352,5.142-8.703,9.73-8.706,9.776c-0.007,0.128-0.112,0.227-0.239,0.227
	c-0.004,0-0.009,0-0.013,0C356.938,301.123,356.837,301.011,356.844,300.879z M398.346,313.985c-0.082-0.026-8.21-2.611-13.765-8.21
	c-5.571-5.614-6.351-11.632-6.357-11.692c-0.016-0.132,0.078-0.251,0.21-0.267c0.134-0.011,0.251,0.078,0.267,0.209
	c0.007,0.059,0.772,5.92,6.221,11.412c5.47,5.512,13.487,8.064,13.567,8.089c0.127,0.04,0.197,0.175,0.157,0.301
	c-0.031,0.103-0.126,0.169-0.229,0.169C398.394,313.996,398.369,313.992,398.346,313.985z M440.227,365.165
	c5.037,5.548,7.388,11.539,6.984,17.808c-0.681,10.579-8.821,18.283-11.3,20.393c-2.556,2.175-6.361,3.766-10.115,3.766
	c-1.735,0-3.46-0.34-5.045-1.118c-2.365-1.162-3.662-3.088-3.558-5.285c0.1-2.098,1.425-3.893,3.733-5.052
	c2.493-1.252,5.672-1.494,7.087-0.542c0.51,0.343,0.756,0.821,0.711,1.383c-0.01,0.132-0.12,0.224-0.258,0.221
	c-0.133-0.011-0.231-0.126-0.221-0.258c0.031-0.391-0.133-0.7-0.5-0.947c-1.128-0.76-4.05-0.71-6.604,0.572
	c-1.243,0.625-3.348,2.059-3.471,4.646c-0.095,1.996,1.104,3.757,3.29,4.831c3.655,1.794,9.856,1.485,14.639-2.582
	c2.442-2.078,10.463-9.667,11.131-20.058c0.395-6.134-1.913-12.007-6.86-17.455c-13.232-14.574-20.219-29.568-21.359-45.84
	c-0.509-7.265-1.206-17.215-11.715-24.924c-10.113-7.418-18.995-5.651-19.083-5.632c-0.126,0.028-0.257-0.055-0.284-0.185
	s0.055-0.257,0.185-0.285c0.091-0.02,9.183-1.828,19.466,5.715c10.689,7.84,11.395,17.918,11.91,25.277
	C420.123,335.773,427.069,350.674,440.227,365.165z M290.204,446.47c0.26,3.92-2.249,7.097-5.602,7.097
	c-3.354,0-6.283-3.178-6.543-7.097c-0.26-3.92,2.249-7.097,5.602-7.097S289.945,442.55,290.204,446.47L290.204,446.47z
	 M102.004,366.096h86.8v119.988h-8.537v-71.867c0-0.166-0.069-0.325-0.192-0.438l-35.434-32.647
	c-0.11-0.102-0.254-0.158-0.403-0.158h-42.234C102.004,380.974,102.004,366.096,102.004,366.096z M513.555,447.822h1.479v38.262
	h-24.798v-38.262h2.237h2.075h6h2.71h1.99h2.71h2.887H513.555z M104.183,486.084h41.815l9.526-58.771h-41.815L104.183,486.084z
	 M118.474,432.439h30.432c0.174,0,0.34,0.077,0.453,0.21s0.163,0.309,0.134,0.481l-7.77,47.933c-0.046,0.288-0.295,0.5-0.587,0.5
	h-30.432c-0.174,0-0.34-0.077-0.453-0.21c-0.113-0.133-0.163-0.309-0.134-0.481l7.77-47.933
	C117.933,432.651,118.182,432.439,118.474,432.439z M140.63,480.372h-29.226l7.577-46.741h29.226L140.63,480.372z M201.041,168.621
	h57.06v181.231h-57.06L201.041,168.621L201.041,168.621z M133.648,168.621h57.059v181.231h-57.059L133.648,168.621L133.648,168.621z
	"></path>
<path id="color_x5F_3" fill="#decbbe" d="M409.53,149.216c-25.099,0-45.445,20.346-45.445,45.445s20.346,45.445,45.445,45.445
	c25.098,0,45.444-20.346,45.444-45.445S434.628,149.216,409.53,149.216z M409.53,233.611c-21.512,0-38.951-17.439-38.951-38.951
	s17.439-38.951,38.951-38.951s38.951,17.439,38.951,38.951C448.48,216.172,431.042,233.611,409.53,233.611z M354.615,483.804
	l-7.719-81.036c-0.106-1.126-0.588-2.19-1.356-2.998c-0.741-0.78-1.646-1.209-2.551-1.209l-9.831,0.007
	c-0.054,0.005-0.106,0.002-0.159-0.007H218.39c-0.293,0-0.574,0.045-0.833,0.133c-0.474,0.16-0.897,0.467-1.227,0.889
	c-0.34,0.437-0.574,0.99-0.676,1.601c-0.064,0.384-0.078,0.783-0.04,1.188l7.974,83.713h187.475v-1.741h-55.854
	C354.901,484.343,354.645,484.109,354.615,483.804z M284.602,453.568c-3.354,0-6.283-3.178-6.543-7.097
	c-0.26-3.92,2.249-7.097,5.602-7.097s6.283,3.178,6.543,7.097l0,0C290.464,450.39,287.956,453.568,284.602,453.568z
	 M268.434,176.477v-18.19h-145.12V271.08v89.105h145.12V176.477z M190.707,349.851h-57.059v-181.23h57.059V349.851z M258.1,349.851
	h-57.06v-181.23h57.06V349.851z"></path>
<path id="color_x5F_4" fill="#87baf6" d="M319.377,120.583v93.348h13.29l18.765,39.675H318.42h-33.012l18.765-39.675h13.29v-92.294
	c-13.656,7.655-25.602,18.614-34.882,33.16c-4.765,7.469-9.47,14.707-14.147,21.679v183.709h-145.12V271.08
	c-49.592,4.573-78.878,48.475-66.132,110.302c2.741,13.298,7.292,25.431,12.834,36.358c1.583-6.475,1.897-10.738,1.897-10.738
	s1.239,8.163,1.469,17.03c1.927,3.412,3.943,6.696,6.021,9.846c0.729-0.58,1.508-1.124,2.349-1.594
	c5.952-3.322,8.988-3.875,8.988-3.875s-4.768,5.474-8.169,10.106c0.839,1.187,1.687,2.349,2.539,3.495
	c1.079-0.426,2.17-0.75,3.201-0.868c4.859-0.554,8.26-0.554,8.26-0.554s-4.407,2.194-8.522,5.266c2.984,3.8,6.011,7.354,9.01,10.649
	V381.57c0-0.329,0.267-0.596,0.595-0.596h3.159V365.5c0-0.329,0.267-0.596,0.595-0.596h87.99c0.329,0,0.595,0.267,0.595,0.596
	v120.584h32.397l-7.963-83.601c-0.047-0.509-0.03-1.013,0.05-1.496c0.135-0.806,0.45-1.545,0.912-2.139
	c0.474-0.605,1.09-1.049,1.783-1.282c0.383-0.131,0.792-0.197,1.216-0.197h63.705l-2.747-24.129
	c-0.033-0.291,0.15-0.563,0.433-0.642c0.099-0.027,0.783-0.211,1.953-0.419l6.284-3.521c0.085-0.047,0.18-0.073,0.277-0.075
	c0.448-0.017,11.001-0.218,19.265,3.216c3.228,1.341,5.955,2.919,8.092,4.357c0.012-0.015,0.023-0.028,0.036-0.043
	c0.369-0.423,0.98-0.682,1.822-0.772c-0.133-0.839-0.194-2.204,0.547-3.133c0.515-0.645,1.285-0.958,2.319-0.9
	c0.112-1.198,0.565-3.648,2.307-4.435c-3.019-4.917-4.7-7.669-5.637-9.217l-1.088-1.731c-0.032-0.051-0.057-0.106-0.071-0.165
	c-0.009-0.036-0.009-0.07-0.017-0.105c-0.015-0.034-0.019-0.05-0.023-0.065c-0.01-0.046-0.015-0.093-0.014-0.141
	c0-0.005,0.001-0.011,0.001-0.017c-0.066-0.566,0.082-1.082,0.363-1.509c0.275-0.565,0.73-1.068,1.457-1.241
	c1.693-0.404,2.609,0.811,2.647,0.862l10.291,16.933c0.438-0.979,1.186-1.8,2.467-1.832c1.349-0.039,2.511,0.569,3.165,1.652
	c0.643,1.062,0.681,2.429,0.097,3.479c-0.396,0.714-0.742,1.322-1.01,1.789c2.363-0.231,4.979-0.29,7.827-0.072
	c14.05,1.076,24.625,7.185,24.73,7.246c0.09,0.053,0.164,0.128,0.216,0.218l0.303,0.528c4.109-1.16,11.662-3.16,13.438-3.63
	c0.312-2.025,0.471-4.745,0.036-7.976c-0.813-6.043-2.801-7.309-3.283-7.529c-2.978,0.806-5.796,0.679-8.42-0.388
	c-7.259-2.947-11.029-12.187-12.631-17.432c-1.275-4.174-1.664-8.569-1.652-12.438c-2.029-2.125-3.196-5.25-2.935-8.626
	c0.196-2.519,1.169-4.878,2.751-6.681c-1.152-4.436-2.434-11.327-1.127-16.651c0.003-0.013,0.007-0.025,0.01-0.038
	c0.083-0.335,0.177-0.663,0.282-0.984c0.021-0.065,0.041-0.13,0.063-0.194c0.116-0.339,0.24-0.672,0.382-0.993
	c2.304-5.206,6.346-9.275,11.911-12.066c3.339-1.674,7.226-2.888,11.615-3.61c10.535-1.731,15.281,1.027,16.197,1.655
	c0.133,0.01,0.333,0.026,0.593,0.054c3.906,0.415,21.355,3.317,26.982,22.185c1.926,6.455,2.864,11.913,3.692,16.729
	c1.89,10.989,3.383,19.67,15.131,33.019c0.449,0.511,0.879,1.03,1.3,1.554c0.14,0.174,0.276,0.349,0.413,0.524
	c0.279,0.359,0.552,0.721,0.818,1.085c0.147,0.201,0.298,0.401,0.442,0.604c0.318,0.452,0.625,0.907,0.922,1.367
	c0.232,0.358,0.453,0.719,0.672,1.08c0.074,0.122,0.148,0.245,0.221,0.368c2.909,4.904,4.648,10.16,5.144,15.537
	c2.203,0.007,9.902,0.661,15.392,8.946c1.411-0.225,6.419-0.864,10.914,0.458c1.805,0.451,3.635,1.151,5.355,2.197
	c2.662,1.505,4.476,3.404,5.634,5.867c0.016,0.035,0.031,0.069,0.047,0.104c1.661,3.088,2.477,6.924,2.417,11.485
	c-0.003,0.189-0.008,0.375-0.011,0.564c0.002,1.011-0.018,2.1-0.064,3.309c-0.001,0.03-0.003,0.066-0.004,0.096
	c-0.35,13.603-1.566,26.468-3.451,37.154c-0.308,1.954-0.625,3.642-0.947,4.957c-0.523,2.484-1.09,4.796-1.689,6.954
	c-0.394,1.529-0.8,2.93-1.276,4.191c-0.003,0.009-0.006,0.018-0.009,0.027c-0.282,0.83-0.635,1.575-1.034,2.259
	c-0.931,1.689-2.123,3.019-3.809,3.933c-0.104,0.056-0.201,0.098-0.304,0.152c-1.018,0.597-2.112,1.052-3.242,1.391
	c-2.401,0.803-4.531,1.021-6.443,1.021c-0.675,0-1.322-0.025-1.947-0.059c-2.591-0.139-4.843-0.627-5.803-0.861
	c-2.617,5.534-5.596,8.943-9.246,10.705c-1.244,0.601-2.552,0.988-3.932,1.221h41.14v-38.857c0-0.329,0.267-0.596,0.596-0.596h2.237
	V428.65c0-0.329,0.267-0.596,0.596-0.596h2.075c0.329,0,0.596,0.267,0.596,0.596v17.978h4.689l-4.332-23.55
	c-0.031-0.174,0.016-0.353,0.129-0.488c0.112-0.136,0.28-0.215,0.457-0.215h2.71c0.287,0,0.533,0.205,0.586,0.488l4.371,23.765
	h0.948l1.732-20.425c0.025-0.308,0.283-0.545,0.593-0.545h0.565c1.491-11.733,4.955-24.919,11.793-39.367
	C612.088,190.413,420.745,66.667,319.377,120.583z M409.53,240.105c-25.099,0-45.445-20.346-45.445-45.445
	s20.346-45.445,45.445-45.445s45.444,20.346,45.444,45.445S434.628,240.105,409.53,240.105z M460.109,349.084
	c-5.979,0-11.958,0-17.938,0c1.681-8.589,2.311-15.622,1.837-23.341h7.916v-2.809h2.269v2.809h7.753
	C462.665,333.812,462.347,341.006,460.109,349.084z M462.487,320.125c-5.979,0-11.958,0-17.938,0
	c1.68-8.589,2.311-15.622,1.837-23.341h7.916v-2.809h2.269v2.809h7.753C465.042,304.852,464.724,312.046,462.487,320.125z
	 M481.982,331.973c-5.979,0-11.959,0-17.938,0c3.979-7.437,5.602-15.184,4.107-23.341h7.916v-2.809h2.269v2.809h7.753
	C486.807,316.7,485.441,324.481,481.982,331.973z M473.941,304.996c1.68-8.589,2.311-15.622,1.837-23.341h7.916v-2.809h2.269v2.809
	h7.753c0.719,8.068,0.4,15.263-1.837,23.341C485.9,304.996,479.92,304.996,473.941,304.996z M505.971,351.207
	c-5.979,0-11.959,0-17.938,0c3.979-7.437,5.602-15.184,4.107-23.341h7.916v-2.809h2.269v2.809h7.753
	C510.796,335.934,509.431,343.715,505.971,351.207z M518.462,313.857c-5.979,0-11.959,0-17.938,0
	c1.681-8.589,2.311-15.622,1.837-23.341h7.916v-2.809h2.269v2.809h7.753C521.017,298.584,520.699,305.779,518.462,313.857z
	 M358.69,465.211c3.116,11.207,3.471,16.373,3.493,17.94h-6.435l-3.648-38.304c0.793,0.088,1.973,0.249,3.561,0.561
	c0.037,0.008,0.075,0.015,0.113,0.022C355.599,447.246,355.399,453.376,358.69,465.211z"></path>
<path id="color_x5F_5" fill="#ffc9af" d="M88.311,441.141c4.859-0.554,8.26-0.554,8.26-0.554s-4.407,2.194-8.522,5.266
	c-1.975,1.474-3.884,3.148-5.203,4.884c-4.069,5.351-4.737,7.844-4.737,7.844H63.654H49.2c0,0-0.79-6.829-4.859-15.687
	s-6.802-11.165-6.802-11.165s4.495,1.477,8.138,5.536c3.644,4.06,5.77,8.581,5.77,8.581s0.304-4.521-3.947-15.593
	c-4.251-11.073-5.709-13.287-5.709-13.287s5.102,4.982,8.624,10.703s4.008,7.751,4.008,7.751s0.607-11.626,1.458-16.978
	c0.85-5.352,1.215-7.012,1.215-7.012s-0.121,11.441,0.607,16.608c0.728,5.167,1.7,11.072,1.7,11.072s1.093-11.81,3.522-15.685
	c2.429-3.876,3.523-4.983,3.523-4.983l-2.308,15.686c0,0,3.522-7.382,5.466-14.763c0.147-0.558,0.282-1.096,0.411-1.626
	c1.583-6.475,1.897-10.738,1.897-10.738s1.239,8.163,1.469,17.03c0.049,1.882,0.053,3.795-0.011,5.668
	c-0.365,10.703-0.729,12.733-0.729,12.733s2.335-5.03,6.761-8.556c0.729-0.58,1.508-1.124,2.349-1.594
	c5.952-3.322,8.988-3.875,8.988-3.875s-4.768,5.474-8.169,10.106c-0.24,0.327-0.474,0.65-0.698,0.966
	c-3.401,4.798-4.616,7.197-4.616,7.197s3.845-3.085,7.852-4.668C86.19,441.582,87.28,441.259,88.311,441.141z M367.272,417.622
	l0.658-5.966l-13.486-2.073c2.843,1.914,5.884,3.772,8.717,5.503C364.61,415.972,366,416.821,367.272,417.622z M368.063,410.472
	l2.36-20.827c-1.396-0.853-7.831-4.429-21.033-6.883c-9.299-1.727-17.263,0.114-22.535,1.333c-0.858,0.198-1.652,0.382-2.378,0.534
	v12.74h8.63c0.019,0,0.037,0.001,0.055,0.003l9.827-0.003c1.233,0,2.446,0.562,3.414,1.58c0.951,0.999,1.547,2.315,1.679,3.706
	l0.223,2.344c1.183,1.015,2.5,2.031,3.906,3.036L368.063,410.472z M402.796,468.9c-0.051-0.02-0.101-0.046-0.146-0.08
	c-0.03-0.023-0.059-0.049-0.084-0.077c-14.615-9.985-27.543-21.643-28.773-22.761c-1.831-0.619-3.655-1.182-5.422-1.726
	c-1.167-0.36-2.322-0.716-3.466-1.084l-0.549,3.891c-0.025,0.175-0.126,0.329-0.275,0.423c-0.149,0.092-0.332,0.116-0.5,0.06
	c-0.039-0.013-3.445-1.128-6.627-1.86c-0.148,1.844-0.26,7.898,2.884,19.207c3.158,11.359,3.525,16.567,3.54,18.259h48.281
	c0.329,0,0.596,0.267,0.596,0.596v2.337h29.331c-4.611-0.641-10.151-2.475-17.224-5.195
	C417.569,478.277,409.984,473.798,402.796,468.9z M349.088,413.221l0.234,2.452l6.122,2.244L349.088,413.221z M470.651,408.423
	c-0.435-11.393-4.643-18.433-4.686-18.503c-0.008-0.014-0.007-0.031-0.014-0.046c-0.01-0.019-0.026-0.033-0.034-0.053
	c-5.155-8.064-12.332-8.631-14.465-8.629c0.094,1.608,0.072,3.225-0.057,4.845c-0.015,0.201-0.04,0.399-0.058,0.599
	c-0.05,0.512-0.106,1.023-0.178,1.535c-0.052,0.375-0.113,0.748-0.177,1.12c-0.03,0.17-0.049,0.34-0.081,0.51
	c-0.034,0.183-0.08,0.36-0.118,0.542c-0.078,0.382-0.157,0.762-0.247,1.139c-0.08,0.335-0.172,0.664-0.261,0.994
	c-0.118,0.436-0.237,0.872-0.372,1.302c-0.178,0.569-0.367,1.133-0.573,1.688c-0.096,0.257-0.202,0.509-0.304,0.763
	c-0.179,0.449-0.363,0.894-0.56,1.333c-0.1,0.221-0.202,0.441-0.307,0.66c-0.242,0.511-0.498,1.014-0.764,1.509
	c-0.072,0.134-0.141,0.27-0.216,0.403c-0.744,1.339-1.576,2.617-2.49,3.829c-0.028,0.037-0.057,0.072-0.085,0.109
	c-0.432,0.568-0.884,1.12-1.352,1.658c-0.058,0.067-0.117,0.135-0.176,0.201c-0.497,0.562-1.01,1.109-1.545,1.635
	c-0.002,0.002-0.005,0.005-0.007,0.007c-0.563,0.553-1.146,1.087-1.75,1.598c-0.018,0.015-0.036,0.029-0.054,0.044
	c-0.535,0.451-1.088,0.882-1.654,1.298c-0.151,0.112-0.305,0.22-0.459,0.329c-0.458,0.325-0.926,0.639-1.404,0.941
	c-0.172,0.109-0.341,0.22-0.516,0.326c-0.631,0.383-1.273,0.753-1.935,1.094c-0.147,0.076-0.299,0.15-0.451,0.224l-0.118,0.058
	c-0.474,0.232-0.963,0.451-1.459,0.664c-0.158,0.068-0.318,0.134-0.478,0.199c-0.655,0.269-1.324,0.523-2.009,0.76
	c-0.083,0.028-0.166,0.055-0.248,0.083c-12.147,4.099-28.443,3.023-34.946-2.779c-0.01-0.009-0.02-0.017-0.03-0.026
	c-0.062-0.056-0.13-0.108-0.191-0.165c-0.156-0.147-0.298-0.299-0.442-0.45c-0.054-0.056-0.112-0.11-0.164-0.167
	c-0.204-0.225-0.392-0.456-0.567-0.691c-0.02-0.026-0.044-0.051-0.063-0.077c-0.278-0.383-0.533-0.804-0.753-1.262
	c-0.002-0.004-0.004-0.007-0.006-0.011c-0.087-0.183-0.169-0.375-0.245-0.574c-0.048-0.126-0.088-0.259-0.13-0.39
	c-0.026-0.083-0.054-0.164-0.078-0.25c-0.047-0.167-0.086-0.341-0.122-0.516c-0.01-0.047-0.02-0.094-0.028-0.142
	c-0.039-0.208-0.069-0.422-0.091-0.641c0-0.003,0-0.006-0.001-0.008c-0.17-1.719,0.22-3.779,1.571-6.202
	c0.022-0.039,0.044-0.079,0.066-0.118c0.172-0.304,0.359-0.612,0.563-0.927c0.06-0.093,0.124-0.188,0.187-0.282
	c0.186-0.279,0.38-0.559,0.592-0.847c0.111-0.151,0.234-0.306,0.352-0.46c0.191-0.247,0.379-0.493,0.59-0.746
	c0.19-0.23,0.402-0.466,0.608-0.701c0.17-0.193,0.329-0.383,0.511-0.58c0.409-0.444,0.844-0.896,1.314-1.359
	c0.769-0.756,1.501-1.467,2.193-2.139c0.385-0.374,0.751-0.729,1.111-1.08c0.089-0.087,0.178-0.174,0.266-0.259
	c0.358-0.35,0.7-0.688,1.031-1.018c0.072-0.072,0.141-0.142,0.212-0.212c0.334-0.335,0.657-0.663,0.962-0.982
	c0.034-0.035,0.065-0.069,0.099-0.105c0.282-0.296,0.55-0.586,0.806-0.87c0.048-0.053,0.098-0.108,0.145-0.161
	c0.261-0.293,0.504-0.581,0.736-0.865c0.052-0.064,0.103-0.127,0.154-0.191c0.227-0.285,0.441-0.566,0.638-0.846
	c0.033-0.046,0.062-0.092,0.094-0.138c0.184-0.268,0.355-0.535,0.511-0.801c0.02-0.034,0.042-0.068,0.062-0.102
	c0.16-0.28,0.301-0.561,0.429-0.843c0.014-0.031,0.028-0.062,0.042-0.093c-4.697,3.227-12.328,5.733-18.546,4.794
	c-3.464-0.522-6.015-2.038-7.582-4.505c-0.107-0.168-0.123-0.378-0.042-0.561c0.009-0.021,0.423-0.982,0.785-2.698
	c-2.373,0.628-8.781,2.331-12.592,3.401l2.572,4.49c0.005,0.007,0.009,0.015,0.013,0.022c0,0.001,0,0.001,0,0.001
	c0.001,0.001,0.001,0.001,0.001,0.002c0.058,0.11,0.077,0.231,0.062,0.348l-2.445,21.571c0.674,0.901,3.718,4.924,7.306,8.899
	c3.797,4.206,3.928,11.373,3.903,13.068c2.364,1.439,18.453,11.166,28.612,15.636c9.723,4.278,25.221,6.823,28.568,7.339
	l1.841-42.337c0.014-0.329,0.293-0.576,0.62-0.569c0.329,0.015,0.584,0.292,0.569,0.62l-1.869,42.999
	c-0.007,0.168-0.085,0.325-0.215,0.433s-0.298,0.155-0.464,0.132c-0.162-0.023-14.448-2.084-25.393-5.911
	c-0.132,1.035-0.566,3.015-1.962,6.018c-1.784,3.84-5.632,9.202-6.859,10.876c7,4.744,14.345,9.057,20.927,11.588
	c12.579,4.838,20.531,6.913,26.53,4.014c3.477-1.679,6.326-5.017,8.857-10.498c0.005-0.017,0.015-0.03,0.021-0.045
	c0.003-0.009,0.002-0.018,0.005-0.027c0.037-0.086,3.763-8.749,7.147-24.75c0.052-0.245,0.096-0.479,0.146-0.722
	c2.173-11.651,3.215-23.513,3.312-33.065C470.787,412.528,470.729,410.448,470.651,408.423z M319.342,384.243v13.126h3.944v-12.56
	C321.926,384.875,320.29,384.503,319.342,384.243z M301.172,374.068c-10.321-2.418-18.533-0.9-20.582-0.44l2.703,23.741h34.857
	v-13.716C317.318,382.637,312.008,376.608,301.172,374.068z M363.755,442.798c-4.314-1.433-8.452-3.122-12.409-5.875l0.64,6.715
	c0.81,0.083,2.103,0.248,3.905,0.602c2.725,0.535,5.995,1.523,7.384,1.959L363.755,442.798z M147.204,486.084h5.103l-3.8-8.041
	L147.204,486.084z M98.25,382.165v103.919h4.728l9.639-59.462c0.046-0.288,0.295-0.5,0.587-0.5h43.021
	c0.174,0,0.34,0.077,0.453,0.21s0.163,0.309,0.134,0.481l-4.881,30.112l12.411,29.159h14.735v-71.606l-35.071-32.312L98.25,382.165
	L98.25,382.165z"></path>
<path id="color_x5F_6" fill="#000000" d="M500.056,325.057h2.269v2.809v2.215h-2.269v-2.215V325.057z M476.066,308.631v2.216h2.269
	v-2.216v-2.809h-2.269V308.631z M510.277,287.707v2.809v2.216h2.269v-2.216v-2.809H510.277z M451.924,325.743v2.216h2.269v-2.216
	v-2.809h-2.269V325.743z M454.302,296.784v2.215h2.269v-2.215v-2.809h-2.269V296.784z M483.694,281.655v2.215h2.269v-2.215v-2.809
	h-2.269V281.655z"></path>
<path id="color_x5F_7" d="M445.943,193.281v0.805h-5.596v-0.805H445.943z M409.127,230.098h0.805v-5.596h-0.805V230.098z
	 M409.127,162.867h0.805v-5.596h-0.805V162.867z M373.116,194.086h5.596v-0.805h-5.596V194.086z"></path>

</svg>