<svg xmlns="http://www.w3.org/2000/svg" xmlns:xlink="http://www.w3.org/1999/xlink" width="480" zoomAndPan="magnify" viewBox="0 0 360 258.74999" height="345" preserveAspectRatio="xMidYMid meet" version="1.0"><defs><g/><clipPath id="6d66394d17"><path d="M 75.628906 0.714844 L 269.316406 0.714844 L 269.316406 140 L 75.628906 140 Z M 75.628906 0.714844 " clip-rule="nonzero"/></clipPath></defs><g fill="#38b6ff" fill-opacity="1"><g transform="translate(20.232141, 192.374042)"><g><path d="M 23.5 -27.703125 C 24.363281 -27.253906 24.796875 -26.546875 24.796875 -25.578125 C 24.796875 -24.992188 24.585938 -24.425781 24.171875 -23.875 C 23.722656 -23.289062 23.148438 -23 22.453125 -23 C 21.984375 -23 21.515625 -23.125 21.046875 -23.375 C 19.691406 -24.007812 18.222656 -24.328125 16.640625 -24.328125 C 14.691406 -24.328125 13 -23.914062 11.5625 -23.09375 C 10.125 -22.28125 9.015625 -21.128906 8.234375 -19.640625 C 7.460938 -18.160156 7.078125 -16.46875 7.078125 -14.5625 C 7.078125 -11.289062 7.957031 -8.804688 9.71875 -7.109375 C 11.476562 -5.421875 13.785156 -4.578125 16.640625 -4.578125 C 18.328125 -4.578125 19.796875 -4.894531 21.046875 -5.53125 C 21.546875 -5.75 21.988281 -5.859375 22.375 -5.859375 C 23.09375 -5.859375 23.703125 -5.554688 24.203125 -4.953125 C 24.617188 -4.421875 24.828125 -3.851562 24.828125 -3.25 C 24.828125 -2.800781 24.71875 -2.394531 24.5 -2.03125 C 24.28125 -1.675781 23.960938 -1.398438 23.546875 -1.203125 C 21.378906 -0.117188 19.078125 0.421875 16.640625 0.421875 C 13.921875 0.421875 11.421875 -0.148438 9.140625 -1.296875 C 6.867188 -2.453125 5.050781 -4.15625 3.6875 -6.40625 C 2.332031 -8.65625 1.65625 -11.375 1.65625 -14.5625 C 1.65625 -17.382812 2.300781 -19.914062 3.59375 -22.15625 C 4.882812 -24.40625 6.664062 -26.160156 8.9375 -27.421875 C 11.21875 -28.691406 13.785156 -29.328125 16.640625 -29.328125 C 19.109375 -29.328125 21.394531 -28.785156 23.5 -27.703125 Z M 23.5 -27.703125 "/></g></g></g><g fill="#38b6ff" fill-opacity="1"><g transform="translate(47.999674, 192.374042)"><g><path d="M 19.171875 -4.859375 C 19.890625 -4.859375 20.492188 -4.628906 20.984375 -4.171875 C 21.472656 -3.722656 21.71875 -3.132812 21.71875 -2.40625 C 21.71875 -1.71875 21.472656 -1.144531 20.984375 -0.6875 C 20.492188 -0.226562 19.890625 0 19.171875 0 L 5.65625 0 C 4.9375 0 4.332031 -0.238281 3.84375 -0.71875 C 3.363281 -1.207031 3.125 -1.8125 3.125 -2.53125 L 3.125 -26.578125 C 3.125 -27.296875 3.367188 -27.894531 3.859375 -28.375 C 4.359375 -28.863281 5 -29.109375 5.78125 -29.109375 C 6.476562 -29.109375 7.070312 -28.863281 7.5625 -28.375 C 8.0625 -27.894531 8.3125 -27.296875 8.3125 -26.578125 L 8.3125 -4.859375 Z M 19.171875 -4.859375 "/></g></g></g><g fill="#38b6ff" fill-opacity="1"><g transform="translate(73.065421, 192.374042)"><g><path d="M 29.90625 -14.5625 C 29.90625 -11.8125 29.296875 -9.289062 28.078125 -7 C 26.859375 -4.71875 25.171875 -2.910156 23.015625 -1.578125 C 20.867188 -0.242188 18.453125 0.421875 15.765625 0.421875 C 13.078125 0.421875 10.65625 -0.242188 8.5 -1.578125 C 6.351562 -2.910156 4.675781 -4.71875 3.46875 -7 C 2.257812 -9.289062 1.65625 -11.8125 1.65625 -14.5625 C 1.65625 -17.300781 2.257812 -19.8125 3.46875 -22.09375 C 4.675781 -24.382812 6.351562 -26.195312 8.5 -27.53125 C 10.65625 -28.863281 13.078125 -29.53125 15.765625 -29.53125 C 18.453125 -29.53125 20.867188 -28.863281 23.015625 -27.53125 C 25.171875 -26.195312 26.859375 -24.382812 28.078125 -22.09375 C 29.296875 -19.8125 29.90625 -17.300781 29.90625 -14.5625 Z M 24.5 -14.5625 C 24.5 -16.414062 24.125 -18.097656 23.375 -19.609375 C 22.625 -21.117188 21.582031 -22.316406 20.25 -23.203125 C 18.925781 -24.097656 17.429688 -24.546875 15.765625 -24.546875 C 14.078125 -24.546875 12.570312 -24.109375 11.25 -23.234375 C 9.9375 -22.359375 8.910156 -21.15625 8.171875 -19.625 C 7.441406 -18.101562 7.078125 -16.414062 7.078125 -14.5625 C 7.078125 -12.695312 7.441406 -11.003906 8.171875 -9.484375 C 8.910156 -7.960938 9.9375 -6.765625 11.25 -5.890625 C 12.570312 -5.015625 14.078125 -4.578125 15.765625 -4.578125 C 17.429688 -4.578125 18.925781 -5.019531 20.25 -5.90625 C 21.582031 -6.789062 22.625 -7.988281 23.375 -9.5 C 24.125 -11.007812 24.5 -12.695312 24.5 -14.5625 Z M 24.5 -14.5625 "/></g></g></g><g fill="#38b6ff" fill-opacity="1"><g transform="translate(106.319691, 192.374042)"><g><path d="M 23.796875 -29.15625 C 24.515625 -29.15625 25.09375 -28.921875 25.53125 -28.453125 C 25.976562 -27.984375 26.203125 -27.375 26.203125 -26.625 L 26.203125 -11.5625 C 26.203125 -9.257812 25.71875 -7.21875 24.75 -5.4375 C 23.78125 -3.664062 22.421875 -2.28125 20.671875 -1.28125 C 18.921875 -0.289062 16.925781 0.203125 14.6875 0.203125 C 12.4375 0.203125 10.429688 -0.289062 8.671875 -1.28125 C 6.910156 -2.28125 5.546875 -3.664062 4.578125 -5.4375 C 3.609375 -7.21875 3.125 -9.257812 3.125 -11.5625 L 3.125 -26.625 C 3.125 -27.34375 3.367188 -27.941406 3.859375 -28.421875 C 4.359375 -28.910156 5 -29.15625 5.78125 -29.15625 C 6.445312 -29.15625 7.03125 -28.910156 7.53125 -28.421875 C 8.03125 -27.941406 8.28125 -27.34375 8.28125 -26.625 L 8.28125 -11.5625 C 8.28125 -10.226562 8.570312 -9.039062 9.15625 -8 C 9.738281 -6.96875 10.519531 -6.171875 11.5 -5.609375 C 12.488281 -5.054688 13.550781 -4.78125 14.6875 -4.78125 C 15.875 -4.78125 16.988281 -5.054688 18.03125 -5.609375 C 19.070312 -6.171875 19.90625 -6.96875 20.53125 -8 C 21.15625 -9.039062 21.46875 -10.226562 21.46875 -11.5625 L 21.46875 -26.625 C 21.46875 -27.375 21.671875 -27.984375 22.078125 -28.453125 C 22.492188 -28.921875 23.066406 -29.15625 23.796875 -29.15625 Z M 23.796875 -29.15625 "/></g></g></g><g fill="#38b6ff" fill-opacity="1"><g transform="translate(137.329378, 192.374042)"><g><path d="M 15.59375 -29.109375 C 18.195312 -29.109375 20.4375 -28.460938 22.3125 -27.171875 C 24.1875 -25.890625 25.613281 -24.144531 26.59375 -21.9375 C 27.582031 -19.738281 28.078125 -17.28125 28.078125 -14.5625 C 28.078125 -11.84375 27.582031 -9.378906 26.59375 -7.171875 C 25.613281 -4.972656 24.1875 -3.226562 22.3125 -1.9375 C 20.4375 -0.644531 18.195312 0 15.59375 0 L 5.65625 0 C 4.9375 0 4.332031 -0.238281 3.84375 -0.71875 C 3.363281 -1.207031 3.125 -1.8125 3.125 -2.53125 L 3.125 -26.578125 C 3.125 -27.296875 3.363281 -27.894531 3.84375 -28.375 C 4.332031 -28.863281 4.9375 -29.109375 5.65625 -29.109375 Z M 15.1875 -4.78125 C 17.675781 -4.78125 19.546875 -5.703125 20.796875 -7.546875 C 22.046875 -9.390625 22.671875 -11.726562 22.671875 -14.5625 C 22.671875 -17.382812 22.039062 -19.71875 20.78125 -21.5625 C 19.519531 -23.40625 17.65625 -24.328125 15.1875 -24.328125 L 8.3125 -24.328125 L 8.3125 -4.78125 Z M 15.1875 -4.78125 "/></g></g></g><g fill="#38b6ff" fill-opacity="1"><g transform="translate(168.754746, 192.374042)"><g/></g></g><g fill="#38b6ff" fill-opacity="1"><g transform="translate(182.098856, 192.374042)"><g><path d="M 20.59375 -16.140625 C 22.0625 -15.554688 23.257812 -14.664062 24.1875 -13.46875 C 25.113281 -12.28125 25.578125 -10.742188 25.578125 -8.859375 C 25.578125 -5.554688 24.632812 -3.253906 22.75 -1.953125 C 20.863281 -0.648438 18.617188 0 16.015625 0 L 5.65625 0 C 4.9375 0 4.332031 -0.238281 3.84375 -0.71875 C 3.363281 -1.207031 3.125 -1.8125 3.125 -2.53125 L 3.125 -26.578125 C 3.125 -27.296875 3.363281 -27.894531 3.84375 -28.375 C 4.332031 -28.863281 4.9375 -29.109375 5.65625 -29.109375 L 16.140625 -29.109375 C 21.410156 -29.109375 24.046875 -26.644531 24.046875 -21.71875 C 24.046875 -20.46875 23.742188 -19.363281 23.140625 -18.40625 C 22.546875 -17.445312 21.695312 -16.691406 20.59375 -16.140625 Z M 18.640625 -20.796875 C 18.640625 -21.929688 18.351562 -22.78125 17.78125 -23.34375 C 17.207031 -23.914062 16.410156 -24.203125 15.390625 -24.203125 L 8.53125 -24.203125 L 8.53125 -17.71875 L 15.515625 -17.71875 C 16.347656 -17.71875 17.078125 -17.992188 17.703125 -18.546875 C 18.328125 -19.097656 18.640625 -19.847656 18.640625 -20.796875 Z M 16.015625 -4.78125 C 17.316406 -4.78125 18.332031 -5.125 19.0625 -5.8125 C 19.800781 -6.507812 20.171875 -7.523438 20.171875 -8.859375 C 20.171875 -10.492188 19.738281 -11.5625 18.875 -12.0625 C 18.019531 -12.5625 16.96875 -12.8125 15.71875 -12.8125 L 8.53125 -12.8125 L 8.53125 -4.78125 Z M 16.015625 -4.78125 "/></g></g></g><g fill="#38b6ff" fill-opacity="1"><g transform="translate(211.030263, 192.374042)"><g><path d="M 8.3125 -2.53125 C 8.3125 -1.8125 8.046875 -1.207031 7.515625 -0.71875 C 6.992188 -0.238281 6.390625 0 5.703125 0 C 4.953125 0 4.332031 -0.238281 3.84375 -0.71875 C 3.363281 -1.207031 3.125 -1.8125 3.125 -2.53125 L 3.125 -26.578125 C 3.125 -27.296875 3.367188 -27.894531 3.859375 -28.375 C 4.359375 -28.863281 5 -29.109375 5.78125 -29.109375 C 6.476562 -29.109375 7.070312 -28.863281 7.5625 -28.375 C 8.0625 -27.894531 8.3125 -27.296875 8.3125 -26.578125 Z M 8.3125 -2.53125 "/></g></g></g><g fill="#38b6ff" fill-opacity="1"><g transform="translate(224.166517, 192.374042)"><g><path d="M 25.203125 -29.109375 C 25.867188 -29.109375 26.410156 -28.882812 26.828125 -28.4375 C 27.242188 -28 27.453125 -27.445312 27.453125 -26.78125 L 27.453125 -2.53125 C 27.453125 -1.8125 27.207031 -1.207031 26.71875 -0.71875 C 26.238281 -0.238281 25.640625 0 24.921875 0 C 24.523438 0 24.140625 -0.0625 23.765625 -0.1875 C 23.390625 -0.3125 23.117188 -0.484375 22.953125 -0.703125 L 7.6875 -20.09375 L 7.6875 -2.328125 C 7.6875 -1.660156 7.472656 -1.101562 7.046875 -0.65625 C 6.617188 -0.21875 6.054688 0 5.359375 0 C 4.703125 0 4.164062 -0.21875 3.75 -0.65625 C 3.332031 -1.101562 3.125 -1.660156 3.125 -2.328125 L 3.125 -26.578125 C 3.125 -27.296875 3.363281 -27.894531 3.84375 -28.375 C 4.332031 -28.863281 4.9375 -29.109375 5.65625 -29.109375 C 6.070312 -29.109375 6.476562 -29.023438 6.875 -28.859375 C 7.28125 -28.691406 7.582031 -28.472656 7.78125 -28.203125 L 22.921875 -8.90625 L 22.921875 -26.78125 C 22.921875 -27.445312 23.132812 -28 23.5625 -28.4375 C 23.988281 -28.882812 24.535156 -29.109375 25.203125 -29.109375 Z M 25.203125 -29.109375 "/></g></g></g><g fill="#38b6ff" fill-opacity="1"><g transform="translate(256.423215, 192.374042)"><g><path d="M 25.953125 -3.25 C 26.085938 -2.882812 26.15625 -2.550781 26.15625 -2.25 C 26.15625 -1.53125 25.921875 -0.941406 25.453125 -0.484375 C 24.984375 -0.0234375 24.441406 0.203125 23.828125 0.203125 C 23.328125 0.203125 22.875 0.0507812 22.46875 -0.25 C 22.070312 -0.550781 21.765625 -0.96875 21.546875 -1.5 L 19.375 -6.53125 L 6.984375 -6.53125 L 4.828125 -1.453125 C 4.628906 -0.929688 4.328125 -0.523438 3.921875 -0.234375 C 3.523438 0.0546875 3.09375 0.203125 2.625 0.203125 C 1.894531 0.203125 1.34375 0.0078125 0.96875 -0.375 C 0.601562 -0.757812 0.421875 -1.285156 0.421875 -1.953125 C 0.421875 -2.203125 0.460938 -2.46875 0.546875 -2.75 L 10.890625 -27.625 C 11.117188 -28.175781 11.453125 -28.601562 11.890625 -28.90625 C 12.335938 -29.207031 12.835938 -29.332031 13.390625 -29.28125 C 13.890625 -29.28125 14.351562 -29.132812 14.78125 -28.84375 C 15.21875 -28.550781 15.53125 -28.144531 15.71875 -27.625 Z M 9.03125 -11.3125 L 17.34375 -11.3125 L 13.140625 -21.046875 Z M 9.03125 -11.3125 "/></g></g></g><g fill="#38b6ff" fill-opacity="1"><g transform="translate(284.689565, 192.374042)"><g><path d="M 25.953125 -4.078125 C 26.316406 -3.859375 26.601562 -3.566406 26.8125 -3.203125 C 27.019531 -2.835938 27.125 -2.460938 27.125 -2.078125 C 27.125 -1.578125 26.957031 -1.117188 26.625 -0.703125 C 26.207031 -0.203125 25.566406 0.046875 24.703125 0.046875 C 24.035156 0.046875 23.425781 -0.109375 22.875 -0.421875 C 20.875 -1.554688 19.875 -3.867188 19.875 -7.359375 C 19.875 -8.359375 19.546875 -9.148438 18.890625 -9.734375 C 18.242188 -10.316406 17.3125 -10.609375 16.09375 -10.609375 L 8.3125 -10.609375 L 8.3125 -2.53125 C 8.3125 -1.789062 8.109375 -1.179688 7.703125 -0.703125 C 7.304688 -0.234375 6.773438 0 6.109375 0 C 5.304688 0 4.609375 -0.238281 4.015625 -0.71875 C 3.421875 -1.207031 3.125 -1.8125 3.125 -2.53125 L 3.125 -26.578125 C 3.125 -27.296875 3.363281 -27.894531 3.84375 -28.375 C 4.332031 -28.863281 4.9375 -29.109375 5.65625 -29.109375 L 17.640625 -29.109375 C 19.078125 -29.109375 20.429688 -28.71875 21.703125 -27.9375 C 22.984375 -27.164062 24.003906 -26.097656 24.765625 -24.734375 C 25.523438 -23.378906 25.90625 -21.859375 25.90625 -20.171875 C 25.90625 -18.785156 25.53125 -17.429688 24.78125 -16.109375 C 24.039062 -14.796875 23.070312 -13.753906 21.875 -12.984375 C 23.625 -11.753906 24.582031 -10.113281 24.75 -8.0625 C 24.832031 -7.625 24.875 -7.195312 24.875 -6.78125 C 24.988281 -5.914062 25.097656 -5.296875 25.203125 -4.921875 C 25.316406 -4.554688 25.566406 -4.273438 25.953125 -4.078125 Z M 17.421875 -14.890625 C 17.921875 -14.890625 18.40625 -15.125 18.875 -15.59375 C 19.351562 -16.070312 19.742188 -16.703125 20.046875 -17.484375 C 20.347656 -18.273438 20.5 -19.128906 20.5 -20.046875 C 20.5 -20.828125 20.347656 -21.539062 20.046875 -22.1875 C 19.742188 -22.84375 19.351562 -23.363281 18.875 -23.75 C 18.40625 -24.132812 17.921875 -24.328125 17.421875 -24.328125 L 8.3125 -24.328125 L 8.3125 -14.890625 Z M 17.421875 -14.890625 "/></g></g></g><g fill="#38b6ff" fill-opacity="1"><g transform="translate(314.951088, 192.374042)"><g><path d="M 24.171875 -26.65625 C 24.171875 -26.101562 24.015625 -25.59375 23.703125 -25.125 L 15.015625 -12.6875 L 15.015625 -2.53125 C 15.015625 -1.8125 14.773438 -1.207031 14.296875 -0.71875 C 13.828125 -0.238281 13.265625 0 12.609375 0 C 11.910156 0 11.316406 -0.238281 10.828125 -0.71875 C 10.347656 -1.207031 10.109375 -1.8125 10.109375 -2.53125 L 10.109375 -13.265625 L 1.453125 -24.75 C 0.953125 -25.414062 0.703125 -26.066406 0.703125 -26.703125 C 0.703125 -27.421875 0.984375 -28.019531 1.546875 -28.5 C 2.117188 -28.988281 2.726562 -29.234375 3.375 -29.234375 C 4.144531 -29.234375 4.820312 -28.847656 5.40625 -28.078125 L 12.734375 -17.96875 L 19.59375 -28 C 20.175781 -28.820312 20.867188 -29.234375 21.671875 -29.234375 C 22.335938 -29.234375 22.921875 -28.984375 23.421875 -28.484375 C 23.921875 -27.992188 24.171875 -27.382812 24.171875 -26.65625 Z M 24.171875 -26.65625 "/></g></g></g><g fill="#38b6ff" fill-opacity="1"><g transform="translate(76.741758, 243.694047)"><g><path d="M 11.671875 -2.96875 C 12.109375 -2.96875 12.472656 -2.828125 12.765625 -2.546875 C 13.066406 -2.265625 13.21875 -1.90625 13.21875 -1.46875 C 13.21875 -1.039062 13.066406 -0.6875 12.765625 -0.40625 C 12.472656 -0.132812 12.109375 0 11.671875 0 L 3.4375 0 C 3 0 2.632812 -0.144531 2.34375 -0.4375 C 2.050781 -0.738281 1.90625 -1.109375 1.90625 -1.546875 L 1.90625 -16.1875 C 1.90625 -16.625 2.054688 -16.988281 2.359375 -17.28125 C 2.660156 -17.582031 3.046875 -17.734375 3.515625 -17.734375 C 3.941406 -17.734375 4.304688 -17.582031 4.609375 -17.28125 C 4.910156 -16.988281 5.0625 -16.625 5.0625 -16.1875 L 5.0625 -2.96875 Z M 11.671875 -2.96875 "/></g></g></g><g fill="#38b6ff" fill-opacity="1"><g transform="translate(91.354182, 243.694047)"><g><path d="M 13.796875 -7.09375 C 13.785156 -6.6875 13.625 -6.351562 13.3125 -6.09375 C 13.007812 -5.84375 12.660156 -5.71875 12.265625 -5.71875 L 3.90625 -5.71875 C 4.101562 -4.726562 4.5625 -3.945312 5.28125 -3.375 C 6.007812 -2.8125 6.832031 -2.53125 7.75 -2.53125 C 8.4375 -2.53125 8.972656 -2.59375 9.359375 -2.71875 C 9.753906 -2.84375 10.066406 -2.976562 10.296875 -3.125 C 10.523438 -3.269531 10.679688 -3.367188 10.765625 -3.421875 C 11.066406 -3.566406 11.351562 -3.640625 11.625 -3.640625 C 11.976562 -3.640625 12.28125 -3.515625 12.53125 -3.265625 C 12.789062 -3.015625 12.921875 -2.71875 12.921875 -2.375 C 12.921875 -1.925781 12.679688 -1.515625 12.203125 -1.140625 C 11.734375 -0.753906 11.101562 -0.425781 10.3125 -0.15625 C 9.519531 0.113281 8.71875 0.25 7.90625 0.25 C 6.488281 0.25 5.25 -0.0390625 4.1875 -0.625 C 3.132812 -1.21875 2.320312 -2.035156 1.75 -3.078125 C 1.175781 -4.117188 0.890625 -5.285156 0.890625 -6.578125 C 0.890625 -8.035156 1.191406 -9.3125 1.796875 -10.40625 C 2.398438 -11.507812 3.203125 -12.347656 4.203125 -12.921875 C 5.203125 -13.503906 6.265625 -13.796875 7.390625 -13.796875 C 8.503906 -13.796875 9.554688 -13.492188 10.546875 -12.890625 C 11.535156 -12.285156 12.320312 -11.46875 12.90625 -10.4375 C 13.5 -9.40625 13.796875 -8.289062 13.796875 -7.09375 Z M 7.390625 -11.015625 C 5.429688 -11.015625 4.273438 -10.09375 3.921875 -8.25 L 10.5625 -8.25 L 10.5625 -8.4375 C 10.488281 -9.144531 10.140625 -9.75 9.515625 -10.25 C 8.898438 -10.757812 8.191406 -11.015625 7.390625 -11.015625 Z M 7.390625 -11.015625 "/></g></g></g><g fill="#38b6ff" fill-opacity="1"><g transform="translate(106.422427, 243.694047)"><g><path d="M 12.609375 -13.796875 C 13.046875 -13.796875 13.410156 -13.648438 13.703125 -13.359375 C 13.992188 -13.078125 14.140625 -12.710938 14.140625 -12.265625 L 14.140625 -1.546875 C 14.140625 -1.109375 13.992188 -0.738281 13.703125 -0.4375 C 13.410156 -0.144531 13.046875 0 12.609375 0 C 12.171875 0 11.8125 -0.140625 11.53125 -0.421875 C 11.257812 -0.710938 11.113281 -1.078125 11.09375 -1.515625 C 10.664062 -1.023438 10.09375 -0.609375 9.375 -0.265625 C 8.664062 0.078125 7.914062 0.25 7.125 0.25 C 5.957031 0.25 4.898438 -0.046875 3.953125 -0.640625 C 3.003906 -1.242188 2.253906 -2.078125 1.703125 -3.140625 C 1.160156 -4.203125 0.890625 -5.410156 0.890625 -6.765625 C 0.890625 -8.109375 1.15625 -9.316406 1.6875 -10.390625 C 2.226562 -11.460938 2.96875 -12.296875 3.90625 -12.890625 C 4.84375 -13.492188 5.878906 -13.796875 7.015625 -13.796875 C 7.828125 -13.796875 8.585938 -13.648438 9.296875 -13.359375 C 10.003906 -13.066406 10.601562 -12.691406 11.09375 -12.234375 L 11.09375 -12.265625 C 11.09375 -12.703125 11.234375 -13.066406 11.515625 -13.359375 C 11.804688 -13.648438 12.171875 -13.796875 12.609375 -13.796875 Z M 7.5 -2.53125 C 8.59375 -2.53125 9.484375 -2.929688 10.171875 -3.734375 C 10.867188 -4.535156 11.21875 -5.546875 11.21875 -6.765625 C 11.21875 -7.984375 10.867188 -8.992188 10.171875 -9.796875 C 9.484375 -10.609375 8.59375 -11.015625 7.5 -11.015625 C 6.414062 -11.015625 5.523438 -10.609375 4.828125 -9.796875 C 4.140625 -8.992188 3.796875 -7.984375 3.796875 -6.765625 C 3.796875 -5.546875 4.132812 -4.535156 4.8125 -3.734375 C 5.5 -2.929688 6.394531 -2.53125 7.5 -2.53125 Z M 7.5 -2.53125 "/></g></g></g><g fill="#38b6ff" fill-opacity="1"><g transform="translate(122.579612, 243.694047)"><g><path d="M 8.6875 -13.796875 C 9.195312 -13.796875 9.625 -13.648438 9.96875 -13.359375 C 10.3125 -13.078125 10.484375 -12.742188 10.484375 -12.359375 C 10.484375 -11.835938 10.347656 -11.445312 10.078125 -11.1875 C 9.804688 -10.925781 9.488281 -10.796875 9.125 -10.796875 C 8.863281 -10.796875 8.570312 -10.851562 8.25 -10.96875 C 8.207031 -10.988281 8.097656 -11.019531 7.921875 -11.0625 C 7.742188 -11.113281 7.550781 -11.140625 7.34375 -11.140625 C 6.90625 -11.140625 6.484375 -11.003906 6.078125 -10.734375 C 5.671875 -10.460938 5.335938 -10.050781 5.078125 -9.5 C 4.816406 -8.957031 4.6875 -8.304688 4.6875 -7.546875 L 4.6875 -1.546875 C 4.6875 -1.109375 4.539062 -0.738281 4.25 -0.4375 C 3.96875 -0.144531 3.609375 0 3.171875 0 C 2.722656 0 2.351562 -0.144531 2.0625 -0.4375 C 1.78125 -0.738281 1.640625 -1.109375 1.640625 -1.546875 L 1.640625 -12 C 1.640625 -12.445312 1.78125 -12.816406 2.0625 -13.109375 C 2.351562 -13.398438 2.722656 -13.546875 3.171875 -13.546875 C 3.609375 -13.546875 3.96875 -13.398438 4.25 -13.109375 C 4.539062 -12.816406 4.6875 -12.445312 4.6875 -12 L 4.6875 -11.671875 C 5.070312 -12.367188 5.628906 -12.894531 6.359375 -13.25 C 7.085938 -13.613281 7.863281 -13.796875 8.6875 -13.796875 Z M 8.6875 -13.796875 "/></g></g></g><g fill="#38b6ff" fill-opacity="1"><g transform="translate(133.950545, 243.694047)"><g><path d="M 8.890625 -13.796875 C 10.609375 -13.796875 11.796875 -13.285156 12.453125 -12.265625 C 13.117188 -11.242188 13.453125 -9.832031 13.453125 -8.03125 L 13.453125 -1.546875 C 13.453125 -1.109375 13.304688 -0.738281 13.015625 -0.4375 C 12.734375 -0.144531 12.367188 0 11.921875 0 C 11.484375 0 11.117188 -0.144531 10.828125 -0.4375 C 10.546875 -0.738281 10.40625 -1.109375 10.40625 -1.546875 L 10.40625 -8.03125 C 10.40625 -8.957031 10.210938 -9.6875 9.828125 -10.21875 C 9.441406 -10.75 8.773438 -11.015625 7.828125 -11.015625 C 6.847656 -11.015625 6.078125 -10.734375 5.515625 -10.171875 C 4.960938 -9.609375 4.6875 -8.894531 4.6875 -8.03125 L 4.6875 -1.546875 C 4.6875 -1.109375 4.539062 -0.738281 4.25 -0.4375 C 3.96875 -0.144531 3.609375 0 3.171875 0 C 2.722656 0 2.351562 -0.144531 2.0625 -0.4375 C 1.78125 -0.738281 1.640625 -1.109375 1.640625 -1.546875 L 1.640625 -12 C 1.640625 -12.445312 1.78125 -12.816406 2.0625 -13.109375 C 2.351562 -13.398438 2.722656 -13.546875 3.171875 -13.546875 C 3.609375 -13.546875 3.96875 -13.398438 4.25 -13.109375 C 4.539062 -12.816406 4.6875 -12.445312 4.6875 -12 L 4.6875 -11.578125 C 5.144531 -12.179688 5.738281 -12.703125 6.46875 -13.140625 C 7.207031 -13.578125 8.015625 -13.796875 8.890625 -13.796875 Z M 8.890625 -13.796875 "/></g></g></g><g fill="#38b6ff" fill-opacity="1"><g transform="translate(149.423986, 243.694047)"><g/></g></g><g fill="#38b6ff" fill-opacity="1"><g transform="translate(156.895007, 243.694047)"><g><path d="M 8.65625 -13.796875 C 9.820312 -13.796875 10.878906 -13.492188 11.828125 -12.890625 C 12.773438 -12.296875 13.519531 -11.46875 14.0625 -10.40625 C 14.613281 -9.34375 14.890625 -8.132812 14.890625 -6.78125 C 14.890625 -5.4375 14.617188 -4.226562 14.078125 -3.15625 C 13.535156 -2.082031 12.796875 -1.242188 11.859375 -0.640625 C 10.921875 -0.046875 9.890625 0.25 8.765625 0.25 C 7.953125 0.25 7.1875 0.0859375 6.46875 -0.234375 C 5.75 -0.566406 5.15625 -0.96875 4.6875 -1.4375 L 4.6875 -1.296875 C 4.6875 -0.859375 4.539062 -0.488281 4.25 -0.1875 C 3.96875 0.101562 3.609375 0.25 3.171875 0.25 C 2.722656 0.25 2.351562 0.109375 2.0625 -0.171875 C 1.78125 -0.460938 1.640625 -0.835938 1.640625 -1.296875 L 1.640625 -17.203125 C 1.640625 -17.640625 1.78125 -18.003906 2.0625 -18.296875 C 2.351562 -18.597656 2.722656 -18.75 3.171875 -18.75 C 3.609375 -18.75 3.96875 -18.597656 4.25 -18.296875 C 4.539062 -18.003906 4.6875 -17.640625 4.6875 -17.203125 L 4.6875 -11.90625 C 5.09375 -12.414062 5.65625 -12.859375 6.375 -13.234375 C 7.101562 -13.609375 7.863281 -13.796875 8.65625 -13.796875 Z M 8.28125 -2.53125 C 9.363281 -2.53125 10.25 -2.9375 10.9375 -3.75 C 11.632812 -4.5625 11.984375 -5.570312 11.984375 -6.78125 C 11.984375 -8 11.640625 -9.007812 10.953125 -9.8125 C 10.265625 -10.613281 9.375 -11.015625 8.28125 -11.015625 C 7.1875 -11.015625 6.289062 -10.613281 5.59375 -9.8125 C 4.90625 -9.007812 4.5625 -8 4.5625 -6.78125 C 4.5625 -5.570312 4.90625 -4.5625 5.59375 -3.75 C 6.289062 -2.9375 7.1875 -2.53125 8.28125 -2.53125 Z M 8.28125 -2.53125 "/></g></g></g><g fill="#38b6ff" fill-opacity="1"><g transform="translate(173.052195, 243.694047)"><g><path d="M 11.703125 -13.546875 C 12.140625 -13.546875 12.5 -13.398438 12.78125 -13.109375 C 13.070312 -12.816406 13.21875 -12.445312 13.21875 -12 L 13.21875 -1.234375 C 13.21875 0.953125 12.625 2.546875 11.4375 3.546875 C 10.257812 4.554688 8.6875 5.0625 6.71875 5.0625 C 6.132812 5.0625 5.539062 5.015625 4.9375 4.921875 C 4.34375 4.828125 3.863281 4.707031 3.5 4.5625 C 2.664062 4.207031 2.25 3.71875 2.25 3.09375 C 2.25 2.96875 2.273438 2.832031 2.328125 2.6875 C 2.429688 2.3125 2.601562 2.023438 2.84375 1.828125 C 3.09375 1.640625 3.359375 1.546875 3.640625 1.546875 C 3.816406 1.546875 3.976562 1.570312 4.125 1.625 C 4.25 1.675781 4.457031 1.757812 4.75 1.875 C 5.039062 1.988281 5.351562 2.082031 5.6875 2.15625 C 6.019531 2.238281 6.363281 2.28125 6.71875 2.28125 C 7.914062 2.28125 8.796875 2.019531 9.359375 1.5 C 9.921875 0.988281 10.203125 0.109375 10.203125 -1.140625 L 10.203125 -1.390625 C 9.328125 -0.296875 7.960938 0.25 6.109375 0.25 C 5.222656 0.25 4.441406 0.046875 3.765625 -0.359375 C 3.097656 -0.773438 2.578125 -1.347656 2.203125 -2.078125 C 1.828125 -2.816406 1.640625 -3.660156 1.640625 -4.609375 L 1.640625 -12 C 1.640625 -12.445312 1.78125 -12.816406 2.0625 -13.109375 C 2.351562 -13.398438 2.722656 -13.546875 3.171875 -13.546875 C 3.609375 -13.546875 3.96875 -13.398438 4.25 -13.109375 C 4.539062 -12.816406 4.6875 -12.445312 4.6875 -12 L 4.6875 -5.515625 C 4.6875 -4.453125 4.914062 -3.6875 5.375 -3.21875 C 5.84375 -2.757812 6.523438 -2.53125 7.421875 -2.53125 C 8.296875 -2.53125 8.972656 -2.785156 9.453125 -3.296875 C 9.941406 -3.816406 10.1875 -4.554688 10.1875 -5.515625 L 10.1875 -12 C 10.1875 -12.445312 10.328125 -12.816406 10.609375 -13.109375 C 10.898438 -13.398438 11.265625 -13.546875 11.703125 -13.546875 Z M 11.703125 -13.546875 "/></g></g></g><g fill="#38b6ff" fill-opacity="1"><g transform="translate(188.297711, 243.694047)"><g/></g></g><g fill="#38b6ff" fill-opacity="1"><g transform="translate(195.768725, 243.694047)"><g><path d="M 9.5 -17.734375 C 11.082031 -17.734375 12.441406 -17.335938 13.578125 -16.546875 C 14.722656 -15.765625 15.59375 -14.703125 16.1875 -13.359375 C 16.789062 -12.015625 17.09375 -10.515625 17.09375 -8.859375 C 17.09375 -7.203125 16.789062 -5.703125 16.1875 -4.359375 C 15.59375 -3.023438 14.722656 -1.960938 13.578125 -1.171875 C 12.441406 -0.390625 11.082031 0 9.5 0 L 3.4375 0 C 3 0 2.632812 -0.144531 2.34375 -0.4375 C 2.050781 -0.738281 1.90625 -1.109375 1.90625 -1.546875 L 1.90625 -16.1875 C 1.90625 -16.625 2.050781 -16.988281 2.34375 -17.28125 C 2.632812 -17.582031 3 -17.734375 3.4375 -17.734375 Z M 9.25 -2.90625 C 10.769531 -2.90625 11.90625 -3.46875 12.65625 -4.59375 C 13.414062 -5.71875 13.796875 -7.140625 13.796875 -8.859375 C 13.796875 -10.585938 13.410156 -12.007812 12.640625 -13.125 C 11.878906 -14.25 10.75 -14.8125 9.25 -14.8125 L 5.0625 -14.8125 L 5.0625 -2.90625 Z M 9.25 -2.90625 "/></g></g></g><g fill="#38b6ff" fill-opacity="1"><g transform="translate(214.255734, 243.694047)"><g><path d="M 14.671875 -6.765625 C 14.671875 -5.410156 14.363281 -4.195312 13.75 -3.125 C 13.144531 -2.050781 12.3125 -1.21875 11.25 -0.625 C 10.195312 -0.0390625 9.039062 0.25 7.78125 0.25 C 6.488281 0.25 5.316406 -0.0390625 4.265625 -0.625 C 3.222656 -1.21875 2.398438 -2.050781 1.796875 -3.125 C 1.191406 -4.195312 0.890625 -5.410156 0.890625 -6.765625 C 0.890625 -8.109375 1.191406 -9.316406 1.796875 -10.390625 C 2.398438 -11.460938 3.222656 -12.296875 4.265625 -12.890625 C 5.316406 -13.492188 6.488281 -13.796875 7.78125 -13.796875 C 9.039062 -13.796875 10.195312 -13.492188 11.25 -12.890625 C 12.3125 -12.296875 13.144531 -11.460938 13.75 -10.390625 C 14.363281 -9.316406 14.671875 -8.109375 14.671875 -6.765625 Z M 11.625 -6.765625 C 11.625 -7.585938 11.453125 -8.320312 11.109375 -8.96875 C 10.765625 -9.625 10.300781 -10.128906 9.71875 -10.484375 C 9.132812 -10.835938 8.488281 -11.015625 7.78125 -11.015625 C 7.070312 -11.015625 6.425781 -10.835938 5.84375 -10.484375 C 5.257812 -10.128906 4.789062 -9.625 4.4375 -8.96875 C 4.09375 -8.320312 3.921875 -7.585938 3.921875 -6.765625 C 3.921875 -5.929688 4.09375 -5.191406 4.4375 -4.546875 C 4.789062 -3.910156 5.257812 -3.414062 5.84375 -3.0625 C 6.425781 -2.707031 7.070312 -2.53125 7.78125 -2.53125 C 8.488281 -2.53125 9.132812 -2.707031 9.71875 -3.0625 C 10.300781 -3.414062 10.765625 -3.910156 11.109375 -4.546875 C 11.453125 -5.191406 11.625 -5.929688 11.625 -6.765625 Z M 11.625 -6.765625 "/></g></g></g><g fill="#38b6ff" fill-opacity="1"><g transform="translate(230.185025, 243.694047)"><g><path d="M 4.515625 -1.546875 C 4.515625 -1.109375 4.367188 -0.738281 4.078125 -0.4375 C 3.785156 -0.144531 3.421875 0 2.984375 0 C 2.546875 0 2.179688 -0.144531 1.890625 -0.4375 C 1.609375 -0.738281 1.46875 -1.109375 1.46875 -1.546875 L 1.46875 -12 C 1.46875 -12.445312 1.609375 -12.816406 1.890625 -13.109375 C 2.179688 -13.398438 2.546875 -13.546875 2.984375 -13.546875 C 3.421875 -13.546875 3.785156 -13.398438 4.078125 -13.109375 C 4.367188 -12.816406 4.515625 -12.445312 4.515625 -12 Z M 2.953125 -15.203125 C 2.378906 -15.203125 1.972656 -15.289062 1.734375 -15.46875 C 1.503906 -15.65625 1.390625 -15.988281 1.390625 -16.46875 L 1.390625 -16.9375 C 1.390625 -17.414062 1.515625 -17.75 1.765625 -17.9375 C 2.015625 -18.125 2.421875 -18.21875 2.984375 -18.21875 C 3.578125 -18.21875 3.988281 -18.125 4.21875 -17.9375 C 4.457031 -17.75 4.578125 -17.414062 4.578125 -16.9375 L 4.578125 -16.46875 C 4.578125 -15.976562 4.453125 -15.644531 4.203125 -15.46875 C 3.960938 -15.289062 3.546875 -15.203125 2.953125 -15.203125 Z M 2.953125 -15.203125 "/></g></g></g><g fill="#38b6ff" fill-opacity="1"><g transform="translate(236.541778, 243.694047)"><g><path d="M 8.890625 -13.796875 C 10.609375 -13.796875 11.796875 -13.285156 12.453125 -12.265625 C 13.117188 -11.242188 13.453125 -9.832031 13.453125 -8.03125 L 13.453125 -1.546875 C 13.453125 -1.109375 13.304688 -0.738281 13.015625 -0.4375 C 12.734375 -0.144531 12.367188 0 11.921875 0 C 11.484375 0 11.117188 -0.144531 10.828125 -0.4375 C 10.546875 -0.738281 10.40625 -1.109375 10.40625 -1.546875 L 10.40625 -8.03125 C 10.40625 -8.957031 10.210938 -9.6875 9.828125 -10.21875 C 9.441406 -10.75 8.773438 -11.015625 7.828125 -11.015625 C 6.847656 -11.015625 6.078125 -10.734375 5.515625 -10.171875 C 4.960938 -9.609375 4.6875 -8.894531 4.6875 -8.03125 L 4.6875 -1.546875 C 4.6875 -1.109375 4.539062 -0.738281 4.25 -0.4375 C 3.96875 -0.144531 3.609375 0 3.171875 0 C 2.722656 0 2.351562 -0.144531 2.0625 -0.4375 C 1.78125 -0.738281 1.640625 -1.109375 1.640625 -1.546875 L 1.640625 -12 C 1.640625 -12.445312 1.78125 -12.816406 2.0625 -13.109375 C 2.351562 -13.398438 2.722656 -13.546875 3.171875 -13.546875 C 3.609375 -13.546875 3.96875 -13.398438 4.25 -13.109375 C 4.539062 -12.816406 4.6875 -12.445312 4.6875 -12 L 4.6875 -11.578125 C 5.144531 -12.179688 5.738281 -12.703125 6.46875 -13.140625 C 7.207031 -13.578125 8.015625 -13.796875 8.890625 -13.796875 Z M 8.890625 -13.796875 "/></g></g></g><g fill="#38b6ff" fill-opacity="1"><g transform="translate(252.015219, 243.694047)"><g><path d="M 12.859375 -13.796875 C 13.304688 -13.796875 13.671875 -13.648438 13.953125 -13.359375 C 14.242188 -13.078125 14.390625 -12.710938 14.390625 -12.265625 L 14.390625 -0.984375 C 14.390625 1.078125 13.75 2.597656 12.46875 3.578125 C 11.195312 4.566406 9.582031 5.0625 7.625 5.0625 C 7.113281 5.0625 6.414062 4.976562 5.53125 4.8125 C 4.644531 4.644531 4.015625 4.476562 3.640625 4.3125 C 2.816406 3.957031 2.40625 3.46875 2.40625 2.84375 C 2.40625 2.71875 2.429688 2.582031 2.484375 2.4375 C 2.585938 2.0625 2.757812 1.773438 3 1.578125 C 3.25 1.390625 3.515625 1.296875 3.796875 1.296875 C 3.960938 1.296875 4.125 1.320312 4.28125 1.375 C 4.34375 1.382812 4.757812 1.535156 5.53125 1.828125 C 6.300781 2.128906 7 2.28125 7.625 2.28125 C 8.875 2.28125 9.804688 2.03125 10.421875 1.53125 C 11.035156 1.03125 11.34375 0.328125 11.34375 -0.578125 L 11.34375 -1.796875 C 10.976562 -1.273438 10.414062 -0.800781 9.65625 -0.375 C 8.90625 0.0390625 8.101562 0.25 7.25 0.25 C 6.0625 0.25 4.984375 -0.046875 4.015625 -0.640625 C 3.046875 -1.242188 2.28125 -2.078125 1.71875 -3.140625 C 1.164062 -4.203125 0.890625 -5.410156 0.890625 -6.765625 C 0.890625 -8.109375 1.160156 -9.316406 1.703125 -10.390625 C 2.253906 -11.460938 3.003906 -12.296875 3.953125 -12.890625 C 4.910156 -13.492188 5.972656 -13.796875 7.140625 -13.796875 C 8.003906 -13.796875 8.804688 -13.617188 9.546875 -13.265625 C 10.285156 -12.910156 10.882812 -12.484375 11.34375 -11.984375 L 11.34375 -12.265625 C 11.34375 -12.703125 11.484375 -13.066406 11.765625 -13.359375 C 12.054688 -13.648438 12.421875 -13.796875 12.859375 -13.796875 Z M 7.625 -2.53125 C 8.757812 -2.53125 9.679688 -2.929688 10.390625 -3.734375 C 11.109375 -4.535156 11.46875 -5.546875 11.46875 -6.765625 C 11.46875 -7.984375 11.109375 -8.992188 10.390625 -9.796875 C 9.679688 -10.609375 8.757812 -11.015625 7.625 -11.015625 C 6.488281 -11.015625 5.566406 -10.609375 4.859375 -9.796875 C 4.148438 -8.992188 3.796875 -7.984375 3.796875 -6.765625 C 3.796875 -5.546875 4.148438 -4.535156 4.859375 -3.734375 C 5.566406 -2.929688 6.488281 -2.53125 7.625 -2.53125 Z M 7.625 -2.53125 "/></g></g></g><path fill="#ffffff" d="M 236.167969 64.996094 C 227.144531 62.929688 227.144531 62.929688 226.394531 54.269531 C 224.296875 32.425781 206.296875 15.957031 184.519531 15.957031 C 168.1875 15.957031 153.152344 25.632812 146.21875 40.582031 C 142.941406 47.710938 142.183594 50.359375 135.246094 47.59375 C 131.03125 45.917969 127.0625 46.199219 127.0625 46.199219 C 118.722656 46.199219 111.941406 52.980469 111.941406 61.324219 C 111.941406 62.707031 112.222656 64.242188 112.8125 66 C 116.292969 74.554688 115.722656 75.5 107.429688 80.265625 C 98.894531 85.238281 93.796875 93.976562 93.796875 103.65625 C 93.796875 118.667969 106.007812 130.875 121.015625 130.882812 L 229.886719 130.882812 L 229.886719 130.875 C 248.230469 130.875 263.152344 115.957031 263.152344 97.609375 C 263.152344 81.703125 251.804688 67.988281 236.167969 64.996094 Z M 236.167969 64.996094 " fill-opacity="1" fill-rule="evenodd"/><g clip-path="url(#6d66394d17)"><path fill="#38b6ff" d="M 232.371094 50.082031 C 229.722656 22.484375 206.742188 0.832031 178.453125 0.832031 C 156.5625 0.832031 137.816406 13.828125 129.179688 32.46875 C 126.574219 31.640625 123.867188 31.074219 120.996094 31.074219 C 105.964844 31.074219 93.773438 43.265625 93.773438 58.292969 C 93.773438 61.28125 94.375 64.105469 95.265625 66.789062 C 83.570312 73.605469 75.628906 86.128906 75.628906 100.628906 C 75.628906 122.34375 93.230469 139.945312 114.945312 139.945312 L 114.945312 139.949219 L 223.816406 139.949219 L 223.816406 139.945312 C 248.875 139.945312 269.175781 119.640625 269.175781 94.578125 C 269.175781 72.457031 253.328125 54.085938 232.371094 50.082031 M 223.816406 127.847656 L 223.816406 127.855469 L 114.945312 127.855469 C 99.9375 127.847656 87.726562 115.636719 87.726562 100.632812 C 87.726562 90.949219 92.824219 82.210938 101.359375 77.238281 C 109.652344 72.46875 110.222656 71.527344 106.742188 62.972656 C 106.15625 61.210938 105.871094 59.675781 105.871094 58.292969 C 105.871094 49.953125 112.652344 43.171875 120.996094 43.171875 C 120.996094 43.171875 124.960938 42.890625 129.179688 44.566406 C 136.117188 47.328125 136.871094 44.683594 140.152344 37.550781 C 147.082031 22.605469 162.121094 12.925781 178.449219 12.925781 C 200.226562 12.925781 218.226562 29.398438 220.324219 51.242188 C 221.074219 59.902344 221.074219 59.902344 230.101562 61.96875 C 245.738281 64.957031 257.082031 78.671875 257.082031 94.582031 C 257.085938 112.925781 242.164062 127.847656 223.816406 127.847656 " fill-opacity="1" fill-rule="evenodd"/></g><path fill="#38b6ff" d="M 105.519531 108.445312 C 105.519531 108.863281 105.4375 109.265625 105.277344 109.65625 C 105.117188 110.042969 104.886719 110.386719 104.589844 110.683594 C 104.292969 110.980469 103.953125 111.207031 103.5625 111.367188 C 103.175781 111.527344 102.773438 111.609375 102.351562 111.609375 C 101.933594 111.609375 101.527344 111.527344 101.140625 111.367188 C 100.753906 111.207031 100.410156 110.980469 100.113281 110.683594 C 99.816406 110.386719 99.589844 110.042969 99.429688 109.65625 C 99.265625 109.265625 99.1875 108.863281 99.1875 108.445312 C 99.1875 108.023438 99.265625 107.621094 99.429688 107.234375 C 99.589844 106.84375 99.816406 106.503906 100.113281 106.207031 C 100.410156 105.910156 100.753906 105.679688 101.140625 105.519531 C 101.527344 105.359375 101.933594 105.277344 102.351562 105.277344 C 102.773438 105.277344 103.175781 105.359375 103.5625 105.519531 C 103.953125 105.679688 104.292969 105.910156 104.589844 106.207031 C 104.886719 106.503906 105.117188 106.84375 105.277344 107.234375 C 105.4375 107.621094 105.519531 108.023438 105.519531 108.445312 Z M 105.519531 108.445312 " fill-opacity="1" fill-rule="nonzero"/><path fill="#38b6ff" d="M 124.890625 73.421875 C 124.878906 73.421875 124.878906 73.429688 124.867188 73.429688 C 110.683594 73.4375 99.183594 84.941406 99.183594 99.128906 C 99.183594 100.800781 100.542969 102.152344 102.210938 102.152344 C 103.878906 102.152344 105.234375 100.800781 105.234375 99.128906 L 105.234375 99.125 C 105.234375 88.269531 114.035156 79.46875 124.886719 79.46875 L 124.890625 79.46875 C 126.558594 79.46875 127.914062 78.117188 127.914062 76.445312 C 127.914062 74.773438 126.5625 73.421875 124.890625 73.421875 " fill-opacity="1" fill-rule="evenodd"/></svg>