<svg xmlns="http://www.w3.org/2000/svg" xmlns:xlink="http://www.w3.org/1999/xlink" width="1178" zoomAndPan="magnify" viewBox="0 0 883.5 639.749981" height="853" preserveAspectRatio="xMidYMid meet" version="1.0"><defs><g/><clipPath id="695ca7725a"><path d="M 184.660156 0.511719 L 660.015625 0.511719 L 660.015625 342.980469 L 184.660156 342.980469 Z M 184.660156 0.511719 " clip-rule="nonzero"/></clipPath></defs><g fill="#ffffff" fill-opacity="1"><g transform="translate(48.198023, 481.415722)"><g><path d="M 57.796875 -68.125 C 59.910156 -67.039062 60.96875 -65.300781 60.96875 -62.90625 C 60.96875 -61.476562 60.457031 -60.082031 59.4375 -58.71875 C 58.34375 -57.28125 56.941406 -56.5625 55.234375 -56.5625 C 54.078125 -56.5625 52.921875 -56.867188 51.765625 -57.484375 C 48.421875 -59.054688 44.804688 -59.84375 40.921875 -59.84375 C 36.148438 -59.84375 31.988281 -58.835938 28.4375 -56.828125 C 24.894531 -54.816406 22.164062 -51.984375 20.25 -48.328125 C 18.34375 -44.679688 17.390625 -40.503906 17.390625 -35.796875 C 17.390625 -27.753906 19.550781 -21.648438 23.875 -17.484375 C 28.207031 -13.328125 33.890625 -11.25 40.921875 -11.25 C 45.078125 -11.25 48.691406 -12.035156 51.765625 -13.609375 C 52.992188 -14.148438 54.082031 -14.421875 55.03125 -14.421875 C 56.8125 -14.421875 58.3125 -13.671875 59.53125 -12.171875 C 60.5625 -10.878906 61.078125 -9.484375 61.078125 -7.984375 C 61.078125 -6.890625 60.800781 -5.898438 60.25 -5.015625 C 59.707031 -4.128906 58.925781 -3.445312 57.90625 -2.96875 C 52.582031 -0.3125 46.921875 1.015625 40.921875 1.015625 C 34.234375 1.015625 28.09375 -0.394531 22.5 -3.21875 C 16.90625 -6.050781 12.4375 -10.226562 9.09375 -15.75 C 5.757812 -21.28125 4.09375 -27.960938 4.09375 -35.796875 C 4.09375 -42.753906 5.675781 -48.992188 8.84375 -54.515625 C 12.019531 -60.046875 16.398438 -64.363281 21.984375 -67.46875 C 27.578125 -70.570312 33.890625 -72.125 40.921875 -72.125 C 46.984375 -72.125 52.609375 -70.789062 57.796875 -68.125 Z M 57.796875 -68.125 "/></g></g></g><g fill="#ffffff" fill-opacity="1"><g transform="translate(116.533297, 481.415722)"><g><path d="M 47.15625 -11.96875 C 48.925781 -11.96875 50.410156 -11.40625 51.609375 -10.28125 C 52.804688 -9.15625 53.40625 -7.707031 53.40625 -5.9375 C 53.40625 -4.226562 52.804688 -2.8125 51.609375 -1.6875 C 50.410156 -0.5625 48.925781 0 47.15625 0 L 13.90625 0 C 12.132812 0 10.648438 -0.59375 9.453125 -1.78125 C 8.265625 -2.976562 7.671875 -4.460938 7.671875 -6.234375 L 7.671875 -65.375 C 7.671875 -67.144531 8.285156 -68.625 9.515625 -69.8125 C 10.742188 -71.007812 12.3125 -71.609375 14.21875 -71.609375 C 15.925781 -71.609375 17.390625 -71.007812 18.609375 -69.8125 C 19.835938 -68.625 20.453125 -67.144531 20.453125 -65.375 L 20.453125 -11.96875 Z M 47.15625 -11.96875 "/></g></g></g><g fill="#ffffff" fill-opacity="1"><g transform="translate(178.219197, 481.415722)"><g><path d="M 73.546875 -35.796875 C 73.546875 -29.046875 72.046875 -22.859375 69.046875 -17.234375 C 66.046875 -11.609375 61.898438 -7.160156 56.609375 -3.890625 C 51.328125 -0.617188 45.378906 1.015625 38.765625 1.015625 C 32.148438 1.015625 26.195312 -0.617188 20.90625 -3.890625 C 15.625 -7.160156 11.5 -11.609375 8.53125 -17.234375 C 5.570312 -22.859375 4.09375 -29.046875 4.09375 -35.796875 C 4.09375 -42.554688 5.570312 -48.75 8.53125 -54.375 C 11.5 -60 15.625 -64.445312 20.90625 -67.71875 C 26.195312 -70.988281 32.148438 -72.625 38.765625 -72.625 C 45.378906 -72.625 51.328125 -70.988281 56.609375 -67.71875 C 61.898438 -64.445312 66.046875 -60 69.046875 -54.375 C 72.046875 -48.75 73.546875 -42.554688 73.546875 -35.796875 Z M 60.25 -35.796875 C 60.25 -40.367188 59.328125 -44.515625 57.484375 -48.234375 C 55.648438 -51.953125 53.09375 -54.898438 49.8125 -57.078125 C 46.539062 -59.265625 42.859375 -60.359375 38.765625 -60.359375 C 34.609375 -60.359375 30.910156 -59.28125 27.671875 -57.125 C 24.429688 -54.976562 21.90625 -52.03125 20.09375 -48.28125 C 18.289062 -44.53125 17.390625 -40.367188 17.390625 -35.796875 C 17.390625 -31.234375 18.289062 -27.078125 20.09375 -23.328125 C 21.90625 -19.578125 24.429688 -16.625 27.671875 -14.46875 C 30.910156 -12.320312 34.609375 -11.25 38.765625 -11.25 C 42.859375 -11.25 46.539062 -12.335938 49.8125 -14.515625 C 53.09375 -16.703125 55.648438 -19.65625 57.484375 -23.375 C 59.328125 -27.09375 60.25 -31.234375 60.25 -35.796875 Z M 60.25 -35.796875 "/></g></g></g><g fill="#ffffff" fill-opacity="1"><g transform="translate(260.057784, 481.415722)"><g><path d="M 58.515625 -71.703125 C 60.285156 -71.703125 61.71875 -71.125 62.8125 -69.96875 C 63.90625 -68.8125 64.453125 -67.3125 64.453125 -65.46875 L 64.453125 -28.4375 C 64.453125 -22.78125 63.253906 -17.769531 60.859375 -13.40625 C 58.472656 -9.039062 55.128906 -5.628906 50.828125 -3.171875 C 46.535156 -0.710938 41.628906 0.515625 36.109375 0.515625 C 30.585938 0.515625 25.660156 -0.710938 21.328125 -3.171875 C 16.992188 -5.628906 13.632812 -9.039062 11.25 -13.40625 C 8.863281 -17.769531 7.671875 -22.78125 7.671875 -28.4375 L 7.671875 -65.46875 C 7.671875 -67.238281 8.285156 -68.71875 9.515625 -69.90625 C 10.742188 -71.101562 12.3125 -71.703125 14.21875 -71.703125 C 15.851562 -71.703125 17.285156 -71.101562 18.515625 -69.90625 C 19.742188 -68.71875 20.359375 -67.238281 20.359375 -65.46875 L 20.359375 -28.4375 C 20.359375 -25.164062 21.070312 -22.25 22.5 -19.6875 C 23.9375 -17.132812 25.863281 -15.175781 28.28125 -13.8125 C 30.707031 -12.445312 33.316406 -11.765625 36.109375 -11.765625 C 39.046875 -11.765625 41.789062 -12.445312 44.34375 -13.8125 C 46.90625 -15.175781 48.953125 -17.132812 50.484375 -19.6875 C 52.015625 -22.25 52.78125 -25.164062 52.78125 -28.4375 L 52.78125 -65.46875 C 52.78125 -67.3125 53.289062 -68.8125 54.3125 -69.96875 C 55.34375 -71.125 56.742188 -71.703125 58.515625 -71.703125 Z M 58.515625 -71.703125 "/></g></g></g><g fill="#ffffff" fill-opacity="1"><g transform="translate(336.372276, 481.415722)"><g><path d="M 38.359375 -71.609375 C 44.773438 -71.609375 50.28125 -70.019531 54.875 -66.84375 C 59.476562 -63.675781 62.988281 -59.378906 65.40625 -53.953125 C 67.832031 -48.535156 69.046875 -42.484375 69.046875 -35.796875 C 69.046875 -29.117188 67.832031 -23.066406 65.40625 -17.640625 C 62.988281 -12.222656 59.476562 -7.925781 54.875 -4.75 C 50.28125 -1.582031 44.773438 0 38.359375 0 L 13.90625 0 C 12.132812 0 10.648438 -0.59375 9.453125 -1.78125 C 8.265625 -2.976562 7.671875 -4.460938 7.671875 -6.234375 L 7.671875 -65.375 C 7.671875 -67.144531 8.265625 -68.625 9.453125 -69.8125 C 10.648438 -71.007812 12.132812 -71.609375 13.90625 -71.609375 Z M 37.34375 -11.765625 C 43.476562 -11.765625 48.078125 -14.03125 51.140625 -18.5625 C 54.210938 -23.101562 55.75 -28.847656 55.75 -35.796875 C 55.75 -42.753906 54.195312 -48.5 51.09375 -53.03125 C 47.988281 -57.570312 43.40625 -59.84375 37.34375 -59.84375 L 20.453125 -59.84375 L 20.453125 -11.765625 Z M 37.34375 -11.765625 "/></g></g></g><g fill="#ffffff" fill-opacity="1"><g transform="translate(413.709761, 481.415722)"><g/></g></g><g fill="#ffffff" fill-opacity="1"><g transform="translate(446.547678, 481.415722)"><g><path d="M 50.640625 -39.6875 C 54.253906 -38.257812 57.203125 -36.078125 59.484375 -33.140625 C 61.765625 -30.210938 62.90625 -26.429688 62.90625 -21.796875 C 62.90625 -13.671875 60.585938 -8.003906 55.953125 -4.796875 C 51.316406 -1.597656 45.796875 0 39.390625 0 L 13.90625 0 C 12.132812 0 10.648438 -0.59375 9.453125 -1.78125 C 8.265625 -2.976562 7.671875 -4.460938 7.671875 -6.234375 L 7.671875 -65.375 C 7.671875 -67.144531 8.265625 -68.625 9.453125 -69.8125 C 10.648438 -71.007812 12.132812 -71.609375 13.90625 -71.609375 L 39.6875 -71.609375 C 52.644531 -71.609375 59.125 -65.539062 59.125 -53.40625 C 59.125 -50.332031 58.390625 -47.617188 56.921875 -45.265625 C 55.460938 -42.910156 53.367188 -41.050781 50.640625 -39.6875 Z M 45.828125 -51.140625 C 45.828125 -53.941406 45.128906 -56.039062 43.734375 -57.4375 C 42.335938 -58.832031 40.375 -59.53125 37.84375 -59.53125 L 20.96875 -59.53125 L 20.96875 -43.578125 L 38.15625 -43.578125 C 40.195312 -43.578125 41.984375 -44.257812 43.515625 -45.625 C 45.054688 -46.988281 45.828125 -48.828125 45.828125 -51.140625 Z M 39.390625 -11.765625 C 42.585938 -11.765625 45.085938 -12.613281 46.890625 -14.3125 C 48.703125 -16.019531 49.609375 -18.515625 49.609375 -21.796875 C 49.609375 -25.816406 48.550781 -28.4375 46.4375 -29.65625 C 44.320312 -30.882812 41.734375 -31.5 38.671875 -31.5 L 20.96875 -31.5 L 20.96875 -11.765625 Z M 39.390625 -11.765625 "/></g></g></g><g fill="#ffffff" fill-opacity="1"><g transform="translate(517.747269, 481.415722)"><g><path d="M 20.453125 -6.234375 C 20.453125 -4.460938 19.804688 -2.976562 18.515625 -1.78125 C 17.222656 -0.59375 15.722656 0 14.015625 0 C 12.171875 0 10.648438 -0.59375 9.453125 -1.78125 C 8.265625 -2.976562 7.671875 -4.460938 7.671875 -6.234375 L 7.671875 -65.375 C 7.671875 -67.144531 8.285156 -68.625 9.515625 -69.8125 C 10.742188 -71.007812 12.3125 -71.609375 14.21875 -71.609375 C 15.925781 -71.609375 17.390625 -71.007812 18.609375 -69.8125 C 19.835938 -68.625 20.453125 -67.144531 20.453125 -65.375 Z M 20.453125 -6.234375 "/></g></g></g><g fill="#ffffff" fill-opacity="1"><g transform="translate(550.073673, 481.415722)"><g><path d="M 61.984375 -71.609375 C 63.628906 -71.609375 64.960938 -71.0625 65.984375 -69.96875 C 67.003906 -68.875 67.515625 -67.507812 67.515625 -65.875 L 67.515625 -6.234375 C 67.515625 -4.460938 66.914062 -2.976562 65.71875 -1.78125 C 64.53125 -0.59375 63.050781 0 61.28125 0 C 60.320312 0 59.378906 -0.148438 58.453125 -0.453125 C 57.535156 -0.765625 56.875 -1.191406 56.46875 -1.734375 L 18.921875 -49.40625 L 18.921875 -5.734375 C 18.921875 -4.097656 18.390625 -2.734375 17.328125 -1.640625 C 16.273438 -0.546875 14.898438 0 13.203125 0 C 11.554688 0 10.222656 -0.546875 9.203125 -1.640625 C 8.179688 -2.734375 7.671875 -4.097656 7.671875 -5.734375 L 7.671875 -65.375 C 7.671875 -67.144531 8.265625 -68.625 9.453125 -69.8125 C 10.648438 -71.007812 12.132812 -71.609375 13.90625 -71.609375 C 14.9375 -71.609375 15.941406 -71.398438 16.921875 -70.984375 C 17.910156 -70.578125 18.644531 -70.035156 19.125 -69.359375 L 56.359375 -21.890625 L 56.359375 -65.875 C 56.359375 -67.507812 56.882812 -68.875 57.9375 -69.96875 C 59 -71.0625 60.347656 -71.609375 61.984375 -71.609375 Z M 61.984375 -71.609375 "/></g></g></g><g fill="#ffffff" fill-opacity="1"><g transform="translate(629.457113, 481.415722)"><g><path d="M 63.828125 -7.984375 C 64.171875 -7.097656 64.34375 -6.28125 64.34375 -5.53125 C 64.34375 -3.75 63.757812 -2.296875 62.59375 -1.171875 C 61.4375 -0.046875 60.109375 0.515625 58.609375 0.515625 C 57.390625 0.515625 56.285156 0.140625 55.296875 -0.609375 C 54.304688 -1.359375 53.535156 -2.382812 52.984375 -3.6875 L 47.671875 -16.0625 L 17.1875 -16.0625 L 11.859375 -3.578125 C 11.390625 -2.285156 10.660156 -1.28125 9.671875 -0.5625 C 8.679688 0.15625 7.601562 0.515625 6.4375 0.515625 C 4.664062 0.515625 3.316406 0.0351562 2.390625 -0.921875 C 1.472656 -1.878906 1.015625 -3.175781 1.015625 -4.8125 C 1.015625 -5.425781 1.117188 -6.070312 1.328125 -6.75 L 26.796875 -67.921875 C 27.347656 -69.285156 28.164062 -70.34375 29.25 -71.09375 C 30.34375 -71.84375 31.570312 -72.148438 32.9375 -72.015625 C 34.164062 -72.015625 35.304688 -71.65625 36.359375 -70.9375 C 37.421875 -70.226562 38.191406 -69.222656 38.671875 -67.921875 Z M 22.203125 -27.828125 L 42.65625 -27.828125 L 32.328125 -51.765625 Z M 22.203125 -27.828125 "/></g></g></g><g fill="#ffffff" fill-opacity="1"><g transform="translate(699.019992, 481.415722)"><g><path d="M 63.828125 -10.03125 C 64.710938 -9.476562 65.410156 -8.757812 65.921875 -7.875 C 66.441406 -6.988281 66.703125 -6.066406 66.703125 -5.109375 C 66.703125 -3.890625 66.289062 -2.765625 65.46875 -1.734375 C 64.445312 -0.503906 62.878906 0.109375 60.765625 0.109375 C 59.128906 0.109375 57.628906 -0.265625 56.265625 -1.015625 C 51.347656 -3.816406 48.890625 -9.515625 48.890625 -18.109375 C 48.890625 -20.566406 48.085938 -22.507812 46.484375 -23.9375 C 44.890625 -25.363281 42.59375 -26.078125 39.59375 -26.078125 L 20.453125 -26.078125 L 20.453125 -6.234375 C 20.453125 -4.398438 19.957031 -2.898438 18.96875 -1.734375 C 17.988281 -0.578125 16.675781 0 15.03125 0 C 13.0625 0 11.34375 -0.59375 9.875 -1.78125 C 8.40625 -2.976562 7.671875 -4.460938 7.671875 -6.234375 L 7.671875 -65.375 C 7.671875 -67.144531 8.265625 -68.625 9.453125 -69.8125 C 10.648438 -71.007812 12.132812 -71.609375 13.90625 -71.609375 L 43.375 -71.609375 C 46.914062 -71.609375 50.253906 -70.648438 53.390625 -68.734375 C 56.535156 -66.828125 59.046875 -64.203125 60.921875 -60.859375 C 62.796875 -57.523438 63.734375 -53.773438 63.734375 -49.609375 C 63.734375 -46.203125 62.8125 -42.878906 60.96875 -39.640625 C 59.125 -36.398438 56.738281 -33.828125 53.8125 -31.921875 C 58.101562 -28.921875 60.453125 -24.894531 60.859375 -19.84375 C 61.066406 -18.75 61.171875 -17.691406 61.171875 -16.671875 C 61.441406 -14.554688 61.710938 -13.035156 61.984375 -12.109375 C 62.265625 -11.191406 62.878906 -10.5 63.828125 -10.03125 Z M 42.859375 -36.625 C 44.085938 -36.625 45.28125 -37.203125 46.4375 -38.359375 C 47.601562 -39.515625 48.5625 -41.066406 49.3125 -43.015625 C 50.0625 -44.960938 50.4375 -47.0625 50.4375 -49.3125 C 50.4375 -51.21875 50.0625 -52.972656 49.3125 -54.578125 C 48.5625 -56.179688 47.601562 -57.457031 46.4375 -58.40625 C 45.28125 -59.363281 44.085938 -59.84375 42.859375 -59.84375 L 20.453125 -59.84375 L 20.453125 -36.625 Z M 42.859375 -36.625 "/></g></g></g><g fill="#ffffff" fill-opacity="1"><g transform="translate(773.493136, 481.415722)"><g><path d="M 59.4375 -65.578125 C 59.4375 -64.210938 59.0625 -62.945312 58.3125 -61.78125 L 36.921875 -31.203125 L 36.921875 -6.234375 C 36.921875 -4.460938 36.34375 -2.976562 35.1875 -1.78125 C 34.03125 -0.59375 32.632812 0 31 0 C 29.289062 0 27.835938 -0.59375 26.640625 -1.78125 C 25.453125 -2.976562 24.859375 -4.460938 24.859375 -6.234375 L 24.859375 -32.625 L 3.578125 -60.859375 C 2.347656 -62.503906 1.734375 -64.109375 1.734375 -65.671875 C 1.734375 -67.441406 2.429688 -68.925781 3.828125 -70.125 C 5.234375 -71.320312 6.71875 -71.921875 8.28125 -71.921875 C 10.195312 -71.921875 11.867188 -70.960938 13.296875 -69.046875 L 31.296875 -44.1875 L 48.1875 -68.84375 C 49.613281 -70.894531 51.316406 -71.921875 53.296875 -71.921875 C 54.929688 -71.921875 56.363281 -71.304688 57.59375 -70.078125 C 58.820312 -68.847656 59.4375 -67.347656 59.4375 -65.578125 Z M 59.4375 -65.578125 "/></g></g></g><g fill="#ffffff" fill-opacity="1"><g transform="translate(170.763525, 602.74125)"><g><path d="M 28.734375 -7.296875 C 29.816406 -7.296875 30.722656 -6.953125 31.453125 -6.265625 C 32.179688 -5.578125 32.546875 -4.691406 32.546875 -3.609375 C 32.546875 -2.578125 32.179688 -1.71875 31.453125 -1.03125 C 30.722656 -0.34375 29.816406 0 28.734375 0 L 8.484375 0 C 7.398438 0 6.492188 -0.363281 5.765625 -1.09375 C 5.035156 -1.820312 4.671875 -2.722656 4.671875 -3.796875 L 4.671875 -39.84375 C 4.671875 -40.914062 5.046875 -41.816406 5.796875 -42.546875 C 6.546875 -43.273438 7.503906 -43.640625 8.671875 -43.640625 C 9.703125 -43.640625 10.59375 -43.273438 11.34375 -42.546875 C 12.09375 -41.816406 12.46875 -40.914062 12.46875 -39.84375 L 12.46875 -7.296875 Z M 28.734375 -7.296875 "/></g></g></g><g fill="#ffffff" fill-opacity="1"><g transform="translate(206.729915, 602.74125)"><g><path d="M 33.984375 -17.453125 C 33.941406 -16.453125 33.546875 -15.640625 32.796875 -15.015625 C 32.046875 -14.398438 31.171875 -14.09375 30.171875 -14.09375 L 9.59375 -14.09375 C 10.09375 -11.632812 11.234375 -9.707031 13.015625 -8.3125 C 14.804688 -6.925781 16.828125 -6.234375 19.078125 -6.234375 C 20.785156 -6.234375 22.113281 -6.390625 23.0625 -6.703125 C 24.019531 -7.015625 24.78125 -7.347656 25.34375 -7.703125 C 25.90625 -8.054688 26.289062 -8.296875 26.5 -8.421875 C 27.25 -8.796875 27.953125 -8.984375 28.609375 -8.984375 C 29.484375 -8.984375 30.234375 -8.671875 30.859375 -8.046875 C 31.484375 -7.421875 31.796875 -6.691406 31.796875 -5.859375 C 31.796875 -4.734375 31.210938 -3.71875 30.046875 -2.8125 C 28.878906 -1.851562 27.316406 -1.039062 25.359375 -0.375 C 23.410156 0.289062 21.441406 0.625 19.453125 0.625 C 15.960938 0.625 12.914062 -0.0976562 10.3125 -1.546875 C 7.71875 -3.003906 5.710938 -5.007812 4.296875 -7.5625 C 2.890625 -10.125 2.1875 -13.003906 2.1875 -16.203125 C 2.1875 -19.785156 2.929688 -22.925781 4.421875 -25.625 C 5.921875 -28.320312 7.894531 -30.390625 10.34375 -31.828125 C 12.800781 -33.265625 15.421875 -33.984375 18.203125 -33.984375 C 20.941406 -33.984375 23.523438 -33.234375 25.953125 -31.734375 C 28.390625 -30.234375 30.335938 -28.210938 31.796875 -25.671875 C 33.253906 -23.140625 33.984375 -20.398438 33.984375 -17.453125 Z M 18.203125 -27.125 C 13.378906 -27.125 10.53125 -24.859375 9.65625 -20.328125 L 26 -20.328125 L 26 -20.765625 C 25.832031 -22.503906 24.976562 -24 23.4375 -25.25 C 21.90625 -26.5 20.160156 -27.125 18.203125 -27.125 Z M 18.203125 -27.125 "/></g></g></g><g fill="#ffffff" fill-opacity="1"><g transform="translate(243.818302, 602.74125)"><g><path d="M 31.046875 -33.984375 C 32.128906 -33.984375 33.019531 -33.628906 33.71875 -32.921875 C 34.425781 -32.210938 34.78125 -31.296875 34.78125 -30.171875 L 34.78125 -3.796875 C 34.78125 -2.722656 34.425781 -1.820312 33.71875 -1.09375 C 33.019531 -0.363281 32.128906 0 31.046875 0 C 29.960938 0 29.078125 -0.351562 28.390625 -1.0625 C 27.710938 -1.769531 27.351562 -2.660156 27.3125 -3.734375 C 26.269531 -2.535156 24.863281 -1.507812 23.09375 -0.65625 C 21.332031 0.195312 19.472656 0.625 17.515625 0.625 C 14.648438 0.625 12.050781 -0.109375 9.71875 -1.578125 C 7.394531 -3.054688 5.554688 -5.101562 4.203125 -7.71875 C 2.859375 -10.34375 2.1875 -13.316406 2.1875 -16.640625 C 2.1875 -19.972656 2.847656 -22.957031 4.171875 -25.59375 C 5.503906 -28.226562 7.320312 -30.285156 9.625 -31.765625 C 11.9375 -33.242188 14.484375 -33.984375 17.265625 -33.984375 C 19.265625 -33.984375 21.132812 -33.617188 22.875 -32.890625 C 24.625 -32.160156 26.101562 -31.234375 27.3125 -30.109375 L 27.3125 -30.171875 C 27.3125 -31.253906 27.660156 -32.160156 28.359375 -32.890625 C 29.066406 -33.617188 29.960938 -33.984375 31.046875 -33.984375 Z M 18.453125 -6.234375 C 21.148438 -6.234375 23.351562 -7.21875 25.0625 -9.1875 C 26.769531 -11.164062 27.625 -13.648438 27.625 -16.640625 C 27.625 -19.640625 26.769531 -22.132812 25.0625 -24.125 C 23.351562 -26.125 21.148438 -27.125 18.453125 -27.125 C 15.796875 -27.125 13.613281 -26.125 11.90625 -24.125 C 10.207031 -22.132812 9.359375 -19.640625 9.359375 -16.640625 C 9.359375 -13.648438 10.195312 -11.164062 11.875 -9.1875 C 13.5625 -7.21875 15.753906 -6.234375 18.453125 -6.234375 Z M 18.453125 -6.234375 "/></g></g></g><g fill="#ffffff" fill-opacity="1"><g transform="translate(283.587012, 602.74125)"><g><path d="M 21.390625 -33.984375 C 22.628906 -33.984375 23.675781 -33.628906 24.53125 -32.921875 C 25.382812 -32.210938 25.8125 -31.378906 25.8125 -30.421875 C 25.8125 -29.128906 25.476562 -28.160156 24.8125 -27.515625 C 24.144531 -26.878906 23.351562 -26.5625 22.4375 -26.5625 C 21.820312 -26.5625 21.117188 -26.707031 20.328125 -27 C 20.203125 -27.039062 19.921875 -27.125 19.484375 -27.25 C 19.046875 -27.375 18.578125 -27.4375 18.078125 -27.4375 C 16.992188 -27.4375 15.953125 -27.101562 14.953125 -26.4375 C 13.960938 -25.769531 13.144531 -24.757812 12.5 -23.40625 C 11.851562 -22.0625 11.53125 -20.453125 11.53125 -18.578125 L 11.53125 -3.796875 C 11.53125 -2.722656 11.175781 -1.820312 10.46875 -1.09375 C 9.757812 -0.363281 8.867188 0 7.796875 0 C 6.710938 0 5.816406 -0.363281 5.109375 -1.09375 C 4.398438 -1.820312 4.046875 -2.722656 4.046875 -3.796875 L 4.046875 -29.546875 C 4.046875 -30.628906 4.398438 -31.535156 5.109375 -32.265625 C 5.816406 -32.992188 6.710938 -33.359375 7.796875 -33.359375 C 8.867188 -33.359375 9.757812 -32.992188 10.46875 -32.265625 C 11.175781 -31.535156 11.53125 -30.628906 11.53125 -29.546875 L 11.53125 -28.734375 C 12.488281 -30.441406 13.859375 -31.742188 15.640625 -32.640625 C 17.429688 -33.535156 19.347656 -33.984375 21.390625 -33.984375 Z M 21.390625 -33.984375 "/></g></g></g><g fill="#ffffff" fill-opacity="1"><g transform="translate(311.574761, 602.74125)"><g><path d="M 21.875 -33.984375 C 26.113281 -33.984375 29.046875 -32.722656 30.671875 -30.203125 C 32.296875 -27.691406 33.109375 -24.210938 33.109375 -19.765625 L 33.109375 -3.796875 C 33.109375 -2.722656 32.753906 -1.820312 32.046875 -1.09375 C 31.335938 -0.363281 30.441406 0 29.359375 0 C 28.285156 0 27.394531 -0.363281 26.6875 -1.09375 C 25.976562 -1.820312 25.625 -2.722656 25.625 -3.796875 L 25.625 -19.765625 C 25.625 -22.046875 25.144531 -23.84375 24.1875 -25.15625 C 23.226562 -26.46875 21.585938 -27.125 19.265625 -27.125 C 16.847656 -27.125 14.953125 -26.425781 13.578125 -25.03125 C 12.210938 -23.632812 11.53125 -21.878906 11.53125 -19.765625 L 11.53125 -3.796875 C 11.53125 -2.722656 11.175781 -1.820312 10.46875 -1.09375 C 9.757812 -0.363281 8.867188 0 7.796875 0 C 6.710938 0 5.816406 -0.363281 5.109375 -1.09375 C 4.398438 -1.820312 4.046875 -2.722656 4.046875 -3.796875 L 4.046875 -29.546875 C 4.046875 -30.628906 4.398438 -31.535156 5.109375 -32.265625 C 5.816406 -32.992188 6.710938 -33.359375 7.796875 -33.359375 C 8.867188 -33.359375 9.757812 -32.992188 10.46875 -32.265625 C 11.175781 -31.535156 11.53125 -30.628906 11.53125 -29.546875 L 11.53125 -28.484375 C 12.65625 -29.984375 14.117188 -31.273438 15.921875 -32.359375 C 17.734375 -33.441406 19.71875 -33.984375 21.875 -33.984375 Z M 21.875 -33.984375 "/></g></g></g><g fill="#ffffff" fill-opacity="1"><g transform="translate(349.660485, 602.74125)"><g/></g></g><g fill="#ffffff" fill-opacity="1"><g transform="translate(368.048911, 602.74125)"><g><path d="M 21.328125 -33.984375 C 24.191406 -33.984375 26.785156 -33.242188 29.109375 -31.765625 C 31.441406 -30.285156 33.28125 -28.238281 34.625 -25.625 C 35.976562 -23.007812 36.65625 -20.035156 36.65625 -16.703125 C 36.65625 -13.378906 35.988281 -10.394531 34.65625 -7.75 C 33.332031 -5.113281 31.515625 -3.054688 29.203125 -1.578125 C 26.898438 -0.109375 24.359375 0.625 21.578125 0.625 C 19.578125 0.625 17.691406 0.21875 15.921875 -0.59375 C 14.160156 -1.40625 12.695312 -2.390625 11.53125 -3.546875 L 11.53125 -3.171875 C 11.53125 -2.097656 11.175781 -1.195312 10.46875 -0.46875 C 9.757812 0.257812 8.867188 0.625 7.796875 0.625 C 6.710938 0.625 5.816406 0.269531 5.109375 -0.4375 C 4.398438 -1.144531 4.046875 -2.054688 4.046875 -3.171875 L 4.046875 -42.328125 C 4.046875 -43.410156 4.398438 -44.316406 5.109375 -45.046875 C 5.816406 -45.773438 6.710938 -46.140625 7.796875 -46.140625 C 8.867188 -46.140625 9.757812 -45.773438 10.46875 -45.046875 C 11.175781 -44.316406 11.53125 -43.410156 11.53125 -42.328125 L 11.53125 -29.296875 C 12.53125 -30.546875 13.921875 -31.640625 15.703125 -32.578125 C 17.492188 -33.515625 19.367188 -33.984375 21.328125 -33.984375 Z M 20.390625 -6.234375 C 23.046875 -6.234375 25.222656 -7.226562 26.921875 -9.21875 C 28.628906 -11.21875 29.484375 -13.710938 29.484375 -16.703125 C 29.484375 -19.703125 28.640625 -22.1875 26.953125 -24.15625 C 25.273438 -26.132812 23.085938 -27.125 20.390625 -27.125 C 17.679688 -27.125 15.472656 -26.132812 13.765625 -24.15625 C 12.066406 -22.1875 11.21875 -19.703125 11.21875 -16.703125 C 11.21875 -13.710938 12.066406 -11.21875 13.765625 -9.21875 C 15.472656 -7.226562 17.679688 -6.234375 20.390625 -6.234375 Z M 20.390625 -6.234375 "/></g></g></g><g fill="#ffffff" fill-opacity="1"><g transform="translate(407.817629, 602.74125)"><g><path d="M 28.796875 -33.359375 C 29.878906 -33.359375 30.773438 -32.992188 31.484375 -32.265625 C 32.191406 -31.535156 32.546875 -30.628906 32.546875 -29.546875 L 32.546875 -3.0625 C 32.546875 2.34375 31.085938 6.28125 28.171875 8.75 C 25.265625 11.226562 21.378906 12.46875 16.515625 12.46875 C 15.109375 12.46875 13.664062 12.351562 12.1875 12.125 C 10.707031 11.894531 9.515625 11.59375 8.609375 11.21875 C 6.566406 10.34375 5.546875 9.140625 5.546875 7.609375 C 5.546875 7.316406 5.609375 6.984375 5.734375 6.609375 C 5.984375 5.691406 6.410156 4.992188 7.015625 4.515625 C 7.617188 4.035156 8.273438 3.796875 8.984375 3.796875 C 9.390625 3.796875 9.78125 3.859375 10.15625 3.984375 C 10.445312 4.109375 10.957031 4.316406 11.6875 4.609375 C 12.414062 4.898438 13.1875 5.140625 14 5.328125 C 14.8125 5.515625 15.648438 5.609375 16.515625 5.609375 C 19.472656 5.609375 21.644531 4.972656 23.03125 3.703125 C 24.425781 2.441406 25.125 0.269531 25.125 -2.8125 L 25.125 -3.421875 C 22.957031 -0.722656 19.59375 0.625 15.03125 0.625 C 12.863281 0.625 10.945312 0.113281 9.28125 -0.90625 C 7.625 -1.925781 6.335938 -3.335938 5.421875 -5.140625 C 4.503906 -6.953125 4.046875 -9.019531 4.046875 -11.34375 L 4.046875 -29.546875 C 4.046875 -30.628906 4.398438 -31.535156 5.109375 -32.265625 C 5.816406 -32.992188 6.710938 -33.359375 7.796875 -33.359375 C 8.867188 -33.359375 9.757812 -32.992188 10.46875 -32.265625 C 11.175781 -31.535156 11.53125 -30.628906 11.53125 -29.546875 L 11.53125 -13.59375 C 11.53125 -10.96875 12.101562 -9.082031 13.25 -7.9375 C 14.394531 -6.800781 16.066406 -6.234375 18.265625 -6.234375 C 20.429688 -6.234375 22.101562 -6.863281 23.28125 -8.125 C 24.46875 -9.394531 25.0625 -11.21875 25.0625 -13.59375 L 25.0625 -29.546875 C 25.0625 -30.628906 25.414062 -31.535156 26.125 -32.265625 C 26.832031 -32.992188 27.722656 -33.359375 28.796875 -33.359375 Z M 28.796875 -33.359375 "/></g></g></g><g fill="#ffffff" fill-opacity="1"><g transform="translate(445.342339, 602.74125)"><g/></g></g><g fill="#ffffff" fill-opacity="1"><g transform="translate(463.73078, 602.74125)"><g><path d="M 23.375 -43.640625 C 27.28125 -43.640625 30.632812 -42.671875 33.4375 -40.734375 C 36.25 -38.804688 38.390625 -36.191406 39.859375 -32.890625 C 41.335938 -29.585938 42.078125 -25.898438 42.078125 -21.828125 C 42.078125 -17.742188 41.335938 -14.050781 39.859375 -10.75 C 38.390625 -7.445312 36.25 -4.828125 33.4375 -2.890625 C 30.632812 -0.960938 27.28125 0 23.375 0 L 8.484375 0 C 7.398438 0 6.492188 -0.363281 5.765625 -1.09375 C 5.035156 -1.820312 4.671875 -2.722656 4.671875 -3.796875 L 4.671875 -39.84375 C 4.671875 -40.914062 5.035156 -41.816406 5.765625 -42.546875 C 6.492188 -43.273438 7.398438 -43.640625 8.484375 -43.640625 Z M 22.75 -7.171875 C 26.488281 -7.171875 29.296875 -8.550781 31.171875 -11.3125 C 33.046875 -14.082031 33.984375 -17.585938 33.984375 -21.828125 C 33.984375 -26.054688 33.035156 -29.550781 31.140625 -32.3125 C 29.242188 -35.082031 26.445312 -36.46875 22.75 -36.46875 L 12.46875 -36.46875 L 12.46875 -7.171875 Z M 22.75 -7.171875 "/></g></g></g><g fill="#ffffff" fill-opacity="1"><g transform="translate(509.234156, 602.74125)"><g><path d="M 36.09375 -16.640625 C 36.09375 -13.316406 35.34375 -10.332031 33.84375 -7.6875 C 32.351562 -5.050781 30.304688 -3.003906 27.703125 -1.546875 C 25.109375 -0.0976562 22.253906 0.625 19.140625 0.625 C 15.984375 0.625 13.113281 -0.0976562 10.53125 -1.546875 C 7.957031 -3.003906 5.921875 -5.050781 4.421875 -7.6875 C 2.929688 -10.332031 2.1875 -13.316406 2.1875 -16.640625 C 2.1875 -19.972656 2.929688 -22.957031 4.421875 -25.59375 C 5.921875 -28.226562 7.957031 -30.285156 10.53125 -31.765625 C 13.113281 -33.242188 15.984375 -33.984375 19.140625 -33.984375 C 22.253906 -33.984375 25.109375 -33.242188 27.703125 -31.765625 C 30.304688 -30.285156 32.351562 -28.226562 33.84375 -25.59375 C 35.34375 -22.957031 36.09375 -19.972656 36.09375 -16.640625 Z M 28.609375 -16.640625 C 28.609375 -18.679688 28.179688 -20.5 27.328125 -22.09375 C 26.484375 -23.695312 25.34375 -24.9375 23.90625 -25.8125 C 22.476562 -26.6875 20.890625 -27.125 19.140625 -27.125 C 17.390625 -27.125 15.796875 -26.6875 14.359375 -25.8125 C 12.929688 -24.9375 11.789062 -23.695312 10.9375 -22.09375 C 10.082031 -20.5 9.65625 -18.679688 9.65625 -16.640625 C 9.65625 -14.609375 10.082031 -12.800781 10.9375 -11.21875 C 11.789062 -9.644531 12.929688 -8.421875 14.359375 -7.546875 C 15.796875 -6.671875 17.390625 -6.234375 19.140625 -6.234375 C 20.890625 -6.234375 22.476562 -6.671875 23.90625 -7.546875 C 25.34375 -8.421875 26.484375 -9.644531 27.328125 -11.21875 C 28.179688 -12.800781 28.609375 -14.609375 28.609375 -16.640625 Z M 28.609375 -16.640625 "/></g></g></g><g fill="#ffffff" fill-opacity="1"><g transform="translate(548.44186, 602.74125)"><g><path d="M 11.09375 -3.796875 C 11.09375 -2.722656 10.738281 -1.820312 10.03125 -1.09375 C 9.332031 -0.363281 8.441406 0 7.359375 0 C 6.273438 0 5.378906 -0.363281 4.671875 -1.09375 C 3.960938 -1.820312 3.609375 -2.722656 3.609375 -3.796875 L 3.609375 -29.546875 C 3.609375 -30.628906 3.960938 -31.535156 4.671875 -32.265625 C 5.378906 -32.992188 6.273438 -33.359375 7.359375 -33.359375 C 8.441406 -33.359375 9.332031 -32.992188 10.03125 -32.265625 C 10.738281 -31.535156 11.09375 -30.628906 11.09375 -29.546875 Z M 7.296875 -37.40625 C 5.878906 -37.40625 4.878906 -37.632812 4.296875 -38.09375 C 3.722656 -38.550781 3.4375 -39.363281 3.4375 -40.53125 L 3.4375 -41.703125 C 3.4375 -42.867188 3.742188 -43.679688 4.359375 -44.140625 C 4.984375 -44.597656 5.984375 -44.828125 7.359375 -44.828125 C 8.816406 -44.828125 9.832031 -44.597656 10.40625 -44.140625 C 10.988281 -43.679688 11.28125 -42.867188 11.28125 -41.703125 L 11.28125 -40.53125 C 11.28125 -39.320312 10.976562 -38.5 10.375 -38.0625 C 9.78125 -37.625 8.753906 -37.40625 7.296875 -37.40625 Z M 7.296875 -37.40625 "/></g></g></g><g fill="#ffffff" fill-opacity="1"><g transform="translate(564.087641, 602.74125)"><g><path d="M 21.875 -33.984375 C 26.113281 -33.984375 29.046875 -32.722656 30.671875 -30.203125 C 32.296875 -27.691406 33.109375 -24.210938 33.109375 -19.765625 L 33.109375 -3.796875 C 33.109375 -2.722656 32.753906 -1.820312 32.046875 -1.09375 C 31.335938 -0.363281 30.441406 0 29.359375 0 C 28.285156 0 27.394531 -0.363281 26.6875 -1.09375 C 25.976562 -1.820312 25.625 -2.722656 25.625 -3.796875 L 25.625 -19.765625 C 25.625 -22.046875 25.144531 -23.84375 24.1875 -25.15625 C 23.226562 -26.46875 21.585938 -27.125 19.265625 -27.125 C 16.847656 -27.125 14.953125 -26.425781 13.578125 -25.03125 C 12.210938 -23.632812 11.53125 -21.878906 11.53125 -19.765625 L 11.53125 -3.796875 C 11.53125 -2.722656 11.175781 -1.820312 10.46875 -1.09375 C 9.757812 -0.363281 8.867188 0 7.796875 0 C 6.710938 0 5.816406 -0.363281 5.109375 -1.09375 C 4.398438 -1.820312 4.046875 -2.722656 4.046875 -3.796875 L 4.046875 -29.546875 C 4.046875 -30.628906 4.398438 -31.535156 5.109375 -32.265625 C 5.816406 -32.992188 6.710938 -33.359375 7.796875 -33.359375 C 8.867188 -33.359375 9.757812 -32.992188 10.46875 -32.265625 C 11.175781 -31.535156 11.53125 -30.628906 11.53125 -29.546875 L 11.53125 -28.484375 C 12.65625 -29.984375 14.117188 -31.273438 15.921875 -32.359375 C 17.734375 -33.441406 19.71875 -33.984375 21.875 -33.984375 Z M 21.875 -33.984375 "/></g></g></g><g fill="#ffffff" fill-opacity="1"><g transform="translate(602.173349, 602.74125)"><g><path d="M 31.671875 -33.984375 C 32.753906 -33.984375 33.644531 -33.628906 34.34375 -32.921875 C 35.050781 -32.210938 35.40625 -31.296875 35.40625 -30.171875 L 35.40625 -2.4375 C 35.40625 2.632812 33.835938 6.382812 30.703125 8.8125 C 27.566406 11.25 23.585938 12.46875 18.765625 12.46875 C 17.515625 12.46875 15.796875 12.257812 13.609375 11.84375 C 11.429688 11.425781 9.890625 11.007812 8.984375 10.59375 C 6.941406 9.726562 5.921875 8.523438 5.921875 6.984375 C 5.921875 6.691406 5.984375 6.359375 6.109375 5.984375 C 6.359375 5.066406 6.785156 4.367188 7.390625 3.890625 C 7.992188 3.410156 8.648438 3.171875 9.359375 3.171875 C 9.765625 3.171875 10.15625 3.234375 10.53125 3.359375 C 10.695312 3.398438 11.722656 3.785156 13.609375 4.515625 C 15.503906 5.242188 17.222656 5.609375 18.765625 5.609375 C 21.835938 5.609375 24.132812 4.992188 25.65625 3.765625 C 27.175781 2.546875 27.9375 0.8125 27.9375 -1.4375 L 27.9375 -4.421875 C 27.019531 -3.140625 25.632812 -1.976562 23.78125 -0.9375 C 21.9375 0.101562 19.953125 0.625 17.828125 0.625 C 14.921875 0.625 12.269531 -0.109375 9.875 -1.578125 C 7.488281 -3.054688 5.609375 -5.101562 4.234375 -7.71875 C 2.867188 -10.34375 2.1875 -13.316406 2.1875 -16.640625 C 2.1875 -19.972656 2.859375 -22.957031 4.203125 -25.59375 C 5.554688 -28.226562 7.40625 -30.285156 9.75 -31.765625 C 12.101562 -33.242188 14.710938 -33.984375 17.578125 -33.984375 C 19.703125 -33.984375 21.675781 -33.546875 23.5 -32.671875 C 25.332031 -31.796875 26.8125 -30.734375 27.9375 -29.484375 L 27.9375 -30.171875 C 27.9375 -31.253906 28.285156 -32.160156 28.984375 -32.890625 C 29.691406 -33.617188 30.585938 -33.984375 31.671875 -33.984375 Z M 18.765625 -6.234375 C 21.546875 -6.234375 23.816406 -7.21875 25.578125 -9.1875 C 27.347656 -11.164062 28.234375 -13.648438 28.234375 -16.640625 C 28.234375 -19.640625 27.347656 -22.132812 25.578125 -24.125 C 23.816406 -26.125 21.546875 -27.125 18.765625 -27.125 C 15.984375 -27.125 13.71875 -26.125 11.96875 -24.125 C 10.226562 -22.132812 9.359375 -19.640625 9.359375 -16.640625 C 9.359375 -13.648438 10.226562 -11.164062 11.96875 -9.1875 C 13.71875 -7.21875 15.984375 -6.234375 18.765625 -6.234375 Z M 18.765625 -6.234375 "/></g></g></g><g fill="#ffffff" fill-opacity="1"><g transform="translate(642.565411, 602.74125)"><g><path d="M 7.359375 -0.0625 C 6.148438 -0.0625 5.222656 -0.382812 4.578125 -1.03125 C 3.929688 -1.675781 3.609375 -2.597656 3.609375 -3.796875 L 3.609375 -4.859375 C 3.609375 -6.066406 3.929688 -6.992188 4.578125 -7.640625 C 5.222656 -8.285156 6.148438 -8.609375 7.359375 -8.609375 L 8.171875 -8.609375 C 9.367188 -8.609375 10.289062 -8.285156 10.9375 -7.640625 C 11.582031 -6.992188 11.90625 -6.066406 11.90625 -4.859375 L 11.90625 -3.796875 C 11.90625 -2.597656 11.582031 -1.675781 10.9375 -1.03125 C 10.289062 -0.382812 9.367188 -0.0625 8.171875 -0.0625 Z M 7.359375 -0.0625 "/></g></g></g><g fill="#ffffff" fill-opacity="1"><g transform="translate(659.021508, 602.74125)"><g><path d="M 7.359375 -0.0625 C 6.148438 -0.0625 5.222656 -0.382812 4.578125 -1.03125 C 3.929688 -1.675781 3.609375 -2.597656 3.609375 -3.796875 L 3.609375 -4.859375 C 3.609375 -6.066406 3.929688 -6.992188 4.578125 -7.640625 C 5.222656 -8.285156 6.148438 -8.609375 7.359375 -8.609375 L 8.171875 -8.609375 C 9.367188 -8.609375 10.289062 -8.285156 10.9375 -7.640625 C 11.582031 -6.992188 11.90625 -6.066406 11.90625 -4.859375 L 11.90625 -3.796875 C 11.90625 -2.597656 11.582031 -1.675781 10.9375 -1.03125 C 10.289062 -0.382812 9.367188 -0.0625 8.171875 -0.0625 Z M 7.359375 -0.0625 "/></g></g></g><path fill="#172342" d="M 579.46875 158.597656 C 557.273438 153.515625 557.273438 153.515625 555.429688 132.214844 C 550.273438 78.5 506 37.996094 452.449219 37.996094 C 412.28125 37.996094 375.308594 61.792969 358.261719 98.558594 C 350.199219 116.085938 348.339844 122.597656 331.277344 115.796875 C 320.90625 111.675781 311.152344 112.371094 311.152344 112.371094 C 290.640625 112.371094 273.964844 129.050781 273.964844 149.5625 C 273.964844 152.960938 274.65625 156.738281 276.109375 161.066406 C 284.664062 182.101562 283.261719 184.421875 262.863281 196.144531 C 241.875 208.378906 229.335938 229.863281 229.335938 253.671875 C 229.335938 290.585938 259.371094 320.609375 296.277344 320.621094 L 564.015625 320.621094 L 564.015625 320.609375 C 609.132812 320.609375 645.828125 283.917969 645.828125 238.796875 C 645.824219 199.683594 617.921875 165.953125 579.46875 158.597656 Z M 579.46875 158.597656 " fill-opacity="1" fill-rule="evenodd"/><g clip-path="url(#695ca7725a)"><path fill="#ffffff" d="M 570.125 121.917969 C 563.609375 54.054688 507.097656 0.800781 437.53125 0.800781 C 383.695312 0.800781 337.59375 32.757812 316.355469 78.601562 C 309.953125 76.570312 303.292969 75.175781 296.226562 75.175781 C 259.265625 75.175781 229.289062 105.15625 229.289062 142.109375 C 229.289062 149.460938 230.761719 156.402344 232.949219 163.003906 C 204.195312 179.765625 184.660156 210.566406 184.660156 246.226562 C 184.660156 299.625 227.953125 342.910156 281.351562 342.910156 L 281.351562 342.921875 L 549.089844 342.921875 L 549.089844 342.910156 C 610.71875 342.910156 660.644531 292.984375 660.644531 231.347656 C 660.644531 176.949219 621.667969 131.769531 570.125 121.917969 M 549.09375 313.164062 L 549.09375 313.179688 L 281.351562 313.179688 C 244.445312 313.164062 214.414062 283.136719 214.414062 246.230469 C 214.414062 222.417969 226.949219 200.929688 247.941406 188.703125 C 268.335938 176.976562 269.734375 174.65625 261.179688 153.621094 C 259.738281 149.289062 259.039062 145.507812 259.039062 142.109375 C 259.039062 121.597656 275.714844 104.921875 296.226562 104.921875 C 296.226562 104.921875 305.980469 104.226562 316.355469 108.351562 C 333.414062 115.148438 335.273438 108.640625 343.335938 91.105469 C 360.378906 54.34375 397.363281 30.546875 437.527344 30.546875 C 491.078125 30.546875 535.347656 71.046875 540.503906 124.769531 C 542.347656 146.066406 542.347656 146.066406 564.542969 151.152344 C 602.996094 158.5 630.902344 192.226562 630.902344 231.351562 C 630.90625 276.46875 594.210938 313.164062 549.09375 313.164062 " fill-opacity="1" fill-rule="evenodd"/></g><path fill="#ffffff" d="M 258.167969 265.445312 C 258.167969 265.953125 258.117188 266.460938 258.015625 266.960938 C 257.917969 267.464844 257.769531 267.949219 257.574219 268.421875 C 257.378906 268.894531 257.136719 269.34375 256.855469 269.769531 C 256.570312 270.195312 256.246094 270.585938 255.886719 270.949219 C 255.523438 271.308594 255.132812 271.632812 254.707031 271.917969 C 254.28125 272.199219 253.832031 272.441406 253.359375 272.636719 C 252.886719 272.832031 252.402344 272.980469 251.898438 273.078125 C 251.398438 273.179688 250.894531 273.230469 250.382812 273.230469 C 249.871094 273.230469 249.363281 273.179688 248.863281 273.078125 C 248.363281 272.980469 247.875 272.832031 247.402344 272.636719 C 246.929688 272.441406 246.480469 272.199219 246.054688 271.917969 C 245.632812 271.632812 245.238281 271.308594 244.875 270.949219 C 244.515625 270.585938 244.191406 270.195312 243.910156 269.769531 C 243.625 269.34375 243.386719 268.894531 243.1875 268.421875 C 242.992188 267.949219 242.847656 267.464844 242.746094 266.960938 C 242.648438 266.460938 242.597656 265.953125 242.597656 265.445312 C 242.597656 264.933594 242.648438 264.425781 242.746094 263.925781 C 242.847656 263.421875 242.992188 262.9375 243.1875 262.464844 C 243.386719 261.992188 243.625 261.542969 243.910156 261.117188 C 244.191406 260.695312 244.515625 260.300781 244.875 259.9375 C 245.238281 259.578125 245.632812 259.253906 246.054688 258.972656 C 246.480469 258.6875 246.929688 258.445312 247.402344 258.25 C 247.875 258.054688 248.363281 257.910156 248.863281 257.808594 C 249.363281 257.707031 249.871094 257.660156 250.382812 257.660156 C 250.894531 257.660156 251.398438 257.707031 251.898438 257.808594 C 252.402344 257.910156 252.886719 258.054688 253.359375 258.25 C 253.832031 258.445312 254.28125 258.6875 254.707031 258.972656 C 255.132812 259.253906 255.523438 259.578125 255.886719 259.9375 C 256.246094 260.300781 256.570312 260.695312 256.855469 261.117188 C 257.136719 261.542969 257.378906 261.992188 257.574219 262.464844 C 257.769531 262.9375 257.917969 263.421875 258.015625 263.925781 C 258.117188 264.425781 258.167969 264.933594 258.167969 265.445312 Z M 258.167969 265.445312 " fill-opacity="1" fill-rule="nonzero"/><path fill="#ffffff" d="M 305.8125 179.316406 C 305.785156 179.316406 305.785156 179.332031 305.753906 179.332031 C 270.867188 179.355469 242.59375 207.644531 242.59375 242.535156 C 242.59375 246.648438 245.925781 249.972656 250.03125 249.972656 C 254.132812 249.972656 257.46875 246.648438 257.46875 242.535156 L 257.46875 242.523438 C 257.46875 215.835938 279.113281 194.191406 305.796875 194.191406 L 305.808594 194.191406 C 309.910156 194.191406 313.246094 190.863281 313.246094 186.753906 C 313.246094 182.640625 309.914062 179.316406 305.8125 179.316406 " fill-opacity="1" fill-rule="evenodd"/></svg>